<svg width="235" height="67" viewBox="0 0 235 67" fill="none" xmlns="http://www.w3.org/2000/svg">
<path d="M13.7188 46.0938C13.4062 46.0938 13.25 45.5938 13.25 44.5625C13.25 43.2188 13.5312 42 13.9688 40.9062C14.4062 39.8125 14.875 39.3125 15.4375 39.3125C15.875 39.3125 16.0938 39.6875 16.0938 40.5312C16.0938 41.8125 15.75 43.0938 15.0625 44.4375C14.6875 45.1875 14.2188 45.7812 13.7188 46.0938ZM8.78125 34C7.8125 34 7.125 33.5625 6.6875 32.7188C6.21875 31.875 5.96875 31.125 5.96875 30.4062C5.96875 28.1875 6.6875 25.1562 8.09375 21.4062C9.28125 18.0625 10.8438 15.6875 12.6875 14.2812C12.6875 15.4375 12.1875 19.0312 11.1562 24.9688C10.125 30.9375 9.375 33.9375 8.78125 34ZM12.5 66.1875C13 66.1875 13.5312 66 13.9688 65.625C14.2188 65.375 14.3438 65.0938 14.3438 64.7812C14.3438 64.4062 14.2188 64.0312 14.0312 63.625C13.125 61.7188 12.6875 59.8438 12.6875 58.125C12.6875 56.0938 13.7812 54.2188 15.875 52.5625C18 50.9688 19.5312 49.2188 20.625 47.375C21.7188 45.5938 22.2188 43.9688 22.2188 42.5625C22.2188 39.6875 20.3125 37.5312 16.4688 36.1875C15.375 35.7188 14.8125 35.1562 14.8125 34.4375V33.6875C15.875 26.5625 16.8438 21.4688 17.6875 18.25C18.5625 14.5938 19.9062 12.125 21.7188 10.8438C21.8438 10.7812 21.9062 10.625 21.9062 10.4375C21.9062 10.1875 21.7812 9.8125 21.5938 9.375C21.125 8.34375 20.9375 7.3125 20.9375 6.28125C20.9375 5.78125 21 4.8125 21.125 3.40625C21.125 2.71875 20.9375 2.125 20.5625 1.5625C19.9062 0.71875 19.0938 0.28125 18.125 0.28125C16.8438 0.28125 16.0938 1.09375 15.75 2.78125C15.5625 3.78125 15.1875 4.5 14.5938 4.8125C12.25 6.15625 9.8125 8.21875 7.4375 10.9688C5.0625 13.7188 3.28125 16.5312 2.1875 19.3438C1.03125 22.1562 0.46875 24.6562 0.46875 26.7812C0.46875 27.8438 0.59375 28.875 0.78125 29.9062C1.5 33.0312 3.65625 35.5938 7.4375 37.5938C8.46875 38.1562 8.96875 38.875 8.96875 39.8125C8.96875 44.5625 8.59375 48.3438 7.8125 51.0938C7.125 53.5938 5.46875 55.125 2.78125 55.6875C1.4375 56.0312 0.65625 56.2812 0.46875 56.5312C0.28125 56.7812 0.21875 56.9688 0.21875 57.1562C0.21875 57.4375 0.40625 57.6875 0.71875 57.9375C1.4375 58.5 2.375 58.8438 3.59375 58.8438C4.0625 58.8438 4.5625 58.7812 5 58.5625C5.65625 58.375 6.15625 58.25 6.59375 58.25C7.8125 58.25 8.53125 59.2812 8.59375 61.25C8.65625 63.3125 9.5625 64.8438 11.4062 65.875C11.7812 66.0625 12.1875 66.1875 12.5 66.1875Z" fill="white"/>
<path d="M36.8688 34.0625C36.4 34.0625 36.025 33.875 35.7125 33.5C33.775 31.5625 31.6187 30.0312 29.1812 28.8125C27.8375 28.125 27.1187 27.4688 27.1187 26.7812C27.1187 26.3125 27.4 25.75 27.9625 25.0938C30.9625 21.6562 34.8688 19.6562 39.6813 19.1562C41.025 19.1562 41.65 19.7812 41.65 21C41.3375 24.2812 40.4313 27.3438 39.025 30.3438L37.5563 33.4375C37.3688 33.875 37.1813 34.0625 36.8688 34.0625ZM31.8687 52.3125C31.6812 52.3125 31.4312 52.25 31.2125 52.0625C30.9625 51.9062 30.8375 51.2812 30.8375 50.0625C30.8375 48.2812 30.9625 46.4062 31.3062 44.4375C31.9937 39.875 32.8375 37.5938 33.775 37.5938C34.5563 37.5938 34.9938 38.1562 35.1188 39.25C35.2438 40.3438 35.3375 41.2188 35.3375 41.9375C35.3375 45.3125 34.7438 48.2188 33.65 50.5C33.0875 51.7188 32.4312 52.3125 31.8687 52.3125ZM33.3375 57.2812C34.5563 57.2812 35.525 56.9062 36.2125 56.0938C38.275 53.9688 39.5563 49.875 40.0563 43.7812C40.3063 40.2812 41.275 36.9375 42.9938 33.75C45.8688 28.1875 47.3688 24.3438 47.3688 22.1562C47.3688 20.1875 46.65 18.7188 45.1813 17.75C43.5875 16.5938 41.525 16.0312 39.025 16.0312C35.1188 16.0312 31.4312 17.1562 27.9 19.4688C24.9 21.4688 23.15 22.875 22.8375 23.75C22.525 24.7188 22.3375 25.375 22.3375 25.8125C22.3375 27.2812 23.6812 28.8125 26.3687 30.2812C28.5875 31.5 29.6812 32.5938 29.6812 33.5C29.6812 33.8125 29.6187 34.0625 29.4312 34.375C28.3375 36.3125 27.4625 38.5312 26.7437 41.0938C26.0562 43.6562 25.7125 45.9062 25.7125 47.875C25.7125 48.7812 25.775 49.6875 25.8375 50.5C26.2437 53.25 27.7125 55.25 30.275 56.4688C31.4312 57.0312 32.4313 57.2812 33.3375 57.2812Z" fill="white"/>
<path d="M64.5188 53.5312C65.8 53.5312 66.425 53.0625 66.425 52.25C66.425 51.7812 66.3625 51.2812 66.175 50.7188C65.9875 50.1875 65.925 49.4375 65.925 48.4062C66.1125 46.0938 66.8938 43.0938 68.3625 39.3125C69.175 37.1875 69.8313 35.5938 70.3938 34.5C70.7375 33.9375 70.925 33.2812 70.9875 32.5938C70.9875 32.0312 70.7375 31.5625 70.2063 31.125C69.05 30.0938 68.1125 29.5938 67.3313 29.5312C66.8938 29.5312 66.425 29.6562 65.9875 29.9062C59.7688 33.625 56.2687 35.4688 55.3625 35.4688C54.8625 35.4688 54.6125 35.4062 54.6125 35.2188C54.6125 34.7812 57.925 30.4062 64.5813 22.1562C65.0188 21.5938 65.3 20.9375 65.3625 20.3125C65.3625 19.5312 64.9563 18.8438 64.2688 18.25C63.675 17.8125 62.9875 17.5625 62.2687 17.5C61.5812 17.5 60.9875 17.8125 60.55 18.4375C55.8 24.5312 51.1437 30.5312 46.4562 36.625C45.8312 37.4688 45.4562 38.3438 45.3937 39.1875C45.3937 40.1562 45.8312 41.0938 46.7375 41.9375C47.55 42.8438 48.5812 43.3438 49.8 43.4062C50.7062 43.4062 51.5812 43.2188 52.4875 42.8438C54.7375 41.9375 56.7062 40.8438 58.4875 39.5C60.3 38.1562 61.4562 37.5312 61.9562 37.5312C62.2062 37.5312 62.3312 37.7812 62.3312 38.2188C62.3312 38.5312 62.2062 39.25 61.8937 40.2188C61.05 43.0312 60.6125 45.25 60.6125 46.9375C60.6125 48.9062 61.3312 50.7188 62.675 52.375C63.2375 53.0625 63.8 53.4688 64.5188 53.5312Z" fill="white"/>
<path d="M97.9125 59.4688C99.3812 59.4062 100.662 58.7188 101.819 57.5C107.381 51.5312 110.131 44.75 110.131 37.25C110.131 32.9688 107.975 30.8125 103.694 30.8125C101.819 30.8125 99.6 31.625 96.975 33.2812C96.0687 33.875 95.4125 34.125 95.1 34.125C94.9125 34.125 94.7875 33.75 94.7875 32.9688C94.7875 31.5 95.8187 25.2188 97.9125 14.1562V12.875C97.7875 11.0312 96.5062 10.125 94.1312 10.125C92.6625 10.125 91.85 11.0938 91.6 13C91.0062 17.375 90.3187 21.7188 89.5375 26C88.0687 34 87.2875 39.5 87.1625 42.375C86.975 45.3125 86.9125 47.0625 86.9125 47.625C86.9125 51.6562 87.7562 53.6562 89.35 53.6562C91.1937 53.6562 92.1625 52.4375 92.2875 50.0625C92.6 43.7188 95.8187 38.5938 101.819 34.7188C102.412 34.3125 103.037 34.125 103.756 34.125C104.319 34.125 104.569 34.9062 104.569 36.375C104.131 43.4688 101.631 49.8125 97.1625 55.375C96.6937 55.9375 96.2562 56.2812 95.8812 56.2812C95.4125 56.3438 95.1625 56.3438 94.975 56.3438C94.6625 56.3438 94.35 56.2812 94.0062 56.2188C93.6937 56.1562 93.3187 56.1562 92.9437 56.1562C92.475 56.2188 92.2875 56.4062 92.2875 56.7812C92.225 57.1562 92.225 57.4375 92.225 57.5C92.225 58.8438 93.3812 59.4688 95.7562 59.4688H97.9125Z" fill="white"/>
<path d="M115.812 27.8438C116.594 27.8438 117.156 27.4062 117.562 26.5625C119.719 21.1875 120.812 18.0625 120.812 17.0938C120.75 16.2188 120.062 15.4375 118.562 14.8125C118.125 14.5938 117.75 14.5312 117.312 14.5312C116.344 14.5938 115.688 15 115.375 15.8125L115.062 16.7188C113.719 20.125 113 22.5938 113 24.1562V25.4375C113.062 26.7812 113.719 27.5312 114.938 27.7812L115.812 27.8438ZM113.781 53.6562C114.875 53.5938 115.438 53.3125 115.5 53C115.562 52.6875 115.562 52.3125 115.562 51.9688C115.562 51.5312 115.5 51.1562 115.438 50.7812C115.312 50.375 115.25 49.9375 115.25 49.5C115.5 43.9062 116.156 38.4062 117.219 32.9688C117.312 32.5312 117.375 32.0938 117.375 31.5625C117.375 29.7188 116.219 28.8125 113.906 28.8125C112.562 28.8125 111.781 29.4688 111.469 30.6875C110.438 35.0938 109.938 39.8125 109.938 45C109.938 46.3438 110 47.75 110.062 49.2188C110.25 52.1875 111.406 53.6562 113.594 53.6562H113.781Z" fill="white"/>
<path d="M125.619 55.875C130.369 55.875 134.462 53 137.869 47.1875C138.181 46.6875 138.306 46.2188 138.306 45.7812C138.306 45.4062 138.181 45.0625 137.869 44.8125C137.525 44.5625 137.275 44.4375 136.962 44.4375C136.431 44.5 135.931 44.6875 135.494 45.125C135.494 45.1875 135.494 45.1875 135.431 45.1875C130.619 49.6875 127.494 51.9062 126.025 51.9062C124.869 51.9062 124.275 50.3125 124.275 47.125C124.275 40.2812 126.775 27.3438 131.775 8.21875C131.962 7.5625 132.025 7 132.025 6.53125C132.025 5.53125 131.525 4.8125 130.494 4.4375C130.056 4.25 129.587 4.1875 129.212 4.1875C127.869 4.1875 127.025 5 126.588 6.59375L121.213 27.2188C119.369 34.125 118.463 39.8125 118.463 44.375C118.463 47.0625 118.775 49.375 119.369 51.2188C120.306 54.3438 122.369 55.875 125.619 55.875Z" fill="white"/>
<path d="M142.706 55.875C147.456 55.875 151.55 53 154.956 47.1875C155.269 46.6875 155.394 46.2188 155.394 45.7812C155.394 45.4062 155.269 45.0625 154.956 44.8125C154.613 44.5625 154.363 44.4375 154.05 44.4375C153.519 44.5 153.019 44.6875 152.581 45.125C152.581 45.1875 152.581 45.1875 152.519 45.1875C147.706 49.6875 144.581 51.9062 143.113 51.9062C141.956 51.9062 141.363 50.3125 141.363 47.125C141.363 40.2812 143.863 27.3438 148.863 8.21875C149.05 7.5625 149.113 7 149.113 6.53125C149.113 5.53125 148.613 4.8125 147.581 4.4375C147.144 4.25 146.675 4.1875 146.3 4.1875C144.956 4.1875 144.113 5 143.675 6.59375L138.3 27.2188C136.456 34.125 135.55 39.8125 135.55 44.375C135.55 47.0625 135.863 49.375 136.456 51.2188C137.394 54.3438 139.456 55.875 142.706 55.875Z" fill="white"/>
<path d="M158.512 27.8438C159.294 27.8438 159.856 27.4062 160.262 26.5625C162.419 21.1875 163.512 18.0625 163.512 17.0938C163.45 16.2188 162.762 15.4375 161.262 14.8125C160.825 14.5938 160.45 14.5312 160.012 14.5312C159.044 14.5938 158.387 15 158.075 15.8125L157.762 16.7188C156.419 20.125 155.7 22.5938 155.7 24.1562V25.4375C155.762 26.7812 156.419 27.5312 157.637 27.7812L158.512 27.8438ZM156.481 53.6562C157.575 53.5938 158.137 53.3125 158.2 53C158.262 52.6875 158.262 52.3125 158.262 51.9688C158.262 51.5312 158.2 51.1562 158.137 50.7812C158.012 50.375 157.95 49.9375 157.95 49.5C158.2 43.9062 158.856 38.4062 159.919 32.9688C160.012 32.5312 160.075 32.0938 160.075 31.5625C160.075 29.7188 158.919 28.8125 156.606 28.8125C155.262 28.8125 154.481 29.4688 154.169 30.6875C153.137 35.0938 152.637 39.8125 152.637 45C152.637 46.3438 152.7 47.75 152.762 49.2188C152.95 52.1875 154.106 53.6562 156.294 53.6562H156.481Z" fill="white"/>
<path d="M167.256 46.5938C167.038 46.0312 166.975 45.4062 166.975 44.5625C166.975 41.75 167.694 38.4688 169.1 34.8438C169.944 32.7188 170.756 31.3125 171.663 30.5312C172.225 31.6875 172.569 33.0312 172.569 34.625C172.569 37.25 171.913 39.875 170.694 42.5C169.725 44.5 168.6 45.9062 167.256 46.5938ZM168.256 52.0625C168.975 52.0625 169.725 51.8438 170.444 51.5312C172.569 50.5 174.225 48.5938 175.506 45.7188C176.788 42.8438 177.475 40.5938 177.538 38.9375C177.6 37.3125 177.6 36.4375 177.6 36.25C177.6 32.9062 176.725 30.4062 174.913 28.6875C174.35 28.125 174.1 27.6562 174.038 27.3438C173.694 25.2188 172.288 24.1562 169.944 24.1562C168.444 24.1562 167.319 24.9062 166.475 26.375C165.069 28.875 163.85 31.8125 162.756 35.2812C161.663 38.75 161.163 41.5 161.163 43.5312C161.163 44.875 161.35 46.0312 161.788 47.125C162.569 49.0312 163.6 50.3125 164.944 51.0312C166.225 51.7188 167.319 52.0625 168.256 52.0625Z" fill="white"/>
<path d="M183.25 51.6562C184.531 51.6562 185.688 50.7188 186.781 48.7812C191.25 40.7812 193.625 36.75 193.812 36.75C193.875 36.75 193.938 36.875 193.938 37.125C193.938 37.4688 193.875 38.0312 193.812 38.8125C193.75 39.625 193.688 41.625 193.688 44.875C193.75 47.25 194.625 49.1562 196.25 50.5C197 51.2188 197.844 51.5312 198.688 51.5312C199.062 51.5312 199.438 51.4062 199.75 51.1562C200.094 50.9688 200.281 50.7188 200.281 50.375C200.281 50.1875 200.219 49.9375 200.156 49.6875C199.812 49.375 199.688 48.1562 199.688 45.9688C199.688 43.5938 200.656 38.3438 202.625 30.2812C202.781 29.7188 202.844 29.1875 202.844 28.75C202.781 26.9062 202.062 25.625 200.656 24.7812C200.094 24.4688 199.438 24.2812 198.812 24.2812C197.594 24.3438 196.438 25.0938 195.219 26.5625C192.844 29.4688 190.281 32.8438 187.469 36.8125C186.906 37.6562 186.438 38.0938 186.25 38.0938C186.062 38.0938 186 37.8438 186 37.4062C186 36.25 186.438 34.25 187.344 31.4375C187.531 30.75 187.656 30.1562 187.656 29.7812C187.594 28.5 186.719 27.5938 184.969 27.0312C184.531 26.9062 184.219 26.8438 183.875 26.8438C182.812 26.9062 182.031 27.7188 181.719 29.4062C180.562 34.7812 179.344 40.1562 178.125 45.5938C178.062 45.9688 178 46.4062 178 47C178.062 48.9062 179.219 50.3125 181.531 51.2812C182.094 51.5312 182.688 51.6562 183.25 51.6562Z" fill="white"/>
<path d="M221.806 53.4688C222.119 53.4688 222.494 53.4062 222.869 53.1875C223.462 52.875 223.712 52.5 223.775 52.0625C223.775 51.5938 223.712 51.1562 223.587 50.7188C223.275 49.8125 223.15 48.4062 223.15 46.4062C223.15 45.3125 223.212 44.3125 223.275 43.2812C223.525 39.5625 223.962 37.5312 224.556 37.0625C225.119 36.625 225.775 36.4375 226.4 36.4375C227.619 36.4375 229.462 36.75 231.962 37.3125L232.431 37.4062C233.9 37.4062 234.587 36.4375 234.587 34.5625C234.587 32.6562 233.775 31.6875 232.087 31.6875C230.556 31.8125 229.275 31.875 228.337 31.875C226.462 31.875 225.494 31.3125 225.494 30.2188C225.494 29.5312 225.9 28.3125 226.65 26.625C227.119 25.75 227.306 24.9688 227.306 24.3438C227.306 22.6875 226.4 21.6562 224.619 21.1875C224.306 21.125 224.025 21.0625 223.837 21.0625C222.744 21.0625 221.994 21.8438 221.587 23.4375L219.994 30.3438C219.681 31.8125 218.994 32.6562 217.962 32.9062C216.619 33.2812 215.275 33.6875 213.931 34.125C211.556 34.8438 209.431 35.4062 207.525 35.7812C206.181 36.0625 205.525 36.625 205.525 37.4688C205.525 38.5312 205.931 39.4375 206.681 40.2188C207.212 40.7188 207.837 40.9688 208.556 40.9688C210.15 40.9688 212.056 40.4062 214.244 39.3125C215.337 38.75 216.212 38.4688 216.806 38.4688C217.556 38.4688 217.962 39.0625 217.962 40.2188C217.962 40.7188 217.9 41.375 217.712 42.125C217.369 43.4688 217.244 44.875 217.244 46.2188L217.306 47.5625C217.369 49.375 218.212 51.0312 219.744 52.5C220.462 53.125 221.15 53.4688 221.806 53.4688Z" fill="white"/>
</svg>
