<svg width="32" height="36" viewBox="0 0 32 36" fill="none" xmlns="http://www.w3.org/2000/svg">
<path d="M5.59375 32.9062H5.28125C4.84375 32.9062 4.25 32.7188 3.625 32.4062C1.5625 31.1875 0.4375 29.4688 0.21875 27.2188C0.6875 21.1562 1.3125 15.9062 2.28125 11.4688C2.96875 8.40625 3.625 5.34375 4.125 2.1875C4.3125 1.3125 4.90625 0.78125 5.875 0.65625C8.375 0.90625 9.625 1.75 9.84375 3.15625C9.84375 3.9375 9.78125 4.6875 9.5625 5.53125C7.71875 12.625 6.5 19.6875 6 26.6562C6.0625 28.0625 6.25 29.0938 6.5625 29.6562C6.8125 30.2812 6.9375 30.875 7.03125 31.4375C7.03125 32.2812 6.5625 32.7812 5.59375 32.9062Z" fill="white"/>
<path d="M18.6187 31.25C19.8375 31.125 21.0562 30.0312 22.2125 28.0625C23.3375 26.0625 24.3062 23.625 25.15 20.875C25.9 18.125 26.3062 16.0312 26.3062 14.5C26.3062 12.25 25.3375 10.4688 23.4 9.125C23.025 8.84375 22.65 8.71875 22.3375 8.71875C20.9937 8.71875 19.3687 12.8125 17.525 21.0312C16.9 23.7812 16.5562 26 16.5562 27.75C16.5562 30.0938 17.275 31.25 18.6187 31.25ZM19.0562 35.75C18.025 35.75 17.025 35.5312 15.9937 35.0938C13.3687 34 11.9625 31.9062 11.775 28.75L11.7125 26.4688C11.7125 19.0938 13.4937 12.1875 17.15 5.71875C17.9625 4.3125 18.8062 3.53125 19.775 3.46875C20.8062 3.46875 21.7437 3.9375 22.7125 4.75C23.6187 5.65625 24.6187 6.375 25.8375 6.9375C26.8062 7.4375 27.775 8.03125 28.5875 8.71875C30.275 10.0625 31.0875 12.5 31.0875 16.0312C31.0875 18.5312 30.525 21.5938 29.4312 25.25C28.3375 28.875 26.3687 31.9062 23.4937 34.125C22.0562 35.2188 20.5875 35.75 19.0562 35.75Z" fill="white"/>
</svg>
