<svg width="37" height="37" viewBox="0 0 37 37" fill="none" xmlns="http://www.w3.org/2000/svg">
<path d="M5.59375 33.9062H5.28125C4.84375 33.9062 4.25 33.7188 3.625 33.4062C1.5625 32.1875 0.4375 30.4688 0.21875 28.2188C0.6875 22.1562 1.3125 16.9062 2.28125 12.4688C2.96875 9.40625 3.625 6.34375 4.125 3.1875C4.3125 2.3125 4.90625 1.78125 5.875 1.65625C8.375 1.90625 9.625 2.75 9.84375 4.15625C9.84375 4.9375 9.78125 5.6875 9.5625 6.53125C7.71875 13.625 6.5 20.6875 6 27.6562C6.0625 29.0625 6.25 30.0938 6.5625 30.6562C6.8125 31.2812 6.9375 31.875 7.03125 32.4375C7.03125 33.2812 6.5625 33.7812 5.59375 33.9062Z" fill="white"/>
<path d="M18.3062 36.6875C15.8062 36.3438 14.5875 35.4062 14.5875 33.7812C14.5875 33.4688 14.7125 33.2812 14.9625 33.0938C15.15 32.9688 15.5562 32.9062 15.9937 32.8438C16.4312 32.8438 16.775 32.7812 17.0875 32.5625C19.775 30.7812 21.8062 28.4688 23.275 25.6562C23.4937 25.2188 23.6187 24.9062 23.6187 24.5625C23.6187 23.875 23.0875 23.5625 22.15 23.5625C17.3375 23.5625 14.0562 22.0312 12.275 18.9375C11.8375 18.1875 11.5875 17.3438 11.5875 16.375C11.5875 15.5 11.775 14.5938 12.2125 13.625C12.5875 12.6875 12.9312 11.7812 13.2437 10.9375C13.9312 9.03125 14.775 7.21875 15.8062 5.5C16.8375 3.84375 18.3687 2.5 20.4 1.46875C21.4937 0.90625 22.4 0.625 23.15 0.625C23.6812 0.625 24.2437 0.78125 24.9 1.03125C25.4625 1.34375 26.1187 1.46875 26.6812 1.46875C27.4625 1.46875 28.2125 1.40625 28.9937 1.28125C29.7437 1.15625 30.5875 1.09375 31.5562 1.09375C32.4312 1.09375 33.525 1.40625 34.8063 1.96875C36.025 2.5625 36.65 3.3125 36.65 4.21875C36.65 5.1875 36.2125 5.625 35.3688 5.625C35.0563 5.625 34.6813 5.5625 34.3688 5.4375C33.775 5.25 32.775 5.125 31.4 5.125C28.4625 5.125 25.525 6.15625 22.65 8.125C19.7125 10.125 17.8375 13 17.025 16.7188L16.9625 17.4688C16.9625 18.4375 17.65 19 19.1187 19.0625C20.3375 19.125 21.8687 19.4688 23.6187 19.9062C27.9 21.0625 30.0562 23.0312 30.0562 25.7812C30.0562 26.875 29.2437 28.4062 27.65 30.2812C26.2437 31.9375 24.6187 33.4062 22.9 34.6875C21.1187 35.9688 19.5875 36.5938 18.3062 36.6875Z" fill="white"/>
</svg>
