<svg width="85" height="46" viewBox="0 0 85 46" fill="none" xmlns="http://www.w3.org/2000/svg">
<path d="M5.59375 34.9062C6.5625 34.7812 7.03125 34.2812 7.03125 33.4375C6.9375 32.875 6.8125 32.2812 6.5625 31.6562C6.25 31.0938 6.0625 30.0625 6 28.6562C6.5 21.6875 7.71875 14.625 9.5625 7.53125C9.78125 6.6875 9.84375 5.9375 9.84375 5.15625C9.625 3.75 8.375 2.90625 5.875 2.65625C4.90625 2.78125 4.3125 3.3125 4.125 4.1875C3.625 7.34375 2.96875 10.4062 2.28125 13.4688C1.3125 17.9062 0.6875 23.1562 0.21875 29.2188C0.4375 31.4688 1.5625 33.1875 3.625 34.4062C4.25 34.7188 4.84375 34.9062 5.28125 34.9062H5.59375Z" fill="white"/>
<path d="M17.025 45.0938C17.9625 44.9688 18.4937 44.5938 18.6812 44C18.8062 43.4375 18.8687 42.5312 18.8687 41.375C18.8687 39.5312 19.2437 37.2812 20.0875 34.6562C23.2125 24.6875 27.5875 15.2812 33.15 6.375C33.775 5.34375 34.1188 4.53125 34.1188 3.9375C34.1188 3.5 33.9 2.96875 33.4625 2.53125C32.5563 1.4375 31.4937 0.875 30.275 0.875C29.7437 0.875 29.1812 0.9375 28.5875 1.125C23.6812 2.90625 17.9625 4.0625 11.5875 4.65625C11.2437 4.65625 10.9312 4.65625 10.6187 4.71875C10.1812 4.84375 9.9 5.21875 9.9 5.9375C9.9625 6.875 10.3687 7.65625 11.0562 8.09375C11.775 8.5625 12.525 8.8125 13.3687 8.8125C13.9312 8.8125 14.9 8.6875 16.3687 8.375C19.2437 7.78125 21.2437 7.53125 22.4625 7.53125C24.0562 7.53125 24.8375 7.84375 24.8375 8.5C24.8375 8.75 24.3062 9.90625 23.2125 11.9375C21.3687 15.4688 19.1187 20.5938 16.6187 27.1875C15.275 30.75 14.2125 34.4062 13.4937 38.1875C13.4312 38.6875 13.3687 39.2188 13.3687 39.7188C13.3687 40.8125 13.5562 41.8438 13.9937 42.9062C14.5875 44.4062 15.5562 45.0938 17.025 45.0938Z" fill="white"/>
<path d="M38.3312 33.25C36.9875 33.25 36.2687 32.0938 36.2687 29.75C36.2687 28 36.6125 25.7812 37.2375 23.0312C39.0812 14.8125 40.7062 10.7188 42.05 10.7188C42.3625 10.7188 42.7375 10.8438 43.1125 11.125C45.05 12.4688 46.0187 14.25 46.0187 16.5C46.0187 18.0312 45.6125 20.125 44.8625 22.875C44.0187 25.625 43.05 28.0625 41.925 30.0625C40.7687 32.0312 39.55 33.125 38.3312 33.25ZM38.7687 37.75C40.3 37.75 41.7687 37.2188 43.2062 36.125C46.0812 33.9062 48.05 30.875 49.1437 27.25C50.2375 23.5938 50.8 20.5312 50.8 18.0312C50.8 14.5 49.9875 12.0625 48.3 10.7188C47.4875 10.0312 46.5187 9.4375 45.55 8.9375C44.3312 8.375 43.3312 7.65625 42.425 6.75C41.4562 5.9375 40.5187 5.46875 39.4875 5.46875C38.5187 5.53125 37.675 6.3125 36.8625 7.71875C33.2062 14.1875 31.425 21.0938 31.425 28.4688L31.4875 30.75C31.675 33.9062 33.0812 36 35.7062 37.0938C36.7375 37.5312 37.7375 37.75 38.7687 37.75Z" fill="white"/>
<path d="M71.4812 36.4688C71.7937 36.4688 72.1687 36.4062 72.5437 36.1875C73.1375 35.875 73.3875 35.5 73.45 35.0625C73.45 34.5938 73.3875 34.1562 73.2625 33.7188C72.95 32.8125 72.825 31.4062 72.825 29.4062C72.825 28.3125 72.8875 27.3125 72.95 26.2812C73.2 22.5625 73.6375 20.5312 74.2312 20.0625C74.7937 19.625 75.45 19.4375 76.075 19.4375C77.2937 19.4375 79.1375 19.75 81.6375 20.3125L82.1062 20.4062C83.575 20.4062 84.2625 19.4375 84.2625 17.5625C84.2625 15.6562 83.45 14.6875 81.7625 14.6875C80.2312 14.8125 78.95 14.875 78.0125 14.875C76.1375 14.875 75.1687 14.3125 75.1687 13.2188C75.1687 12.5312 75.575 11.3125 76.325 9.625C76.7937 8.75 76.9812 7.96875 76.9812 7.34375C76.9812 5.6875 76.075 4.65625 74.2937 4.1875C73.9812 4.125 73.7 4.0625 73.5125 4.0625C72.4187 4.0625 71.6687 4.84375 71.2625 6.4375L69.6687 13.3438C69.3562 14.8125 68.6687 15.6562 67.6375 15.9062C66.2937 16.2812 64.95 16.6875 63.6063 17.125C61.2313 17.8438 59.1063 18.4062 57.2 18.7812C55.8563 19.0625 55.2 19.625 55.2 20.4688C55.2 21.5312 55.6063 22.4375 56.3563 23.2188C56.8875 23.7188 57.5125 23.9688 58.2313 23.9688C59.825 23.9688 61.7313 23.4062 63.9188 22.3125C65.0125 21.75 65.8875 21.4688 66.4812 21.4688C67.2312 21.4688 67.6375 22.0625 67.6375 23.2188C67.6375 23.7188 67.575 24.375 67.3875 25.125C67.0437 26.4688 66.9187 27.875 66.9187 29.2188L66.9812 30.5625C67.0437 32.375 67.8875 34.0312 69.4187 35.5C70.1375 36.125 70.825 36.4688 71.4812 36.4688Z" fill="white"/>
</svg>
