<svg width="64" height="20" viewBox="0 0 64 20" fill="none" xmlns="http://www.w3.org/2000/svg">
<path d="M37.5656 14.0342C37.7027 14.0342 37.8398 14.1253 37.8398 14.3076C37.8398 14.4899 37.7484 14.5811 37.5656 14.5811C37.4285 14.5811 37.2914 14.4899 37.2914 14.3076C37.2914 14.1253 37.4285 14.0342 37.5656 14.0342ZM42.3181 15.7204C42.3181 15.4925 42.3638 15.2647 42.5009 15.0824L42.7294 14.8545C42.7751 14.9001 42.8665 14.9456 42.9579 15.0368C43.1863 15.2191 43.3234 15.447 43.3691 15.7204C43.4148 16.0394 43.3234 16.3128 43.1406 16.5407L43.0036 16.6774L42.9579 16.723L42.9122 16.6774C42.7751 16.5407 42.638 16.404 42.5466 16.2217C42.5009 16.085 42.4095 15.9938 42.4095 15.8571C42.3181 15.8115 42.3181 15.766 42.3181 15.7204ZM42.0896 15.8115C42.0896 15.9483 42.0896 16.0394 42.1353 16.1761C42.1353 16.2217 42.181 16.2673 42.181 16.3128C42.2724 16.4951 42.3638 16.6774 42.5009 16.8141C42.7294 17.042 42.9579 17.3155 43.1406 17.5889C43.1863 17.68 43.232 17.8168 43.232 17.9535V18.0902C43.3234 18.0902 43.4148 17.8623 43.4605 17.7712C43.5062 17.4977 43.4148 17.2243 43.1863 17.042L43.0949 16.9509L43.0492 16.8597L43.1863 16.7686L43.2777 16.6774L43.3691 16.5863L43.4148 16.5407C43.5062 16.4496 43.5519 16.3584 43.5976 16.2217C43.689 15.9483 43.689 15.6748 43.5519 15.4014C43.5062 15.3558 43.4605 15.2647 43.4148 15.2191C43.3234 15.0824 43.1863 14.9912 43.0949 14.9001L43.0492 14.8545L42.9122 14.7634L42.7751 14.6266C42.7294 14.6722 42.638 14.7178 42.5923 14.7634L42.5009 14.8545L42.3638 14.9912L42.3181 15.0368C42.1353 15.2647 42.0439 15.5381 42.0896 15.8115ZM31.625 14.9912C31.6707 14.9456 31.625 14.9456 31.8535 14.9456H32.7674C32.676 15.0368 32.6303 15.1735 32.6303 15.3102C32.6303 15.447 32.6303 15.6292 32.5846 15.766L32.5389 16.2217C32.4932 16.5863 32.4932 16.9964 32.5846 17.361C32.5846 17.4066 32.5846 17.4066 32.6303 17.4522C32.7674 17.7712 33.0416 18.0902 33.4072 18.0902L33.2701 17.9535C33.2244 17.8623 33.133 17.8168 33.0873 17.7256L32.9502 17.4522C32.8588 17.2699 32.8588 17.0876 32.8588 16.8597C32.8588 16.723 32.9959 15.6292 32.9959 15.447C32.9959 15.3102 33.0416 15.1279 33.0873 14.9912C33.0873 14.9456 33.133 14.9456 33.133 14.9001C33.1787 14.8089 33.2701 14.7634 33.3615 14.6722C33.2701 14.6722 33.2244 14.6722 33.133 14.7178C32.7217 14.7634 32.2648 14.7634 31.8535 14.7634C31.7621 14.7634 31.7164 14.7634 31.6707 14.8089C31.625 14.8545 31.625 14.9001 31.625 14.9912ZM40.3074 16.8597H40.5816V16.3128H41.3128V16.8597H41.5869V14.9001H41.3128V16.1305H40.6273V14.9001H40.3531L40.3074 16.8597ZM35.3722 16.9053H35.5549V15.5381C35.6006 15.6292 35.6463 15.6748 35.692 15.7204L35.9662 15.9938L36.2404 16.2673C36.2861 16.3128 36.3318 16.3584 36.3775 16.4496C36.4689 16.5407 36.5146 16.6774 36.606 16.8141C36.606 16.8141 36.606 16.8597 36.6517 16.8597C36.6974 16.9053 36.7431 16.9053 36.7431 16.9053V14.9001H36.5603V16.3128C36.4689 16.1305 36.3318 15.9938 36.1947 15.9027L36.149 15.8571L36.0576 15.6748L35.9662 15.5837L35.8748 15.4925C35.7834 15.4014 35.692 15.2647 35.6463 15.1735L35.5549 14.9912L35.5092 14.9001C35.4635 14.9001 35.4179 14.8545 35.3722 14.8545V16.9053ZM38.2968 15.2647C38.2968 15.4925 38.5252 15.6748 38.6623 15.766L38.7537 15.8115C38.7994 15.8115 38.7994 15.8571 38.8451 15.8571C39.0279 15.9483 39.4849 16.1761 39.4849 16.404C39.4849 16.4496 39.4849 16.4951 39.4392 16.5407C39.165 16.7686 38.7537 16.7686 38.5252 16.4951L38.4795 16.4496C38.3882 16.3128 38.3882 16.2217 38.2054 16.2217C38.1597 16.2217 38.114 16.1761 38.2054 16.3584C38.2968 16.5407 38.4339 16.6774 38.6166 16.7686C38.8908 16.9053 39.2107 16.9053 39.4849 16.7686L39.5763 16.723C39.7591 16.6319 39.8505 16.4951 39.8505 16.3128C39.8505 16.0394 39.5763 15.8115 39.3478 15.7204C39.1193 15.6292 38.9822 15.5381 38.8451 15.447L38.708 15.3558C38.6623 15.3102 38.6166 15.2647 38.6166 15.1735V15.0368C38.708 14.9001 38.9822 14.9001 39.165 15.0368L39.2564 15.1279L39.3021 15.1735L39.4392 15.3102H39.5306C39.4392 14.9456 39.0736 14.7178 38.708 14.8089C38.6166 14.8089 38.5709 14.8545 38.4795 14.9001C38.3882 15.0368 38.2968 15.1279 38.2968 15.2647Z" fill="white"/>
<path d="M34.5938 15.4464V16.3121H33.8168C33.8168 16.1754 34.091 15.9932 34.1824 15.8565C34.2738 15.7653 34.3652 15.6742 34.4566 15.6286L34.5023 15.5831L34.5938 15.4464ZM33.3598 16.6766C33.3598 16.7677 33.3598 16.8133 33.4055 16.9044H33.7711C33.7711 16.8589 33.7711 16.8589 33.7254 16.8133C33.7254 16.6766 33.7254 16.5399 33.7711 16.4488H34.5938V16.9044H34.8222V14.854C34.8222 14.8085 34.7765 14.854 34.7765 14.854C34.7308 14.8996 34.6851 14.9452 34.6395 15.0363C34.5938 15.1274 34.5023 15.2186 34.4566 15.2641C34.3652 15.3553 34.2738 15.4919 34.1367 15.5831L34.091 15.6286L34.0453 15.6742L33.8168 15.902H33.7711C33.634 16.0387 33.5426 16.1754 33.4512 16.3577C33.4055 16.4488 33.3598 16.5855 33.3598 16.6766ZM37.4269 14.8996H37.701V16.9044H37.4269V14.8996ZM30.4809 16.8589L29.7041 16.9044V16.8589C29.7955 16.8133 29.8412 16.6766 29.7498 16.4032L29.7041 16.221H28.8358L28.7901 16.3577C28.6987 16.6311 28.7444 16.7677 28.8815 16.8589V16.9044H28.2875V16.8589C28.4703 16.7677 28.6073 16.5855 28.6987 16.3577L29.4299 14.6262H29.4756L30.2067 16.3577C30.2067 16.5855 30.2981 16.7677 30.4809 16.8589ZM29.6584 16.1298L29.2472 15.173L28.8815 16.1298H29.6584ZM46.8405 15.3552C46.8405 15.8109 46.4749 16.0387 46.0179 16.0387H45.8808V15.9932C46.2007 15.9932 46.4749 15.7198 46.4749 15.4464V15.3552C46.5206 15.0819 46.2921 14.8085 46.0179 14.7629H45.6981V16.4944C45.6981 16.7222 45.7437 16.8133 45.8351 16.8589V16.9044H45.1954V16.8589C45.2867 16.8133 45.3325 16.7222 45.3325 16.4944V15.0363C45.3325 14.8085 45.2867 14.7173 45.1954 14.6718V14.6262H45.9722C46.5206 14.7173 46.8405 14.9452 46.8405 15.3552ZM48.6227 16.7677C48.5313 16.9044 48.4398 16.95 48.3027 16.95C48.1657 16.95 48.0286 16.8589 48.0286 16.7222C47.8915 16.8589 47.7088 16.95 47.526 16.95C47.2975 16.95 47.069 16.8133 47.069 16.5855V16.5399C47.069 16.221 47.3888 16.0387 47.8001 16.0387H48.0286V15.8109C48.0286 15.5375 47.9829 15.3552 47.7087 15.3552C47.6173 15.3552 47.4803 15.4008 47.4346 15.4919C47.526 15.5375 47.5717 15.6742 47.526 15.7653C47.4803 15.8109 47.4346 15.8565 47.3432 15.8565C47.2518 15.8565 47.1604 15.7653 47.1604 15.6742C47.1604 15.4464 47.4345 15.3097 47.7544 15.3097C48.2571 15.3097 48.3941 15.5375 48.3941 15.8565V16.5855C48.3941 16.7222 48.4399 16.7677 48.577 16.7677H48.6227ZM48.0286 16.5855V16.0843H47.9372C47.6173 16.0843 47.4803 16.221 47.4803 16.4488C47.4803 16.5855 47.5716 16.7222 47.7087 16.7222H47.7544C47.8458 16.7677 47.9829 16.6766 48.0286 16.5855ZM50.1306 15.4464C50.1306 15.5831 50.0392 15.6742 49.9021 15.6742C49.7651 15.6742 49.6737 15.5831 49.7194 15.4464C49.5823 15.4919 49.491 15.5831 49.3996 15.6742V16.5399C49.3996 16.7677 49.4452 16.8589 49.5823 16.9044V16.95H48.8969V16.9044C48.9883 16.8589 49.034 16.7677 49.034 16.5399V15.6742C49.034 15.5831 48.9883 15.4464 48.8969 15.4008V15.3552L49.3996 15.173V15.5375C49.5367 15.3552 49.7194 15.173 49.9021 15.173C50.0392 15.2186 50.1306 15.3097 50.1306 15.4464ZM51.3189 16.7222C51.1818 16.8589 51.0447 16.95 50.8619 16.95C50.5877 16.95 50.4963 16.8133 50.4963 16.4944V15.4008H50.2677V15.3097C50.4962 15.2186 50.6791 15.0363 50.7705 14.7629H50.8619V15.2186L51.3189 15.173L51.2732 15.3552H50.8619V16.4032C50.8619 16.6311 50.9076 16.7222 51.0904 16.7222H51.3189ZM52.187 16.8589L51.5472 16.9044V16.8589C51.6386 16.8133 51.6843 16.7222 51.6843 16.4944V15.6742C51.6843 15.5831 51.6386 15.4464 51.5472 15.4008V15.3552L52.0499 15.173V15.5375C52.187 15.3552 52.4613 15.2186 52.6898 15.173C53.0096 15.173 53.1466 15.4008 53.1466 15.6742V16.4488C53.1466 16.6766 53.1923 16.7677 53.2837 16.8133V16.8589H52.6441V16.8133C52.7355 16.7677 52.7812 16.6766 52.7812 16.4488V15.7198C52.7812 15.4919 52.6898 15.4008 52.4613 15.4008C52.3242 15.4008 52.1413 15.4464 52.0499 15.5831V16.4944C52.0499 16.7222 52.0956 16.8133 52.187 16.8589ZM55.0659 16.5399C54.9288 16.7677 54.6547 16.9044 54.3805 16.95C53.9693 16.95 53.6036 16.6311 53.6036 16.221V16.1298C53.5579 15.6742 53.8779 15.3097 54.3349 15.2641H54.4262C54.7918 15.2186 55.0659 15.4919 55.1116 15.8109V16.0387H54.0149C54.0149 16.5399 54.2891 16.7677 54.6089 16.7677C54.746 16.7222 54.9288 16.6311 55.0659 16.5399ZM53.9692 15.9476L54.746 15.902C54.746 15.5831 54.6547 15.3552 54.3805 15.3552C54.1064 15.3552 53.9692 15.6286 53.9692 15.9476ZM56.6196 15.4464C56.6196 15.5831 56.5283 15.6742 56.3912 15.6742C56.2541 15.6742 56.1627 15.5831 56.2084 15.4464C56.0713 15.4919 55.9798 15.5831 55.8885 15.6742V16.5399C55.8885 16.7677 55.9342 16.8589 56.0713 16.9044V16.95H55.3858V16.9044C55.4772 16.8589 55.5229 16.7677 55.5229 16.5399V15.6742C55.5229 15.5831 55.4772 15.4464 55.3858 15.4008V15.3552L55.8885 15.2186V15.5831C56.0255 15.4008 56.2084 15.2186 56.3912 15.2186C56.5283 15.2186 56.6196 15.3097 56.6196 15.4464ZM56.9852 16.4488C57.0766 16.4488 57.168 16.4944 57.168 16.6311C57.168 16.6766 57.1223 16.7222 57.0766 16.7677C57.168 16.8589 57.2595 16.8589 57.3965 16.8589C57.625 16.8589 57.7621 16.7677 57.7621 16.5855C57.7621 16.1298 56.8481 16.2665 56.8481 15.6742C56.8481 15.4008 57.1224 15.2186 57.4422 15.2186C57.7621 15.2186 57.9906 15.3552 57.9906 15.5375C57.9906 15.6286 57.8992 15.7198 57.8078 15.7198C57.7164 15.7198 57.625 15.6742 57.625 15.5375C57.625 15.4919 57.6707 15.4464 57.7164 15.4008C57.625 15.3552 57.5336 15.3097 57.4422 15.3097C57.2595 15.3097 57.168 15.4008 57.168 15.5375C57.168 15.9476 58.082 15.8109 58.082 16.4032C58.082 16.7222 57.8078 16.95 57.4879 16.9044H57.4422C57.1224 16.9044 56.8481 16.7677 56.8481 16.5855C56.8024 16.5399 56.8938 16.4488 56.9852 16.4488ZM58.9959 16.8589L58.3561 16.9044V16.8589C58.4475 16.8133 58.4932 16.7222 58.4932 16.4944V14.8996C58.4932 14.8085 58.4475 14.6718 58.3561 14.6262V14.5807L58.8588 14.3984V15.4919C58.9958 15.3097 59.2701 15.173 59.4986 15.173C59.8185 15.173 59.9099 15.4008 59.9099 15.6742V16.4488C59.9099 16.6766 59.9556 16.7677 60.047 16.8133V16.8589H59.4072V16.8133C59.4986 16.7677 59.5443 16.6766 59.5443 16.4488V15.7198C59.5443 15.4919 59.4529 15.4008 59.2701 15.4008C59.133 15.4008 58.9502 15.4464 58.8588 15.5831V16.4944C58.8588 16.7222 58.9045 16.8133 58.9959 16.8589ZM61.0979 16.8589L60.4581 16.9044V16.8589C60.5495 16.8133 60.5952 16.7222 60.5952 16.4944V15.6742C60.5952 15.5831 60.5495 15.4464 60.4581 15.4008V15.3552L60.9608 15.173V16.4944C60.9608 16.7222 61.0065 16.8133 61.0979 16.8589ZM61.0065 14.7629C61.0065 14.8996 60.9151 14.9907 60.778 14.9907C60.6409 14.9907 60.5495 14.8996 60.5495 14.7629C60.5495 14.6262 60.6409 14.5351 60.778 14.5351C60.8694 14.5351 61.0065 14.6262 61.0065 14.7629ZM63.1544 16.0387C63.2001 16.4944 62.9258 16.9044 62.4688 16.95H62.3774C62.2403 16.95 62.1033 16.9044 61.9663 16.8589V17.3145C61.9663 17.5423 62.0118 17.6335 62.1489 17.679V17.7246H61.4636V17.679C61.555 17.6335 61.6007 17.5423 61.6007 17.3145V15.6742C61.6007 15.5831 61.555 15.4464 61.4636 15.4008V15.3552L61.9663 15.173V15.4919C62.1033 15.3097 62.286 15.173 62.4688 15.173C62.9258 15.2186 63.1544 15.5831 63.1544 16.0387ZM62.743 16.1298C62.743 15.7653 62.5602 15.4464 62.286 15.4464C62.1489 15.4464 62.0576 15.4919 61.9206 15.5831V16.4944C61.9662 16.7222 62.1032 16.8589 62.286 16.8589C62.4688 16.8589 62.7887 16.6311 62.743 16.1298ZM20.2906 10.7988H20.2449L20.1077 10.8899C19.7421 11.1633 19.2852 11.3456 18.8282 11.3456C17.9599 11.3456 17.3659 10.6166 17.3659 9.52301C17.3659 8.42947 17.9599 7.70044 18.8282 7.70044C19.2852 7.70044 19.6964 7.8827 20.0163 8.15608L20.1535 8.24721H20.1992C20.1992 8.24721 20.2449 8.24721 20.2449 8.20165L20.382 7.33592V7.29036L20.3363 7.24479C19.8793 6.92584 19.3766 6.78915 18.8282 6.83472C17.4116 6.83472 16.4062 7.92826 16.4062 9.52301C16.4062 11.1178 17.3659 12.2113 18.8282 12.2113C19.3766 12.2113 19.925 12.0291 20.4277 11.7557L20.4734 11.7101C20.4734 11.7101 20.5191 11.6645 20.4734 11.6645L20.3363 10.8444C20.3363 10.7988 20.3363 10.7988 20.2906 10.7988ZM24.4489 6.88028H23.6264C23.6264 6.88028 23.5807 6.88028 23.5807 6.92584L21.5243 12.0746V12.1202H22.4383C22.4383 12.1202 22.4839 12.1202 22.4839 12.0746L23.0324 10.7077H24.9973L25.5913 12.1657L25.637 12.2113L26.5054 12.0291H26.5511V11.9835L24.5403 6.97141C24.5403 6.92584 24.5403 6.88028 24.4489 6.88028C24.4946 6.88028 24.4946 6.88028 24.4489 6.88028ZM24.6775 9.84196H23.3522L23.9919 8.11052L24.6775 9.84196ZM30.5266 9.97866C31.1664 9.75083 31.5777 9.1585 31.532 8.5206C31.532 7.56374 30.7551 6.92584 29.567 6.92584H28.1047C28.1047 6.92584 28.059 6.92584 28.059 6.97141V12.0291C28.059 12.0746 28.059 12.0746 28.1047 12.0746H28.9729C29.0186 12.0746 29.0187 12.0746 29.0187 12.0291V10.1153H29.4756L30.938 12.1202H30.9837L31.8975 11.9379C31.8975 11.9379 31.9432 11.9379 31.9432 11.8924V11.8468L30.5266 9.97866ZM30.5723 8.56616C30.5723 9.06737 30.2067 9.34075 29.567 9.34075H29.0187V7.83713H29.567C30.2524 7.83713 30.5723 8.06495 30.5723 8.56616ZM35.599 6.88028H34.7765C34.7765 6.88028 34.7308 6.88028 34.7308 6.92584L32.7201 12.0746V12.1202H33.634C33.634 12.1202 33.6797 12.1202 33.6797 12.0746L34.2281 10.7077H36.1931L36.7415 12.1657L36.7872 12.2113L37.6554 12.0291H37.701V11.9835L35.6904 6.97141C35.6904 6.92584 35.6447 6.92584 35.599 6.88028ZM35.8275 9.84196H34.5023L35.142 8.11052L35.8275 9.84196ZM42.225 6.97141H38.2038C38.2038 6.97141 38.1581 6.97141 38.1581 7.01697V7.79157C38.1581 7.83713 38.1581 7.83713 38.2038 7.83713H39.7575V12.0746C39.7575 12.1202 39.7575 12.1202 39.8032 12.1202H40.6714C40.7171 12.1202 40.717 12.1202 40.717 12.0746V7.83713H42.3621V7.79157L42.2707 7.01697C42.2707 6.97141 42.2707 6.97141 42.225 6.97141ZM46.5206 11.2545H44.6927V7.01697C44.6927 6.97141 44.6927 6.97141 44.647 6.97141H43.8245C43.7788 6.97141 43.7788 6.97141 43.7788 7.01697V12.0746C43.7788 12.1202 43.7788 12.1202 43.8245 12.1202H46.7034V12.0746L46.5663 11.3C46.5206 11.3 46.5206 11.2545 46.5206 11.2545ZM50.4506 6.88028H49.628C49.628 6.88028 49.5823 6.88028 49.5823 6.92584L47.526 12.0746V12.1202H48.4398C48.4398 12.1202 48.4855 12.1202 48.4855 12.0746L49.034 10.7077H50.999L51.5472 12.1657C51.5472 12.1657 51.5472 12.2113 51.5929 12.2113L52.4156 12.0291H52.4613V11.9835L50.4506 6.97141V6.88028ZM49.3539 9.84196L49.9935 8.11052L50.6334 9.84196H49.3539ZM57.8992 6.97141H57.0766C57.0766 6.97141 57.0309 6.97141 57.0309 7.01697V10.3887L54.7003 6.97141H53.8321C53.7864 6.97141 53.7864 6.97141 53.7864 7.01697V12.0746C53.7864 12.1202 53.7864 12.1202 53.8321 12.1202H54.6546C54.7003 12.1202 54.7003 12.1202 54.7003 12.0746V8.5206L57.1223 12.0746H57.8992C57.9449 12.0746 57.9449 12.0746 57.9449 12.0291V7.01697C57.9449 7.01697 57.9449 6.97141 57.8992 6.97141C57.8992 6.92584 57.8992 6.92584 57.8992 6.97141ZM63.1087 11.2545H60.8237V9.88753H62.7887V9.84196L62.6516 9.0218L62.6059 8.97624H60.778V7.79157H63.0173C63.063 7.79157 63.063 7.746 63.063 7.746V7.01697C63.063 6.97141 63.063 6.97141 63.0173 6.97141H59.8642C59.8185 6.97141 59.8185 6.97141 59.8185 7.01697V12.0746C59.8185 12.1202 59.8185 12.1202 59.8642 12.1202H63.063C63.1087 12.1202 63.1087 12.1202 63.1087 12.0746V11.2545Z" fill="white"/>
<path d="M7.31164 16.8135L8.63685 17.4514L9.96207 16.8135L8.63685 15.4466L7.31164 16.8135ZM10.5104 14.3075L9.55079 15.3555L11.2416 16.0845L11.9727 14.3986L10.5104 14.3075ZM6.76328 14.3075L5.30097 14.3986L6.03213 16.0845L7.72291 15.3555L6.76328 14.3075ZM12.7039 15.72L14.1205 15.2188L14.6232 13.8063H12.7039V15.72ZM2.69625 13.8063L3.15322 15.2188L4.56982 15.6744V13.7607L2.69625 13.8063ZM8.63685 13.214L7.58582 13.6696L8.63685 14.7176L9.68789 13.6696L8.63685 13.214ZM11.1045 12.2115L10.7389 13.3051H12.2012V11.847L11.1045 12.2115ZM5.07249 13.2595H6.53479L6.16922 12.166L5.07249 11.8015V13.2595ZM3.01612 10.6168L2.28497 12.3027L3.97576 13.0317L4.06715 11.5736L3.01612 10.6168ZM3.65588 9.75107L4.70691 10.799L5.20958 9.75107L4.70691 8.70309L3.65588 9.75107ZM0.914062 9.75107L1.55382 11.0724L2.92473 9.7055L1.55382 8.38414L0.914062 9.75107ZM2.28497 7.1539L3.01612 8.83978L4.11285 7.88293L4.02146 6.42487L2.28497 7.1539ZM10.7389 6.19705L11.1045 7.29059L12.2012 7.65511V6.19705H10.7389ZM5.11819 7.65511L6.21491 7.29059L6.58049 6.19705H5.11819V7.65511ZM7.63152 5.78697L8.68255 6.28818L9.73358 5.78697L8.68255 4.73899L7.63152 5.78697ZM12.7496 5.69584H14.6232L14.1205 4.28334L12.7039 3.78214L12.7496 5.69584ZM3.19891 4.28334L2.69625 5.69584H4.61552V3.78214L3.19891 4.28334ZM9.55079 4.10109L10.5561 5.19463L12.0184 5.1035L11.2873 3.41762L9.55079 4.10109ZM5.34667 5.1035L6.80897 5.19463L7.76861 4.10109L6.07782 3.37206L5.34667 5.1035ZM8.68255 2.00513L7.31164 2.64303L8.63685 4.00996L10.0078 2.68859L8.68255 2.00513Z" fill="white"/>
</svg>
