<svg width="52" height="20" viewBox="0 0 52 20" fill="none" xmlns="http://www.w3.org/2000/svg">
<path d="M16.0442 5.24682C16.1755 5.18187 16.2268 5.14241 16.3879 5.16427C16.3879 5.16427 16.5691 5.20038 16.7381 5.51847C16.9168 5.85386 16.7851 6.57683 16.8003 7.1611C16.8163 7.77876 16.7893 8.39065 16.9037 8.82225C17.0218 8.8438 17.1098 8.69872 17.1759 8.62648C17.5864 8.17242 18.1383 7.81518 19.027 7.97028C20.2277 8.20975 19.9946 10.0133 20.0523 11.5023C20.5271 11.5597 20.7999 11.8249 20.698 12.3206C20.6227 12.6924 19.7938 13.4312 19.4679 13.7641C19.3107 13.9241 19.1648 14.1162 18.9651 14.1508C18.5513 14.2252 18.2197 13.8755 18.2039 13.5274C18.1884 13.1844 18.4226 12.9549 18.5188 12.6654C18.6238 12.3491 18.615 11.7063 18.6047 11.2288C18.5916 10.7159 18.6235 10.0955 18.3759 9.86089C18.1763 9.67331 17.7384 9.64782 17.4432 9.80383C17.0221 10.0269 16.8952 10.7945 16.9147 11.5679C16.9204 11.7855 16.9574 12.2222 17.0339 12.3752C17.2056 12.713 17.6632 12.6311 17.78 13.0618C18.0349 13.9996 17.111 13.871 16.3661 13.8949C15.5435 13.9207 14.791 14.0673 14.6642 13.5365C14.474 12.7446 15.2641 12.8293 15.4394 12.4274C15.5654 12.1367 15.4953 11.6422 15.4819 11.2185C15.4437 9.86847 15.4176 8.58156 15.3457 7.30709C15.1612 7.28342 14.944 7.3508 14.7913 7.28767C14.602 7.17264 14.5252 7.04789 14.5362 6.75621C14.5577 6.31399 15.004 6.08331 15.3081 5.8144C15.4322 5.70362 15.562 5.58342 15.6776 5.49085C15.8278 5.36853 15.895 5.35214 16.0442 5.24682Z" fill="#FEFFFE"/>
<path d="M48.6291 11.8759C48.6604 12.1111 48.6992 12.3478 48.5997 12.6662C48.3269 13.5765 47.3997 14.2321 46.2161 13.9094C46.0189 13.856 45.8787 13.7413 45.6933 13.6417C45.5179 13.8606 45.4666 14.0066 45.2467 14.0657C44.4781 14.2688 44.3491 13.4596 44.1795 12.9285C44.0873 12.638 43.965 12.3569 43.9238 12.1521C43.82 11.63 44.1929 11.3059 44.6362 11.3614C44.9851 11.4054 45.1626 11.7256 45.4269 12.01C45.6739 12.2768 45.9818 12.5439 46.2567 12.621C46.6384 12.7287 47.0726 12.5903 47.0781 12.2134C47.0841 11.6324 46.1156 11.4658 45.7048 11.3113C45.2048 11.1231 44.6456 10.7875 44.4083 10.3337C43.5709 8.73689 45.5768 7.29792 46.8499 8.3144C47.0632 8.1165 47.2022 7.90859 47.4789 7.89888C48.0669 7.87794 48.1416 8.33777 48.3209 8.8668C48.4222 9.1688 48.6416 9.53909 48.5833 9.85687C48.5345 10.1182 48.3021 10.2554 48.0742 10.2524C47.7753 10.2481 47.4919 9.94792 47.2589 9.74244C47.0013 9.51481 46.7037 9.30447 46.4445 9.21493C46.0765 9.08836 45.7139 9.19581 45.7194 9.56428C45.7239 10.0702 46.6424 10.1913 47.1184 10.3832C47.613 10.5838 48.1519 10.9435 48.3919 11.3259C48.5096 11.5141 48.5423 11.501 48.6291 11.8759Z" fill="#FEFFFE"/>
<path d="M24.5011 11.1491C24.0332 11.0908 23.407 11.1557 23.0247 11.38C22.8387 11.4887 22.6175 11.7096 22.6363 11.9692C22.6584 12.2608 22.8966 12.398 23.116 12.3986C23.3967 12.3971 23.5332 12.1246 23.8224 12.1789C24.1276 12.2362 24.3236 12.8912 24.1124 13.3174C23.7389 14.0747 22.4078 14.0989 21.737 13.5675C21.3586 13.2667 21.0167 12.66 21.0773 11.8757C21.1165 11.394 21.3874 10.9578 21.6902 10.6974C22.2928 10.1769 23.2844 10.0169 24.489 9.96321C24.5854 9.43388 24.259 9.10426 23.9046 9.09849C23.1554 9.08817 22.6636 10.1599 21.8541 9.8412C21.6839 9.77412 21.6153 9.64846 21.4915 9.4527C21.0066 8.44107 22.5732 7.98003 23.4719 7.85741C24.7047 7.68805 25.8486 8.133 25.9875 9.23781C26.0916 10.0664 25.9363 11.1123 26.0082 11.8383C26.0179 11.9479 26.0488 12.1036 26.0895 12.1898C26.1981 12.4259 26.5127 12.453 26.625 12.7474C26.7391 13.0448 26.6365 13.4625 26.4354 13.6009C26.2391 13.7362 25.1811 13.7708 24.9025 13.66C24.2735 13.4115 24.654 11.9664 24.5011 11.1491Z" fill="#FEFFFE"/>
<path d="M30.4034 11.1491C29.9356 11.0908 29.3093 11.1557 28.927 11.38C28.741 11.4887 28.5198 11.7096 28.5386 11.9692C28.5608 12.2608 28.799 12.398 29.0183 12.3986C29.299 12.3971 29.4355 12.1246 29.7247 12.1789C30.0299 12.2362 30.2259 12.8912 30.0148 13.3174C29.6413 14.0747 28.3102 14.0989 27.6393 13.5675C27.2609 13.2667 26.919 12.66 26.9797 11.8757C27.0188 11.394 27.2898 10.9578 27.5926 10.6974C28.1952 10.1769 29.1867 10.0169 30.3913 9.96321C30.4878 9.43388 30.1613 9.10426 29.8069 9.09849C29.0578 9.08817 28.5659 10.1599 27.7564 9.8412C27.5862 9.77412 27.5176 9.64846 27.3938 9.4527C26.909 8.44107 28.4755 7.98003 29.3742 7.85741C30.607 7.68805 31.7509 8.133 31.8899 9.23781C31.9939 10.0664 31.8386 11.1123 31.9105 11.8383C31.9202 11.9479 31.9512 12.1036 31.9918 12.1898C32.1004 12.4259 32.4151 12.453 32.5274 12.7474C32.6414 13.0448 32.5389 13.4625 32.3377 13.6009C32.1414 13.7362 31.0834 13.7708 30.8049 13.66C30.1759 13.4115 30.5564 11.9664 30.4034 11.1491Z" fill="#FEFFFE"/>
<path d="M40.9603 7.91353C42.5554 7.80669 43.5078 9.02288 43.5946 10.4782C43.7029 12.2089 43.0041 13.4682 41.9149 13.8661C41.3032 14.0898 40.5037 14.0024 40.0315 13.7401C39.0269 13.1811 38.3788 11.6914 38.7581 9.97016C38.9899 8.92515 39.7394 7.99578 40.9603 7.91353ZM40.548 9.61019C39.9442 10.2033 40.0592 12.093 40.8062 12.3637C42.2456 12.8848 42.5007 10.0172 41.5608 9.48696C41.4351 9.41715 41.2998 9.39469 41.1457 9.39408C40.8939 9.3959 40.6854 9.47543 40.548 9.61019Z" fill="#FEFFFE"/>
<path d="M34.3724 16.1264C34.0493 16.2147 33.7759 16.1934 33.4464 16.106C33.268 16.0432 33.1302 15.9922 32.9794 15.9163C32.8872 15.8714 32.7877 15.8089 32.7051 15.75C32.0713 15.2811 31.865 13.9341 32.6969 13.6694C33.6861 13.354 33.7246 14.3751 34.2004 14.7187C34.481 14.6479 34.5705 14.4683 34.6961 14.2233C34.7923 14.0345 34.9886 13.7019 34.9783 13.4776C34.971 13.3298 34.786 13.0111 34.708 12.8299C34.4176 12.1606 34.1533 11.5891 33.8563 10.9299C33.5938 10.3471 33.3123 9.60045 32.8784 9.15671C32.7066 8.98098 32.5161 8.80858 32.4839 8.63466C32.3343 7.81486 33.2874 7.9733 34.0177 7.97846C34.5014 7.98119 35.0548 7.90137 35.3069 8.11352C35.4893 8.26771 35.5129 8.54998 35.4371 8.80099C35.3415 9.12241 34.9258 9.18919 34.8967 9.50272C34.8667 9.81322 35.1458 10.2806 35.2441 10.5046C35.3928 10.8476 35.4856 11.1815 35.6877 11.4246C35.847 11.1205 35.9435 10.8476 36.0743 10.4928C36.1556 10.273 36.4399 9.76557 36.4223 9.51941C36.395 9.16157 35.8167 9.09419 35.817 8.57578C35.8182 7.8613 36.6756 8.00396 37.3735 8.01367C37.7652 8.02034 38.2671 7.99606 38.4643 8.17726C38.606 8.30686 38.6466 8.62161 38.5735 8.84561C38.4834 9.10997 38.193 9.29026 37.9864 9.54188C37.7901 9.78469 37.6718 10.077 37.5577 10.4084C37.3604 10.9839 37.1065 11.6893 36.8792 12.3549C36.3838 13.8063 35.992 15.3897 34.7975 15.9506C34.6622 16.0144 34.6343 16.0429 34.3724 16.1264Z" fill="#FEFFFE"/>
<path d="M10.8858 5.48245C11.0627 5.45514 11.2884 5.41173 11.6644 5.443C12.1347 5.48215 13.1171 5.77322 13.6141 6.60364C14.0268 7.29293 14.122 8.52309 13.6797 9.26518C13.1111 10.2182 11.6923 10.6702 10.4034 10.2547C10.2128 10.1924 10.0541 10.1211 9.87815 10.0282C9.71855 9.94476 9.55774 9.83003 9.37356 9.78056C9.05346 11.3786 9.41695 13.2434 10.2696 13.9445C10.7799 14.3631 11.6628 14.3436 12.0964 13.885C12.3325 13.637 12.4745 13.2828 12.5154 12.8907C12.5607 12.4555 12.5048 12.0345 12.6493 11.6569C12.8049 11.2569 13.2609 10.96 13.7813 11.1965C14.1848 11.3807 14.3551 11.8518 14.4106 12.3595C14.576 13.8938 13.659 15.2697 12.3786 15.7268C11.8276 15.9237 11.103 16.0011 10.465 15.8931C9.24188 15.6843 8.37047 14.6578 7.90533 13.4137C7.43989 12.1647 7.35857 10.3509 7.77061 8.98686C7.2636 8.67727 6.7927 8.34553 6.09241 8.34431C5.50014 8.34431 5.06292 8.74526 5.06413 9.31769C5.06444 9.67645 5.25165 10.0501 5.59693 10.058C5.95375 10.0677 6.21287 9.74231 6.59882 9.83731C6.83943 9.8965 7.01693 10.1527 7.07913 10.3745C7.4053 11.5607 6.19922 12.2733 5.09721 12.0235C4.38903 11.8633 3.84409 11.2745 3.578 10.5721C3.49274 10.3439 3.41233 10.1156 3.35832 9.75263C3.35226 9.64003 3.34649 9.52924 3.34073 9.42028C3.32798 9.17686 3.34103 8.95287 3.37562 8.78927C3.41749 8.59745 3.4269 8.57681 3.52308 8.34583C3.82619 7.67718 4.28739 7.08472 5.0429 6.84099C6.29419 6.43944 7.503 6.96392 8.32192 7.41768C8.82863 6.54203 9.28709 6.04275 10.3187 5.6415C10.4783 5.57867 10.5156 5.5817 10.8867 5.48336M11.2781 8.71794C12.0054 8.77136 12.5455 8.22109 12.2515 7.55305C11.9086 6.77544 10.84 6.93964 10.2993 7.53301C10.1254 7.72028 9.99648 7.95703 9.90697 8.17465C10.2759 8.38286 10.7399 8.67757 11.2781 8.71794Z" fill="#FEFFFE"/>
<path d="M48.4447 7.89453C48.2025 7.89635 48.0021 7.68693 48 7.42833C47.9985 7.17004 48.1946 6.95698 48.4386 6.95486C48.6805 6.95243 48.8811 7.16063 48.8845 7.41923C48.8848 7.67752 48.6893 7.8915 48.4447 7.89453ZM48.438 7.0629C48.2513 7.06593 48.1002 7.2274 48.1017 7.42833C48.1026 7.62653 48.2577 7.78649 48.4447 7.78528C48.6301 7.78346 48.7831 7.61956 48.7803 7.42045C48.7779 7.22195 48.6256 7.06199 48.438 7.0629Z" fill="#FEFFFE"/>
<path d="M48.3956 7.38466L48.4368 7.38406C48.4887 7.38345 48.5194 7.35522 48.5188 7.31273C48.5176 7.26781 48.4896 7.24565 48.442 7.24535C48.4168 7.24748 48.4025 7.24748 48.395 7.2499L48.3956 7.38466ZM48.293 7.17554C48.3264 7.17008 48.3746 7.1634 48.4311 7.16401C48.4981 7.16219 48.5461 7.17342 48.5789 7.19982C48.6065 7.22319 48.6217 7.25688 48.6211 7.30241C48.6229 7.36433 48.5819 7.40804 48.5428 7.4226V7.42503C48.5746 7.43869 48.5931 7.46995 48.6041 7.51427C48.618 7.57072 48.6332 7.63416 48.6423 7.65267H48.5361C48.5297 7.63992 48.5176 7.59986 48.5036 7.54037C48.4915 7.47967 48.4705 7.46419 48.4268 7.46388H48.3977L48.3989 7.65601H48.2969L48.293 7.17554Z" fill="#FEFFFE"/>
</svg>
