<svg width="44" height="50" viewBox="0 0 44 50" fill="none" xmlns="http://www.w3.org/2000/svg">
<path id="Vector" d="M40.4415 1.33937C39.0332 3.65535 37.585 5.93551 36.1068 8.19179C28.2864 -1.50187 14.4134 -0.296133 5.0748 5.1476C4.14594 5.68481 4.95495 7.34419 5.88381 6.80698C15.3522 1.29162 26.8981 1.04093 35.0581 9.79148C29.6447 17.969 23.8918 25.8123 18.2886 33.8227C15.8616 30.8382 15.0526 26.0749 14.5732 22.1473C14.2336 19.3538 10.6879 20.5476 11.0275 23.3172C11.7466 29.143 13.3746 35.3269 17.5895 38.8008C18.2187 39.3142 19.3274 39.1709 19.8168 38.4546C25.6896 30.0025 31.7521 21.7414 37.4751 13.158C41.9497 21.4549 38.6337 32.7483 33.1904 39.5649C27.5473 46.6202 18.2886 48.5661 10.618 46.1785C-2.28619 42.1554 1.21952 25.3467 6.92254 15.5933C7.52181 14.5786 6.12352 13.6236 5.53424 14.6264C-0.268656 24.5469 -3.63454 38.383 6.45311 46.1308C14.5033 52.3027 26.3088 48.781 33.2203 42.1315C40.821 34.8135 43.5177 21.634 38.394 11.7613C40.1718 9.0752 41.9097 6.35333 43.5976 3.57178C44.9959 1.26775 41.7998 -0.916909 40.4215 1.35131L40.4415 1.33937Z" fill="#E0DFDF"/>
</svg>
