<svg width="124" height="36" viewBox="0 0 124 36" fill="none" xmlns="http://www.w3.org/2000/svg">
<path fill-rule="evenodd" clip-rule="evenodd" d="M70.5664 5.80506C69.6933 5.80506 68.8524 5.48166 68.2326 4.91032C67.645 4.36592 67.2947 3.63288 67.2785 2.89445C67.2623 2.12367 67.5804 1.30978 68.1463 0.733044C68.6099 0.258721 69.1812 0 69.7633 0C70.5233 0 71.4396 0.377302 72.2212 1.00794C73.0836 1.70864 73.5741 2.59799 73.5741 3.37416C73.5741 4.15032 73.1914 4.82947 72.4907 5.28762C71.9894 5.61641 71.348 5.80506 70.7228 5.81045H70.5611L70.5664 5.80506ZM18.5742 7.2442C18.6982 7.07172 18.8276 6.89385 18.9623 6.72676C19.6199 5.88591 20.3368 5.04507 21.1668 4.36592C21.2585 4.30124 21.3447 4.24734 21.4255 4.19344C21.6789 4.03713 21.9538 3.91855 22.2448 3.85387C22.4173 3.80536 22.5952 3.7838 22.7784 3.77841C22.8377 3.77841 22.9024 3.77841 22.9617 3.77841H45.5082C46.7102 3.81614 52.0301 3.9455 52.3697 2.45246C52.4182 2.23686 52.3481 2.04821 52.2889 1.89729C51.7768 0.549783 49.265 0.334182 47.2546 0.167091C46.5269 0.102411 45.9178 0.0916305 45.5136 0.0916305H12.9147C9.92323 0.0916305 5.97773 -0.598293 4.63561 2.07516C4.54937 2.24764 4.50625 2.40934 4.51164 2.55487C4.55476 3.55203 6.02085 3.77841 7.05034 3.77841H16.6284C16.6284 3.77841 16.6123 3.79458 16.6069 3.80536C15.3025 5.39542 14.176 7.10945 13.1896 8.90972C12.4296 10.3003 11.7397 11.7341 11.0767 13.1786L7.22282 13.0924C3.90796 13.087 2.52272 14.5315 2.15081 15.0759C1.83819 15.5341 1.84358 15.8036 1.87592 15.9868C2.11847 17.2912 5.06142 17.0918 6.65148 17.0918H9.26565C8.92068 17.8302 8.56494 18.5633 8.20381 19.2909C7.35758 20.9672 6.4251 22.6004 5.31475 24.115C5.26085 24.1904 5.13688 24.3521 5.00752 24.5192C4.19902 25.5757 3.80016 26.1039 3.48753 26.4489C3.11023 26.8747 2.73293 27.2897 2.1562 27.6886C0.932662 28.5402 0.0810369 28.427 0.00557652 28.9121C-0.0644939 29.3487 0.539189 29.9308 1.06202 30.0925C1.61719 30.265 2.07535 30.2758 2.78683 30.1842C3.39051 30.1033 3.84867 29.9416 4.11278 29.8392C4.60866 29.6559 4.99674 29.4565 5.2339 29.3056C5.80525 28.9498 6.33347 28.5132 6.8024 28.0335C7.15814 27.6724 7.47077 27.2843 7.78339 26.8909C8.21459 26.3357 8.62962 25.7859 9.0177 25.2092C10.2682 23.355 11.2923 21.3607 12.2517 19.334C12.6075 18.5848 12.9524 17.8302 13.292 17.0756H16.553C16.6608 17.0756 16.7686 17.0756 16.871 17.0594C16.5637 17.9111 16.4991 18.6225 16.4991 19.6143C16.4991 20.3743 16.4991 22.692 18.9946 22.692C20.4877 22.692 22.4281 22.2824 23.8133 21.2798C24.9075 20.4875 25.2686 20.0293 26.1472 18.8867C26.3736 18.5956 26.4544 18.3908 26.7617 17.6685C27.3061 17.9272 27.899 18.0512 28.5889 18.0512C29.2303 18.0512 29.9634 17.9596 30.9982 17.3074C31.0953 17.2481 31.2085 17.1726 31.3378 17.0864L31.3594 17.0756C31.5588 16.9516 31.7582 16.8223 31.9631 16.6821C32.2433 16.4881 32.5074 16.3048 32.7446 16.1162C32.723 16.1647 32.6907 16.2402 32.653 16.3318C32.653 16.3318 32.4697 16.7145 32.3781 17.1241C32.2164 17.8302 32.1355 18.0728 32.1355 18.9244C32.1355 21.0427 33.0087 22.2608 34.5449 22.2608C35.0408 22.2608 35.86 22.0452 36.2535 21.8997C36.2751 21.8943 38.2694 21.1613 39.9565 20.2342C40.5817 21.4254 41.8861 22.0991 43.5516 22.0991C45.0662 22.0991 47.3678 21.2475 49.0441 20.3797L49.0548 20.412C49.6693 21.835 52.3859 22.3578 53.2105 22.3578H54.0244C57.0159 22.153 59.8564 21.4631 62.4383 19.8946L62.5515 19.8407C62.5838 19.8191 62.6593 19.7814 62.7132 19.7598C62.9342 19.6574 63.0851 19.555 63.2576 19.4634C63.3222 20.1695 63.4139 20.8217 63.6888 21.5008C63.8936 21.9967 64.411 22.5896 65.7154 22.5896C67.5804 22.5896 70.4694 21.3014 72.4799 20.3312L72.4961 20.3204C72.5338 20.2988 72.5877 20.2773 72.6308 20.2449L72.6955 20.2126C72.9273 21.2367 73.6334 21.7811 74.7599 21.7811C75.7463 21.7811 77.1045 21.2529 77.9508 20.8756C77.94 21.199 77.913 21.5224 77.8699 21.835C77.843 21.959 77.6166 22.3417 76.6841 23.4682L76.641 23.5221C76.4793 23.7161 76.3446 23.8832 76.2529 24.0126L75.342 25.3493L75.3258 25.3763C74.6736 26.4597 74.167 27.6401 73.7142 29.0954V29.1115C73.4178 30.1842 73.2668 31.2244 73.2668 32.2162C73.2668 32.739 73.3369 33.747 73.7735 34.5878C74.2532 35.5149 75.0294 36 76.0265 36C77.083 36 78.037 35.4179 78.5868 34.8789C80.7913 32.7768 81.0393 28.4971 81.1039 24.2982V24.2875C81.1039 23.9102 81.1039 23.5544 81.1525 23.3334V23.3173C81.2495 22.8483 82.7587 21.4847 83.5564 21.075L85.8256 19.803C86.0035 19.7221 86.1975 19.6359 86.3916 19.5335C86.3916 19.6251 86.37 19.7167 86.3538 19.8191C86.3269 19.997 86.2999 20.1857 86.2999 20.3959C86.2999 21.3715 87.1893 21.8997 88.0301 21.8997C88.7039 21.8997 89.1728 21.6194 89.5124 21.172C89.6687 20.9834 89.9328 20.6546 90.24 20.2342C90.7737 19.5065 91.4959 18.4339 92.4553 17.399C92.6817 17.1511 93.0536 16.7738 93.3986 16.86C93.4094 16.86 93.6034 16.9139 93.6951 17.0864C93.9699 17.5877 92.9728 18.2399 92.7518 19.5766C92.6763 20.0186 92.7195 20.3689 92.8596 20.6815C92.9243 20.8271 93.0159 20.9672 93.1453 21.1074C93.5819 21.5817 94.2556 21.8404 95.1072 21.8404C95.7487 21.8404 96.4008 21.7056 96.9991 21.5655L97.0369 21.5547C97.6837 21.3607 99.5648 20.6546 100.993 19.8245C101.387 19.5928 101.753 19.4418 102.087 19.2586L102.125 19.237C102.287 19.1454 102.47 19.043 102.632 18.9675C102.643 19.0645 102.648 19.0969 102.659 19.1885L102.68 19.3718C102.917 20.8055 104.006 21.8081 105.418 21.8081C107.407 21.8081 109.1 21.0427 110.663 20.1803C110.733 20.1479 110.814 20.0994 110.895 20.0617L110.938 20.0347L110.981 20.0132C112.253 19.3233 112.813 18.4824 113.072 17.9973C113.207 17.7386 113.611 16.9624 113.336 16.666C113.164 16.4773 112.787 16.5582 112.242 16.6821C111.779 16.7899 111.223 16.9678 110.62 17.275L110.582 17.2912C110.474 17.3397 110.383 17.3936 110.323 17.4206L110.307 17.4314C109.084 18.0404 107.779 18.6495 106.394 18.9244L106.281 18.946C106.178 18.9621 106.173 18.9675 106.092 18.9675C105.984 18.9675 105.887 18.9675 105.887 18.504C105.887 16.6552 108.022 11.4322 109.278 10.268L109.315 10.2357C109.315 10.2357 109.337 10.2249 109.358 10.2195L109.402 10.2087C109.747 10.1225 110.178 10.1225 110.609 10.1225L114.549 10.0255C114.835 10.0255 115.12 10.0255 115.406 10.0147C117.368 9.97155 119.233 9.80446 120.99 9.54574C121.605 9.46489 123.523 9.17383 123.583 8.53781C123.61 8.25752 123.276 7.9988 123.011 7.79398C122.219 7.17952 121.314 7.16335 120.942 7.17952H115.665C115.088 7.17952 115.347 7.18491 114.792 7.19569H114.684C114.107 7.20108 113.509 7.21186 112.927 7.21186H112.539C111.973 7.21186 111.391 7.21186 110.835 7.15257C110.97 6.82378 111.105 6.43569 111.105 6.01527C111.105 5.16365 110.582 4.54379 109.86 4.54379C109.024 4.54379 108.119 5.47088 107.838 5.8913C107.725 6.04761 107.628 6.22548 107.526 6.40874C107.429 6.58122 107.132 7.12562 107.003 7.12562C106.475 7.12562 105.936 7.14718 105.424 7.17413C104.928 7.19569 104.41 7.21725 103.909 7.21725C103.909 7.21725 103.774 7.21186 103.629 7.20108C102.071 7.09867 100.939 6.60278 99.8505 6.89385C98.9342 7.1364 98.0933 7.92334 98.1849 8.46773C98.2442 8.83426 98.7186 9.04447 99.0851 9.19C99.9529 9.53496 101.538 10.0362 104.103 10.2734H104.685C104.766 10.2734 104.847 10.268 104.955 10.2572C105.095 10.2464 105.267 10.2357 105.408 10.2411C105.176 11.0226 104.373 12.3917 103.844 13.1678C103.645 13.4643 103.462 13.7661 103.289 14.0518V14.0626C102.756 14.9304 102.249 15.7551 101.516 16.3318L101.505 16.3426C100.988 16.7845 100.341 17.2104 99.581 17.62H99.5702C99.5109 17.6577 99.3492 17.7386 99.2037 17.814L99.1605 17.8356L99.1336 17.8464C98.9881 17.9218 98.8317 17.9973 98.6862 18.0728C97.5651 18.5363 96.665 18.7842 95.9211 18.8166C95.9912 18.6064 96.0667 18.3584 96.1367 18.1644C96.3146 17.62 96.4871 17.1026 96.541 16.8169C96.7135 16.0138 96.8806 15.1621 96.8806 14.3321C96.8806 12.5534 95.6085 12.4078 95.2204 12.4078C94.3526 12.4078 93.749 13.184 93.307 13.75C91.6091 16.2186 90.5365 17.3505 90.0837 17.1403C89.9921 17.0972 89.9328 17.0055 89.8897 16.8654C90.3694 16.3318 91.5875 15.0651 92.2182 14.4345L92.2344 14.4183C94.2933 12.1922 95.4684 9.19 95.4684 6.17158C95.4684 5.54634 95.4414 4.88876 95.2258 4.30124C94.9186 3.43884 94.261 2.96452 93.3824 2.96452C91.4205 2.96452 89.6957 5.64336 89.3669 6.17697C87.6474 8.9744 87.2216 10.931 86.9575 14.0302C86.9413 14.1758 86.9306 14.3267 86.9198 14.4776C86.8659 15.2107 86.8012 15.9707 86.3646 16.3102C85.7555 16.8007 85.1087 17.2373 84.4296 17.5984L84.4026 17.6146C84.3434 17.6577 84.1924 17.7224 84.0415 17.8033L84.0146 17.8194C83.799 17.9272 83.551 18.0512 83.3785 18.1482L83.2168 18.2183C83.0929 18.2668 82.9527 18.3315 82.9312 18.3369L82.8934 18.353C82.7695 18.4016 82.4568 18.574 81.7184 18.9783L81.6429 19.016C81.7184 18.8166 81.7831 18.6172 81.8316 18.4069C81.9502 17.9218 82.1658 17.4529 82.3976 16.957V16.9462C82.6239 16.4504 82.8611 15.9383 83.0174 15.3724V15.3454C83.0497 15.2214 83.0929 15.0813 83.136 14.9358C83.2384 14.5746 83.357 14.1812 83.357 13.7607C83.357 12.9792 83.0875 12.4941 82.8988 12.2084C83.2761 11.8688 83.5456 11.3298 83.5456 10.8879C83.5456 9.93382 82.6563 9.41638 81.8154 9.41638C81.271 9.41638 80.7805 9.59964 80.3116 9.97155C78.7216 11.222 76.5925 13.2595 75.1318 14.925C75.0078 15.0651 74.8838 15.2107 74.7491 15.3562L74.6952 15.4263C74.5928 15.5395 74.485 15.6634 74.3718 15.7928C73.6657 16.6013 72.8141 17.2804 71.8385 17.7278L71.7738 17.7548C71.3049 17.9704 70.8306 18.186 70.6689 18.2506C70.5395 18.2991 70.4047 18.353 70.2592 18.4123C69.1381 18.8597 67.4402 19.5227 66.5347 19.5227C66.4808 19.5227 66.4377 19.5227 66.4053 19.5173C66.4053 19.485 66.3946 19.4257 66.3946 19.3556C66.3946 18.4447 67.036 16.8115 67.478 15.9976V15.9868C67.478 15.9868 67.5103 15.9383 67.5211 15.9114C67.5211 15.9114 67.5642 15.8359 67.6019 15.7604C68.944 13.0007 68.9872 12.009 68.9333 11.7018C68.9171 11.6155 68.874 11.5401 68.8093 11.4808C68.3996 11.0981 67.5157 11.1035 66.9336 11.3244C66.0981 11.6425 65.5591 12.5588 64.4757 14.4022C64.4218 14.4938 64.3248 14.6447 64.1954 14.8657C63.8505 15.4424 63.554 15.9437 63.0689 16.3372L63.042 16.3641C62.7293 16.6606 62.3628 16.9409 61.8669 17.2481L61.619 17.3667C60.9937 17.6631 60.2769 17.9865 59.9966 18.0835C59.5762 18.2021 58.4011 18.5525 57.5872 18.6172C57.598 18.5902 57.6088 18.5633 57.625 18.5309L58.1209 17.4044L58.1316 17.3828C58.4335 16.6175 58.7084 15.7928 58.9563 14.8819C59.1396 14.2997 59.3067 13.6799 59.3067 13.0816C59.3067 12.1869 58.703 11.5778 57.8028 11.5778C57.0752 11.5778 56.2236 12.2192 55.1887 13.0654C54.9946 13.2217 54.8276 13.3619 54.709 13.4427H54.6982C54.0083 13.971 53.2537 14.483 52.5368 14.9735C51.8954 15.4155 51.227 15.8629 50.5856 16.3426C50.0196 16.7738 49.3782 17.178 48.629 17.5823C48.5859 17.6038 48.5104 17.6416 48.4188 17.6955C48.3865 17.7116 48.3434 17.7332 48.3056 17.7494C48.2463 17.7817 48.1763 17.8194 48.1062 17.8518C47.2761 18.2075 46.6024 18.4608 45.9825 18.6549H45.961C45.2926 18.8974 44.7105 19.0106 44.1822 19.0106C43.999 19.0106 43.4384 18.9891 43.3198 18.725C43.4384 18.6118 43.7133 18.4016 44.3709 18.0189L44.3925 18.0081C44.4949 17.9488 44.5865 17.8949 44.6512 17.8518C45.2279 17.4691 45.9717 17.0109 46.5377 16.2294C46.5377 16.2294 47.1845 15.3346 47.4756 13.6637C47.5241 13.3888 47.5348 13.1301 47.5348 13.1301C47.5348 13.1301 47.5456 12.9468 47.5456 12.7959C47.5456 11.6532 47.0174 10.4243 45.8478 10.4243C45.7993 10.4243 45.7561 10.4243 45.6645 10.4351C44.22 10.5914 43.0396 11.2813 43.0396 11.2813C42.0855 11.8365 41.525 12.4941 41.3848 12.645C40.5709 13.5559 40.3068 14.5369 40.0265 15.5772L40.0158 15.6149C40.0158 15.6419 39.9996 15.6688 39.9942 15.7012C39.9888 15.7281 39.9834 15.7497 39.9726 15.782C39.9565 15.8413 39.9403 15.9114 39.9241 15.976C39.8702 16.2024 39.8109 16.4288 39.7624 16.666C39.6816 17.0379 39.6277 17.3882 39.5792 17.717C38.6413 18.1374 37.6495 18.5417 36.6093 18.9298C36.1619 19.0915 35.7253 19.2532 35.2887 19.4041C35.2725 19.2532 35.2618 19.0861 35.2564 18.919C35.2456 18.1698 35.4019 17.5284 35.5852 17.0487V17.0271C35.6283 16.8708 35.6876 16.6821 35.7846 16.4827C35.8385 16.3641 35.8978 16.2563 35.9571 16.1647C36.0487 16.0246 36.1295 15.9275 36.1565 15.9006C36.3721 15.6526 36.8464 15.0975 36.9111 14.5207C36.9596 14.0734 36.7817 13.529 36.3883 13.2002C35.6229 12.5642 34.1245 13.0546 33.7687 13.7554C33.6879 13.9063 33.6124 14.1758 33.4399 14.1973C33.3052 14.2135 33.1111 14.068 33.0734 13.8901C32.9656 13.4481 33.8118 13.1571 33.9035 12.3486C33.9196 12.2138 33.9035 12.1006 33.9035 12.0413C33.9035 11.8904 33.8765 11.3945 33.4992 10.9903C33.0303 10.4836 32.3673 10.4998 32.1894 10.5052C32.0655 10.5052 31.6828 10.5052 31.3324 10.7369C30.6533 11.1843 30.5509 12.1707 30.4916 12.7366V12.8067C30.47 12.9468 30.4592 13.0762 30.4377 13.1732C30.2544 14.068 30.2005 14.2027 29.7585 14.4291C29.3974 14.5639 29.0794 14.6339 28.7722 14.6339C28.5673 14.6339 28.341 14.607 28.1469 14.5585C27.2899 14.289 27.1713 14.0356 26.9503 13.5721C26.8803 13.4266 26.8048 13.2649 26.7024 13.087L26.6916 13.0708C26.1849 12.2785 25.4088 11.8311 24.5572 11.8311C23.3714 11.8311 22.6706 12.9361 22.6706 14.0141C22.6706 14.7202 22.9455 15.3023 23.4522 15.6796C23.5546 15.7604 23.7325 15.9868 23.7325 16.3695C23.7325 16.8331 23.436 17.4206 22.8916 18.0674C22.0993 19.0052 20.8919 19.7437 20.1104 19.7437C19.9271 19.7437 19.7169 19.5496 19.6576 19.3825C19.6576 19.3772 19.6576 19.3664 19.6522 19.361V19.3448C19.4797 18.5848 20.0295 17.2966 21.0698 16.1054L21.0806 16.0946C22.5521 14.2944 22.5521 13.9817 22.5521 13.7715C22.5521 13.1786 21.8837 12.7851 21.4363 12.7851C21.0267 12.7851 20.8326 12.9792 20.3853 13.184C19.7762 13.4643 19.3719 13.308 17.7442 13.308C17.1459 13.308 16.2242 13.2972 15.0923 13.2864C15.0923 13.2864 15.1354 13.2056 15.1462 13.1948C15.5935 12.2515 16.1056 11.2544 16.6985 10.2195C17.3237 9.12532 17.9598 8.13355 18.5796 7.23342L18.5742 7.2442ZM89.6202 13.2649C89.701 12.0683 89.9544 10.4081 90.7575 8.61327C91.3019 7.41668 92.3799 5.50861 92.8812 5.67031C93.3231 5.81584 93.2477 7.55143 92.8596 8.89355C92.202 11.1789 90.5527 12.5857 89.6202 13.2649ZM76.199 32.7606C76.0427 32.5558 75.9187 32.3563 75.8217 32.1515C74.5982 29.4673 77.9077 25.7266 78.3658 25.2253C78.4197 25.4517 79.6379 30.6154 77.1423 32.3348C76.8943 32.5073 76.5871 32.6582 76.199 32.7552V32.7606ZM77.5789 18.3746C77.0506 18.5686 76.6572 18.5956 76.3499 18.6118C76.4254 18.3423 76.5709 17.965 76.8081 17.523C76.8836 17.3828 77.2016 16.7792 77.8106 16.0623C78.2041 15.6041 79.0881 14.5908 79.9828 13.9979C80.4356 14.7309 80.3008 15.5826 80.2415 15.8143C79.8858 17.3236 77.94 18.2452 77.6489 18.3477L77.5735 18.3746H77.5789ZM41.9184 16.3965C41.9184 14.9843 42.7862 13.8632 43.875 13.1732C44.1283 12.99 44.5272 12.742 44.8506 12.742C45.0662 12.742 45.201 12.9361 45.201 13.1517C45.201 13.5505 44.9261 14.0788 44.7105 14.4399C44.3817 14.9843 42.6838 16.6121 42.0694 16.6121C41.9238 16.6121 41.9184 16.542 41.9184 16.4342V16.3965ZM55.69 18.2075C55.0539 19.3394 55.1725 19.7922 53.6903 19.7922L53.092 19.8245C52.8279 19.8245 52.4559 19.8084 52.1487 19.7113C52.0247 19.6736 51.642 19.4526 51.6043 19.1184C51.5935 18.9999 51.6259 18.9028 51.642 18.8705C51.863 18.2938 53.3399 17.647 54.4017 16.7845C54.4017 16.7845 55.8301 15.6203 56.3152 15.6203C56.4553 15.6203 56.4553 15.7281 56.4553 15.8359C56.4553 16.542 56.0295 17.5338 55.7115 18.1698L55.69 18.2075Z" fill="white"/>
</svg>
