<svg width="64" height="20" viewBox="0 0 64 20" fill="none" xmlns="http://www.w3.org/2000/svg">
<path d="M10.6312 4.04318C9.29336 2.17843 5.94094 2.88094 3.1619 5.6135C0.388018 8.34089 -0.784553 12.0911 0.553315 13.9558C0.997549 14.5757 1.6639 14.9011 2.45422 14.9786C3.02496 15.0195 3.42534 14.3897 3.78176 13.589C4.15368 12.7574 4.37063 11.9826 4.55142 11.2594C4.8097 10.1127 4.83036 9.29651 4.69606 9.12088C4.47394 8.83161 3.96772 8.90393 3.39951 9.22936C3.12574 9.37916 2.76415 9.28101 3.19289 8.76446C3.62679 8.24274 5.35724 6.98752 5.9771 6.79123C6.65895 6.59494 7.43894 6.86355 7.1755 7.60222C6.99599 8.12579 4.76593 13.9346 6.20063 13.7699C6.31472 13.7568 6.41825 13.6967 6.51275 13.6314C7.02279 13.2792 7.53136 12.8622 8.02265 12.3803C10.7965 9.65293 11.9691 5.90277 10.6312 4.03802V4.04318ZM6.31286 6.07323C5.9771 5.75813 6.17856 5.04529 6.73127 4.48742C7.29431 3.92954 8.01748 3.75908 8.32741 4.06901C8.65284 4.38927 8.45138 5.09178 7.90384 5.64449C7.34596 6.19203 6.62279 6.38832 6.31286 6.07323Z" fill="white"/>
<path d="M11.1094 15.0985L12.7328 9.20851H14.8347L13.2111 15.0985H11.1094ZM19.9213 11.107C19.9443 10.8223 19.8783 10.6081 19.7214 10.4633C19.5648 10.3202 19.3192 10.2485 18.9856 10.2485C18.4517 10.2485 17.9975 10.4106 17.6192 10.7335C17.2432 11.0569 16.9728 11.5158 16.808 12.1131C16.6494 12.6885 16.67 13.13 16.8682 13.4383C17.0664 13.7474 17.4281 13.9013 17.9546 13.9013C18.3398 13.9013 18.6717 13.8134 18.9511 13.6356C19.2282 13.4601 19.4426 13.1992 19.5922 12.8564H21.7685C21.4777 13.628 20.9829 14.1975 20.287 14.5651C19.5895 14.9322 18.6486 15.1168 17.4642 15.1168C16.3216 15.1168 15.5032 14.8602 15.0058 14.3457C14.5102 13.8323 14.3898 13.1139 14.6434 12.1923C14.9219 11.1832 15.4647 10.4052 16.2738 9.85832C17.0835 9.31179 18.0996 9.03796 19.3187 9.03796C20.3777 9.03796 21.1396 9.21126 21.6042 9.5587C22.0677 9.906 22.2303 10.4229 22.0886 11.107H19.9213ZM21.7274 15.0985L23.3512 9.20851H25.4526L23.8288 15.0985H21.7274ZM30.5393 11.107C30.5627 10.8223 30.4959 10.6081 30.3395 10.4633C30.1828 10.3202 29.9384 10.2485 29.6034 10.2485C29.0701 10.2485 28.6158 10.4106 28.2379 10.7335C27.8607 11.0569 27.5908 11.5158 27.4263 12.1131C27.2677 12.6885 27.2886 13.13 27.4863 13.4383C27.6845 13.7474 28.0459 13.9013 28.5724 13.9013C28.9582 13.9013 29.2897 13.8134 29.5689 13.6356C29.8469 13.4601 30.0612 13.1992 30.211 12.8564H32.386C32.096 13.628 31.6015 14.1975 30.9045 14.5651C30.208 14.9322 29.2664 15.1168 28.0828 15.1168C26.9402 15.1168 26.1213 14.8602 25.6242 14.3457C25.1283 13.8323 25.0077 13.1139 25.2618 12.1923C25.5399 11.1832 26.0827 10.4052 26.8924 9.85832C27.7016 9.31179 28.7176 9.03796 29.9373 9.03796C30.9955 9.03796 31.7582 9.21126 32.223 9.5587C32.6857 9.906 32.8481 10.4229 32.7064 11.107H30.5393ZM32.3455 15.0985L33.9692 9.20851H36.0708L34.4471 15.0985H32.3455ZM40.5657 10.4021L40.2268 11.6322H41.311C41.5758 11.6322 41.7865 11.58 41.9456 11.4781C42.1044 11.3765 42.213 11.2212 42.269 11.0172C42.3252 10.8154 42.3018 10.6612 42.1984 10.558C42.0941 10.4542 41.9116 10.4021 41.6502 10.4021H40.5657ZM39.9572 12.6111L39.6012 13.9043H40.8475C41.143 13.9043 41.3816 13.8501 41.5625 13.741C41.7444 13.6315 41.8647 13.471 41.9233 13.2566C41.982 13.0443 41.951 12.8834 41.8318 12.7744C41.711 12.6654 41.5027 12.6111 41.204 12.6111H39.9572ZM37.2753 15.0985L38.8988 9.20851H42.7091C43.1618 9.20851 43.4887 9.22579 43.6861 9.26241C43.8854 9.29831 44.0532 9.35656 44.1878 9.44003C44.3706 9.55215 44.4906 9.70903 44.5474 9.91147C44.6041 10.1138 44.5951 10.352 44.5197 10.6259C44.4281 10.9584 44.2536 11.2312 43.994 11.4439C43.7355 11.6576 43.3741 11.8269 42.9076 11.9508C43.3953 12.0681 43.7227 12.2508 43.8897 12.4993C44.0567 12.7459 44.0803 13.0826 43.9641 13.5054C43.8199 14.0272 43.5487 14.4223 43.1509 14.6937C42.7523 14.9637 42.2369 15.0985 41.6037 15.0985H37.2753ZM47.9507 13.3184C47.3118 13.3184 46.8654 13.3575 46.6112 13.4383C46.3573 13.5175 46.2023 13.6579 46.1469 13.8568C46.1103 13.9914 46.1379 14.0978 46.2292 14.1743C46.3207 14.2493 46.4698 14.2873 46.6745 14.2873C47.0104 14.2873 47.2846 14.2129 47.494 14.0625C47.7033 13.9116 47.8499 13.6849 47.9325 13.3825L47.9507 13.3184ZM47.6688 14.4908C47.4158 14.7277 47.1225 14.9034 46.7904 15.0182C46.4584 15.133 46.0788 15.1902 45.6506 15.1902C45.0413 15.1902 44.6025 15.0864 44.3318 14.8794C44.0602 14.6705 43.9777 14.3773 44.0825 13.9957C44.2253 13.4777 44.612 13.103 45.2403 12.8725C45.8705 12.6419 46.8496 12.522 48.1815 12.5111L48.1988 12.4651L48.2168 12.4157C48.2746 12.205 48.2512 12.0481 48.1489 11.9432C48.0449 11.839 47.8616 11.7872 47.5974 11.7872C47.3582 11.7872 47.1638 11.8258 47.015 11.9004C46.8665 11.9769 46.7595 12.0913 46.6919 12.243H44.8664C45.0003 11.7872 45.3179 11.4496 45.8222 11.2269C46.3242 11.0051 47.0296 10.893 47.936 10.893C48.8054 10.893 49.4172 11.0226 49.771 11.2829C50.1248 11.542 50.228 11.9379 50.0816 12.4675L49.5052 14.5587C49.469 14.6902 49.446 14.7945 49.4367 14.8751C49.4275 14.954 49.4288 15.029 49.44 15.0985H47.6066C47.5966 15.0002 47.5985 14.901 47.6088 14.8015C47.6194 14.7004 47.6398 14.5988 47.6688 14.4908ZM50.0976 15.0985L51.0398 11.6797C51.0781 11.5407 51.1061 11.414 51.1237 11.297C51.1433 11.1797 51.153 11.0782 51.1539 10.9927H53.1303C53.1379 11.0569 53.1319 11.1414 53.1145 11.2461C53.0969 11.3511 53.0651 11.4878 53.019 11.6552C53.3372 11.3975 53.656 11.2051 53.9766 11.0811C54.2987 10.9558 54.6321 10.893 54.9786 10.893C55.6207 10.893 56.0647 11.0512 56.3107 11.3687C56.5575 11.6854 56.5963 12.1486 56.4285 12.7583L55.7828 15.0985H53.8113L54.4399 12.8179C54.5262 12.5049 54.5265 12.2748 54.4399 12.1312C54.3533 11.9878 54.1738 11.9156 53.9017 11.9156C53.5816 11.9156 53.3163 12.0109 53.105 12.2031C52.8946 12.3958 52.7355 12.6834 52.6288 13.0698L52.07 15.0985H50.0976ZM58.4281 15.0985H56.4812L58.1055 9.20851H60.0518L59.0998 12.6629L61.061 10.9927H63.3918L61.2079 12.8179L62.7057 15.0985H60.2451L58.998 13.0292L58.4281 15.0985Z" fill="#FEFFFE"/>
</svg>
