<svg width="643" height="78" viewBox="0 0 643 78" fill="none" xmlns="http://www.w3.org/2000/svg">
<path d="M534.002 52.667C532.648 52.667 531.963 52.2188 531.945 51.3223C531.945 50.8301 532.613 49.9512 533.949 48.6855C535.76 46.9277 536.665 45.5918 536.665 44.6777C536.665 44.5195 536.568 44.2295 536.375 43.8076C536.217 43.4209 535.268 43.0869 533.527 42.8057C530.645 42.3662 529.203 40.7402 529.203 37.9277C529.203 36.5742 529.634 34.5264 530.495 31.7842C531.954 26.9854 533.791 24.5859 536.006 24.5859C536.322 24.5859 536.647 24.6475 536.981 24.7705C538.458 25.2451 539.196 25.7812 539.196 26.3789C539.196 26.9238 538.924 27.5391 538.379 28.2246C535.689 31.5469 534.345 34.9658 534.345 38.4814C534.397 39.7119 535.312 40.4326 537.087 40.6436C540.497 41.0127 542.229 42.0322 542.281 43.7021V45.2314C542.281 46.1455 541.411 47.4902 539.671 49.2656C537.685 51.2695 535.795 52.4033 534.002 52.667Z" fill="black"/>
<path d="M513.402 51.0596C513.736 51.0596 514.299 49.8379 515.09 47.3945C515.881 44.9512 517.103 41.5498 518.755 37.1904C520.372 32.8662 521.181 30.2207 521.181 29.2539C521.181 28.8145 521.075 28.5947 520.864 28.5947C520.601 28.5947 520.188 28.9023 519.625 29.5176C515.16 34.457 512.928 41.0049 512.928 49.1611V50.4004C512.928 50.8398 513.086 51.0596 513.402 51.0596ZM528.089 66.6689H527.983C526.647 66.6689 525.373 65.0078 524.16 61.6855C523 58.5391 522.42 54.3467 522.42 49.1084C522.42 42.8506 522.517 39.0186 522.71 37.6123C522.71 37.4014 522.675 37.2959 522.604 37.2959C522.481 37.2959 522.227 37.8672 521.84 39.0098C521.383 40.416 520.961 41.7168 520.574 42.9121C519.115 47.4473 518.148 50.3564 517.674 51.6396C516.549 54.8213 515.143 56.4121 513.455 56.4121C511.029 56.4121 509.5 55.1113 508.867 52.5098C508.516 51.0508 508.34 49.4336 508.34 47.6582C508.34 40.8027 510.423 34.2285 514.589 27.9355C515.819 26.1074 517.48 25.1758 519.572 25.1406C521.629 25.1406 522.956 24.4551 523.554 23.084C524.151 21.7305 524.802 19.8936 525.505 17.5732L527.931 9.42578C528.423 7.86133 529.073 7.05273 529.882 7C530.374 7 530.77 7.03516 531.068 7.10547C532.527 7.47461 533.283 8.17773 533.336 9.21484C533.336 9.9707 533.028 11.4121 532.413 13.5391C530.937 18.4609 529.785 22.6006 528.959 25.958C527.482 31.8115 526.744 38.7373 526.744 46.7354C526.744 47.1221 526.762 49.5127 526.797 53.9072C526.797 58.3369 527.702 61.9229 529.513 64.665C529.935 64.9287 530.146 65.3066 530.146 65.7988C530.146 66.3438 529.46 66.6338 528.089 66.6689Z" fill="black"/>
<path d="M492.486 52.5625C491.994 52.5625 491.511 52.457 491.036 52.2461C489.103 51.4375 488.109 50.2334 488.057 48.6338C488.057 48.1416 488.092 47.7461 488.162 47.4473C488.355 46.6035 488.54 45.7598 488.716 44.916C489.56 41.1895 490.386 37.4805 491.194 33.7891C491.476 32.3828 492.082 31.6621 493.014 31.627C493.295 31.627 493.603 31.6797 493.937 31.7852C495.396 32.2598 496.151 33.0332 496.204 34.1055C496.204 34.4219 496.116 34.8877 495.94 35.5029C495.185 37.876 494.807 39.5547 494.807 40.5391C494.807 40.9082 494.877 41.1016 495.018 41.1191C495.176 41.1191 495.519 40.7588 496.046 40.0381C498.419 36.6982 500.599 33.8154 502.585 31.3896C503.587 30.1592 504.598 29.5176 505.617 29.4648C506.145 29.4648 506.663 29.6055 507.173 29.8867C508.351 30.5723 508.966 31.6885 509.019 33.2354C509.019 33.6221 508.957 34.0527 508.834 34.5273C507.182 41.3477 506.355 45.7598 506.355 47.7637C506.355 49.5918 506.487 50.6377 506.751 50.9014C506.821 51.1299 506.856 51.3232 506.856 51.4814C506.856 51.7627 506.707 51.9824 506.408 52.1406C506.127 52.3516 505.828 52.457 505.512 52.457C504.809 52.457 504.123 52.167 503.455 51.5869C502.084 50.4443 501.363 48.8623 501.293 46.8408C501.293 44.0811 501.328 42.376 501.398 41.7256C501.416 41.5322 501.434 41.3477 501.451 41.1719C501.486 40.7852 501.504 40.4951 501.504 40.3018C501.504 40.0908 501.469 39.9854 501.398 39.9854C501.24 39.9854 499.263 43.3691 495.466 50.1367C494.552 51.7539 493.559 52.5625 492.486 52.5625Z" fill="black"/>
<path d="M483.938 54.1973H483.174C482.154 54.1973 481.363 53.9951 480.801 53.5908C479.869 52.9053 479.368 51.4639 479.298 49.2666C479.245 48.6865 479.148 48.2559 479.008 47.9746C477.777 49.3809 477.013 50.2773 476.714 50.6641C476.679 50.6816 476.652 50.708 476.635 50.7432C475.598 51.9385 474.394 52.5625 473.022 52.6152L471.836 52.668C471.027 52.668 470.104 52.2725 469.067 51.4814C467.995 50.6729 467.459 49.5391 467.459 48.0801C467.459 46.9023 467.661 44.8545 468.065 41.9365C468.435 39.001 469.129 36.3203 470.148 33.8945C470.957 31.7852 472.038 30.7041 473.392 30.6514C474.903 30.915 475.677 31.583 475.712 32.6553C475.712 33.0244 475.677 33.3584 475.606 33.6572C475.325 34.7119 474.877 36.4961 474.262 39.0098C474.209 39.2207 474.156 39.4404 474.104 39.6689C473.207 43.3252 472.759 45.7158 472.759 46.8408C472.759 47.2803 472.829 47.5 472.97 47.5C473.69 47.4473 475.439 45.1797 478.217 40.6973C480.555 36.8828 482.189 33.9824 483.121 31.9961C483.631 30.9238 484.404 30.3613 485.441 30.3086C485.934 30.3086 486.417 30.4229 486.892 30.6514C488.017 31.0732 488.597 31.7764 488.632 32.7607C488.632 33.2354 488.562 33.6836 488.421 34.1055C485.995 41.0488 484.782 46.3047 484.782 49.873C484.782 50.7871 484.879 51.4902 485.072 51.9824C485.213 52.4219 485.283 52.835 485.283 53.2217V53.6436C485.23 53.9072 484.782 54.0918 483.938 54.1973Z" fill="black"/>
<path d="M458.487 48.291C459.612 47.6934 460.579 46.542 461.388 44.8369C462.442 42.6221 462.97 40.4072 462.97 38.1924C462.97 36.8564 462.715 35.7051 462.205 34.7383C461.449 35.3887 460.729 36.6016 460.043 38.377C458.848 41.4707 458.25 44.2041 458.25 46.5771C458.25 47.2803 458.329 47.8516 458.487 48.291ZM459.331 52.9053C458.522 52.9053 457.591 52.6152 456.536 52.0352C455.411 51.4375 454.523 50.3389 453.873 48.7393C453.521 47.8604 453.346 46.8496 453.346 45.707C453.346 43.9844 453.794 41.6641 454.69 38.7461C455.604 35.8457 456.65 33.3408 457.828 31.2314C458.531 29.9834 459.507 29.3594 460.755 29.3594C462.741 29.3594 463.893 30.2559 464.209 32.0488C464.244 32.3125 464.49 32.6904 464.947 33.1826C466.459 34.624 467.215 36.751 467.215 39.5635C467.215 39.7217 467.197 40.4775 467.162 41.8311C467.109 43.2197 466.538 45.127 465.448 47.5527C464.376 49.9785 462.952 51.6133 461.177 52.457C460.544 52.7559 459.929 52.9053 459.331 52.9053Z" fill="black"/>
<path d="M441.501 46.7354C441.554 46.6826 441.642 46.6299 441.765 46.5771C442.89 46.1729 444.419 44.1602 446.353 40.5391C447.372 38.6406 447.882 37.2344 447.882 36.3203C447.882 35.7227 447.697 35.415 447.328 35.3975C446.414 35.3975 444.814 37.542 442.529 41.8311C441.229 44.2744 440.578 45.6543 440.578 45.9707C440.578 46.0938 440.596 46.2432 440.631 46.4189C440.631 46.5771 440.921 46.6826 441.501 46.7354ZM434.25 67.46C432.158 67.46 431.086 66.4404 431.033 64.4014L431.086 63.8477C432.035 52.8438 433.89 41.9893 436.649 31.2842C436.966 30.0713 437.607 29.4648 438.574 29.4648C438.855 29.4648 439.146 29.5176 439.444 29.623C440.604 29.957 441.185 30.6426 441.185 31.6797C441.185 32.207 441 33.0332 440.631 34.1582C440.244 35.2832 440.051 36.417 440.051 37.5596C440.051 37.8232 440.121 37.9639 440.262 37.9814C440.631 37.9814 441.712 36.7422 443.505 34.2637C444.823 32.3301 446.256 31.3369 447.803 31.2842C448.629 31.2842 449.464 31.5039 450.308 31.9434C451.591 32.5938 452.25 33.6572 452.285 35.1338C452.285 35.6611 452.232 36.2324 452.127 36.8477C451.494 41.0137 449.754 44.582 446.906 47.5527C445.764 48.7305 444.463 49.3193 443.004 49.3193C442.301 49.3193 441.615 49.1963 440.947 48.9502C440.648 48.8096 440.367 48.7393 440.104 48.7393L439.55 48.792C439.198 48.8623 438.354 51.5781 437.019 56.9395C436.403 59.5234 436.096 61.7031 436.096 63.4785L436.148 65.377C436.148 65.8516 436.096 66.3174 435.99 66.7744C435.867 67.2314 435.287 67.46 434.25 67.46Z" fill="black"/>
<path d="M407.87 52.9573C407.118 53.5683 406.119 53.9483 406.119 53.9483C405.531 54.1718 404.98 54.3805 404.279 54.2687C403.445 54.1346 402.908 53.6503 402.759 53.5087C401.656 52.473 401.776 50.9531 401.798 50.737C403.951 37.8618 405.948 31.4764 407.818 31.4764C408.526 31.4764 409.13 31.6851 409.607 32.1619C410.024 32.6611 410.262 33.2423 410.314 33.898C410.314 34.2109 410.262 34.5835 410.128 34.9784C409.13 39.3446 408.578 42.2355 408.578 43.7331C408.578 44.441 408.683 44.8135 408.891 44.8135C409.495 44.7614 411.149 42.3398 413.913 37.5042C414.994 35.6117 416.119 33.8011 417.303 31.9086C417.989 30.8282 418.905 30.2768 419.933 30.2247C420.85 30.2247 421.617 30.5153 422.139 31.0368C422.586 31.4839 422.795 32.0651 422.847 32.7729C422.847 33.2423 422.847 33.6148 422.795 33.9054C422.243 36.7442 421.982 38.6367 421.982 39.501C421.982 39.8661 422.035 40.0822 422.087 40.0822C422.295 40.0301 422.847 39.2179 423.718 37.5564C424.3 36.4238 425.06 35.1944 425.849 33.8533C427.586 31.0964 429.135 29.7031 430.603 29.7031C430.864 29.7031 431.08 29.7553 431.289 29.8074C432.578 30.2768 433.233 31.1486 433.233 32.3333C433.233 33.518 433.025 34.8293 432.578 36.3791C431.341 40.5293 430.767 43.9194 430.767 46.6539C430.767 48.5464 430.976 49.8876 431.4 50.6997C431.639 51.0648 431.743 51.3331 431.743 51.5938C431.743 51.8844 431.505 52.1974 431.14 52.5103C430.879 52.7189 430.558 52.853 430.171 52.853C428.517 52.853 427.28 51.9887 426.416 50.2005C426.051 49.4107 425.812 48.2856 425.812 46.7582C425.812 46.2888 425.812 45.7896 425.864 45.417C425.946 45.052 425.946 44.7614 425.946 44.5006C425.946 44.3292 425.976 43.003 425.604 42.8986C425.313 42.8167 424.873 43.5022 424.575 43.979C423.316 45.9833 422.407 47.63 421.997 48.3378C421.759 48.755 420.887 50.2452 419.397 51.7876C418.808 52.3985 418.257 52.8754 417.527 52.8903C416.655 52.9126 416.022 52.2793 415.895 52.1527C414.867 51.0797 415.448 49.1052 415.873 47.548C416.074 46.8029 416.484 45.7449 417.311 43.6214C417.922 42.0418 418.428 40.8273 418.056 40.5442C417.907 40.4324 417.676 40.5069 417.594 40.5367C415.523 41.2147 410.267 51.0153 407.957 52.8929L407.87 52.9573Z" fill="black"/>
<path d="M392.733 48.291C393.858 47.6934 394.825 46.542 395.634 44.8369C396.688 42.6221 397.216 40.4072 397.216 38.1924C397.216 36.8564 396.961 35.7051 396.451 34.7383C395.695 35.3887 394.975 36.6016 394.289 38.377C393.094 41.4707 392.496 44.2041 392.496 46.5771C392.496 47.2803 392.575 47.8516 392.733 48.291ZM393.577 52.9053C392.769 52.9053 391.837 52.6152 390.782 52.0352C389.657 51.4375 388.77 50.3389 388.119 48.7393C387.768 47.8604 387.592 46.8496 387.592 45.707C387.592 43.9844 388.04 41.6641 388.937 38.7461C389.851 35.8457 390.896 33.3408 392.074 31.2314C392.777 29.9834 393.753 29.3594 395.001 29.3594C396.987 29.3594 398.139 30.2559 398.455 32.0488C398.49 32.3125 398.736 32.6904 399.193 33.1826C400.705 34.624 401.461 36.751 401.461 39.5635C401.461 39.7217 401.443 40.4775 401.408 41.8311C401.355 43.2197 400.784 45.127 399.694 47.5527C398.622 49.9785 397.198 51.6133 395.423 52.457C394.79 52.7559 394.175 52.9053 393.577 52.9053Z" fill="black"/>
<path d="M379.359 53.2207C377.039 53.2207 375.114 52.1045 373.585 49.8721C372.935 48.9229 372.609 47.7188 372.609 46.2598C372.609 43.4473 373.567 39.8965 375.483 35.6074C376.626 32.9883 377.742 31.0107 378.832 29.6748C379.641 28.6729 380.722 28.1719 382.075 28.1719C384.659 28.1719 385.951 28.9805 385.951 30.5977C385.951 30.9141 385.863 31.1426 385.688 31.2832C385.477 31.459 384.914 31.6787 384 31.9424C382.805 32.2939 381.803 33.3047 380.994 34.9746C379.043 38.9297 378.067 43.0693 378.067 47.3936C378.067 48.5186 378.463 49.3271 379.254 49.8193C379.5 49.96 379.737 50.0303 379.966 50.0303C380.774 50.0303 382.444 48.624 384.976 45.8115C385.327 45.46 385.74 45.2842 386.215 45.2842H386.927C387.296 45.2842 387.489 45.4951 387.507 45.917C387.296 47.6045 386.707 49.0986 385.74 50.3994C384.299 52.2803 382.172 53.2207 379.359 53.2207Z" fill="black"/>
<path d="M345.729 52.5625C345.236 52.5625 344.753 52.457 344.278 52.2461C342.345 51.4375 341.352 50.2334 341.299 48.6338C341.299 48.1416 341.334 47.7461 341.404 47.4473C341.598 46.6035 341.782 45.7598 341.958 44.916C342.802 41.1895 343.628 37.4805 344.437 33.7891C344.718 32.3828 345.324 31.6621 346.256 31.627C346.537 31.627 346.845 31.6797 347.179 31.7852C348.638 32.2598 349.394 33.0332 349.446 34.1055C349.446 34.4219 349.358 34.8877 349.183 35.5029C348.427 37.876 348.049 39.5547 348.049 40.5391C348.049 40.9082 348.119 41.1016 348.26 41.1191C348.418 41.1191 348.761 40.7588 349.288 40.0381C351.661 36.6982 353.841 33.8154 355.827 31.3896C356.829 30.1592 357.84 29.5176 358.859 29.4648C359.387 29.4648 359.905 29.6055 360.415 29.8867C361.593 30.5723 362.208 31.6885 362.261 33.2354C362.261 33.6221 362.199 34.0527 362.076 34.5273C360.424 41.3477 359.598 45.7598 359.598 47.7637C359.598 49.5918 359.729 50.6377 359.993 50.9014C360.063 51.1299 360.099 51.3232 360.099 51.4814C360.099 51.7627 359.949 51.9824 359.65 52.1406C359.369 52.3516 359.07 52.457 358.754 52.457C358.051 52.457 357.365 52.167 356.697 51.5869C355.326 50.4443 354.605 48.8623 354.535 46.8408C354.535 44.0811 354.57 42.376 354.641 41.7256C354.658 41.5322 354.676 41.3477 354.693 41.1719C354.729 40.7852 354.746 40.4951 354.746 40.3018C354.746 40.0908 354.711 39.9854 354.641 39.9854C354.482 39.9854 352.505 43.3691 348.708 50.1367C347.794 51.7539 346.801 52.5625 345.729 52.5625Z" fill="black"/>
<path d="M332.327 48.291C333.452 47.6934 334.419 46.542 335.228 44.8369C336.282 42.6221 336.81 40.4072 336.81 38.1924C336.81 36.8564 336.555 35.7051 336.045 34.7383C335.289 35.3887 334.568 36.6016 333.883 38.377C332.688 41.4707 332.09 44.2041 332.09 46.5771C332.09 47.2803 332.169 47.8516 332.327 48.291ZM333.171 52.9053C332.362 52.9053 331.431 52.6152 330.376 52.0352C329.251 51.4375 328.363 50.3389 327.713 48.7393C327.361 47.8604 327.186 46.8496 327.186 45.707C327.186 43.9844 327.634 41.6641 328.53 38.7461C329.444 35.8457 330.49 33.3408 331.668 31.2314C332.371 29.9834 333.347 29.3594 334.595 29.3594C336.581 29.3594 337.732 30.2559 338.049 32.0488C338.084 32.3125 338.33 32.6904 338.787 33.1826C340.299 34.624 341.055 36.751 341.055 39.5635C341.055 39.7217 341.037 40.4775 341.002 41.8311C340.949 43.2197 340.378 45.127 339.288 47.5527C338.216 49.9785 336.792 51.6133 335.017 52.457C334.384 52.7559 333.769 52.9053 333.171 52.9053Z" fill="black"/>
<path d="M323.931 53.7803H323.772C321.927 53.7803 320.951 52.541 320.793 50.0361C320.74 48.7969 320.688 47.6104 320.688 46.4766C320.688 42.0996 321.109 38.1182 321.979 34.4004C322.243 33.3721 322.902 32.8184 324.036 32.8184C325.987 32.8184 326.963 33.583 326.963 35.1387C326.963 35.5869 326.91 35.9561 326.831 36.3252C325.935 40.9131 325.381 45.5537 325.17 50.2734C325.17 50.6426 325.223 51.0117 325.328 51.3545C325.381 51.6709 325.434 51.9873 325.434 52.3564C325.434 52.6465 325.434 52.9629 325.381 53.2266C325.328 53.4902 324.854 53.7275 323.931 53.7803Z" fill="#09090B"/>
<ellipse cx="326.531" cy="28.1467" rx="2.88019" ry="3.92752" transform="rotate(19.8485 326.531 28.1467)" fill="#09090B"/>
<path d="M312.408 52.667C311.055 52.667 310.369 52.2188 310.352 51.3223C310.352 50.8301 311.02 49.9512 312.355 48.6855C314.166 46.9277 315.071 45.5918 315.071 44.6777C315.071 44.5195 314.975 44.2295 314.781 43.8076C314.623 43.4209 313.674 43.0869 311.934 42.8057C309.051 42.3662 307.609 40.7402 307.609 37.9277C307.609 36.5742 308.04 34.5264 308.901 31.7842C310.36 26.9854 312.197 24.5859 314.412 24.5859C314.729 24.5859 315.054 24.6475 315.388 24.7705C316.864 25.2451 317.603 25.7812 317.603 26.3789C317.603 26.9238 317.33 27.5391 316.785 28.2246C314.096 31.5469 312.751 34.9658 312.751 38.4814C312.804 39.7119 313.718 40.4326 315.493 40.6436C318.903 41.0127 320.635 42.0322 320.688 43.7021V45.2314C320.688 46.1455 319.817 47.4902 318.077 49.2656C316.091 51.2695 314.201 52.4033 312.408 52.667Z" fill="black"/>
<path d="M299.93 52.667C298.576 52.667 297.891 52.2188 297.873 51.3223C297.873 50.8301 298.541 49.9512 299.877 48.6855C301.688 46.9277 302.593 45.5918 302.593 44.6777C302.593 44.5195 302.496 44.2295 302.303 43.8076C302.145 43.4209 301.195 43.0869 299.455 42.8057C296.572 42.3662 295.131 40.7402 295.131 37.9277C295.131 36.5742 295.562 34.5264 296.423 31.7842C297.882 26.9854 299.719 24.5859 301.934 24.5859C302.25 24.5859 302.575 24.6475 302.909 24.7705C304.386 25.2451 305.124 25.7812 305.124 26.3789C305.124 26.9238 304.852 27.5391 304.307 28.2246C301.617 31.5469 300.272 34.9658 300.272 38.4814C300.325 39.7119 301.239 40.4326 303.015 40.6436C306.425 41.0127 308.156 42.0322 308.209 43.7021V45.2314C308.209 46.1455 307.339 47.4902 305.599 49.2656C303.612 51.2695 301.723 52.4033 299.93 52.667Z" fill="black"/>
<path d="M284.156 41.7773C285.088 41.127 285.984 39.9932 286.846 38.376C288.146 36.0029 288.797 34.5264 288.797 33.9463C288.797 33.665 288.621 33.5156 288.27 33.498C287.988 33.498 287.786 33.5947 287.663 33.7881C284.956 38.376 283.603 40.8545 283.603 41.2236C283.603 41.5049 283.787 41.6895 284.156 41.7773ZM286.213 53.1152C280.746 53.1152 278.004 50.5752 277.986 45.4951C277.986 45.0029 278.101 43.9395 278.329 42.3047C278.487 40.6348 279.243 38.4727 280.597 35.8184C282.987 31.0723 285.562 28.6992 288.322 28.6992C290.537 28.6992 292.225 29.8154 293.385 32.0479C293.754 32.7334 293.938 33.4541 293.938 34.21C293.938 35.124 293.666 36.0996 293.121 37.1367C290.045 41.707 287.127 44.6338 284.367 45.917C283.4 46.4092 282.917 46.9014 282.917 47.3936C282.917 47.6045 282.952 47.8154 283.022 48.0264C283.339 49.1865 283.989 49.7666 284.974 49.7666C286.433 49.7666 288.357 48.8789 290.748 47.1035C292.312 45.9609 293.446 45.082 294.149 44.4668C295.028 43.6055 295.714 43.1748 296.206 43.1748C296.47 43.1748 296.716 43.2627 296.944 43.4385C297.349 43.8076 297.551 44.2559 297.551 44.7832C297.551 45.3809 297.19 46.2334 296.47 47.3408C295.714 48.4658 294.51 49.6523 292.857 50.9004C291.17 52.1309 289.658 52.834 288.322 53.0098C288.27 53.0098 288.208 53.0098 288.138 53.0098C287.452 53.0801 286.811 53.1152 286.213 53.1152Z" fill="black"/>
<path d="M269.04 52.7744C268.021 52.7744 267.124 52.4404 266.351 51.7725C265.946 51.3857 265.744 50.8408 265.744 50.1377C266.57 42.8076 267.361 36.7432 268.117 31.9443C268.275 30.9424 268.82 30.4414 269.752 30.4414C271.967 30.4414 273.057 31.4258 273.021 33.3945C273.021 33.7812 272.934 34.2734 272.758 34.8711C272.547 35.6445 272.441 36.3213 272.441 36.9014C272.441 37.4463 272.512 37.7188 272.652 37.7188C272.758 37.7188 272.881 37.5781 273.021 37.2969C273.83 35.5566 275.307 34.2207 277.451 33.2891C278.119 32.9727 278.805 32.8145 279.508 32.8145C280.105 32.8145 280.615 33.1396 281.037 33.79C281.248 34.0889 281.354 34.3701 281.354 34.6338C281.354 35.0732 280.94 35.4863 280.114 35.873C279.903 35.9961 279.719 36.1104 279.561 36.2158C275.307 39.4854 272.503 44.1611 271.149 50.2432C270.763 51.9307 270.06 52.7744 269.04 52.7744Z" fill="black"/>
<path d="M252.053 73.0244C249.785 73.0244 247.597 71.9697 245.487 69.8604C244.731 69.0693 244.354 68.1816 244.354 67.1973C244.354 66.0195 244.872 65.4307 245.909 65.4307C246.507 65.4307 246.92 65.791 247.148 66.5117C247.887 68.8848 249.363 70.0713 251.578 70.0713C252.387 70.0713 253.037 69.7812 253.529 69.2012C254.004 68.6562 254.452 67.9531 254.874 67.0918C256.755 63.4707 258.047 59.7969 258.75 56.0703C259.664 51.2188 260.121 46.9561 260.121 43.2822C260.121 42.8955 259.972 42.6934 259.673 42.6758C259.567 42.6758 259.392 42.7373 259.146 42.8604C258.882 43.0186 256.518 45.6641 252.053 50.7969C250.857 52.1504 249.583 52.8271 248.229 52.8271C247.315 52.8271 246.357 52.5283 245.355 51.9307C243.844 50.9814 243.088 49.751 243.088 48.2393C243.088 47.5361 243.255 46.7803 243.589 45.9717C246.015 39.3623 249.627 33.5 254.426 28.3848C255.551 27.1543 256.764 26.5391 258.064 26.5391C258.135 26.5391 258.275 26.5479 258.486 26.5654C258.715 26.6006 259.04 26.627 259.462 26.6445C260.218 26.6973 261.062 27.4531 261.993 28.9121C262.327 29.3867 262.494 29.7822 262.494 30.0986C262.494 30.4854 262.31 30.8105 261.94 31.0742C261.589 31.373 261.246 31.5225 260.912 31.5225C260.543 31.5225 260.2 31.3027 259.884 30.8633C259.585 30.459 259.304 30.2568 259.04 30.2568C258.759 30.2568 258.398 30.5117 257.959 31.0215C256.289 32.9023 254.382 35.5303 252.237 38.9053C250.075 42.3154 248.827 45.2158 248.493 47.6064C249.407 46.9912 250.708 45.7871 252.396 43.9941C254.065 42.2012 255.63 40.3291 257.089 38.3779C258.548 36.4443 259.497 34.9678 259.937 33.9482C260.183 33.4033 260.657 33.1309 261.36 33.1309C262.925 33.1309 263.979 33.8516 264.524 35.293C264.929 36.2773 265.131 38.2549 265.131 41.2256C265.131 51.8076 263.241 60.7021 259.462 67.9092C257.599 71.3193 255.129 73.0244 252.053 73.0244Z" fill="black"/>
<path d="M233.91 48.291C235.035 47.6934 236.002 46.542 236.811 44.8369C237.865 42.6221 238.393 40.4072 238.393 38.1924C238.393 36.8564 238.138 35.7051 237.628 34.7383C236.872 35.3887 236.152 36.6016 235.466 38.377C234.271 41.4707 233.673 44.2041 233.673 46.5771C233.673 47.2803 233.752 47.8516 233.91 48.291ZM234.754 52.9053C233.946 52.9053 233.014 52.6152 231.959 52.0352C230.834 51.4375 229.947 50.3389 229.296 48.7393C228.945 47.8604 228.769 46.8496 228.769 45.707C228.769 43.9844 229.217 41.6641 230.114 38.7461C231.028 35.8457 232.073 33.3408 233.251 31.2314C233.954 29.9834 234.93 29.3594 236.178 29.3594C238.164 29.3594 239.316 30.2559 239.632 32.0488C239.667 32.3125 239.913 32.6904 240.37 33.1826C241.882 34.624 242.638 36.751 242.638 39.5635C242.638 39.7217 242.62 40.4775 242.585 41.8311C242.532 43.2197 241.961 45.127 240.871 47.5527C239.799 49.9785 238.375 51.6133 236.6 52.457C235.967 52.7559 235.352 52.9053 234.754 52.9053Z" fill="black"/>
<path d="M219.165 52.7744C218.145 52.7744 217.249 52.4404 216.475 51.7725C216.071 51.3857 215.869 50.8408 215.869 50.1377C216.695 42.8076 217.486 36.7432 218.242 31.9443C218.4 30.9424 218.945 30.4414 219.876 30.4414C222.091 30.4414 223.181 31.4258 223.146 33.3945C223.146 33.7812 223.058 34.2734 222.882 34.8711C222.671 35.6445 222.566 36.3213 222.566 36.9014C222.566 37.4463 222.636 37.7188 222.777 37.7188C222.882 37.7188 223.005 37.5781 223.146 37.2969C223.955 35.5566 225.431 34.2207 227.576 33.2891C228.244 32.9727 228.929 32.8145 229.632 32.8145C230.23 32.8145 230.74 33.1396 231.162 33.79C231.373 34.0889 231.478 34.3701 231.478 34.6338C231.478 35.0732 231.065 35.4863 230.239 35.873C230.028 35.9961 229.843 36.1104 229.685 36.2158C225.431 39.4854 222.627 44.1611 221.274 50.2432C220.887 51.9307 220.184 52.7744 219.165 52.7744Z" fill="black"/>
<path d="M199.989 45.3906C200.271 45.3379 200.921 44.793 201.94 43.7559C207.952 37.7617 212.61 30.9062 215.915 23.1895C216.53 21.5195 216.838 20.1133 216.838 18.9707C216.838 16.2285 214.931 14.8486 211.116 14.8311C210.519 14.8311 209.517 14.9365 208.11 15.1475C206.634 15.4111 205.315 15.8945 204.155 16.5977C202.978 17.3008 202.257 18.7598 201.993 20.9746C201.519 25.668 200.886 30.3174 200.095 34.9229C199.269 39.5635 198.855 42.4727 198.855 43.6504C198.855 44.793 199.11 45.373 199.62 45.3906H199.989ZM195.612 60.1299H195.138C193.468 60.1299 192.624 59.2334 192.606 57.4404C193.521 46.542 194.962 35.7227 196.931 24.9824C197.071 24.0859 197.142 23.418 197.142 22.9785C197.124 22.5742 196.975 22.3721 196.693 22.3721C196.641 22.3721 196.535 22.3896 196.377 22.4248C196.236 22.4951 195.981 23.251 195.612 24.6924C195.419 26.2568 194.812 27.0391 193.793 27.0391C192.598 27.0391 192 26.0986 192 24.2178C192 23.1982 192.29 22.2051 192.87 21.2383C193.45 20.3242 194.496 19.0498 196.008 17.415C197.221 16.4131 197.959 15.2969 198.223 14.0664C198.346 13.4512 198.97 13.1436 200.095 13.1436C202.362 13.1436 204.313 12.915 205.948 12.458C207.706 11.9131 209.394 11.6406 211.011 11.6406C213.823 11.6406 216.24 12.3965 218.262 13.9082C220.494 15.5781 221.61 17.8457 221.61 20.7109C221.61 21.6777 221.426 22.6533 221.057 23.6377C220.248 25.7295 219.598 27.0742 219.105 27.6719C215.713 33.9824 211.591 39.7393 206.739 44.9424C205.122 46.8584 203.285 47.9219 201.229 48.1328C200.719 48.1328 200.156 48.1064 199.541 48.0537C199.436 48.0537 199.339 48.0449 199.251 48.0273C198.161 48.0273 197.476 51.2881 197.194 57.8096C197.054 59.2861 196.526 60.0596 195.612 60.1299Z" fill="black"/>
<path d="M133.49 47.1514C132.567 46.9932 131.961 46.5449 131.592 45.9121C131.223 45.3057 130.985 44.7256 130.985 44.1191C130.985 43.9609 131.038 43.6973 131.144 43.3281C131.223 42.9326 131.275 42.6689 131.275 42.4053C131.275 42.2471 131.038 42.0889 130.616 42.0098C130.247 42.0098 129.904 42.2471 129.641 42.6689C129.535 42.8799 129.43 43.0381 129.271 43.1436C129.113 43.2754 129.008 43.3809 128.823 43.5391C128.243 44.1719 127.742 44.5146 127.268 44.5146C126.898 44.5146 126.503 44.2773 126.028 43.8027C125.369 43.1436 125.053 42.5107 125.053 41.8516C125.211 40.8232 125.817 40.085 126.793 39.584C129.061 38.3975 130.194 36.9473 130.194 35.2598C130.194 34.0732 129.641 32.7285 128.507 31.2783C127.795 30.3555 127.426 29.7227 127.426 29.3799C127.426 28.958 127.637 28.6416 128.085 28.4043C128.349 28.2461 128.56 28.1934 128.823 28.1934L129.693 28.6416C129.957 28.9053 130.458 29.6436 131.275 30.9619C131.645 31.542 131.961 31.8584 132.119 31.8584C132.409 31.8584 132.726 30.9619 133.095 29.1689C133.306 28.1934 133.596 27.3232 133.859 26.5322C134.123 25.7148 134.624 25.3457 135.415 25.3457C136.892 25.3457 137.577 26.1367 137.577 27.7715C137.577 28.4043 137.472 29.2217 137.313 30.1973C137.208 30.6719 137.155 31.0674 137.155 31.3311C137.155 31.542 137.208 31.6475 137.261 31.6475C137.419 31.6475 138.131 31.1201 139.265 30.0918C139.739 29.6436 140.108 29.4326 140.504 29.4326C140.979 29.4326 141.427 29.8281 141.743 30.6191C141.849 30.9619 141.901 31.2256 141.901 31.4893C141.901 32.0957 141.532 32.7285 140.82 33.3877C138.395 35.5498 137.208 37.1582 137.208 38.1865C137.208 39.1094 138.131 40.8232 140.003 43.4336C140.557 44.1719 140.82 44.7783 140.82 45.1475C140.662 45.8066 140.24 46.123 139.634 46.123C139.265 46.0703 138.658 45.6484 137.973 44.8311C137.419 44.3564 137.05 43.8555 136.76 43.3809C136.391 42.6689 135.969 42.2998 135.573 42.2998C135.099 42.2998 134.888 42.7217 134.888 43.5391C134.888 45.9648 134.387 47.1514 133.49 47.1514Z" fill="#EE3E38"/>
<path fill-rule="evenodd" clip-rule="evenodd" d="M118.796 11.1836C131.399 5.29322 146.392 7.99926 157.342 15.8304C162.285 19.4111 166.245 24.3995 166.887 30.9185C167.529 37.1779 165.385 43.5194 161.794 48.4258C157.848 53.6875 152.263 57.2955 146.61 59.9469C143.374 61.4639 139.933 62.6119 136.615 63.7326C136.383 63.8146 136.151 63.8966 135.905 63.9649C131.972 65.195 128.054 66.425 124.121 67.655C123.793 67.778 122.25 68.3657 121.39 67.655C120.462 66.8896 120.612 64.8806 121.39 63.5549C122.728 61.2452 125.432 61.9149 135.468 58.7852C135.55 58.7579 135.891 58.6622 136.205 58.5529C142.186 56.6122 148.03 54.2068 152.905 50.4621C157.766 46.6901 161.097 41.2507 161.917 35.7566C162.736 30.3172 161.084 24.7958 155.909 20.6274C146.596 13.138 133.201 10.3636 122.114 14.9147C111.6 19.2744 104.486 29.6749 105.988 41.032C106.684 46.5261 108.828 50.8311 112.05 53.5781C115.246 56.3115 119.656 57.6099 125.131 56.8309H125.145H125.159C125.842 56.7489 126.47 56.9675 126.934 57.3912C127.371 57.7875 127.603 58.3205 127.671 58.8262C127.74 59.3319 127.671 59.9059 127.344 60.4116C127.016 60.9446 126.47 61.3272 125.787 61.4502H125.773H125.76C118.823 62.4753 112.911 60.7532 108.569 56.9265C104.281 53.1135 101.673 47.3461 101.059 40.54C100.895 37.9296 100.758 30.6315 105.319 23.0874C109.879 15.516 116.42 12.2496 118.796 11.1836Z" fill="#EE3E38"/>
</svg>
