<svg width="643" height="78" viewBox="0 0 643 78" fill="none" xmlns="http://www.w3.org/2000/svg">
<path d="M513.835 66.5732C513.36 66.5732 512.93 66.4854 512.543 66.3096C510.979 65.6592 509.897 64.6836 509.3 63.3828C508.702 62.1348 508.403 60.1045 508.403 57.292C508.403 55.833 508.491 53.8027 508.667 51.2012C508.667 49.6191 508.632 48.8193 508.562 48.8018C508.509 48.8018 508.307 49.0391 507.955 49.5137C506.742 51.0957 505.318 51.8867 503.684 51.8867C503.209 51.8867 502.708 51.7988 502.181 51.623C499.878 50.7441 498.727 49.083 498.727 46.6396C498.727 37.3584 499.553 32.665 501.205 32.5596L501.864 32.6123C503.692 32.6826 504.606 33.6934 504.606 35.6445C504.466 38.6152 504.396 40.8828 504.396 42.4473C504.396 44.3281 504.536 45.2773 504.817 45.2949C505.31 45.2598 506.355 43.625 507.955 40.3906C508.939 38.4746 510.161 36.1895 511.62 33.5352C512.271 32.4102 513.141 31.8477 514.23 31.8477C514.652 31.8477 515.083 31.9268 515.522 32.085C516.753 32.5244 517.368 33.3682 517.368 34.6162C517.368 34.9854 517.324 35.3105 517.236 35.5918C516.674 37.4551 515.997 40.2939 515.206 44.1084C514.116 49.3818 513.571 53.8291 513.571 57.4502C513.571 60.4736 514.116 62.6357 515.206 63.9365C515.558 64.376 515.751 64.7363 515.786 65.0176C515.786 65.2812 515.663 65.5273 515.417 65.7559C514.942 66.248 514.415 66.5205 513.835 66.5732Z" fill="black"/>
<path d="M488.122 53.3369C487.103 53.3369 486.206 53.0029 485.433 52.335C485.028 51.9482 484.826 51.4033 484.826 50.7002C485.652 43.3701 486.443 37.3057 487.199 32.5068C487.357 31.5049 487.902 31.0039 488.834 31.0039C491.049 31.0039 492.139 31.9883 492.104 33.957C492.104 34.3438 492.016 34.8359 491.84 35.4336C491.629 36.207 491.523 36.8838 491.523 37.4639C491.523 38.0088 491.594 38.2812 491.734 38.2812C491.84 38.2812 491.963 38.1406 492.104 37.8594C492.912 36.1191 494.389 34.7832 496.533 33.8516C497.201 33.5352 497.887 33.377 498.59 33.377C499.188 33.377 499.697 33.7021 500.119 34.3525C500.33 34.6514 500.436 34.9326 500.436 35.1963C500.436 35.6357 500.022 36.0488 499.196 36.4355C498.985 36.5586 498.801 36.6729 498.643 36.7783C494.389 40.0479 491.585 44.7236 490.231 50.8057C489.845 52.4932 489.142 53.3369 488.122 53.3369Z" fill="black"/>
<path d="M475.854 48.8555C476.979 48.2578 477.946 47.1064 478.755 45.4014C479.81 43.1865 480.337 40.9717 480.337 38.7568C480.337 37.4209 480.082 36.2695 479.572 35.3027C478.816 35.9531 478.096 37.166 477.41 38.9414C476.215 42.0352 475.617 44.7686 475.617 47.1416C475.617 47.8447 475.696 48.416 475.854 48.8555ZM476.698 53.4697C475.89 53.4697 474.958 53.1797 473.903 52.5996C472.778 52.002 471.891 50.9033 471.24 49.3037C470.889 48.4248 470.713 47.4141 470.713 46.2715C470.713 44.5488 471.161 42.2285 472.058 39.3105C472.972 36.4102 474.018 33.9053 475.195 31.7959C475.898 30.5479 476.874 29.9238 478.122 29.9238C480.108 29.9238 481.26 30.8203 481.576 32.6133C481.611 32.877 481.857 33.2549 482.314 33.7471C483.826 35.1885 484.582 37.3154 484.582 40.1279C484.582 40.2861 484.564 41.042 484.529 42.3955C484.477 43.7842 483.905 45.6914 482.815 48.1172C481.743 50.543 480.319 52.1777 478.544 53.0215C477.911 53.3203 477.296 53.4697 476.698 53.4697Z" fill="black"/>
<path d="M468.017 60.3242C467.735 60.3242 467.445 60.2451 467.146 60.0869C465.582 59.4189 464.554 58.417 464.062 57.0811C463.2 54.7607 462.77 51.1396 462.77 46.2178C462.77 40.5576 463.525 33.6494 465.037 25.4932C465.055 25.3701 465.063 25.2559 465.063 25.1504C465.116 24.8164 465.143 24.5527 465.143 24.3594C465.143 24.0254 465.002 23.8584 464.721 23.8584C464.123 23.8584 463.455 24.0254 462.717 24.3594C461.768 24.7461 460.449 24.9395 458.762 24.9395C458.059 24.9395 457.32 24.2891 456.547 22.9883C456.23 22.4785 456.072 21.9775 456.072 21.4854C456.072 20.5713 456.793 20.0352 458.234 19.877L465.195 18.9541C466.021 18.8486 466.584 18.2861 466.883 17.2666L470.548 4.42578C470.917 3.01953 471.62 2.31641 472.657 2.31641C472.974 2.31641 473.352 2.38672 473.791 2.52734C475.197 3.08984 475.9 3.88086 475.9 4.90039C475.9 5.28711 475.804 5.72656 475.61 6.21875C474.925 8.0293 474.046 10.6309 472.974 14.0234C472.323 16.0273 471.998 17.1699 471.998 17.4512C472.033 18.0488 472.534 18.3477 473.501 18.3477L476.48 18.2949C477.184 18.2949 477.975 18.3477 478.854 18.4531C479.768 18.5762 480.813 19.0156 481.991 19.7715C483.169 20.5273 483.784 21.3359 483.837 22.1973C483.837 22.5664 483.74 22.9443 483.547 23.3311C483.266 23.8584 482.905 24.1221 482.466 24.1221C482.044 24.1221 481.561 23.9814 481.016 23.7002C480.066 23.2256 478.537 22.9883 476.428 22.9883C472.807 22.9883 470.864 23.2783 470.601 23.8584C470.442 24.1396 470.319 24.5 470.231 24.9395C468.562 32.375 467.727 40.0127 467.727 47.8525C467.727 50.6475 467.894 52.9502 468.228 54.7607C468.438 55.9561 468.939 57.125 469.73 58.2676C469.906 58.5312 469.994 58.7422 469.994 58.9004C469.994 59.1289 469.906 59.3662 469.73 59.6123C469.379 60.0342 468.808 60.2715 468.017 60.3242Z" fill="black"/>
<path d="M452.928 53.2334C451.574 53.2334 450.889 52.7852 450.871 51.8887C450.871 51.3965 451.539 50.5176 452.875 49.252C454.686 47.4941 455.591 46.1582 455.591 45.2441C455.591 45.0859 455.494 44.7959 455.301 44.374C455.143 43.9873 454.193 43.6533 452.453 43.3721C449.57 42.9326 448.129 41.3066 448.129 38.4941C448.129 37.1406 448.56 35.0928 449.421 32.3506C450.88 27.5518 452.717 25.1523 454.932 25.1523C455.248 25.1523 455.573 25.2139 455.907 25.3369C457.384 25.8115 458.122 26.3477 458.122 26.9453C458.122 27.4902 457.85 28.1055 457.305 28.791C454.615 32.1133 453.271 35.5322 453.271 39.0479C453.323 40.2783 454.237 40.999 456.013 41.21C459.423 41.5791 461.154 42.5986 461.207 44.2686V45.7979C461.207 46.7119 460.337 48.0566 458.597 49.832C456.61 51.8359 454.721 52.9697 452.928 53.2334Z" fill="black"/>
<path d="M425.361 42.3438C426.293 41.6934 427.189 40.5596 428.051 38.9424C429.352 36.5693 430.002 35.0928 430.002 34.5127C430.002 34.2314 429.826 34.082 429.475 34.0645C429.193 34.0645 428.991 34.1611 428.868 34.3545C426.161 38.9424 424.808 41.4209 424.808 41.79C424.808 42.0713 424.992 42.2559 425.361 42.3438ZM427.418 53.6816C421.951 53.6816 419.209 51.1416 419.191 46.0615C419.191 45.5693 419.306 44.5059 419.534 42.8711C419.692 41.2012 420.448 39.0391 421.802 36.3848C424.192 31.6387 426.768 29.2656 429.527 29.2656C431.742 29.2656 433.43 30.3818 434.59 32.6143C434.959 33.2998 435.144 34.0205 435.144 34.7764C435.144 35.6904 434.871 36.666 434.326 37.7031C431.25 42.2734 428.332 45.2002 425.572 46.4834C424.605 46.9756 424.122 47.4678 424.122 47.96C424.122 48.1709 424.157 48.3818 424.228 48.5928C424.544 49.7529 425.194 50.333 426.179 50.333C427.638 50.333 429.562 49.4453 431.953 47.6699C433.518 46.5273 434.651 45.6484 435.354 45.0332C436.233 44.1719 436.919 43.7412 437.411 43.7412C437.675 43.7412 437.921 43.8291 438.149 44.0049C438.554 44.374 438.756 44.8223 438.756 45.3496C438.756 45.9473 438.396 46.7998 437.675 47.9072C436.919 49.0322 435.715 50.2188 434.062 51.4668C432.375 52.6973 430.863 53.4004 429.527 53.5762C429.475 53.5762 429.413 53.5762 429.343 53.5762C428.657 53.6465 428.016 53.6816 427.418 53.6816Z" fill="black"/>
<path d="M402.021 54.3135C399.701 54.3135 398.515 53.3467 398.462 51.4131C398.462 50.8154 399.543 42.3516 401.705 26.0215C401.705 25.6523 401.591 25.459 401.362 25.4414C401.257 25.4414 400.035 25.6523 397.697 26.0742C397.381 26.1445 397.144 26.3818 396.985 26.7861L395.904 31.0576C394.691 36.1377 394.085 40.4355 394.085 43.9512C394.085 46.7637 394.498 49.5146 395.324 52.2041C395.395 52.415 395.43 52.6523 395.43 52.916C395.43 53.8301 394.814 54.2783 393.584 54.2607C393.057 54.2607 392.556 54.0674 392.081 53.6807C390.517 52.4502 389.603 51.0088 389.339 49.3564C389.181 48.46 389.102 47.2559 389.102 45.7441C389.102 39.6973 389.77 34.1162 391.105 29.001C391.123 28.9307 391.132 28.8604 391.132 28.79C391.185 28.5439 391.211 28.3594 391.211 28.2363C391.211 27.9199 391.105 27.7617 390.895 27.7617C390.561 27.7617 390.183 27.832 389.761 27.9727C386.175 28.9395 383.925 29.4229 383.011 29.4229C381.288 29.4229 380.312 28.3945 380.084 26.3379C380.084 25.6523 380.462 25.1162 381.218 24.7295C381.974 24.4131 383.072 24.1406 384.514 23.9121C385.955 23.7363 387.449 23.3936 388.996 22.8838C390.525 22.3916 391.694 21.9258 392.503 21.4863C393.294 21.0645 393.927 18.6211 394.401 14.1562C394.542 12.5742 395.28 11.7217 396.616 11.5986C396.88 11.5986 397.205 11.6514 397.592 11.7568C398.893 12.1084 399.543 12.9082 399.543 14.1562C399.543 15.1758 399.446 16.1602 399.253 17.1094C398.937 18.709 398.778 19.5967 398.778 19.7725C398.778 20.1943 399.016 20.4053 399.49 20.4053C401.424 20.1416 402.461 19.9307 402.602 19.7725C402.777 19.5791 403.894 14.1035 405.95 3.3457C406.161 2.11523 406.829 1.5 407.954 1.5L408.455 1.55273C409.703 1.64062 410.327 2.32617 410.327 3.60938C410.327 5.06836 409.606 9.65625 408.165 17.373L407.901 18.6914C407.901 18.9551 408.007 19.0781 408.218 19.0605L408.376 19.0078C416.022 17.8477 420.707 17.2676 422.43 17.2676C423.238 17.2676 424.047 17.3027 424.855 17.373C426.982 17.6543 428.081 18.8496 428.151 20.959C428.151 21.873 427.773 22.3389 427.018 22.3564C426.701 22.3564 426.411 22.3213 426.147 22.251C424.987 21.8818 423.73 21.6973 422.377 21.6973C421.357 21.6973 416.312 22.5498 407.242 24.2549C407.172 24.2725 407.102 24.2988 407.031 24.334C406.979 24.3691 406.908 24.4307 406.82 24.5186C406.645 24.6943 406.504 25.3008 406.398 26.3379C405.414 32.5957 404.922 36.0234 404.922 36.6211C404.922 36.9902 405.001 37.166 405.159 37.1484C405.317 37.1484 405.599 36.7705 406.003 36.0146C407.515 33.3076 409.299 30.8379 411.355 28.6055C412.164 27.7617 413.043 27.3135 413.992 27.2607C414.484 27.2607 414.994 27.3926 415.521 27.6562C416.646 28.2363 417.235 29.1152 417.288 30.293L417.235 31.4795C416.374 38.7744 415.943 43.6875 415.943 46.2188C415.943 47.7832 416.506 49.1543 417.631 50.332C418.193 50.9121 418.501 51.4131 418.554 51.835C418.554 52.1689 418.369 52.5469 418 52.9688C417.367 53.7246 416.594 54.1201 415.68 54.1553C415.135 54.1553 414.599 54.0146 414.071 53.7334C412.331 52.8193 411.408 51.3955 411.303 49.4619C411.162 47.5635 411.092 45.4541 411.092 43.1338C411.092 41.9033 411.127 40.6465 411.197 39.3633C411.303 37.8164 411.355 36.8848 411.355 36.5684C411.338 35.9883 411.25 35.6982 411.092 35.6982C410.441 35.6982 409.158 38.3086 407.242 43.5293C405.73 47.6953 404.922 50.3057 404.816 51.3604C404.623 53.2939 403.691 54.2783 402.021 54.3135Z" fill="black"/>
<path d="M367.125 53.2334C365.771 53.2334 365.086 52.7852 365.068 51.8887C365.068 51.3965 365.736 50.5176 367.072 49.252C368.883 47.4941 369.788 46.1582 369.788 45.2441C369.788 45.0859 369.691 44.7959 369.498 44.374C369.34 43.9873 368.391 43.6533 366.65 43.3721C363.768 42.9326 362.326 41.3066 362.326 38.4941C362.326 37.1406 362.757 35.0928 363.618 32.3506C365.077 27.5518 366.914 25.1523 369.129 25.1523C369.445 25.1523 369.771 25.2139 370.104 25.3369C371.581 25.8115 372.319 26.3477 372.319 26.9453C372.319 27.4902 372.047 28.1055 371.502 28.791C368.812 32.1133 367.468 35.5322 367.468 39.0479C367.521 40.2783 368.435 40.999 370.21 41.21C373.62 41.5791 375.352 42.5986 375.404 44.2686V45.7979C375.404 46.7119 374.534 48.0566 372.794 49.832C370.808 51.8359 368.918 52.9697 367.125 53.2334Z" fill="black"/>
<path d="M358.772 53.6807H358.614C356.768 53.6807 355.792 52.4414 355.634 49.9365C355.582 48.6973 355.529 47.5107 355.529 46.377C355.529 42 355.951 38.0186 356.821 34.3008C357.084 33.2725 357.744 32.7188 358.877 32.7188C360.829 32.7188 361.804 33.4834 361.804 35.0391C361.804 35.4873 361.751 35.8564 361.672 36.2256C360.776 40.8135 360.222 45.4541 360.011 50.1738C360.011 50.543 360.064 50.9121 360.169 51.2549C360.222 51.5713 360.275 51.8877 360.275 52.2568C360.275 52.5469 360.275 52.8633 360.222 53.127C360.169 53.3906 359.695 53.6279 358.772 53.6807Z" fill="#09090B"/>
<ellipse cx="360.951" cy="27.9065" rx="2.88019" ry="3.92752" transform="rotate(19.8485 360.951 27.9065)" fill="#09090B"/>
<path d="M332.461 42.3438C333.393 41.6934 334.289 40.5596 335.15 38.9424C336.451 36.5693 337.102 35.0928 337.102 34.5127C337.102 34.2314 336.926 34.082 336.574 34.0645C336.293 34.0645 336.091 34.1611 335.968 34.3545C333.261 38.9424 331.907 41.4209 331.907 41.79C331.907 42.0713 332.092 42.2559 332.461 42.3438ZM334.518 53.6816C329.051 53.6816 326.309 51.1416 326.291 46.0615C326.291 45.5693 326.405 44.5059 326.634 42.8711C326.792 41.2012 327.548 39.0391 328.901 36.3848C331.292 31.6387 333.867 29.2656 336.627 29.2656C338.842 29.2656 340.529 30.3818 341.689 32.6143C342.059 33.2998 342.243 34.0205 342.243 34.7764C342.243 35.6904 341.971 36.666 341.426 37.7031C338.35 42.2734 335.432 45.2002 332.672 46.4834C331.705 46.9756 331.222 47.4678 331.222 47.96C331.222 48.1709 331.257 48.3818 331.327 48.5928C331.644 49.7529 332.294 50.333 333.278 50.333C334.737 50.333 336.662 49.4453 339.053 47.6699C340.617 46.5273 341.751 45.6484 342.454 45.0332C343.333 44.1719 344.019 43.7412 344.511 43.7412C344.774 43.7412 345.021 43.8291 345.249 44.0049C345.653 44.374 345.855 44.8223 345.855 45.3496C345.855 45.9473 345.495 46.7998 344.774 47.9072C344.019 49.0322 342.814 50.2188 341.162 51.4668C339.475 52.6973 337.963 53.4004 336.627 53.5762C336.574 53.5762 336.513 53.5762 336.442 53.5762C335.757 53.6465 335.115 53.6816 334.518 53.6816Z" fill="black"/>
<path d="M312.258 73.5869C309.99 73.5869 307.802 72.5322 305.692 70.4229C304.937 69.6318 304.559 68.7441 304.559 67.7598C304.559 66.582 305.077 65.9932 306.114 65.9932C306.712 65.9932 307.125 66.3535 307.354 67.0742C308.092 69.4473 309.568 70.6338 311.783 70.6338C312.592 70.6338 313.242 70.3438 313.734 69.7637C314.209 69.2188 314.657 68.5156 315.079 67.6543C316.96 64.0332 318.252 60.3594 318.955 56.6328C319.869 51.7812 320.326 47.5186 320.326 43.8447C320.326 43.458 320.177 43.2559 319.878 43.2383C319.772 43.2383 319.597 43.2998 319.351 43.4229C319.087 43.5811 316.723 46.2266 312.258 51.3594C311.062 52.7129 309.788 53.3896 308.435 53.3896C307.521 53.3896 306.562 53.0908 305.561 52.4932C304.049 51.5439 303.293 50.3135 303.293 48.8018C303.293 48.0986 303.46 47.3428 303.794 46.5342C306.22 39.9248 309.832 34.0625 314.631 28.9473C315.756 27.7168 316.969 27.1016 318.27 27.1016C318.34 27.1016 318.48 27.1104 318.691 27.1279C318.92 27.1631 319.245 27.1895 319.667 27.207C320.423 27.2598 321.267 28.0156 322.198 29.4746C322.532 29.9492 322.699 30.3447 322.699 30.6611C322.699 31.0479 322.515 31.373 322.146 31.6367C321.794 31.9355 321.451 32.085 321.117 32.085C320.748 32.085 320.405 31.8652 320.089 31.4258C319.79 31.0215 319.509 30.8193 319.245 30.8193C318.964 30.8193 318.604 31.0742 318.164 31.584C316.494 33.4648 314.587 36.0928 312.442 39.4678C310.28 42.8779 309.032 45.7783 308.698 48.1689C309.612 47.5537 310.913 46.3496 312.601 44.5566C314.271 42.7637 315.835 40.8916 317.294 38.9404C318.753 37.0068 319.702 35.5303 320.142 34.5107C320.388 33.9658 320.862 33.6934 321.565 33.6934C323.13 33.6934 324.185 34.4141 324.729 35.8555C325.134 36.8398 325.336 38.8174 325.336 41.7881C325.336 52.3701 323.446 61.2646 319.667 68.4717C317.804 71.8818 315.334 73.5869 312.258 73.5869Z" fill="black"/>
<path d="M288.127 53.127C287.635 53.127 287.151 53.0215 286.677 52.8105C284.743 52.002 283.75 50.7979 283.697 49.1982C283.697 48.7061 283.732 48.3105 283.803 48.0117C283.996 47.168 284.181 46.3242 284.356 45.4805C285.2 41.7539 286.026 38.0449 286.835 34.3535C287.116 32.9473 287.723 32.2266 288.654 32.1914C288.936 32.1914 289.243 32.2441 289.577 32.3496C291.036 32.8242 291.792 33.5977 291.845 34.6699C291.845 34.9863 291.757 35.4521 291.581 36.0674C290.825 38.4404 290.447 40.1191 290.447 41.1035C290.447 41.4727 290.518 41.666 290.658 41.6836C290.816 41.6836 291.159 41.3232 291.687 40.6025C294.06 37.2627 296.239 34.3799 298.226 31.9541C299.228 30.7236 300.238 30.082 301.258 30.0293C301.785 30.0293 302.304 30.1699 302.813 30.4512C303.991 31.1367 304.606 32.2529 304.659 33.7998C304.659 34.1865 304.598 34.6172 304.475 35.0918C302.822 41.9121 301.996 46.3242 301.996 48.3281C301.996 50.1562 302.128 51.2021 302.392 51.4658C302.462 51.6943 302.497 51.8877 302.497 52.0459C302.497 52.3271 302.348 52.5469 302.049 52.7051C301.768 52.916 301.469 53.0215 301.152 53.0215C300.449 53.0215 299.764 52.7314 299.096 52.1514C297.725 51.0088 297.004 49.4268 296.934 47.4053C296.934 44.6455 296.969 42.9404 297.039 42.29C297.057 42.0967 297.074 41.9121 297.092 41.7363C297.127 41.3496 297.145 41.0596 297.145 40.8662C297.145 40.6553 297.109 40.5498 297.039 40.5498C296.881 40.5498 294.903 43.9336 291.106 50.7012C290.192 52.3184 289.199 53.127 288.127 53.127Z" fill="black"/>
<path d="M280.293 51.9932C280.029 51.9932 279.774 51.958 279.528 51.8877C276.698 50.9912 275.283 48.8643 275.283 45.5068C275.283 44.3291 275.151 43.7402 274.888 43.7402C274.835 43.7402 273.956 44.8389 272.251 47.0361C271.284 48.2666 270.344 49.4004 269.43 50.4375C268.516 51.4746 267.602 51.9932 266.688 51.9932C265.984 51.9932 265.281 51.7998 264.578 51.4131C263.102 50.5693 262.363 49.3037 262.363 47.6162C262.363 47.1943 262.416 46.7461 262.521 46.2715C263.453 41.7715 265.615 37.2715 269.008 32.7715C270.414 30.9434 271.873 30.0293 273.385 30.0293C274.299 30.0293 275.143 30.3105 275.916 30.873C276.672 31.4883 277.05 32.0156 277.05 32.4551C277.05 32.877 276.979 33.2197 276.839 33.4834C276.47 34.2393 276.039 34.6172 275.547 34.6172C275.055 34.6172 274.659 34.5293 274.36 34.3535C274.079 34.1777 273.824 34.0635 273.596 34.0107C273.385 34.0107 273.095 34.2656 272.726 34.7754C271.179 36.8848 269.632 40.0137 268.085 44.1621C267.874 44.707 267.769 45.085 267.769 45.2959C267.769 45.4717 267.821 45.5684 267.927 45.5859C268.472 45.5859 270.019 43.9775 272.567 40.7607C275.819 36.7002 277.806 34.5645 278.526 34.3535C278.931 34.2305 279.265 34.1689 279.528 34.1689C279.81 34.1689 280.047 34.2041 280.24 34.2744C281.242 34.8193 281.743 35.8477 281.743 37.3594C281.743 38.0098 281.655 38.6777 281.479 39.3633C280.829 41.9648 280.504 44.2676 280.504 46.2715C280.504 47.7305 280.812 49.1543 281.427 50.543C281.567 50.8418 281.638 51.0791 281.638 51.2549C281.638 51.7295 281.189 51.9756 280.293 51.9932Z" fill="black"/>
<path d="M260.25 55.5H259.855C256.462 55.5 254.775 51.8701 254.792 44.6104V37.2539C254.792 36.709 254.678 36.4365 254.45 36.4365C254.292 36.4365 254.028 36.709 253.659 37.2539C250.688 42 248.579 47.1328 247.331 52.6523C247.049 54.0586 246.311 54.7969 245.116 54.8672C242.743 54.8672 241.556 53.9443 241.556 52.0986L241.609 51.3604C242.365 46.8779 243.085 42.3955 243.771 37.9131C244.105 35.7686 244.36 34.1162 244.536 32.9561C244.711 31.6904 244.817 31.0225 244.852 30.9521C245.45 25.6611 246.206 20.4053 247.12 15.1846C247.454 13.1631 248.245 12.1523 249.493 12.1523C251.584 12.1699 252.63 13.0664 252.63 14.8418C252.63 15.334 252.578 15.7822 252.472 16.1865C252.085 17.3467 251.488 20.5547 250.679 25.8105C250.064 29.6602 249.756 32.2881 249.756 33.6943C249.756 34.2393 249.792 34.5469 249.862 34.6172C249.985 34.6172 250.424 34.1514 251.18 33.2197C252.78 31.1279 254.467 30.082 256.243 30.082C259.161 30.082 260.62 31.4619 260.62 34.2217C260.62 34.6611 260.584 35.1357 260.514 35.6455C260.18 38.001 260.013 40.3389 260.013 42.6592C260.013 47.1943 260.523 50.5957 261.542 52.8633C261.595 53.0215 261.683 53.1797 261.806 53.3379C261.964 53.6719 262.07 53.9971 262.123 54.3135C262.123 54.542 262.052 54.7266 261.912 54.8672C261.525 55.2363 260.971 55.4473 260.25 55.5Z" fill="black"/>
<path d="M223.436 61.1689C218.479 61.1689 216 58.2246 216 52.3359C216.58 39.627 221.001 28.4121 229.263 18.6914C230.511 17.3203 231.917 16.6348 233.481 16.6348C233.534 16.6348 234 16.6523 234.879 16.6875C235.758 16.7402 236.628 17.4961 237.489 18.9551C237.911 19.7285 238.122 20.625 238.122 21.6445C238.122 22.1367 238.069 22.6816 237.964 23.2793C237.472 25.3535 236.663 26.3906 235.538 26.3906C234.993 26.3906 234.668 26.1621 234.562 25.7051C234.457 25.2305 234.404 24.7295 234.404 24.2021C234.404 23.8154 234.387 23.3057 234.352 22.6729C234.334 22.0576 234.132 21.75 233.745 21.75C232.884 21.75 231.899 22.6201 230.792 24.3604C226.731 30.249 224.051 36.5684 222.75 43.3184C222.064 46.8164 221.722 49.6729 221.722 51.8877C221.722 53.9971 222.021 55.5088 222.618 56.4229C222.917 57.0029 223.603 57.293 224.675 57.293C226.995 57.293 231.214 55.043 237.331 50.543L238.017 49.8838C238.685 49.1631 239.265 48.8027 239.757 48.8027C239.968 48.8027 240.293 48.9346 240.732 49.1982C241.154 49.4619 241.383 49.752 241.418 50.0684C241.418 51.0352 240.829 52.2041 239.651 53.5752C238.403 54.9814 236.435 56.4404 233.745 57.9521C231.056 59.499 228.287 60.501 225.439 60.958C224.701 61.0986 224.033 61.1689 223.436 61.1689Z" fill="black"/>
<path d="M157.49 47.6514C156.567 47.4932 155.961 47.0449 155.592 46.4121C155.223 45.8057 154.985 45.2256 154.985 44.6191C154.985 44.4609 155.038 44.1973 155.144 43.8281C155.223 43.4326 155.275 43.1689 155.275 42.9053C155.275 42.7471 155.038 42.5889 154.616 42.5098C154.247 42.5098 153.904 42.7471 153.641 43.1689C153.535 43.3799 153.43 43.5381 153.271 43.6436C153.113 43.7754 153.008 43.8809 152.823 44.0391C152.243 44.6719 151.742 45.0146 151.268 45.0146C150.898 45.0146 150.503 44.7773 150.028 44.3027C149.369 43.6436 149.053 43.0107 149.053 42.3516C149.211 41.3232 149.817 40.585 150.793 40.084C153.061 38.8975 154.194 37.4473 154.194 35.7598C154.194 34.5732 153.641 33.2285 152.507 31.7783C151.795 30.8555 151.426 30.2227 151.426 29.8799C151.426 29.458 151.637 29.1416 152.085 28.9043C152.349 28.7461 152.56 28.6934 152.823 28.6934L153.693 29.1416C153.957 29.4053 154.458 30.1436 155.275 31.4619C155.645 32.042 155.961 32.3584 156.119 32.3584C156.409 32.3584 156.726 31.4619 157.095 29.6689C157.306 28.6934 157.596 27.8232 157.859 27.0322C158.123 26.2148 158.624 25.8457 159.415 25.8457C160.892 25.8457 161.577 26.6367 161.577 28.2715C161.577 28.9043 161.472 29.7217 161.313 30.6973C161.208 31.1719 161.155 31.5674 161.155 31.8311C161.155 32.042 161.208 32.1475 161.261 32.1475C161.419 32.1475 162.131 31.6201 163.265 30.5918C163.739 30.1436 164.108 29.9326 164.504 29.9326C164.979 29.9326 165.427 30.3281 165.743 31.1191C165.849 31.4619 165.901 31.7256 165.901 31.9893C165.901 32.5957 165.532 33.2285 164.82 33.8877C162.395 36.0498 161.208 37.6582 161.208 38.6865C161.208 39.6094 162.131 41.3232 164.003 43.9336C164.557 44.6719 164.82 45.2783 164.82 45.6475C164.662 46.3066 164.24 46.623 163.634 46.623C163.265 46.5703 162.658 46.1484 161.973 45.3311C161.419 44.8564 161.05 44.3555 160.76 43.8809C160.391 43.1689 159.969 42.7998 159.573 42.7998C159.099 42.7998 158.888 43.2217 158.888 44.0391C158.888 46.4648 158.387 47.6514 157.49 47.6514Z" fill="#EE3E38"/>
<path fill-rule="evenodd" clip-rule="evenodd" d="M142.796 11.6836C155.399 5.79322 170.392 8.49926 181.342 16.3304C186.285 19.9111 190.245 24.8995 190.887 31.4185C191.529 37.6779 189.385 44.0194 185.794 48.9258C181.848 54.1875 176.263 57.7955 170.61 60.4469C167.374 61.9639 163.933 63.1119 160.615 64.2326C160.383 64.3146 160.151 64.3966 159.905 64.4649C155.972 65.695 152.054 66.925 148.121 68.155C147.793 68.278 146.25 68.8657 145.39 68.155C144.462 67.3896 144.612 65.3806 145.39 64.0549C146.728 61.7452 149.432 62.4149 159.468 59.2852C159.55 59.2579 159.891 59.1622 160.205 59.0529C166.186 57.1122 172.03 54.7068 176.905 50.9621C181.766 47.1901 185.097 41.7507 185.917 36.2566C186.736 30.8172 185.084 25.2958 179.909 21.1274C170.596 13.638 157.201 10.8636 146.114 15.4147C135.6 19.7744 128.486 30.1749 129.988 41.532C130.684 47.0261 132.828 51.3311 136.05 54.0781C139.246 56.8115 143.656 58.1099 149.131 57.3309H149.145H149.159C149.842 57.2489 150.47 57.4675 150.934 57.8912C151.371 58.2875 151.603 58.8205 151.671 59.3262C151.74 59.8319 151.671 60.4059 151.344 60.9116C151.016 61.4446 150.47 61.8272 149.787 61.9502H149.773H149.76C142.823 62.9753 136.911 61.2532 132.569 57.4265C128.281 53.6135 125.673 47.8461 125.059 41.04C124.895 38.4296 124.758 31.1315 129.319 23.5874C133.879 16.016 140.42 12.7496 142.796 11.6836Z" fill="#EE3E38"/>
</svg>
