<svg width="643" height="78" viewBox="0 0 643 78" fill="none" xmlns="http://www.w3.org/2000/svg">
<path d="M582.269 53.0205C581.249 53.0205 580.353 52.6865 579.579 52.0186C579.175 51.6318 578.973 51.0869 578.973 50.3838C579.799 43.0537 580.59 36.9893 581.346 32.1904C581.504 31.1885 582.049 30.6875 582.98 30.6875C585.195 30.6875 586.285 31.6719 586.25 33.6406C586.25 34.0273 586.162 34.5195 585.986 35.1172C585.775 35.8906 585.67 36.5674 585.67 37.1475C585.67 37.6924 585.74 37.9648 585.881 37.9648C585.986 37.9648 586.109 37.8242 586.25 37.543C587.059 35.8027 588.535 34.4668 590.68 33.5352C591.348 33.2188 592.033 33.0605 592.736 33.0605C593.334 33.0605 593.844 33.3857 594.266 34.0361C594.477 34.335 594.582 34.6162 594.582 34.8799C594.582 35.3193 594.169 35.7324 593.343 36.1191C593.132 36.2422 592.947 36.3564 592.789 36.4619C588.535 39.7314 585.731 44.4072 584.378 50.4893C583.991 52.1768 583.288 53.0205 582.269 53.0205Z" fill="black"/>
<path d="M567.996 42.0254C568.928 41.375 569.824 40.2412 570.686 38.624C571.986 36.251 572.637 34.7744 572.637 34.1943C572.637 33.9131 572.461 33.7637 572.109 33.7461C571.828 33.7461 571.626 33.8428 571.503 34.0361C568.796 38.624 567.442 41.1025 567.442 41.4717C567.442 41.7529 567.627 41.9375 567.996 42.0254ZM570.053 53.3633C564.586 53.3633 561.844 50.8232 561.826 45.7432C561.826 45.251 561.94 44.1875 562.169 42.5527C562.327 40.8828 563.083 38.7207 564.437 36.0664C566.827 31.3203 569.402 28.9473 572.162 28.9473C574.377 28.9473 576.064 30.0635 577.225 32.2959C577.594 32.9814 577.778 33.7021 577.778 34.458C577.778 35.3721 577.506 36.3477 576.961 37.3848C573.885 41.9551 570.967 44.8818 568.207 46.165C567.24 46.6572 566.757 47.1494 566.757 47.6416C566.757 47.8525 566.792 48.0635 566.862 48.2744C567.179 49.4346 567.829 50.0146 568.813 50.0146C570.272 50.0146 572.197 49.127 574.588 47.3516C576.152 46.209 577.286 45.3301 577.989 44.7148C578.868 43.8535 579.554 43.4229 580.046 43.4229C580.31 43.4229 580.556 43.5107 580.784 43.6865C581.188 44.0557 581.391 44.5039 581.391 45.0312C581.391 45.6289 581.03 46.4814 580.31 47.5889C579.554 48.7139 578.35 49.9004 576.697 51.1484C575.01 52.3789 573.498 53.082 572.162 53.2578C572.109 53.2578 572.048 53.2578 571.978 53.2578C571.292 53.3281 570.65 53.3633 570.053 53.3633Z" fill="black"/>
<path d="M559.79 58.0078C559.509 58.0078 559.219 57.9287 558.92 57.7705C557.355 57.1025 556.327 56.1006 555.835 54.7646C554.974 52.4443 554.543 48.8232 554.543 43.9014C554.543 38.2412 555.299 31.333 556.811 23.1768C556.828 23.0537 556.837 22.9395 556.837 22.834C556.89 22.5 556.916 22.2363 556.916 22.043C556.916 21.709 556.775 21.542 556.494 21.542C555.896 21.542 555.229 21.709 554.49 22.043C553.541 22.4297 552.223 22.623 550.535 22.623C549.832 22.623 549.094 21.9727 548.32 20.6719C548.004 20.1621 547.846 19.6611 547.846 19.1689C547.846 18.2549 548.566 17.7188 550.008 17.5605L556.969 16.6377C557.795 16.5322 558.357 15.9697 558.656 14.9502L562.321 2.10938C562.69 0.703125 563.394 0 564.431 0C564.747 0 565.125 0.0703125 565.564 0.210938C566.971 0.773438 567.674 1.56445 567.674 2.58398C567.674 2.9707 567.577 3.41016 567.384 3.90234C566.698 5.71289 565.819 8.31445 564.747 11.707C564.097 13.7109 563.771 14.8535 563.771 15.1348C563.807 15.7324 564.308 16.0312 565.274 16.0312L568.254 15.9785C568.957 15.9785 569.748 16.0312 570.627 16.1367C571.541 16.2598 572.587 16.6992 573.765 17.4551C574.942 18.2109 575.558 19.0195 575.61 19.8809C575.61 20.25 575.514 20.6279 575.32 21.0146C575.039 21.542 574.679 21.8057 574.239 21.8057C573.817 21.8057 573.334 21.665 572.789 21.3838C571.84 20.9092 570.311 20.6719 568.201 20.6719C564.58 20.6719 562.638 20.9619 562.374 21.542C562.216 21.8232 562.093 22.1836 562.005 22.623C560.335 30.0586 559.5 37.6963 559.5 45.5361C559.5 48.3311 559.667 50.6338 560.001 52.4443C560.212 53.6396 560.713 54.8086 561.504 55.9512C561.68 56.2148 561.768 56.4258 561.768 56.584C561.768 56.8125 561.68 57.0498 561.504 57.2959C561.152 57.7178 560.581 57.9551 559.79 58.0078Z" fill="black"/>
<path d="M544.148 53.4688C541.828 53.4688 539.903 52.3525 538.374 50.1201C537.724 49.1709 537.398 47.9668 537.398 46.5078C537.398 43.6953 538.356 40.1445 540.272 35.8555C541.415 33.2363 542.531 31.2588 543.621 29.9229C544.43 28.9209 545.511 28.4199 546.864 28.4199C549.448 28.4199 550.74 29.2285 550.74 30.8457C550.74 31.1621 550.652 31.3906 550.477 31.5312C550.266 31.707 549.703 31.9268 548.789 32.1904C547.594 32.542 546.592 33.5527 545.783 35.2227C543.832 39.1777 542.856 43.3174 542.856 47.6416C542.856 48.7666 543.252 49.5752 544.043 50.0674C544.289 50.208 544.526 50.2783 544.755 50.2783C545.563 50.2783 547.233 48.8721 549.765 46.0596C550.116 45.708 550.529 45.5322 551.004 45.5322H551.716C552.085 45.5322 552.278 45.7432 552.296 46.165C552.085 47.8525 551.496 49.3467 550.529 50.6475C549.088 52.5283 546.961 53.4688 544.148 53.4688Z" fill="black"/>
<path d="M535.863 51.6748C535.6 51.6748 535.345 51.6396 535.099 51.5693C532.269 50.6729 530.854 48.5459 530.854 45.1885C530.854 44.0107 530.722 43.4219 530.458 43.4219C530.405 43.4219 529.526 44.5205 527.821 46.7178C526.854 47.9482 525.914 49.082 525 50.1191C524.086 51.1562 523.172 51.6748 522.258 51.6748C521.555 51.6748 520.852 51.4814 520.148 51.0947C518.672 50.251 517.934 48.9854 517.934 47.2979C517.934 46.876 517.986 46.4277 518.092 45.9531C519.023 41.4531 521.186 36.9531 524.578 32.4531C525.984 30.625 527.443 29.7109 528.955 29.7109C529.869 29.7109 530.713 29.9922 531.486 30.5547C532.242 31.1699 532.62 31.6973 532.62 32.1367C532.62 32.5586 532.55 32.9014 532.409 33.165C532.04 33.9209 531.609 34.2988 531.117 34.2988C530.625 34.2988 530.229 34.2109 529.931 34.0352C529.649 33.8594 529.395 33.7451 529.166 33.6924C528.955 33.6924 528.665 33.9473 528.296 34.457C526.749 36.5664 525.202 39.6953 523.655 43.8438C523.444 44.3887 523.339 44.7666 523.339 44.9775C523.339 45.1533 523.392 45.25 523.497 45.2676C524.042 45.2676 525.589 43.6592 528.138 40.4424C531.39 36.3818 533.376 34.2461 534.097 34.0352C534.501 33.9121 534.835 33.8506 535.099 33.8506C535.38 33.8506 535.617 33.8857 535.811 33.9561C536.812 34.501 537.313 35.5293 537.313 37.041C537.313 37.6914 537.226 38.3594 537.05 39.0449C536.399 41.6465 536.074 43.9492 536.074 45.9531C536.074 47.4121 536.382 48.8359 536.997 50.2246C537.138 50.5234 537.208 50.7607 537.208 50.9365C537.208 51.4111 536.76 51.6572 535.863 51.6748Z" fill="black"/>
<path d="M510.386 53.0205C509.366 53.0205 508.47 52.6865 507.696 52.0186C507.292 51.6318 507.09 51.0869 507.09 50.3838C507.916 43.0537 508.707 36.9893 509.463 32.1904C509.621 31.1885 510.166 30.6875 511.098 30.6875C513.312 30.6875 514.402 31.6719 514.367 33.6406C514.367 34.0273 514.279 34.5195 514.104 35.1172C513.893 35.8906 513.787 36.5674 513.787 37.1475C513.787 37.6924 513.857 37.9648 513.998 37.9648C514.104 37.9648 514.227 37.8242 514.367 37.543C515.176 35.8027 516.652 34.4668 518.797 33.5352C519.465 33.2188 520.15 33.0605 520.854 33.0605C521.451 33.0605 521.961 33.3857 522.383 34.0361C522.594 34.335 522.699 34.6162 522.699 34.8799C522.699 35.3193 522.286 35.7324 521.46 36.1191C521.249 36.2422 521.064 36.3564 520.906 36.4619C516.652 39.7314 513.849 44.4072 512.495 50.4893C512.108 52.1768 511.405 53.0205 510.386 53.0205Z" fill="black"/>
<path d="M504.684 51.6748C504.42 51.6748 504.165 51.6396 503.919 51.5693C501.089 50.6729 499.674 48.5459 499.674 45.1885C499.674 44.0107 499.542 43.4219 499.278 43.4219C499.226 43.4219 498.347 44.5205 496.642 46.7178C495.675 47.9482 494.734 49.082 493.82 50.1191C492.906 51.1562 491.992 51.6748 491.078 51.6748C490.375 51.6748 489.672 51.4814 488.969 51.0947C487.492 50.251 486.754 48.9854 486.754 47.2979C486.754 46.876 486.807 46.4277 486.912 45.9531C487.844 41.4531 490.006 36.9531 493.398 32.4531C494.805 30.625 496.264 29.7109 497.775 29.7109C498.689 29.7109 499.533 29.9922 500.307 30.5547C501.062 31.1699 501.44 31.6973 501.44 32.1367C501.44 32.5586 501.37 32.9014 501.229 33.165C500.86 33.9209 500.43 34.2988 499.938 34.2988C499.445 34.2988 499.05 34.2109 498.751 34.0352C498.47 33.8594 498.215 33.7451 497.986 33.6924C497.775 33.6924 497.485 33.9473 497.116 34.457C495.569 36.5664 494.022 39.6953 492.476 43.8438C492.265 44.3887 492.159 44.7666 492.159 44.9775C492.159 45.1533 492.212 45.25 492.317 45.2676C492.862 45.2676 494.409 43.6592 496.958 40.4424C500.21 36.3818 502.196 34.2461 502.917 34.0352C503.321 33.9121 503.655 33.8506 503.919 33.8506C504.2 33.8506 504.438 33.8857 504.631 33.9561C505.633 34.501 506.134 35.5293 506.134 37.041C506.134 37.6914 506.046 38.3594 505.87 39.0449C505.22 41.6465 504.895 43.9492 504.895 45.9531C504.895 47.4121 505.202 48.8359 505.817 50.2246C505.958 50.5234 506.028 50.7607 506.028 50.9365C506.028 51.4111 505.58 51.6572 504.684 51.6748Z" fill="black"/>
<path d="M485.642 55.1836H485.247C481.854 55.1836 480.167 51.5537 480.184 44.2939V36.9375C480.184 36.3926 480.07 36.1201 479.841 36.1201C479.683 36.1201 479.419 36.3926 479.05 36.9375C476.08 41.6836 473.97 46.8164 472.722 52.3359C472.441 53.7422 471.703 54.4805 470.507 54.5508C468.134 54.5508 466.948 53.6279 466.948 51.7822L467 51.0439C467.756 46.5615 468.477 42.0791 469.163 37.5967C469.497 35.4521 469.751 33.7998 469.927 32.6396C470.103 31.374 470.208 30.7061 470.244 30.6357C470.841 25.3447 471.597 20.0889 472.511 14.8682C472.845 12.8467 473.636 11.8359 474.884 11.8359C476.976 11.8535 478.022 12.75 478.022 14.5254C478.022 15.0176 477.969 15.4658 477.864 15.8701C477.477 17.0303 476.879 20.2383 476.071 25.4941C475.456 29.3438 475.148 31.9717 475.148 33.3779C475.148 33.9229 475.183 34.2305 475.253 34.3008C475.376 34.3008 475.816 33.835 476.572 32.9033C478.171 30.8115 479.859 29.7656 481.634 29.7656C484.552 29.7656 486.011 31.1455 486.011 33.9053C486.011 34.3447 485.976 34.8193 485.906 35.3291C485.572 37.6846 485.405 40.0225 485.405 42.3428C485.405 46.8779 485.915 50.2793 486.934 52.5469C486.987 52.7051 487.075 52.8633 487.198 53.0215C487.356 53.3555 487.461 53.6807 487.514 53.9971C487.514 54.2256 487.444 54.4102 487.303 54.5508C486.917 54.9199 486.363 55.1309 485.642 55.1836Z" fill="black"/>
<path d="M458.715 53.4688C456.394 53.4688 454.469 52.3525 452.94 50.1201C452.29 49.1709 451.965 47.9668 451.965 46.5078C451.965 43.6953 452.923 40.1445 454.839 35.8555C455.981 33.2363 457.097 31.2588 458.187 29.9229C458.996 28.9209 460.077 28.4199 461.43 28.4199C464.014 28.4199 465.306 29.2285 465.306 30.8457C465.306 31.1621 465.219 31.3906 465.043 31.5312C464.832 31.707 464.269 31.9268 463.355 32.1904C462.16 32.542 461.158 33.5527 460.349 35.2227C458.398 39.1777 457.423 43.3174 457.423 47.6416C457.423 48.7666 457.818 49.5752 458.609 50.0674C458.855 50.208 459.093 50.2783 459.321 50.2783C460.13 50.2783 461.8 48.8721 464.331 46.0596C464.682 45.708 465.095 45.5322 465.57 45.5322H466.282C466.651 45.5322 466.844 45.7432 466.862 46.165C466.651 47.8525 466.062 49.3467 465.095 50.6475C463.654 52.5283 461.527 53.4688 458.715 53.4688Z" fill="black"/>
<path d="M432.363 54.915C431.01 54.915 430.324 54.4668 430.307 53.5703C430.307 53.0781 430.975 52.1992 432.311 50.9336C434.121 49.1758 435.026 47.8398 435.026 46.9258C435.026 46.7676 434.93 46.4775 434.736 46.0557C434.578 45.6689 433.629 45.335 431.889 45.0537C429.006 44.6143 427.564 42.9883 427.564 40.1758C427.564 38.8223 427.995 36.7744 428.856 34.0322C430.315 29.2334 432.152 26.834 434.367 26.834C434.684 26.834 435.009 26.8955 435.343 27.0186C436.819 27.4932 437.558 28.0293 437.558 28.627C437.558 29.1719 437.285 29.7871 436.74 30.4727C434.051 33.7949 432.706 37.2139 432.706 40.7295C432.759 41.96 433.673 42.6807 435.448 42.8916C438.858 43.2607 440.59 44.2803 440.643 45.9502V47.4795C440.643 48.3936 439.772 49.7383 438.032 51.5137C436.046 53.5176 434.156 54.6514 432.363 54.915Z" fill="black"/>
<path d="M412.764 51.3057C413.098 51.3057 413.66 50.084 414.451 47.6406C415.242 45.1973 416.464 41.7959 418.116 37.4365C419.733 33.1123 420.542 30.4668 420.542 29.5C420.542 29.0605 420.437 28.8408 420.226 28.8408C419.962 28.8408 419.549 29.1484 418.986 29.7637C414.521 34.7031 412.289 41.251 412.289 49.4072V50.6465C412.289 51.0859 412.447 51.3057 412.764 51.3057ZM427.45 66.915H427.345C426.009 66.915 424.734 65.2539 423.521 61.9316C422.361 58.7852 421.781 54.5928 421.781 49.3545C421.781 43.0967 421.878 39.2646 422.071 37.8584C422.071 37.6475 422.036 37.542 421.966 37.542C421.843 37.542 421.588 38.1133 421.201 39.2559C420.744 40.6621 420.322 41.9629 419.936 43.1582C418.477 47.6934 417.51 50.6025 417.035 51.8857C415.91 55.0674 414.504 56.6582 412.816 56.6582C410.391 56.6582 408.861 55.3574 408.229 52.7559C407.877 51.2969 407.701 49.6797 407.701 47.9043C407.701 41.0488 409.784 34.4746 413.95 28.1816C415.181 26.3535 416.842 25.4219 418.934 25.3867C420.99 25.3867 422.317 24.7012 422.915 23.3301C423.513 21.9766 424.163 20.1396 424.866 17.8193L427.292 9.67188C427.784 8.10742 428.435 7.29883 429.243 7.24609C429.735 7.24609 430.131 7.28125 430.43 7.35156C431.889 7.7207 432.645 8.42383 432.697 9.46094C432.697 10.2168 432.39 11.6582 431.774 13.7852C430.298 18.707 429.146 22.8467 428.32 26.2041C426.844 32.0576 426.105 38.9834 426.105 46.9814C426.105 47.3682 426.123 49.7588 426.158 54.1533C426.158 58.583 427.063 62.1689 428.874 64.9111C429.296 65.1748 429.507 65.5527 429.507 66.0449C429.507 66.5898 428.821 66.8799 427.45 66.915Z" fill="black"/>
<path d="M399.521 56.3691C396.779 56.3691 395.021 55.0596 394.248 52.4404C393.738 50.8584 393.483 48.9336 393.483 46.666C393.483 42.834 394.256 38.0088 395.803 32.1904L400.338 14.7881C400.69 13.4346 401.428 12.7578 402.553 12.7578C402.87 12.7578 403.23 12.8281 403.634 12.9688C404.496 13.2852 404.926 13.874 404.926 14.7354C404.926 15.1221 404.856 15.5967 404.715 16.1592C400.497 32.2607 398.387 43.2031 398.387 48.9863C398.387 51.6758 398.879 53.0205 399.864 53.0205C401.094 53.0205 403.74 51.1309 407.8 47.3516C407.818 47.3516 407.827 47.3516 407.827 47.3516C407.844 47.3516 407.853 47.334 407.853 47.2988C408.24 46.9473 408.653 46.7539 409.092 46.7188C409.356 46.7188 409.611 46.8242 409.857 47.0352C410.103 47.2461 410.226 47.5186 410.226 47.8525C410.226 48.2217 410.103 48.6172 409.857 49.0391C406.974 53.9258 403.529 56.3691 399.521 56.3691Z" fill="black"/>
<path d="M390.2 53.3643H390.042C388.196 53.3643 387.203 52.1162 387.062 49.6201C387.062 49.5674 387.062 49.5146 387.062 49.4619C386.992 48.2842 386.957 47.1504 386.957 46.0605C386.957 41.6836 387.388 37.6582 388.249 33.9844C388.478 32.9297 389.163 32.4023 390.306 32.4023C392.257 32.4023 393.232 33.1758 393.232 34.7227C393.232 35.1621 393.188 35.5576 393.101 35.9092C392.204 40.4971 391.65 45.1465 391.439 49.8574C391.439 50.2266 391.492 50.5869 391.598 50.9385C391.668 51.2373 391.703 51.5713 391.703 51.9404C391.703 52.2217 391.686 52.5117 391.65 52.8105C391.598 53.1094 391.114 53.2939 390.2 53.3643Z" fill="black"/>
<ellipse cx="392.108" cy="27.7288" rx="2.88019" ry="3.92752" transform="rotate(19.8485 392.108 27.7288)" fill="#09090B"/>
<path d="M382.264 54.4434H381.499C380.479 54.4434 379.688 54.2412 379.126 53.8369C378.194 53.1514 377.693 51.71 377.623 49.5127C377.57 48.9326 377.474 48.502 377.333 48.2207C376.103 49.627 375.338 50.5234 375.039 50.9102C375.004 50.9277 374.978 50.9541 374.96 50.9893C373.923 52.1846 372.719 52.8086 371.348 52.8613L370.161 52.9141C369.353 52.9141 368.43 52.5186 367.393 51.7275C366.32 50.9189 365.784 49.7852 365.784 48.3262C365.784 47.1484 365.986 45.1006 366.391 42.1826C366.76 39.2471 367.454 36.5664 368.474 34.1406C369.282 32.0312 370.363 30.9502 371.717 30.8975C373.229 31.1611 374.002 31.8291 374.037 32.9014C374.037 33.2705 374.002 33.6045 373.932 33.9033C373.65 34.958 373.202 36.7422 372.587 39.2559C372.534 39.4668 372.481 39.6865 372.429 39.915C371.532 43.5713 371.084 45.9619 371.084 47.0869C371.084 47.5264 371.154 47.7461 371.295 47.7461C372.016 47.6934 373.765 45.4258 376.542 40.9434C378.88 37.1289 380.515 34.2285 381.446 32.2422C381.956 31.1699 382.729 30.6074 383.767 30.5547C384.259 30.5547 384.742 30.6689 385.217 30.8975C386.342 31.3193 386.922 32.0225 386.957 33.0068C386.957 33.4814 386.887 33.9297 386.746 34.3516C384.32 41.2949 383.107 46.5508 383.107 50.1191C383.107 51.0332 383.204 51.7363 383.397 52.2285C383.538 52.668 383.608 53.0811 383.608 53.4678V53.8896C383.556 54.1533 383.107 54.3379 382.264 54.4434Z" fill="black"/>
<path d="M355.732 59.4014H353.913C351.909 59.4014 350.916 58.8477 350.933 57.7402C350.933 57.6875 350.951 57.4854 350.986 57.1338C350.986 56.8174 351.17 56.6416 351.54 56.6064C351.856 56.6064 352.155 56.624 352.436 56.6592C352.717 56.7295 352.99 56.7646 353.253 56.7646C353.412 56.7646 353.667 56.7471 354.018 56.7119C354.334 56.7119 354.695 56.457 355.099 55.9473C358.878 51.2539 360.961 45.9102 361.348 39.916C361.348 38.668 361.12 38.0352 360.663 38.0176C360.065 38.0176 359.52 38.1846 359.028 38.5186C353.948 41.8057 351.267 46.1211 350.986 51.4648C350.898 53.4863 350.072 54.4971 348.507 54.4971C347.154 54.4971 346.468 52.8008 346.451 49.4082C346.451 48.9336 346.521 47.457 346.662 44.9785C346.767 42.5352 347.435 37.9297 348.666 31.1621C349.316 27.541 349.896 23.8848 350.406 20.1934C350.599 18.5762 351.311 17.7676 352.542 17.7676C354.545 17.7676 355.609 18.541 355.732 20.0879V21.1689C353.974 30.5205 353.095 35.8115 353.095 37.042C353.095 37.6924 353.183 38.0176 353.359 38.0176C353.64 38.0176 354.167 37.7803 354.941 37.3057C357.138 35.917 359.028 35.2227 360.61 35.2227C364.213 35.2227 366.024 37.0332 366.042 40.6543C366.042 46.9824 363.704 52.6777 359.028 57.7402C358.061 58.7773 356.962 59.3311 355.732 59.4014Z" fill="black"/>
<path d="M330.962 58.0078C330.681 58.0078 330.391 57.9287 330.092 57.7705C328.527 57.1025 327.499 56.1006 327.007 54.7646C326.146 52.4443 325.715 48.8232 325.715 43.9014C325.715 38.2412 326.471 31.333 327.982 23.1768C328 23.0537 328.009 22.9395 328.009 22.834C328.062 22.5 328.088 22.2363 328.088 22.043C328.088 21.709 327.947 21.542 327.666 21.542C327.068 21.542 326.4 21.709 325.662 22.043C324.713 22.4297 323.395 22.623 321.707 22.623C321.004 22.623 320.266 21.9727 319.492 20.6719C319.176 20.1621 319.018 19.6611 319.018 19.1689C319.018 18.2549 319.738 17.7188 321.18 17.5605L328.141 16.6377C328.967 16.5322 329.529 15.9697 329.828 14.9502L333.493 2.10938C333.862 0.703125 334.565 0 335.603 0C335.919 0 336.297 0.0703125 336.736 0.210938C338.143 0.773438 338.846 1.56445 338.846 2.58398C338.846 2.9707 338.749 3.41016 338.556 3.90234C337.87 5.71289 336.991 8.31445 335.919 11.707C335.269 13.7109 334.943 14.8535 334.943 15.1348C334.979 15.7324 335.479 16.0312 336.446 16.0312L339.426 15.9785C340.129 15.9785 340.92 16.0312 341.799 16.1367C342.713 16.2598 343.759 16.6992 344.937 17.4551C346.114 18.2109 346.729 19.0195 346.782 19.8809C346.782 20.25 346.686 20.6279 346.492 21.0146C346.211 21.542 345.851 21.8057 345.411 21.8057C344.989 21.8057 344.506 21.665 343.961 21.3838C343.012 20.9092 341.482 20.6719 339.373 20.6719C335.752 20.6719 333.81 20.9619 333.546 21.542C333.388 21.8232 333.265 22.1836 333.177 22.623C331.507 30.0586 330.672 37.6963 330.672 45.5361C330.672 48.3311 330.839 50.6338 331.173 52.4443C331.384 53.6396 331.885 54.8086 332.676 55.9512C332.852 56.2148 332.939 56.4258 332.939 56.584C332.939 56.8125 332.852 57.0498 332.676 57.2959C332.324 57.7178 331.753 57.9551 330.962 58.0078Z" fill="black"/>
<path d="M308.595 52.8086C308.103 52.8086 307.619 52.7031 307.145 52.4922C305.211 51.6836 304.218 50.4795 304.165 48.8799C304.165 48.3877 304.2 47.9922 304.271 47.6934C304.464 46.8496 304.648 46.0059 304.824 45.1621C305.668 41.4355 306.494 37.7266 307.303 34.0352C307.584 32.6289 308.19 31.9082 309.122 31.873C309.403 31.873 309.711 31.9258 310.045 32.0312C311.504 32.5059 312.26 33.2793 312.312 34.3516C312.312 34.668 312.225 35.1338 312.049 35.749C311.293 38.1221 310.915 39.8008 310.915 40.7852C310.915 41.1543 310.985 41.3477 311.126 41.3652C311.284 41.3652 311.627 41.0049 312.154 40.2842C314.527 36.9443 316.707 34.0615 318.693 31.6357C319.695 30.4053 320.706 29.7637 321.726 29.7109C322.253 29.7109 322.771 29.8516 323.281 30.1328C324.459 30.8184 325.074 31.9346 325.127 33.4814C325.127 33.8682 325.065 34.2988 324.942 34.7734C323.29 41.5938 322.464 46.0059 322.464 48.0098C322.464 49.8379 322.596 50.8838 322.859 51.1475C322.93 51.376 322.965 51.5693 322.965 51.7275C322.965 52.0088 322.815 52.2285 322.517 52.3867C322.235 52.5977 321.937 52.7031 321.62 52.7031C320.917 52.7031 320.231 52.4131 319.563 51.833C318.192 50.6904 317.472 49.1084 317.401 47.0869C317.401 44.3271 317.437 42.6221 317.507 41.9717C317.524 41.7783 317.542 41.5938 317.56 41.418C317.595 41.0312 317.612 40.7412 317.612 40.5479C317.612 40.3369 317.577 40.2314 317.507 40.2314C317.349 40.2314 315.371 43.6152 311.574 50.3828C310.66 52 309.667 52.8086 308.595 52.8086Z" fill="black"/>
<path d="M293.19 42.0254C294.121 41.375 295.018 40.2412 295.879 38.624C297.18 36.251 297.83 34.7744 297.83 34.1943C297.83 33.9131 297.655 33.7637 297.303 33.7461C297.022 33.7461 296.82 33.8428 296.697 34.0361C293.99 38.624 292.636 41.1025 292.636 41.4717C292.636 41.7529 292.821 41.9375 293.19 42.0254ZM295.246 53.3633C289.78 53.3633 287.037 50.8232 287.02 45.7432C287.02 45.251 287.134 44.1875 287.363 42.5527C287.521 40.8828 288.277 38.7207 289.63 36.0664C292.021 31.3203 294.596 28.9473 297.356 28.9473C299.571 28.9473 301.258 30.0635 302.418 32.2959C302.787 32.9814 302.972 33.7021 302.972 34.458C302.972 35.3721 302.699 36.3477 302.155 37.3848C299.078 41.9551 296.16 44.8818 293.401 46.165C292.434 46.6572 291.95 47.1494 291.95 47.6416C291.95 47.8525 291.986 48.0635 292.056 48.2744C292.372 49.4346 293.023 50.0146 294.007 50.0146C295.466 50.0146 297.391 49.127 299.781 47.3516C301.346 46.209 302.48 45.3301 303.183 44.7148C304.062 43.8535 304.747 43.4229 305.24 43.4229C305.503 43.4229 305.749 43.5107 305.978 43.6865C306.382 44.0557 306.584 44.5039 306.584 45.0312C306.584 45.6289 306.224 46.4814 305.503 47.5889C304.747 48.7139 303.543 49.9004 301.891 51.1484C300.203 52.3789 298.692 53.082 297.356 53.2578C297.303 53.2578 297.241 53.2578 297.171 53.2578C296.486 53.3281 295.844 53.3633 295.246 53.3633Z" fill="black"/>
<path d="M261.941 53.2034C261.188 53.8144 260.19 54.1944 260.19 54.1944C259.601 54.4179 259.05 54.6266 258.349 54.5148C257.515 54.3807 256.978 53.8964 256.829 53.7548C255.727 52.7191 255.846 51.1991 255.868 50.9831C258.022 38.1079 260.018 31.7225 261.889 31.7225C262.596 31.7225 263.2 31.9312 263.677 32.408C264.094 32.9072 264.333 33.4884 264.385 34.1441C264.385 34.457 264.333 34.8296 264.198 35.2244C263.2 39.5907 262.649 42.4816 262.649 43.9792C262.649 44.6871 262.753 45.0596 262.962 45.0596C263.565 45.0075 265.219 42.5859 267.983 37.7503C269.064 35.8578 270.189 34.0472 271.374 32.1547C272.059 31.0743 272.976 30.5229 274.004 30.4708C274.92 30.4708 275.688 30.7614 276.209 31.2829C276.656 31.73 276.865 32.3111 276.917 33.019C276.917 33.4884 276.917 33.8609 276.865 34.1515C276.314 36.9903 276.053 38.8828 276.053 39.7471C276.053 40.1122 276.105 40.3283 276.157 40.3283C276.366 40.2761 276.917 39.464 277.789 37.8025C278.37 36.6699 279.13 35.4405 279.92 34.0994C281.656 31.3425 283.206 29.9492 284.673 29.9492C284.934 29.9492 285.15 30.0014 285.359 30.0535C286.648 30.5229 287.304 31.3947 287.304 32.5794C287.304 33.7641 287.095 35.0754 286.648 36.6252C285.411 40.7754 284.837 44.1655 284.837 46.9C284.837 48.7925 285.046 50.1337 285.471 50.9458C285.709 51.3109 285.813 51.5791 285.813 51.8399C285.813 52.1305 285.575 52.4434 285.21 52.7564C284.949 52.965 284.629 53.0991 284.241 53.0991C282.587 53.0991 281.35 52.2348 280.486 50.4466C280.121 49.6568 279.883 48.5317 279.883 47.0043C279.883 46.5349 279.883 46.0357 279.935 45.6631C280.017 45.298 280.017 45.0075 280.017 44.7467C280.017 44.5753 280.046 43.2491 279.674 43.1447C279.383 43.0628 278.944 43.7483 278.646 44.2251C277.386 46.2294 276.477 47.8761 276.068 48.5839C275.829 49.0011 274.957 50.4913 273.467 52.0336C272.879 52.6446 272.327 53.1215 271.597 53.1364C270.725 53.1587 270.092 52.5254 269.965 52.3987C268.937 51.3258 269.518 49.3513 269.943 47.7941C270.144 47.049 270.554 45.991 271.381 43.8675C271.992 42.2879 272.499 41.0734 272.126 40.7903C271.977 40.6785 271.746 40.753 271.664 40.7828C269.593 41.4608 264.337 51.2614 262.027 53.139L261.941 53.2034Z" fill="black"/>
<path d="M254.048 58.0078C253.767 58.0078 253.477 57.9287 253.178 57.7705C251.613 57.1025 250.585 56.1006 250.093 54.7646C249.231 52.4443 248.801 48.8232 248.801 43.9014C248.801 38.2412 249.557 31.333 251.068 23.1768C251.086 23.0537 251.095 22.9395 251.095 22.834C251.147 22.5 251.174 22.2363 251.174 22.043C251.174 21.709 251.033 21.542 250.752 21.542C250.154 21.542 249.486 21.709 248.748 22.043C247.799 22.4297 246.48 22.623 244.793 22.623C244.09 22.623 243.352 21.9727 242.578 20.6719C242.262 20.1621 242.104 19.6611 242.104 19.1689C242.104 18.2549 242.824 17.7188 244.266 17.5605L251.227 16.6377C252.053 16.5322 252.615 15.9697 252.914 14.9502L256.579 2.10938C256.948 0.703125 257.651 0 258.688 0C259.005 0 259.383 0.0703125 259.822 0.210938C261.229 0.773438 261.932 1.56445 261.932 2.58398C261.932 2.9707 261.835 3.41016 261.642 3.90234C260.956 5.71289 260.077 8.31445 259.005 11.707C258.354 13.7109 258.029 14.8535 258.029 15.1348C258.064 15.7324 258.565 16.0312 259.532 16.0312L262.512 15.9785C263.215 15.9785 264.006 16.0312 264.885 16.1367C265.799 16.2598 266.845 16.6992 268.022 17.4551C269.2 18.2109 269.815 19.0195 269.868 19.8809C269.868 20.25 269.771 20.6279 269.578 21.0146C269.297 21.542 268.937 21.8057 268.497 21.8057C268.075 21.8057 267.592 21.665 267.047 21.3838C266.098 20.9092 264.568 20.6719 262.459 20.6719C258.838 20.6719 256.896 20.9619 256.632 21.542C256.474 21.8232 256.351 22.1836 256.263 22.623C254.593 30.0586 253.758 37.6963 253.758 45.5361C253.758 48.3311 253.925 50.6338 254.259 52.4443C254.47 53.6396 254.971 54.8086 255.762 55.9512C255.938 56.2148 256.025 56.4258 256.025 56.584C256.025 56.8125 255.938 57.0498 255.762 57.2959C255.41 57.7178 254.839 57.9551 254.048 58.0078Z" fill="black"/>
<path d="M243.547 53.3623H243.389C241.543 53.3623 240.567 52.123 240.409 49.6182C240.356 48.3789 240.304 47.1924 240.304 46.0586C240.304 41.6816 240.726 37.7002 241.596 33.9824C241.859 32.9541 242.519 32.4004 243.652 32.4004C245.604 32.4004 246.579 33.165 246.579 34.7207C246.579 35.1689 246.526 35.5381 246.447 35.9072C245.551 40.4951 244.997 45.1357 244.786 49.8555C244.786 50.2246 244.839 50.5938 244.944 50.9365C244.997 51.2529 245.05 51.5693 245.05 51.9385C245.05 52.2285 245.05 52.5449 244.997 52.8086C244.944 53.0723 244.47 53.3096 243.547 53.3623Z" fill="#09090B"/>
<ellipse cx="246.147" cy="27.7288" rx="2.88019" ry="3.92752" transform="rotate(19.8485 246.147 27.7288)" fill="#09090B"/>
<path d="M214.941 53.2034C214.188 53.8144 213.19 54.1944 213.19 54.1944C212.601 54.4179 212.05 54.6266 211.349 54.5148C210.515 54.3807 209.978 53.8964 209.829 53.7548C208.727 52.7191 208.846 51.1991 208.868 50.9831C211.022 38.1079 213.018 31.7225 214.889 31.7225C215.596 31.7225 216.2 31.9312 216.677 32.408C217.094 32.9072 217.333 33.4884 217.385 34.1441C217.385 34.457 217.333 34.8296 217.198 35.2244C216.2 39.5907 215.649 42.4816 215.649 43.9792C215.649 44.6871 215.753 45.0596 215.962 45.0596C216.565 45.0075 218.219 42.5859 220.983 37.7503C222.064 35.8578 223.189 34.0472 224.374 32.1547C225.059 31.0743 225.976 30.5229 227.004 30.4708C227.92 30.4708 228.688 30.7614 229.209 31.2829C229.656 31.73 229.865 32.3111 229.917 33.019C229.917 33.4884 229.917 33.8609 229.865 34.1515C229.314 36.9903 229.053 38.8828 229.053 39.7471C229.053 40.1122 229.105 40.3283 229.157 40.3283C229.366 40.2761 229.917 39.464 230.789 37.8025C231.37 36.6699 232.13 35.4405 232.92 34.0994C234.656 31.3425 236.206 29.9492 237.673 29.9492C237.934 29.9492 238.15 30.0014 238.359 30.0535C239.648 30.5229 240.304 31.3947 240.304 32.5794C240.304 33.7641 240.095 35.0754 239.648 36.6252C238.411 40.7754 237.837 44.1655 237.837 46.9C237.837 48.7925 238.046 50.1337 238.471 50.9458C238.709 51.3109 238.813 51.5791 238.813 51.8399C238.813 52.1305 238.575 52.4434 238.21 52.7564C237.949 52.965 237.629 53.0991 237.241 53.0991C235.587 53.0991 234.35 52.2348 233.486 50.4466C233.121 49.6568 232.883 48.5317 232.883 47.0043C232.883 46.5349 232.883 46.0357 232.935 45.6631C233.017 45.298 233.017 45.0075 233.017 44.7467C233.017 44.5753 233.046 43.2491 232.674 43.1447C232.383 43.0628 231.944 43.7483 231.646 44.2251C230.386 46.2294 229.477 47.8761 229.068 48.5839C228.829 49.0011 227.957 50.4913 226.467 52.0336C225.879 52.6446 225.327 53.1215 224.597 53.1364C223.725 53.1587 223.092 52.5254 222.965 52.3987C221.937 51.3258 222.518 49.3513 222.943 47.7941C223.144 47.049 223.554 45.991 224.381 43.8675C224.992 42.2879 225.499 41.0734 225.126 40.7903C224.977 40.6785 224.746 40.753 224.664 40.7828C222.593 41.4608 217.337 51.2614 215.027 53.139L214.941 53.2034Z" fill="black"/>
<path d="M183.941 54.2034C183.188 54.8144 182.19 55.1944 182.19 55.1944C181.601 55.4179 181.05 55.6266 180.349 55.5148C179.515 55.3807 178.978 54.8964 178.829 54.7548C177.727 53.7191 177.846 52.1991 177.868 51.9831C180.022 39.1079 182.018 32.7225 183.889 32.7225C184.596 32.7225 185.2 32.9312 185.677 33.408C186.094 33.9072 186.333 34.4884 186.385 35.1441C186.385 35.457 186.333 35.8296 186.198 36.2244C185.2 40.5907 184.649 43.4816 184.649 44.9792C184.649 45.6871 184.753 46.0596 184.962 46.0596C185.565 46.0075 187.219 43.5859 189.983 38.7503C191.064 36.8578 192.189 35.0472 193.374 33.1547C194.059 32.0743 194.976 31.5229 196.004 31.4708C196.92 31.4708 197.688 31.7614 198.209 32.2829C198.656 32.73 198.865 33.3111 198.917 34.019C198.917 34.4884 198.917 34.8609 198.865 35.1515C198.314 37.9903 198.053 39.8828 198.053 40.7471C198.053 41.1122 198.105 41.3283 198.157 41.3283C198.366 41.2761 198.917 40.464 199.789 38.8025C200.37 37.6699 201.13 36.4405 201.92 35.0994C203.656 32.3425 205.206 30.9492 206.673 30.9492C206.934 30.9492 207.15 31.0014 207.359 31.0535C208.648 31.5229 209.304 32.3947 209.304 33.5794C209.304 34.7641 209.095 36.0754 208.648 37.6252C207.411 41.7754 206.837 45.1655 206.837 47.9C206.837 49.7925 207.046 51.1337 207.471 51.9458C207.709 52.3109 207.813 52.5791 207.813 52.8399C207.813 53.1305 207.575 53.4434 207.21 53.7564C206.949 53.965 206.629 54.0991 206.241 54.0991C204.587 54.0991 203.35 53.2348 202.486 51.4466C202.121 50.6568 201.883 49.5317 201.883 48.0043C201.883 47.5349 201.883 47.0357 201.935 46.6631C202.017 46.298 202.017 46.0075 202.017 45.7467C202.017 45.5753 202.046 44.2491 201.674 44.1447C201.383 44.0628 200.944 44.7483 200.646 45.2251C199.386 47.2294 198.477 48.8761 198.068 49.5839C197.829 50.0011 196.957 51.4913 195.467 53.0336C194.879 53.6446 194.327 54.1215 193.597 54.1364C192.725 54.1587 192.092 53.5254 191.965 53.3987C190.937 52.3258 191.518 50.3513 191.943 48.7941C192.144 48.049 192.554 46.991 193.381 44.8675C193.992 43.2879 194.499 42.0734 194.126 41.7903C193.977 41.6785 193.746 41.753 193.664 41.7828C191.593 42.4608 186.337 52.2614 184.027 54.139L183.941 54.2034Z" fill="black"/>
<path d="M168.698 48.5371C169.823 47.9395 170.79 46.7881 171.598 45.083C172.653 42.8682 173.18 40.6533 173.18 38.4385C173.18 37.1025 172.925 35.9512 172.416 34.9844C171.66 35.6348 170.939 36.8477 170.253 38.623C169.058 41.7168 168.46 44.4502 168.46 46.8232C168.46 47.5264 168.54 48.0977 168.698 48.5371ZM169.542 53.1514C168.733 53.1514 167.801 52.8613 166.747 52.2812C165.622 51.6836 164.734 50.585 164.083 48.9854C163.732 48.1064 163.556 47.0957 163.556 45.9531C163.556 44.2305 164.004 41.9102 164.901 38.9922C165.815 36.0918 166.861 33.5869 168.039 31.4775C168.742 30.2295 169.717 29.6055 170.965 29.6055C172.952 29.6055 174.103 30.502 174.419 32.2949C174.455 32.5586 174.701 32.9365 175.158 33.4287C176.669 34.8701 177.425 36.9971 177.425 39.8096C177.425 39.9678 177.408 40.7236 177.373 42.0771C177.32 43.4658 176.749 45.373 175.659 47.7988C174.586 50.2246 173.163 51.8594 171.387 52.7031C170.754 53.002 170.139 53.1514 169.542 53.1514Z" fill="black"/>
<path d="M145.436 60.8506C140.479 60.8506 138 57.9062 138 52.0176C138.58 39.3086 143.001 28.0938 151.263 18.373C152.511 17.002 153.917 16.3164 155.481 16.3164C155.534 16.3164 156 16.334 156.879 16.3691C157.758 16.4219 158.628 17.1777 159.489 18.6367C159.911 19.4102 160.122 20.3066 160.122 21.3262C160.122 21.8184 160.069 22.3633 159.964 22.9609C159.472 25.0352 158.663 26.0723 157.538 26.0723C156.993 26.0723 156.668 25.8438 156.562 25.3867C156.457 24.9121 156.404 24.4111 156.404 23.8838C156.404 23.4971 156.387 22.9873 156.352 22.3545C156.334 21.7393 156.132 21.4316 155.745 21.4316C154.884 21.4316 153.899 22.3018 152.792 24.042C148.731 29.9307 146.051 36.25 144.75 43C144.064 46.498 143.722 49.3545 143.722 51.5693C143.722 53.6787 144.021 55.1904 144.618 56.1045C144.917 56.6846 145.603 56.9746 146.675 56.9746C148.995 56.9746 153.214 54.7246 159.331 50.2246L160.017 49.5654C160.685 48.8447 161.265 48.4844 161.757 48.4844C161.968 48.4844 162.293 48.6162 162.732 48.8799C163.154 49.1436 163.383 49.4336 163.418 49.75C163.418 50.7168 162.829 51.8857 161.651 53.2568C160.403 54.6631 158.435 56.1221 155.745 57.6338C153.056 59.1807 150.287 60.1826 147.439 60.6396C146.701 60.7803 146.033 60.8506 145.436 60.8506Z" fill="black"/>
<path d="M79.4902 47.1514C78.5674 46.9932 77.9609 46.5449 77.5918 45.9121C77.2227 45.3057 76.9854 44.7256 76.9854 44.1191C76.9854 43.9609 77.0381 43.6973 77.1436 43.3281C77.2227 42.9326 77.2754 42.6689 77.2754 42.4053C77.2754 42.2471 77.0381 42.0889 76.6162 42.0098C76.2471 42.0098 75.9043 42.2471 75.6406 42.6689C75.5352 42.8799 75.4297 43.0381 75.2715 43.1436C75.1133 43.2754 75.0078 43.3809 74.8232 43.5391C74.2432 44.1719 73.7422 44.5146 73.2676 44.5146C72.8984 44.5146 72.5029 44.2773 72.0283 43.8027C71.3691 43.1436 71.0527 42.5107 71.0527 41.8516C71.2109 40.8232 71.8174 40.085 72.793 39.584C75.0605 38.3975 76.1943 36.9473 76.1943 35.2598C76.1943 34.0732 75.6406 32.7285 74.5068 31.2783C73.7949 30.3555 73.4258 29.7227 73.4258 29.3799C73.4258 28.958 73.6367 28.6416 74.085 28.4043C74.3486 28.2461 74.5596 28.1934 74.8232 28.1934L75.6934 28.6416C75.957 28.9053 76.458 29.6436 77.2754 30.9619C77.6445 31.542 77.9609 31.8584 78.1191 31.8584C78.4092 31.8584 78.7256 30.9619 79.0947 29.1689C79.3057 28.1934 79.5957 27.3232 79.8594 26.5322C80.123 25.7148 80.624 25.3457 81.415 25.3457C82.8916 25.3457 83.5771 26.1367 83.5771 27.7715C83.5771 28.4043 83.4717 29.2217 83.3135 30.1973C83.208 30.6719 83.1553 31.0674 83.1553 31.3311C83.1553 31.542 83.208 31.6475 83.2607 31.6475C83.4189 31.6475 84.1309 31.1201 85.2646 30.0918C85.7393 29.6436 86.1084 29.4326 86.5039 29.4326C86.9785 29.4326 87.4268 29.8281 87.7432 30.6191C87.8486 30.9619 87.9014 31.2256 87.9014 31.4893C87.9014 32.0957 87.5322 32.7285 86.8203 33.3877C84.3945 35.5498 83.208 37.1582 83.208 38.1865C83.208 39.1094 84.1309 40.8232 86.0029 43.4336C86.5566 44.1719 86.8203 44.7783 86.8203 45.1475C86.6621 45.8066 86.2402 46.123 85.6338 46.123C85.2646 46.0703 84.6582 45.6484 83.9727 44.8311C83.4189 44.3564 83.0498 43.8555 82.7598 43.3809C82.3906 42.6689 81.9688 42.2998 81.5732 42.2998C81.0986 42.2998 80.8877 42.7217 80.8877 43.5391C80.8877 45.9648 80.3867 47.1514 79.4902 47.1514Z" fill="#EE3E38"/>
<path fill-rule="evenodd" clip-rule="evenodd" d="M64.7958 11.1836C77.3989 5.29322 92.3916 7.99926 103.342 15.8304C108.285 19.4111 112.245 24.3995 112.887 30.9185C113.529 37.1779 111.385 43.5194 107.794 48.4258C103.848 53.6875 98.263 57.2955 92.61 59.9469C89.3739 61.4639 85.933 62.6119 82.6149 63.7326C82.3828 63.8146 82.1507 63.8966 81.9049 63.9649C77.9724 65.195 74.0536 66.425 70.1211 67.655C69.7934 67.778 68.2504 68.3657 67.3902 67.655C66.4617 66.8896 66.6119 64.8806 67.3902 63.5549C68.7283 61.2452 71.4319 61.9149 81.468 58.7852C81.5499 58.7579 81.8912 58.6622 82.2053 58.5529C88.186 56.6122 94.0301 54.2068 98.9048 50.4621C103.766 46.6901 107.097 41.2507 107.917 35.7566C108.736 30.3172 107.084 24.7958 101.909 20.6274C92.5964 13.138 79.2013 10.3636 68.1138 14.9147C57.5999 19.2744 50.4859 29.6749 51.9879 41.032C52.6843 46.5261 54.828 50.8311 58.0505 53.5781C61.2456 56.3115 65.656 57.6099 71.1315 56.8309H71.1451H71.1588C71.8415 56.7489 72.4696 56.9675 72.9339 57.3912C73.3708 57.7875 73.603 58.3205 73.6712 58.8262C73.7395 59.3319 73.6712 59.9059 73.3435 60.4116C73.0158 60.9446 72.4696 61.3272 71.7869 61.4502H71.7733H71.7596C64.8231 62.4753 58.9107 60.7532 54.5686 56.9265C50.2811 53.1135 47.6731 47.3461 47.0586 40.54C46.8947 37.9296 46.7582 30.6315 51.3188 23.0874C55.8794 15.516 62.4199 12.2496 64.7958 11.1836Z" fill="#EE3E38"/>
</svg>
