<svg width="643" height="80" viewBox="0 0 643 80" fill="none" xmlns="http://www.w3.org/2000/svg">
<path d="M505.208 56.0049C503.854 56.0049 503.169 55.5566 503.151 54.6602C503.151 54.168 503.819 53.2891 505.155 52.0234C506.966 50.2656 507.871 48.9297 507.871 48.0156C507.871 47.8574 507.774 47.5674 507.581 47.1455C507.423 46.7588 506.473 46.4248 504.733 46.1436C501.85 45.7041 500.409 44.0781 500.409 41.2656C500.409 39.9121 500.84 37.8643 501.701 35.1221C503.16 30.3232 504.997 27.9238 507.212 27.9238C507.528 27.9238 507.853 27.9854 508.187 28.1084C509.664 28.583 510.402 29.1191 510.402 29.7168C510.402 30.2617 510.13 30.877 509.585 31.5625C506.895 34.8848 505.551 38.3037 505.551 41.8193C505.603 43.0498 506.517 43.7705 508.293 43.9814C511.703 44.3506 513.434 45.3701 513.487 47.04V48.5693C513.487 49.4834 512.617 50.8281 510.877 52.6035C508.89 54.6074 507.001 55.7412 505.208 56.0049Z" fill="black"/>
<path d="M600.605 61.4912H598.786C596.782 61.4912 595.789 60.9375 595.806 59.8301C595.806 59.7773 595.824 59.5752 595.859 59.2236C595.859 58.9072 596.043 58.7314 596.413 58.6963C596.729 58.6963 597.028 58.7139 597.309 58.749C597.59 58.8193 597.863 58.8545 598.126 58.8545C598.285 58.8545 598.54 58.8369 598.891 58.8018C599.208 58.8018 599.568 58.5469 599.972 58.0371C603.751 53.3438 605.834 48 606.221 42.0059C606.221 40.7578 605.993 40.125 605.536 40.1074C604.938 40.1074 604.393 40.2744 603.901 40.6084C598.821 43.8955 596.14 48.2109 595.859 53.5547C595.771 55.5762 594.945 56.5869 593.38 56.5869C592.027 56.5869 591.341 54.8906 591.324 51.498C591.324 51.0234 591.394 49.5469 591.535 47.0684C591.64 44.625 592.308 40.0195 593.539 33.252C594.189 29.6309 594.769 25.9746 595.279 22.2832C595.472 20.666 596.184 19.8574 597.415 19.8574C599.418 19.8574 600.482 20.6309 600.605 22.1777V23.2588C598.847 32.6104 597.968 37.9014 597.968 39.1318C597.968 39.7822 598.056 40.1074 598.232 40.1074C598.513 40.1074 599.041 39.8701 599.814 39.3955C602.011 38.0068 603.901 37.3125 605.483 37.3125C609.086 37.3125 610.897 39.123 610.915 42.7441C610.915 49.0723 608.577 54.7676 603.901 59.8301C602.934 60.8672 601.835 61.4209 600.605 61.4912Z" fill="black"/>
<path d="M588.917 53.7646C588.654 53.7646 588.399 53.7295 588.153 53.6592C585.323 52.7627 583.908 50.6357 583.908 47.2783C583.908 46.1006 583.776 45.5117 583.512 45.5117C583.459 45.5117 582.581 46.6104 580.875 48.8076C579.909 50.0381 578.968 51.1719 578.054 52.209C577.14 53.2461 576.226 53.7646 575.312 53.7646C574.609 53.7646 573.906 53.5713 573.203 53.1846C571.726 52.3408 570.988 51.0752 570.988 49.3877C570.988 48.9658 571.041 48.5176 571.146 48.043C572.078 43.543 574.24 39.043 577.632 34.543C579.039 32.7148 580.498 31.8008 582.009 31.8008C582.923 31.8008 583.767 32.082 584.541 32.6445C585.296 33.2598 585.674 33.7871 585.674 34.2266C585.674 34.6484 585.604 34.9912 585.463 35.2549C585.094 36.0107 584.664 36.3887 584.171 36.3887C583.679 36.3887 583.284 36.3008 582.985 36.125C582.704 35.9492 582.449 35.835 582.22 35.7822C582.009 35.7822 581.719 36.0371 581.35 36.5469C579.803 38.6562 578.256 41.7852 576.709 45.9336C576.499 46.4785 576.393 46.8564 576.393 47.0674C576.393 47.2432 576.446 47.3398 576.551 47.3574C577.096 47.3574 578.643 45.749 581.192 42.5322C584.444 38.4717 586.43 36.3359 587.151 36.125C587.555 36.002 587.889 35.9404 588.153 35.9404C588.434 35.9404 588.671 35.9756 588.865 36.0459C589.867 36.5908 590.368 37.6191 590.368 39.1309C590.368 39.7812 590.28 40.4492 590.104 41.1348C589.454 43.7363 589.128 46.0391 589.128 48.043C589.128 49.502 589.436 50.9258 590.051 52.3145C590.192 52.6133 590.262 52.8506 590.262 53.0264C590.262 53.501 589.814 53.7471 588.917 53.7646Z" fill="black"/>
<path d="M568.875 57.2734H568.48C565.087 57.2734 563.4 53.6436 563.417 46.3838V39.0273C563.417 38.4824 563.303 38.21 563.075 38.21C562.917 38.21 562.653 38.4824 562.284 39.0273C559.313 43.7734 557.204 48.9062 555.956 54.4258C555.674 55.832 554.936 56.5703 553.741 56.6406C551.368 56.6406 550.181 55.7178 550.181 53.8721L550.234 53.1338C550.99 48.6514 551.71 44.1689 552.396 39.6865C552.73 37.542 552.985 35.8896 553.161 34.7295C553.336 33.4639 553.442 32.7959 553.477 32.7256C554.075 27.4346 554.831 22.1787 555.745 16.958C556.079 14.9365 556.87 13.9258 558.118 13.9258C560.209 13.9434 561.255 14.8398 561.255 16.6152C561.255 17.1074 561.203 17.5557 561.097 17.96C560.71 19.1201 560.113 22.3281 559.304 27.584C558.689 31.4336 558.381 34.0615 558.381 35.4678C558.381 36.0127 558.417 36.3203 558.487 36.3906C558.61 36.3906 559.049 35.9248 559.805 34.9932C561.405 32.9014 563.092 31.8555 564.868 31.8555C567.786 31.8555 569.245 33.2354 569.245 35.9951C569.245 36.4346 569.209 36.9092 569.139 37.4189C568.805 39.7744 568.638 42.1123 568.638 44.4326C568.638 48.9678 569.148 52.3691 570.167 54.6367C570.22 54.7949 570.308 54.9531 570.431 55.1113C570.589 55.4453 570.695 55.7705 570.748 56.0869C570.748 56.3154 570.677 56.5 570.537 56.6406C570.15 57.0098 569.596 57.2207 568.875 57.2734Z" fill="black"/>
<path d="M487.838 44.1152C488.769 43.4648 489.666 42.3311 490.527 40.7139C491.828 38.3408 492.478 36.8643 492.478 36.2842C492.478 36.0029 492.302 35.8535 491.951 35.8359C491.67 35.8359 491.468 35.9326 491.344 36.126C488.637 40.7139 487.284 43.1924 487.284 43.5615C487.284 43.8428 487.469 44.0273 487.838 44.1152ZM489.894 55.4531C484.427 55.4531 481.685 52.9131 481.668 47.833C481.668 47.3408 481.782 46.2773 482.01 44.6426C482.169 42.9727 482.925 40.8105 484.278 38.1562C486.669 33.4102 489.244 31.0371 492.004 31.0371C494.219 31.0371 495.906 32.1533 497.066 34.3857C497.435 35.0713 497.62 35.792 497.62 36.5479C497.62 37.4619 497.347 38.4375 496.802 39.4746C493.726 44.0449 490.808 46.9717 488.049 48.2549C487.082 48.7471 486.598 49.2393 486.598 49.7314C486.598 49.9424 486.634 50.1533 486.704 50.3643C487.02 51.5244 487.671 52.1045 488.655 52.1045C490.114 52.1045 492.039 51.2168 494.429 49.4414C495.994 48.2988 497.128 47.4199 497.831 46.8047C498.71 45.9434 499.395 45.5127 499.887 45.5127C500.151 45.5127 500.397 45.6006 500.626 45.7764C501.03 46.1455 501.232 46.5938 501.232 47.1211C501.232 47.7188 500.872 48.5713 500.151 49.6787C499.395 50.8037 498.191 51.9902 496.539 53.2383C494.851 54.4688 493.34 55.1719 492.004 55.3477C491.951 55.3477 491.889 55.3477 491.819 55.3477C491.134 55.418 490.492 55.4531 489.894 55.4531Z" fill="black"/>
<path d="M457.55 55.2054C456.798 55.8164 455.799 56.1964 455.799 56.1964C455.211 56.4199 454.659 56.6285 453.959 56.5167C453.124 56.3826 452.588 55.8983 452.439 55.7568C451.336 54.7211 451.455 53.2011 451.478 52.985C453.631 40.1099 455.628 33.7245 457.498 33.7245C458.206 33.7245 458.809 33.9331 459.286 34.41C459.703 34.9092 459.942 35.4903 459.994 36.146C459.994 36.459 459.942 36.8315 459.808 37.2264C458.809 41.5926 458.258 44.4836 458.258 45.9812C458.258 46.689 458.362 47.0616 458.571 47.0616C459.174 47.0094 460.829 44.5879 463.593 39.7523C464.673 37.8597 465.798 36.0492 466.983 34.1566C467.668 33.0763 468.585 32.5249 469.613 32.4727C470.53 32.4727 471.297 32.7633 471.819 33.2849C472.266 33.7319 472.474 34.3131 472.526 35.0209C472.526 35.4903 472.526 35.8629 472.474 36.1535C471.923 38.9923 471.662 40.8848 471.662 41.7491C471.662 42.1142 471.714 42.3303 471.766 42.3303C471.975 42.2781 472.526 41.466 473.398 39.8044C473.979 38.6719 474.739 37.4425 475.529 36.1013C477.265 33.3445 478.815 31.9512 480.283 31.9512C480.544 31.9512 480.76 32.0033 480.968 32.0555C482.257 32.5249 482.913 33.3966 482.913 34.5813C482.913 35.766 482.704 37.0774 482.257 38.6272C481.02 42.7773 480.447 46.1675 480.447 48.9019C480.447 50.7945 480.655 52.1356 481.08 52.9478C481.318 53.3129 481.423 53.5811 481.423 53.8419C481.423 54.1325 481.184 54.4454 480.819 54.7583C480.558 54.967 480.238 55.1011 479.851 55.1011C478.197 55.1011 476.96 54.2368 476.095 52.4486C475.73 51.6588 475.492 50.5337 475.492 49.0063C475.492 48.5368 475.492 48.0376 475.544 47.6651C475.626 47.3 475.626 47.0094 475.626 46.7486C475.626 46.5773 475.656 45.251 475.283 45.1467C474.993 45.0647 474.553 45.7502 474.255 46.2271C472.996 48.2314 472.087 49.878 471.677 50.5858C471.439 51.0031 470.567 52.4933 469.077 54.0356C468.488 54.6466 467.937 55.1234 467.206 55.1383C466.335 55.1607 465.701 54.5274 465.575 54.4007C464.547 53.3278 465.128 51.3533 465.552 49.796C465.754 49.051 466.163 47.9929 466.99 45.8694C467.601 44.2898 468.108 43.0753 467.736 42.7922C467.586 42.6804 467.356 42.755 467.274 42.7848C465.202 43.4628 459.947 53.2633 457.637 55.1409L457.55 55.2054Z" fill="black"/>
<path d="M442.42 50.627C443.545 50.0293 444.512 48.8779 445.321 47.1729C446.375 44.958 446.903 42.7432 446.903 40.5283C446.903 39.1924 446.648 38.041 446.138 37.0742C445.382 37.7246 444.662 38.9375 443.976 40.7129C442.781 43.8066 442.183 46.54 442.183 48.9131C442.183 49.6162 442.262 50.1875 442.42 50.627ZM443.264 55.2412C442.456 55.2412 441.524 54.9512 440.469 54.3711C439.344 53.7734 438.457 52.6748 437.806 51.0752C437.455 50.1963 437.279 49.1855 437.279 48.043C437.279 46.3203 437.727 44 438.624 41.082C439.538 38.1816 440.583 35.6768 441.761 33.5674C442.464 32.3193 443.44 31.6953 444.688 31.6953C446.674 31.6953 447.826 32.5918 448.142 34.3848C448.177 34.6484 448.423 35.0264 448.88 35.5186C450.392 36.96 451.148 39.0869 451.148 41.8994C451.148 42.0576 451.13 42.8135 451.095 44.167C451.042 45.5557 450.471 47.4629 449.381 49.8887C448.309 52.3145 446.885 53.9492 445.11 54.793C444.477 55.0918 443.862 55.2412 443.264 55.2412Z" fill="black"/>
<path d="M429.046 55.5586C426.726 55.5586 424.801 54.4424 423.271 52.21C422.621 51.2607 422.296 50.0566 422.296 48.5977C422.296 45.7852 423.254 42.2344 425.17 37.9453C426.312 35.3262 427.429 33.3486 428.519 32.0127C429.327 31.0107 430.408 30.5098 431.762 30.5098C434.346 30.5098 435.638 31.3184 435.638 32.9355C435.638 33.252 435.55 33.4805 435.374 33.6211C435.163 33.7969 434.601 34.0166 433.687 34.2803C432.491 34.6318 431.489 35.6426 430.681 37.3125C428.729 41.2676 427.754 45.4072 427.754 49.7314C427.754 50.8564 428.149 51.665 428.94 52.1572C429.187 52.2979 429.424 52.3682 429.652 52.3682C430.461 52.3682 432.131 50.9619 434.662 48.1494C435.014 47.7979 435.427 47.6221 435.901 47.6221H436.613C436.982 47.6221 437.176 47.833 437.193 48.2549C436.982 49.9424 436.394 51.4365 435.427 52.7373C433.985 54.6182 431.858 55.5586 429.046 55.5586Z" fill="black"/>
<path d="M412.191 44.1152C413.123 43.4648 414.019 42.3311 414.88 40.7139C416.181 38.3408 416.832 36.8643 416.832 36.2842C416.832 36.0029 416.656 35.8535 416.304 35.8359C416.023 35.8359 415.821 35.9326 415.698 36.126C412.991 40.7139 411.637 43.1924 411.637 43.5615C411.637 43.8428 411.822 44.0273 412.191 44.1152ZM414.248 55.4531C408.781 55.4531 406.039 52.9131 406.021 47.833C406.021 47.3408 406.135 46.2773 406.364 44.6426C406.522 42.9727 407.278 40.8105 408.631 38.1562C411.022 33.4102 413.597 31.0371 416.357 31.0371C418.572 31.0371 420.259 32.1533 421.419 34.3857C421.789 35.0713 421.973 35.792 421.973 36.5479C421.973 37.4619 421.701 38.4375 421.156 39.4746C418.08 44.0449 415.162 46.9717 412.402 48.2549C411.435 48.7471 410.952 49.2393 410.952 49.7314C410.952 49.9424 410.987 50.1533 411.057 50.3643C411.374 51.5244 412.024 52.1045 413.008 52.1045C414.467 52.1045 416.392 51.2168 418.783 49.4414C420.347 48.2988 421.481 47.4199 422.184 46.8047C423.063 45.9434 423.749 45.5127 424.241 45.5127C424.504 45.5127 424.75 45.6006 424.979 45.7764C425.383 46.1455 425.585 46.5938 425.585 47.1211C425.585 47.7188 425.225 48.5713 424.504 49.6787C423.749 50.8037 422.544 51.9902 420.892 53.2383C419.205 54.4688 417.693 55.1719 416.357 55.3477C416.304 55.3477 416.243 55.3477 416.172 55.3477C415.487 55.418 414.845 55.4531 414.248 55.4531Z" fill="black"/>
<path d="M396.628 61.4912H394.809C392.805 61.4912 391.812 60.9375 391.829 59.8301C391.829 59.7773 391.847 59.5752 391.882 59.2236C391.882 58.9072 392.066 58.7314 392.436 58.6963C392.752 58.6963 393.051 58.7139 393.332 58.749C393.613 58.8193 393.886 58.8545 394.149 58.8545C394.308 58.8545 394.562 58.8369 394.914 58.8018C395.23 58.8018 395.591 58.5469 395.995 58.0371C399.774 53.3438 401.857 48 402.244 42.0059C402.244 40.7578 402.016 40.125 401.559 40.1074C400.961 40.1074 400.416 40.2744 399.924 40.6084C394.844 43.8955 392.163 48.2109 391.882 53.5547C391.794 55.5762 390.968 56.5869 389.403 56.5869C388.05 56.5869 387.364 54.8906 387.347 51.498C387.347 51.0234 387.417 49.5469 387.558 47.0684C387.663 44.625 388.331 40.0195 389.562 33.252C390.212 29.6309 390.792 25.9746 391.302 22.2832C391.495 20.666 392.207 19.8574 393.438 19.8574C395.441 19.8574 396.505 20.6309 396.628 22.1777V23.2588C394.87 32.6104 393.991 37.9014 393.991 39.1318C393.991 39.7822 394.079 40.1074 394.255 40.1074C394.536 40.1074 395.063 39.8701 395.837 39.3955C398.034 38.0068 399.924 37.3125 401.506 37.3125C405.109 37.3125 406.92 39.123 406.938 42.7441C406.938 49.0723 404.6 54.7676 399.924 59.8301C398.957 60.8672 397.858 61.4209 396.628 61.4912Z" fill="black"/>
<path d="M365.79 58.459C363.048 58.459 361.29 57.1494 360.517 54.5303C360.007 52.9482 359.752 51.0234 359.752 48.7559C359.752 44.9238 360.525 40.0986 362.072 34.2803L366.607 16.8779C366.959 15.5244 367.697 14.8477 368.822 14.8477C369.139 14.8477 369.499 14.918 369.903 15.0586C370.765 15.375 371.195 15.9639 371.195 16.8252C371.195 17.2119 371.125 17.6865 370.984 18.249C366.766 34.3506 364.656 45.293 364.656 51.0762C364.656 53.7656 365.148 55.1104 366.133 55.1104C367.363 55.1104 370.009 53.2207 374.069 49.4414C374.087 49.4414 374.096 49.4414 374.096 49.4414C374.113 49.4414 374.122 49.4238 374.122 49.3887C374.509 49.0371 374.922 48.8438 375.361 48.8086C375.625 48.8086 375.88 48.9141 376.126 49.125C376.372 49.3359 376.495 49.6084 376.495 49.9424C376.495 50.3115 376.372 50.707 376.126 51.1289C373.243 56.0156 369.798 58.459 365.79 58.459Z" fill="black"/>
<path d="M348.777 44.1152C349.708 43.4648 350.605 42.3311 351.466 40.7139C352.767 38.3408 353.417 36.8643 353.417 36.2842C353.417 36.0029 353.242 35.8535 352.89 35.8359C352.609 35.8359 352.407 35.9326 352.284 36.126C349.577 40.7139 348.223 43.1924 348.223 43.5615C348.223 43.8428 348.408 44.0273 348.777 44.1152ZM350.833 55.4531C345.367 55.4531 342.625 52.9131 342.607 47.833C342.607 47.3408 342.721 46.2773 342.95 44.6426C343.108 42.9727 343.864 40.8105 345.217 38.1562C347.608 33.4102 350.183 31.0371 352.943 31.0371C355.158 31.0371 356.845 32.1533 358.005 34.3857C358.375 35.0713 358.559 35.792 358.559 36.5479C358.559 37.4619 358.287 38.4375 357.742 39.4746C354.666 44.0449 351.748 46.9717 348.988 48.2549C348.021 48.7471 347.538 49.2393 347.538 49.7314C347.538 49.9424 347.573 50.1533 347.643 50.3643C347.959 51.5244 348.61 52.1045 349.594 52.1045C351.053 52.1045 352.978 51.2168 355.369 49.4414C356.933 48.2988 358.067 47.4199 358.77 46.8047C359.649 45.9434 360.334 45.5127 360.827 45.5127C361.09 45.5127 361.336 45.6006 361.565 45.7764C361.969 46.1455 362.171 46.5938 362.171 47.1211C362.171 47.7188 361.811 48.5713 361.09 49.6787C360.334 50.8037 359.13 51.9902 357.478 53.2383C355.791 54.4688 354.279 55.1719 352.943 55.3477C352.89 55.3477 352.829 55.3477 352.758 55.3477C352.073 55.418 351.431 55.4531 350.833 55.4531Z" fill="black"/>
<path d="M327.466 53.3955C327.8 53.3955 328.362 52.1738 329.153 49.7305C329.944 47.2871 331.166 43.8857 332.818 39.5264C334.436 35.2021 335.244 32.5566 335.244 31.5898C335.244 31.1504 335.139 30.9307 334.928 30.9307C334.664 30.9307 334.251 31.2383 333.688 31.8535C329.224 36.793 326.991 43.3408 326.991 51.4971V52.7363C326.991 53.1758 327.149 53.3955 327.466 53.3955ZM342.152 69.0049H342.047C340.711 69.0049 339.437 67.3438 338.224 64.0215C337.063 60.875 336.483 56.6826 336.483 51.4443C336.483 45.1865 336.58 41.3545 336.773 39.9482C336.773 39.7373 336.738 39.6318 336.668 39.6318C336.545 39.6318 336.29 40.2031 335.903 41.3457C335.446 42.752 335.024 44.0527 334.638 45.248C333.179 49.7832 332.212 52.6924 331.737 53.9756C330.612 57.1572 329.206 58.748 327.519 58.748C325.093 58.748 323.563 57.4473 322.931 54.8457C322.579 53.3867 322.403 51.7695 322.403 49.9941C322.403 43.1387 324.486 36.5645 328.652 30.2715C329.883 28.4434 331.544 27.5117 333.636 27.4766C335.692 27.4766 337.02 26.791 337.617 25.4199C338.215 24.0664 338.865 22.2295 339.568 19.9092L341.994 11.7617C342.486 10.1973 343.137 9.38867 343.945 9.33594C344.438 9.33594 344.833 9.37109 345.132 9.44141C346.591 9.81055 347.347 10.5137 347.399 11.5508C347.399 12.3066 347.092 13.748 346.477 15.875C345 20.7969 343.849 24.9365 343.022 28.2939C341.546 34.1475 340.808 41.0732 340.808 49.0713C340.808 49.458 340.825 51.8486 340.86 56.2432C340.86 60.6729 341.766 64.2588 343.576 67.001C343.998 67.2646 344.209 67.6426 344.209 68.1348C344.209 68.6797 343.523 68.9697 342.152 69.0049Z" fill="black"/>
<path d="M313.537 50.627C314.662 50.0293 315.629 48.8779 316.438 47.1729C317.492 44.958 318.02 42.7432 318.02 40.5283C318.02 39.1924 317.765 38.041 317.255 37.0742C316.499 37.7246 315.778 38.9375 315.093 40.7129C313.897 43.8066 313.3 46.54 313.3 48.9131C313.3 49.6162 313.379 50.1875 313.537 50.627ZM314.381 55.2412C313.572 55.2412 312.641 54.9512 311.586 54.3711C310.461 53.7734 309.573 52.6748 308.923 51.0752C308.571 50.1963 308.396 49.1855 308.396 48.043C308.396 46.3203 308.844 44 309.74 41.082C310.654 38.1816 311.7 35.6768 312.878 33.5674C313.581 32.3193 314.557 31.6953 315.805 31.6953C317.791 31.6953 318.942 32.5918 319.259 34.3848C319.294 34.6484 319.54 35.0264 319.997 35.5186C321.509 36.96 322.265 39.0869 322.265 41.8994C322.265 42.0576 322.247 42.8135 322.212 44.167C322.159 45.5557 321.588 47.4629 320.498 49.8887C319.426 52.3145 318.002 53.9492 316.227 54.793C315.594 55.0918 314.979 55.2412 314.381 55.2412Z" fill="black"/>
<path d="M283.55 55.2054C282.798 55.8164 281.799 56.1964 281.799 56.1964C281.211 56.4199 280.659 56.6285 279.959 56.5167C279.124 56.3826 278.588 55.8983 278.439 55.7568C277.336 54.7211 277.455 53.2011 277.478 52.985C279.631 40.1099 281.628 33.7245 283.498 33.7245C284.206 33.7245 284.809 33.9331 285.286 34.41C285.703 34.9092 285.942 35.4903 285.994 36.146C285.994 36.459 285.942 36.8315 285.808 37.2264C284.809 41.5926 284.258 44.4836 284.258 45.9812C284.258 46.689 284.362 47.0616 284.571 47.0616C285.174 47.0094 286.829 44.5879 289.593 39.7523C290.673 37.8597 291.798 36.0492 292.983 34.1566C293.668 33.0763 294.585 32.5249 295.613 32.4727C296.53 32.4727 297.297 32.7633 297.819 33.2849C298.266 33.7319 298.474 34.3131 298.526 35.0209C298.526 35.4903 298.526 35.8629 298.474 36.1535C297.923 38.9923 297.662 40.8848 297.662 41.7491C297.662 42.1142 297.714 42.3303 297.766 42.3303C297.975 42.2781 298.526 41.466 299.398 39.8044C299.979 38.6719 300.739 37.4425 301.529 36.1013C303.265 33.3445 304.815 31.9512 306.283 31.9512C306.544 31.9512 306.76 32.0033 306.968 32.0555C308.257 32.5249 308.913 33.3966 308.913 34.5813C308.913 35.766 308.704 37.0774 308.257 38.6272C307.02 42.7773 306.447 46.1675 306.447 48.9019C306.447 50.7945 306.655 52.1356 307.08 52.9478C307.318 53.3129 307.423 53.5811 307.423 53.8419C307.423 54.1325 307.184 54.4454 306.819 54.7583C306.558 54.967 306.238 55.1011 305.851 55.1011C304.197 55.1011 302.96 54.2368 302.095 52.4486C301.73 51.6588 301.492 50.5337 301.492 49.0063C301.492 48.5368 301.492 48.0376 301.544 47.6651C301.626 47.3 301.626 47.0094 301.626 46.7486C301.626 46.5773 301.656 45.251 301.283 45.1467C300.993 45.0647 300.553 45.7502 300.255 46.2271C298.996 48.2314 298.087 49.878 297.677 50.5858C297.439 51.0031 296.567 52.4933 295.077 54.0356C294.488 54.6466 293.937 55.1234 293.206 55.1383C292.335 55.1607 291.701 54.5274 291.575 54.4007C290.547 53.3278 291.128 51.3533 291.552 49.796C291.754 49.051 292.163 47.9929 292.99 45.8694C293.601 44.2898 294.108 43.0753 293.736 42.7922C293.586 42.6804 293.356 42.755 293.274 42.7848C291.202 43.4628 285.947 53.2633 283.637 55.1409L283.55 55.2054Z" fill="black"/>
<path d="M255.382 58.459C252.64 58.459 250.882 57.1494 250.108 54.5303C249.599 52.9482 249.344 51.0234 249.344 48.7559C249.344 44.9238 250.117 40.0986 251.664 34.2803L256.199 16.8779C256.551 15.5244 257.289 14.8477 258.414 14.8477C258.73 14.8477 259.091 14.918 259.495 15.0586C260.356 15.375 260.787 15.9639 260.787 16.8252C260.787 17.2119 260.717 17.6865 260.576 18.249C256.357 34.3506 254.248 45.293 254.248 51.0762C254.248 53.7656 254.74 55.1104 255.725 55.1104C256.955 55.1104 259.601 53.2207 263.661 49.4414C263.679 49.4414 263.688 49.4414 263.688 49.4414C263.705 49.4414 263.714 49.4238 263.714 49.3887C264.101 49.0371 264.514 48.8438 264.953 48.8086C265.217 48.8086 265.472 48.9141 265.718 49.125C265.964 49.3359 266.087 49.6084 266.087 49.9424C266.087 50.3115 265.964 50.707 265.718 51.1289C262.835 56.0156 259.39 58.459 255.382 58.459Z" fill="black"/>
<path d="M246.938 53.7646C246.674 53.7646 246.419 53.7295 246.173 53.6592C243.343 52.7627 241.928 50.6357 241.928 47.2783C241.928 46.1006 241.796 45.5117 241.532 45.5117C241.479 45.5117 240.601 46.6104 238.896 48.8076C237.929 50.0381 236.988 51.1719 236.074 52.209C235.16 53.2461 234.246 53.7646 233.332 53.7646C232.629 53.7646 231.926 53.5713 231.223 53.1846C229.746 52.3408 229.008 51.0752 229.008 49.3877C229.008 48.9658 229.061 48.5176 229.166 48.043C230.098 43.543 232.26 39.043 235.652 34.543C237.059 32.7148 238.518 31.8008 240.029 31.8008C240.943 31.8008 241.787 32.082 242.561 32.6445C243.316 33.2598 243.694 33.7871 243.694 34.2266C243.694 34.6484 243.624 34.9912 243.483 35.2549C243.114 36.0107 242.684 36.3887 242.191 36.3887C241.699 36.3887 241.304 36.3008 241.005 36.125C240.724 35.9492 240.469 35.835 240.24 35.7822C240.029 35.7822 239.739 36.0371 239.37 36.5469C237.823 38.6562 236.276 41.7852 234.729 45.9336C234.519 46.4785 234.413 46.8564 234.413 47.0674C234.413 47.2432 234.466 47.3398 234.571 47.3574C235.116 47.3574 236.663 45.749 239.212 42.5322C242.464 38.4717 244.45 36.3359 245.171 36.125C245.575 36.002 245.909 35.9404 246.173 35.9404C246.454 35.9404 246.691 35.9756 246.885 36.0459C247.887 36.5908 248.388 37.6191 248.388 39.1309C248.388 39.7812 248.3 40.4492 248.124 41.1348C247.474 43.7363 247.148 46.0391 247.148 48.043C247.148 49.502 247.456 50.9258 248.071 52.3145C248.212 52.6133 248.282 52.8506 248.282 53.0264C248.282 53.501 247.834 53.7471 246.938 53.7646Z" fill="black"/>
<path d="M539.288 53.7646C539.025 53.7646 538.77 53.7295 538.524 53.6592C535.694 52.7627 534.279 50.6357 534.279 47.2783C534.279 46.1006 534.147 45.5117 533.883 45.5117C533.83 45.5117 532.951 46.6104 531.246 48.8076C530.28 50.0381 529.339 51.1719 528.425 52.209C527.511 53.2461 526.597 53.7646 525.683 53.7646C524.98 53.7646 524.277 53.5713 523.573 53.1846C522.097 52.3408 521.359 51.0752 521.359 49.3877C521.359 48.9658 521.411 48.5176 521.517 48.043C522.448 43.543 524.611 39.043 528.003 34.543C529.409 32.7148 530.868 31.8008 532.38 31.8008C533.294 31.8008 534.138 32.082 534.911 32.6445C535.667 33.2598 536.045 33.7871 536.045 34.2266C536.045 34.6484 535.975 34.9912 535.834 35.2549C535.465 36.0107 535.034 36.3887 534.542 36.3887C534.05 36.3887 533.655 36.3008 533.356 36.125C533.074 35.9492 532.82 35.835 532.591 35.7822C532.38 35.7822 532.09 36.0371 531.721 36.5469C530.174 38.6562 528.627 41.7852 527.08 45.9336C526.869 46.4785 526.764 46.8564 526.764 47.0674C526.764 47.2432 526.817 47.3398 526.922 47.3574C527.467 47.3574 529.014 45.749 531.563 42.5322C534.815 38.4717 536.801 36.3359 537.522 36.125C537.926 36.002 538.26 35.9404 538.524 35.9404C538.805 35.9404 539.042 35.9756 539.236 36.0459C540.238 36.5908 540.739 37.6191 540.739 39.1309C540.739 39.7812 540.651 40.4492 540.475 41.1348C539.824 43.7363 539.499 46.0391 539.499 48.043C539.499 49.502 539.807 50.9258 540.422 52.3145C540.563 52.6133 540.633 52.8506 540.633 53.0264C540.633 53.501 540.185 53.7471 539.288 53.7646Z" fill="black"/>
<path d="M225.946 56.5332H225.182C224.162 56.5332 223.371 56.3311 222.809 55.9268C221.877 55.2412 221.376 53.7998 221.306 51.6025C221.253 51.0225 221.156 50.5918 221.016 50.3105C219.785 51.7168 219.021 52.6133 218.722 53C218.687 53.0176 218.66 53.0439 218.643 53.0791C217.605 54.2744 216.401 54.8984 215.03 54.9512L213.844 55.0039C213.035 55.0039 212.112 54.6084 211.075 53.8174C210.003 53.0088 209.467 51.875 209.467 50.416C209.467 49.2383 209.669 47.1904 210.073 44.2725C210.442 41.3369 211.137 38.6562 212.156 36.2305C212.965 34.1211 214.046 33.04 215.399 32.9873C216.911 33.251 217.685 33.9189 217.72 34.9912C217.72 35.3604 217.685 35.6943 217.614 35.9932C217.333 37.0479 216.885 38.832 216.27 41.3457C216.217 41.5566 216.164 41.7764 216.111 42.0049C215.215 45.6611 214.767 48.0518 214.767 49.1768C214.767 49.6162 214.837 49.8359 214.978 49.8359C215.698 49.7832 217.447 47.5156 220.225 43.0332C222.562 39.2188 224.197 36.3184 225.129 34.332C225.639 33.2598 226.412 32.6973 227.449 32.6445C227.941 32.6445 228.425 32.7588 228.899 32.9873C230.024 33.4092 230.604 34.1123 230.64 35.0967C230.64 35.5713 230.569 36.0195 230.429 36.4414C228.003 43.3848 226.79 48.6406 226.79 52.209C226.79 53.123 226.887 53.8262 227.08 54.3184C227.221 54.7578 227.291 55.1709 227.291 55.5576V55.9795C227.238 56.2432 226.79 56.4277 225.946 56.5332Z" fill="black"/>
<path d="M207.771 62.0977C207.489 62.0977 207.199 62.0186 206.9 61.8604C205.336 61.1924 204.308 60.1904 203.815 58.8545C202.954 56.5342 202.523 52.9131 202.523 47.9912C202.523 42.3311 203.279 35.4229 204.791 27.2666C204.809 27.1436 204.817 27.0293 204.817 26.9238C204.87 26.5898 204.896 26.3262 204.896 26.1328C204.896 25.7988 204.756 25.6318 204.475 25.6318C203.877 25.6318 203.209 25.7988 202.471 26.1328C201.521 26.5195 200.203 26.7129 198.516 26.7129C197.812 26.7129 197.074 26.0625 196.301 24.7617C195.984 24.252 195.826 23.751 195.826 23.2588C195.826 22.3447 196.547 21.8086 197.988 21.6504L204.949 20.7275C205.775 20.6221 206.338 20.0596 206.637 19.04L210.302 6.19922C210.671 4.79297 211.374 4.08984 212.411 4.08984C212.728 4.08984 213.105 4.16016 213.545 4.30078C214.951 4.86328 215.654 5.6543 215.654 6.67383C215.654 7.06055 215.558 7.5 215.364 7.99219C214.679 9.80273 213.8 12.4043 212.728 15.7969C212.077 17.8008 211.752 18.9434 211.752 19.2246C211.787 19.8223 212.288 20.1211 213.255 20.1211L216.234 20.0684C216.938 20.0684 217.729 20.1211 218.607 20.2266C219.521 20.3496 220.567 20.7891 221.745 21.5449C222.923 22.3008 223.538 23.1094 223.591 23.9707C223.591 24.3398 223.494 24.7178 223.301 25.1045C223.02 25.6318 222.659 25.8955 222.22 25.8955C221.798 25.8955 221.314 25.7549 220.77 25.4736C219.82 24.999 218.291 24.7617 216.182 24.7617C212.561 24.7617 210.618 25.0518 210.354 25.6318C210.196 25.9131 210.073 26.2734 209.985 26.7129C208.315 34.1484 207.48 41.7861 207.48 49.626C207.48 52.4209 207.647 54.7236 207.981 56.5342C208.192 57.7295 208.693 58.8984 209.484 60.041C209.66 60.3047 209.748 60.5156 209.748 60.6738C209.748 60.9023 209.66 61.1396 209.484 61.3857C209.133 61.8076 208.562 62.0449 207.771 62.0977Z" fill="black"/>
<path d="M190.516 49.0713C190.568 49.0186 190.656 48.9658 190.779 48.9131C191.904 48.5088 193.434 46.4961 195.367 42.875C196.387 40.9766 196.896 39.5703 196.896 38.6562C196.896 38.0586 196.712 37.751 196.343 37.7334C195.429 37.7334 193.829 39.8779 191.544 44.167C190.243 46.6104 189.593 47.9902 189.593 48.3066C189.593 48.4297 189.61 48.5791 189.646 48.7549C189.646 48.9131 189.936 49.0186 190.516 49.0713ZM183.265 69.7959C181.173 69.7959 180.101 68.7764 180.048 66.7373L180.101 66.1836C181.05 55.1797 182.904 44.3252 185.664 33.6201C185.98 32.4072 186.622 31.8008 187.589 31.8008C187.87 31.8008 188.16 31.8535 188.459 31.959C189.619 32.293 190.199 32.9785 190.199 34.0156C190.199 34.543 190.015 35.3691 189.646 36.4941C189.259 37.6191 189.065 38.7529 189.065 39.8955C189.065 40.1592 189.136 40.2998 189.276 40.3174C189.646 40.3174 190.727 39.0781 192.52 36.5996C193.838 34.666 195.271 33.6729 196.817 33.6201C197.644 33.6201 198.479 33.8398 199.322 34.2793C200.605 34.9297 201.265 35.9932 201.3 37.4697C201.3 37.9971 201.247 38.5684 201.142 39.1836C200.509 43.3496 198.769 46.918 195.921 49.8887C194.778 51.0664 193.478 51.6553 192.019 51.6553C191.315 51.6553 190.63 51.5322 189.962 51.2861C189.663 51.1455 189.382 51.0752 189.118 51.0752L188.564 51.1279C188.213 51.1982 187.369 53.9141 186.033 59.2754C185.418 61.8594 185.11 64.0391 185.11 65.8145L185.163 67.7129C185.163 68.1875 185.11 68.6533 185.005 69.1104C184.882 69.5674 184.302 69.7959 183.265 69.7959Z" fill="black"/>
<path d="M170.681 44.1152C171.613 43.4648 172.509 42.3311 173.371 40.7139C174.671 38.3408 175.322 36.8643 175.322 36.2842C175.322 36.0029 175.146 35.8535 174.794 35.8359C174.513 35.8359 174.311 35.9326 174.188 36.126C171.481 40.7139 170.127 43.1924 170.127 43.5615C170.127 43.8428 170.312 44.0273 170.681 44.1152ZM172.738 55.4531C167.271 55.4531 164.529 52.9131 164.511 47.833C164.511 47.3408 164.625 46.2773 164.854 44.6426C165.012 42.9727 165.768 40.8105 167.122 38.1562C169.512 33.4102 172.087 31.0371 174.847 31.0371C177.062 31.0371 178.75 32.1533 179.91 34.3857C180.279 35.0713 180.463 35.792 180.463 36.5479C180.463 37.4619 180.191 38.4375 179.646 39.4746C176.57 44.0449 173.652 46.9717 170.892 48.2549C169.925 48.7471 169.442 49.2393 169.442 49.7314C169.442 49.9424 169.477 50.1533 169.547 50.3643C169.864 51.5244 170.514 52.1045 171.499 52.1045C172.958 52.1045 174.882 51.2168 177.273 49.4414C178.837 48.2988 179.971 47.4199 180.674 46.8047C181.553 45.9434 182.239 45.5127 182.731 45.5127C182.995 45.5127 183.241 45.6006 183.469 45.7764C183.874 46.1455 184.076 46.5938 184.076 47.1211C184.076 47.7188 183.715 48.5713 182.995 49.6787C182.239 50.8037 181.035 51.9902 179.382 53.2383C177.695 54.4688 176.183 55.1719 174.847 55.3477C174.794 55.3477 174.733 55.3477 174.663 55.3477C173.977 55.418 173.335 55.4531 172.738 55.4531Z" fill="black"/>
<path d="M156.937 55.5586C154.617 55.5586 152.692 54.4424 151.163 52.21C150.512 51.2607 150.187 50.0566 150.187 48.5977C150.187 45.7852 151.145 42.2344 153.061 37.9453C154.204 35.3262 155.32 33.3486 156.41 32.0127C157.219 31.0107 158.3 30.5098 159.653 30.5098C162.237 30.5098 163.529 31.3184 163.529 32.9355C163.529 33.252 163.441 33.4805 163.265 33.6211C163.054 33.7969 162.492 34.0166 161.578 34.2803C160.383 34.6318 159.381 35.6426 158.572 37.3125C156.621 41.2676 155.645 45.4072 155.645 49.7314C155.645 50.8564 156.041 51.665 156.832 52.1572C157.078 52.2979 157.315 52.3682 157.544 52.3682C158.352 52.3682 160.022 50.9619 162.553 48.1494C162.905 47.7979 163.318 47.6221 163.793 47.6221H164.505C164.874 47.6221 165.067 47.833 165.085 48.2549C164.874 49.9424 164.285 51.4365 163.318 52.7373C161.877 54.6182 159.75 55.5586 156.937 55.5586Z" fill="black"/>
<path d="M135.099 54.8984C134.606 54.8984 134.123 54.793 133.648 54.582C131.715 53.7734 130.722 52.5693 130.669 50.9697C130.669 50.4775 130.704 50.082 130.774 49.7832C130.968 48.9395 131.152 48.0957 131.328 47.252C132.172 43.5254 132.998 39.8164 133.807 36.125C134.088 34.7188 134.694 33.998 135.626 33.9629C135.907 33.9629 136.215 34.0156 136.549 34.1211C138.008 34.5957 138.764 35.3691 138.816 36.4414C138.816 36.7578 138.729 37.2236 138.553 37.8389C137.797 40.2119 137.419 41.8906 137.419 42.875C137.419 43.2441 137.489 43.4375 137.63 43.4551C137.788 43.4551 138.131 43.0947 138.658 42.374C141.031 39.0342 143.211 36.1514 145.197 33.7256C146.199 32.4951 147.21 31.8535 148.229 31.8008C148.757 31.8008 149.275 31.9414 149.785 32.2227C150.963 32.9082 151.578 34.0244 151.631 35.5713C151.631 35.958 151.569 36.3887 151.446 36.8633C149.794 43.6836 148.968 48.0957 148.968 50.0996C148.968 51.9277 149.1 52.9736 149.363 53.2373C149.434 53.4658 149.469 53.6592 149.469 53.8174C149.469 54.0986 149.319 54.3184 149.021 54.4766C148.739 54.6875 148.44 54.793 148.124 54.793C147.421 54.793 146.735 54.5029 146.067 53.9229C144.696 52.7803 143.976 51.1982 143.905 49.1768C143.905 46.417 143.94 44.7119 144.011 44.0615C144.028 43.8682 144.046 43.6836 144.063 43.5078C144.099 43.1211 144.116 42.8311 144.116 42.6377C144.116 42.4268 144.081 42.3213 144.011 42.3213C143.853 42.3213 141.875 45.7051 138.078 52.4727C137.164 54.0898 136.171 54.8984 135.099 54.8984Z" fill="black"/>
<path d="M121.698 50.627C122.823 50.0293 123.79 48.8779 124.598 47.1729C125.653 44.958 126.18 42.7432 126.18 40.5283C126.18 39.1924 125.925 38.041 125.416 37.0742C124.66 37.7246 123.939 38.9375 123.253 40.7129C122.058 43.8066 121.46 46.54 121.46 48.9131C121.46 49.6162 121.54 50.1875 121.698 50.627ZM122.542 55.2412C121.733 55.2412 120.801 54.9512 119.747 54.3711C118.622 53.7734 117.734 52.6748 117.083 51.0752C116.732 50.1963 116.556 49.1855 116.556 48.043C116.556 46.3203 117.004 44 117.901 41.082C118.815 38.1816 119.861 35.6768 121.039 33.5674C121.742 32.3193 122.717 31.6953 123.965 31.6953C125.952 31.6953 127.103 32.5918 127.419 34.3848C127.455 34.6484 127.701 35.0264 128.158 35.5186C129.669 36.96 130.425 39.0869 130.425 41.8994C130.425 42.0576 130.408 42.8135 130.373 44.167C130.32 45.5557 129.749 47.4629 128.659 49.8887C127.586 52.3145 126.163 53.9492 124.387 54.793C123.754 55.0918 123.139 55.2412 122.542 55.2412Z" fill="black"/>
<path d="M98.4355 62.9404C93.4785 62.9404 91 59.9961 91 54.1074C91.5801 41.3984 96.001 30.1836 104.263 20.4629C105.511 19.0918 106.917 18.4062 108.481 18.4062C108.534 18.4062 109 18.4238 109.879 18.459C110.758 18.5117 111.628 19.2676 112.489 20.7266C112.911 21.5 113.122 22.3965 113.122 23.416C113.122 23.9082 113.069 24.4531 112.964 25.0508C112.472 27.125 111.663 28.1621 110.538 28.1621C109.993 28.1621 109.668 27.9336 109.562 27.4766C109.457 27.002 109.404 26.501 109.404 25.9736C109.404 25.5869 109.387 25.0771 109.352 24.4443C109.334 23.8291 109.132 23.5215 108.745 23.5215C107.884 23.5215 106.899 24.3916 105.792 26.1318C101.731 32.0205 99.0508 38.3398 97.75 45.0898C97.0645 48.5879 96.7217 51.4443 96.7217 53.6592C96.7217 55.7686 97.0205 57.2803 97.6182 58.1943C97.917 58.7744 98.6025 59.0645 99.6748 59.0645C101.995 59.0645 106.214 56.8145 112.331 52.3145L113.017 51.6553C113.685 50.9346 114.265 50.5742 114.757 50.5742C114.968 50.5742 115.293 50.7061 115.732 50.9697C116.154 51.2334 116.383 51.5234 116.418 51.8398C116.418 52.8066 115.829 53.9756 114.651 55.3467C113.403 56.7529 111.435 58.2119 108.745 59.7236C106.056 61.2705 103.287 62.2725 100.439 62.7295C99.7012 62.8701 99.0332 62.9404 98.4355 62.9404Z" fill="black"/>
<path d="M626.021 58.0078C625.74 58.0078 625.45 57.9287 625.151 57.7705C623.586 57.1025 622.558 56.1006 622.066 54.7646C621.205 52.4443 620.774 48.8232 620.774 43.9014C620.774 38.2412 621.53 31.333 623.042 23.1768C623.059 23.0537 623.068 22.9395 623.068 22.834C623.121 22.5 623.147 22.2363 623.147 22.043C623.147 21.709 623.006 21.542 622.725 21.542C622.127 21.542 621.459 21.709 620.721 22.043C619.772 22.4297 618.454 22.623 616.766 22.623C616.063 22.623 615.325 21.9727 614.551 20.6719C614.235 20.1621 614.077 19.6611 614.077 19.1689C614.077 18.2549 614.797 17.7188 616.239 17.5605L623.2 16.6377C624.026 16.5322 624.588 15.9697 624.887 14.9502L628.552 2.10938C628.921 0.703125 629.625 0 630.662 0C630.978 0 631.356 0.0703125 631.795 0.210938C633.202 0.773438 633.905 1.56445 633.905 2.58398C633.905 2.9707 633.808 3.41016 633.615 3.90234C632.929 5.71289 632.05 8.31445 630.978 11.707C630.328 13.7109 630.002 14.8535 630.002 15.1348C630.038 15.7324 630.539 16.0312 631.505 16.0312L634.485 15.9785C635.188 15.9785 635.979 16.0312 636.858 16.1367C637.772 16.2598 638.818 16.6992 639.996 17.4551C641.173 18.2109 641.789 19.0195 641.841 19.8809C641.841 20.25 641.745 20.6279 641.551 21.0146C641.27 21.542 640.91 21.8057 640.47 21.8057C640.048 21.8057 639.565 21.665 639.02 21.3838C638.071 20.9092 636.542 20.6719 634.432 20.6719C630.811 20.6719 628.869 20.9619 628.605 21.542C628.447 21.8232 628.324 22.1836 628.236 22.623C626.566 30.0586 625.731 37.6963 625.731 45.5361C625.731 48.3311 625.898 50.6338 626.232 52.4443C626.443 53.6396 626.944 54.8086 627.735 55.9512C627.911 56.2148 627.999 56.4258 627.999 56.584C627.999 56.8125 627.911 57.0498 627.735 57.2959C627.383 57.7178 626.812 57.9551 626.021 58.0078Z" fill="black"/>
<path d="M615.52 53.3623H615.362C613.516 53.3623 612.541 52.123 612.382 49.6182C612.33 48.3789 612.277 47.1924 612.277 46.0586C612.277 41.6816 612.699 37.7002 613.569 33.9824C613.833 32.9541 614.492 32.4004 615.625 32.4004C617.577 32.4004 618.552 33.165 618.552 34.7207C618.552 35.1689 618.5 35.5381 618.42 35.9072C617.524 40.4951 616.97 45.1357 616.759 49.8555C616.759 50.2246 616.812 50.5938 616.917 50.9365C616.97 51.2529 617.023 51.5693 617.023 51.9385C617.023 52.2285 617.023 52.5449 616.97 52.8086C616.917 53.0723 616.443 53.3096 615.52 53.3623Z" fill="#09090B"/>
<ellipse cx="618.12" cy="27.7288" rx="2.88019" ry="3.92752" transform="rotate(19.8485 618.12 27.7288)" fill="#09090B"/>
<path d="M32.4902 49.1514C31.5674 48.9932 30.9609 48.5449 30.5918 47.9121C30.2227 47.3057 29.9854 46.7256 29.9854 46.1191C29.9854 45.9609 30.0381 45.6973 30.1436 45.3281C30.2227 44.9326 30.2754 44.6689 30.2754 44.4053C30.2754 44.2471 30.0381 44.0889 29.6162 44.0098C29.2471 44.0098 28.9043 44.2471 28.6406 44.6689C28.5352 44.8799 28.4297 45.0381 28.2715 45.1436C28.1133 45.2754 28.0078 45.3809 27.8232 45.5391C27.2432 46.1719 26.7422 46.5146 26.2676 46.5146C25.8984 46.5146 25.5029 46.2773 25.0283 45.8027C24.3691 45.1436 24.0527 44.5107 24.0527 43.8516C24.2109 42.8232 24.8174 42.085 25.793 41.584C28.0605 40.3975 29.1943 38.9473 29.1943 37.2598C29.1943 36.0732 28.6406 34.7285 27.5068 33.2783C26.7949 32.3555 26.4258 31.7227 26.4258 31.3799C26.4258 30.958 26.6367 30.6416 27.085 30.4043C27.3486 30.2461 27.5596 30.1934 27.8232 30.1934L28.6934 30.6416C28.957 30.9053 29.458 31.6436 30.2754 32.9619C30.6445 33.542 30.9609 33.8584 31.1191 33.8584C31.4092 33.8584 31.7256 32.9619 32.0947 31.1689C32.3057 30.1934 32.5957 29.3232 32.8594 28.5322C33.123 27.7148 33.624 27.3457 34.415 27.3457C35.8916 27.3457 36.5771 28.1367 36.5771 29.7715C36.5771 30.4043 36.4717 31.2217 36.3135 32.1973C36.208 32.6719 36.1553 33.0674 36.1553 33.3311C36.1553 33.542 36.208 33.6475 36.2607 33.6475C36.4189 33.6475 37.1309 33.1201 38.2646 32.0918C38.7393 31.6436 39.1084 31.4326 39.5039 31.4326C39.9785 31.4326 40.4268 31.8281 40.7432 32.6191C40.8486 32.9619 40.9014 33.2256 40.9014 33.4893C40.9014 34.0957 40.5322 34.7285 39.8203 35.3877C37.3945 37.5498 36.208 39.1582 36.208 40.1865C36.208 41.1094 37.1309 42.8232 39.0029 45.4336C39.5566 46.1719 39.8203 46.7783 39.8203 47.1475C39.6621 47.8066 39.2402 48.123 38.6338 48.123C38.2646 48.0703 37.6582 47.6484 36.9727 46.8311C36.4189 46.3564 36.0498 45.8555 35.7598 45.3809C35.3906 44.6689 34.9688 44.2998 34.5732 44.2998C34.0986 44.2998 33.8877 44.7217 33.8877 45.5391C33.8877 47.9648 33.3867 49.1514 32.4902 49.1514Z" fill="#EE3E38"/>
<path fill-rule="evenodd" clip-rule="evenodd" d="M17.7958 13.1836C30.3989 7.29322 45.3916 9.99926 56.3425 17.8304C61.2854 21.4111 65.2452 26.3995 65.887 32.9185C66.5287 39.1779 64.385 45.5194 60.7938 50.4258C56.8477 55.6875 51.263 59.2955 45.61 61.9469C42.3739 63.4639 38.933 64.6119 35.6149 65.7326C35.3828 65.8146 35.1507 65.8966 34.9049 65.9649C30.9724 67.195 27.0536 68.425 23.1211 69.655C22.7934 69.778 21.2504 70.3657 20.3902 69.655C19.4617 68.8896 19.6119 66.8806 20.3902 65.5549C21.7283 63.2452 24.4319 63.9149 34.468 60.7852C34.5499 60.7579 34.8912 60.6622 35.2053 60.5529C41.186 58.6122 47.0301 56.2068 51.9048 52.4621C56.7658 48.6901 60.0975 43.2507 60.9167 37.7566C61.736 32.3172 60.0838 26.7958 54.9087 22.6274C45.5964 15.138 32.2013 12.3636 21.1138 16.9147C10.5999 21.2744 3.48588 31.6749 4.98788 43.032C5.68426 48.5261 7.82801 52.8311 11.0505 55.5781C14.2456 58.3115 18.656 59.6099 24.1315 58.8309H24.1451H24.1588C24.8415 58.7489 25.4696 58.9675 25.9339 59.3912C26.3708 59.7875 26.603 60.3205 26.6712 60.8262C26.7395 61.3319 26.6712 61.9059 26.3435 62.4116C26.0158 62.9446 25.4696 63.3272 24.7869 63.4502H24.7733H24.7596C17.8231 64.4753 11.9107 62.7532 7.56858 58.9265C3.28106 55.1135 0.673051 49.3461 0.0585986 42.54C-0.105255 39.9296 -0.2418 32.6315 4.3188 25.0874C8.87941 17.516 15.4199 14.2496 17.7958 13.1836Z" fill="#EE3E38"/>
</svg>
