<svg width="643" height="78" viewBox="0 0 643 78" fill="none" xmlns="http://www.w3.org/2000/svg">
<g clip-path="url(#clip0_14580_3261)">
<path d="M617.669 16.46C616.489 15.7 615.449 15.26 614.529 15.14C613.649 15.03 612.859 14.98 612.159 14.98L609.179 15.03C608.209 15.03 607.709 14.73 607.679 14.13C607.679 13.85 608.009 12.71 608.659 10.7C609.729 7.31 610.609 4.71 611.299 2.9C611.489 2.41 611.589 1.97 611.589 1.58C611.589 0.56 610.889 -0.23 609.479 -0.79C609.039 -0.93 608.659 -1 608.349 -1C607.309 -1 606.609 -0.3 606.239 1.11L602.579 13.95C602.279 14.97 601.719 15.53 600.889 15.64L593.929 16.56C593.309 16.63 592.829 16.77 592.479 16.98C592.719 16.06 592.959 15.12 593.209 14.16C593.349 13.6 593.419 13.12 593.419 12.74C593.419 11.88 592.989 11.29 592.129 10.97C591.729 10.83 591.359 10.76 591.049 10.76C589.929 10.76 589.189 11.44 588.829 12.79L584.299 30.19C582.749 36.01 581.979 40.83 581.979 44.67C581.979 46.94 582.229 48.86 582.739 50.44C583.509 53.06 585.269 54.37 588.009 54.37C592.019 54.37 595.459 51.93 598.349 47.04C598.439 46.88 598.499 46.73 598.559 46.58C598.729 49.67 599.129 52.07 599.759 53.77C600.249 55.11 601.279 56.11 602.839 56.78C603.139 56.94 603.429 57.02 603.709 57.02C604.499 56.97 605.069 56.73 605.419 56.31C605.599 56.06 605.679 55.83 605.679 55.6C605.679 55.44 605.589 55.23 605.419 54.97C604.629 53.83 604.129 52.66 603.919 51.46C603.589 49.65 603.419 47.35 603.419 44.55C603.419 36.71 604.259 29.07 605.929 21.64C606.019 21.2 606.139 20.84 606.299 20.56C606.559 19.98 608.509 19.69 612.129 19.69C614.239 19.69 615.769 19.93 616.719 20.4C617.259 20.68 617.749 20.82 618.169 20.82C618.589 20.82 618.969 20.56 619.249 20.03C619.439 19.64 619.539 19.27 619.539 18.9C619.489 18.04 618.869 17.23 617.699 16.47L617.669 16.46ZM600.739 21.84C600.739 21.95 600.739 22.06 600.709 22.18C599.199 30.34 598.439 37.24 598.439 42.9C598.439 43.72 598.459 44.49 598.479 45.23C598.429 45.16 598.399 45.09 598.329 45.03C598.079 44.82 597.829 44.71 597.559 44.71C597.119 44.75 596.709 44.94 596.319 45.29C596.319 45.33 596.319 45.34 596.289 45.34H596.259C592.199 49.12 589.549 51.01 588.319 51.01C587.339 51.01 586.839 49.67 586.839 46.98C586.839 41.81 588.529 32.5 591.909 19.07C591.989 19.27 592.079 19.47 592.199 19.67C592.969 20.97 593.709 21.62 594.419 21.62C596.109 21.62 597.429 21.43 598.369 21.04C599.109 20.71 599.779 20.54 600.369 20.54C600.649 20.54 600.789 20.71 600.789 21.04C600.789 21.23 600.759 21.5 600.709 21.83L600.739 21.84Z" fill="black"/>
<path d="M580.089 29.9005C579.619 29.6705 579.129 29.5605 578.639 29.5605C577.599 29.6105 576.829 30.1805 576.319 31.2505C575.389 33.2405 573.749 36.1405 571.419 39.9505C568.639 44.4305 566.889 46.7005 566.169 46.7505C566.029 46.7505 565.959 46.5305 565.959 46.0905C565.959 44.9705 566.409 42.5705 567.299 38.9205C567.349 38.6905 567.409 38.4705 567.459 38.2605C568.079 35.7505 568.519 33.9605 568.799 32.9105C568.869 32.6105 568.909 32.2805 568.909 31.9105C568.869 30.8405 568.099 30.1705 566.589 29.9105C565.239 29.9605 564.159 31.0405 563.349 33.1505C562.329 35.5805 561.639 38.2605 561.269 41.1905C560.869 44.1105 560.659 46.1605 560.659 47.3305C560.659 48.7905 561.199 49.9205 562.269 50.7305C563.309 51.5205 564.229 51.9205 565.039 51.9205L566.229 51.8705C567.599 51.8205 568.809 51.1905 569.839 50.0005C569.859 49.9605 569.879 49.9405 569.919 49.9205C570.219 49.5305 570.979 48.6405 572.209 47.2305C572.349 47.5105 572.449 47.9405 572.499 48.5205C572.569 50.7205 573.069 52.1605 573.999 52.8405C574.559 53.2405 575.349 53.4505 576.369 53.4505H577.129C577.969 53.3405 578.419 53.1605 578.469 52.9005V52.4805C578.469 52.0905 578.399 51.6805 578.259 51.2405C578.069 50.7505 577.969 50.0405 577.969 49.1305C577.969 45.5605 579.179 40.3105 581.609 33.3605C581.749 32.9405 581.819 32.4905 581.819 32.0205C581.779 31.0405 581.199 30.3305 580.079 29.9105L580.089 29.9005Z" fill="black"/>
<path d="M559.509 37.0404C559.509 35.5304 559.009 34.5004 558.009 33.9604C557.819 33.8904 557.579 33.8504 557.299 33.8504C557.039 33.8504 556.699 33.9104 556.299 34.0304C555.579 34.2404 553.589 36.3804 550.339 40.4404C547.789 43.6604 546.239 45.2704 545.699 45.2704C545.589 45.2504 545.539 45.1604 545.539 44.9804C545.539 44.7704 545.649 44.3904 545.859 43.8504C547.409 39.7004 548.949 36.5704 550.499 34.4604C550.869 33.9504 551.159 33.7004 551.369 33.7004C551.599 33.7504 551.849 33.8704 552.129 34.0404C552.429 34.2204 552.819 34.3004 553.319 34.3004C553.819 34.3004 554.239 33.9204 554.609 33.1704C554.749 32.9104 554.819 32.5604 554.819 32.1404C554.819 31.7204 554.439 31.1704 553.689 30.5604C552.919 30.0004 552.069 29.7204 551.159 29.7204C549.649 29.7204 548.189 30.6304 546.779 32.4604C545.099 34.6904 543.719 36.9204 542.639 39.1604C542.309 38.9604 542.029 38.8404 541.799 38.8104C541.359 38.7804 540.999 38.7804 540.719 38.7904C539.909 38.8104 538.959 38.9804 537.879 39.2904C536.779 39.6204 535.989 39.7904 535.519 39.8004C534.969 39.8104 534.689 39.3904 534.669 38.5304C534.649 37.9304 534.739 37.2104 534.929 36.3604C535.199 35.2604 535.429 34.2804 535.639 33.3804C535.829 33.5104 536.029 33.5704 536.239 33.5004C537.069 33.2704 538.119 31.7504 539.389 28.9404C540.349 26.7704 540.959 25.1904 541.209 24.1804L541.549 22.9204C542.229 20.7104 542.649 18.7404 542.799 17.0104C542.869 16.0304 542.799 15.1604 542.589 14.4004C542.369 13.6704 542.019 13.1404 541.539 12.7904C541.059 12.4304 540.279 12.2704 539.199 12.3004C537.739 13.6104 536.579 15.2104 535.689 17.1004C534.809 18.9704 534.079 20.8504 533.489 22.7404C532.959 24.2104 532.529 25.7104 532.159 27.2104C531.959 27.8204 531.749 28.6004 531.529 29.5804C530.609 33.8104 530.429 36.3404 529.869 38.4904C529.369 40.4304 528.149 43.1304 524.919 46.0404C524.409 46.4304 523.839 46.8604 523.169 47.3504C520.779 49.1304 518.849 50.0104 517.399 50.0104C516.419 50.0104 515.769 49.4304 515.449 48.2704C515.379 48.0604 515.339 47.8504 515.339 47.6404C515.339 47.1504 515.819 46.6604 516.789 46.1604C519.549 44.8804 522.469 41.9504 525.539 37.3804C526.079 36.3404 526.359 35.3704 526.359 34.4504C526.359 33.6904 526.179 32.9704 525.809 32.2904C524.649 30.0604 522.959 28.9404 520.749 28.9404C517.989 28.9404 515.409 31.3104 513.019 36.0604C511.669 38.7104 510.909 40.8804 510.749 42.5504C510.519 44.1804 510.409 45.2504 510.409 45.7404C510.429 50.8204 513.169 53.3604 518.639 53.3604C519.239 53.3604 519.879 53.3204 520.559 53.2504H520.739C522.079 53.0704 523.589 52.3704 525.279 51.1404C526.259 50.4004 527.069 49.6804 527.729 48.9804C527.739 49.0504 527.769 49.1104 527.779 49.1804V49.6504C527.799 50.0904 527.769 50.5604 527.669 51.0704C526.709 56.9904 526.269 61.7404 526.369 65.3504C526.399 66.4404 526.519 67.7104 526.729 69.1404C527.069 71.4304 528.449 72.7204 530.849 73.0104H532.189C533.739 72.8004 534.929 71.8404 535.719 70.1404C536.779 67.9804 537.359 65.7704 537.439 63.5004C537.519 61.2504 537.539 59.4004 537.499 57.9404C537.349 52.5404 536.479 48.3504 534.889 45.3804C534.769 45.1304 534.719 44.8804 534.709 44.6204C534.709 44.4104 534.789 44.2704 534.959 44.1904C535.489 43.9704 536.019 43.7104 536.519 43.4404C537.769 42.8304 538.799 42.5104 539.609 42.4904C540.079 42.4804 540.589 42.6104 541.139 42.8704C540.799 43.9004 540.509 44.9304 540.299 45.9504C540.189 46.4204 540.139 46.8704 540.139 47.2904C540.139 48.9804 540.879 50.2404 542.349 51.0904C543.049 51.4804 543.759 51.6704 544.459 51.6704C545.369 51.6704 546.289 51.1504 547.199 50.1104C548.109 49.0704 549.049 47.9404 550.019 46.7104C551.719 44.5104 552.599 43.4104 552.659 43.4104C552.919 43.4104 553.059 44.0004 553.059 45.1804C553.059 48.5404 554.479 50.6604 557.309 51.5604C557.559 51.6304 557.809 51.6704 558.069 51.6704C558.969 51.6504 559.409 51.4104 559.409 50.9304C559.409 50.7504 559.339 50.5204 559.199 50.2204C558.579 48.8304 558.279 47.4104 558.279 45.9504C558.279 43.9504 558.609 41.6404 559.259 39.0404C559.439 38.3504 559.519 37.6904 559.519 37.0404H559.509ZM536.579 27.6904C536.749 27.0504 536.939 26.3404 537.189 25.5204C537.799 23.4204 538.449 21.3804 539.119 19.4104C539.799 17.4204 540.299 16.1604 540.619 15.6104C540.109 20.4604 538.699 25.0204 536.439 29.3004C536.539 28.6204 536.599 28.0804 536.589 27.7004L536.579 27.6904ZM520.079 34.0404C520.199 33.8504 520.409 33.7504 520.689 33.7504C521.039 33.7704 521.219 33.9204 521.219 34.2004C521.219 34.7804 520.569 36.2604 519.269 38.6304C518.409 40.2504 517.509 41.3804 516.579 42.0304C516.209 41.9404 516.029 41.7604 516.029 41.4804C516.029 41.1104 517.379 38.6304 520.089 34.0404H520.079ZM533.179 61.6304C532.479 66.3404 531.989 68.7404 531.709 68.8204C531.409 68.8504 531.249 68.3904 531.219 67.4604C531.099 63.0804 531.429 57.7804 532.209 51.5604C532.339 50.3304 532.459 49.6204 532.569 49.4404C532.679 49.3004 532.769 49.1704 532.879 49.0604C533.329 49.4504 533.669 50.7004 533.899 52.8004C533.959 54.9104 533.709 57.8504 533.159 61.6304H533.179Z" fill="black"/>
<path d="M511.369 64.9102C509.559 62.1702 508.649 58.5802 508.649 54.1502C508.609 49.7602 508.599 47.3602 508.599 46.9802C508.599 38.9802 509.339 32.0602 510.809 26.2002C511.639 22.8402 512.789 18.7002 514.259 13.7802C514.879 11.6502 515.179 10.2102 515.179 9.46023C515.129 8.42023 514.369 7.72023 512.909 7.35023C512.609 7.28023 512.219 7.24023 511.719 7.24023C510.909 7.29023 510.259 8.10023 509.769 9.67023L507.339 17.8202C506.639 20.1402 505.989 21.9802 505.389 23.3302C504.789 24.7002 503.469 25.3902 501.409 25.3902C499.319 25.4302 497.659 26.3602 496.429 28.1802C492.279 34.4702 490.199 41.0502 490.199 47.9002C490.199 49.6802 490.379 51.2902 490.729 52.7502C491.359 55.3502 492.889 56.6502 495.319 56.6502C497.009 56.6502 498.409 55.0602 499.539 51.8802C500.009 50.6002 500.979 47.6902 502.439 43.1502C502.829 41.9502 503.249 40.6502 503.709 39.2502C504.099 38.1102 504.349 37.5402 504.469 37.5402C504.539 37.5402 504.579 37.6502 504.579 37.8602C504.389 39.2702 504.289 43.1002 504.289 49.3602C504.289 54.6002 504.869 58.7902 506.029 61.9402C507.239 65.2602 508.519 66.9202 509.849 66.9202H509.959C511.329 66.8802 512.019 66.5902 512.019 66.0502C512.019 65.5602 511.809 65.1802 511.389 64.9202L511.369 64.9102ZM500.609 37.4402C498.959 41.8002 497.739 45.2002 496.939 47.6402C496.149 50.0802 495.589 51.3002 495.249 51.3002C494.929 51.3002 494.779 51.0802 494.779 50.6402V49.4002C494.779 41.2402 497.009 34.7002 501.479 29.7602C502.039 29.1402 502.459 28.8402 502.719 28.8402C502.929 28.8402 503.039 29.0602 503.039 29.5002C503.039 30.4702 502.229 33.1102 500.609 37.4402Z" fill="black"/>
<path d="M477.416 40.2302C476.626 39.4902 476.006 39.1002 475.566 39.0402C475.126 39.0002 474.766 38.9902 474.486 38.9902C473.676 38.9902 472.726 39.1302 471.636 39.4102C470.526 39.7102 469.736 39.8602 469.266 39.8602C468.716 39.8602 468.446 39.4302 468.446 38.5702C468.446 37.9702 468.556 37.2502 468.766 36.4102C469.066 35.3202 469.326 34.3402 469.556 33.4502C469.746 33.5902 469.936 33.6502 470.156 33.5902C470.996 33.3802 472.086 31.8902 473.426 29.1202C474.446 26.9802 475.096 25.4102 475.376 24.4102L475.746 23.1602C476.486 20.9702 476.956 19.0102 477.156 17.2902C477.256 16.3102 477.216 15.4402 477.016 14.6802C476.816 13.9402 476.476 13.4002 476.006 13.0402C475.536 12.6702 474.756 12.4902 473.676 12.4902C472.186 13.7602 470.976 15.3302 470.036 17.1902C469.106 19.0402 468.326 20.9002 467.686 22.7702C467.116 24.2302 466.646 25.7102 466.236 27.2002C466.016 27.8002 465.786 28.5802 465.546 29.5502C464.636 33.1202 463.996 36.0702 463.646 38.4102C463.206 41.1002 461.866 42.9502 459.636 43.9502C458.736 44.3902 458.276 44.7902 458.236 45.1602C458.196 45.5502 458.186 45.7902 458.186 45.9002C458.236 46.5002 458.726 46.9902 459.636 47.3802C460.566 47.7702 461.056 48.1002 461.116 48.3802C461.166 48.7102 461.226 48.9302 461.276 49.0402V49.5102C461.276 49.9502 461.226 50.4202 461.116 50.9302C459.996 56.8202 459.426 61.5602 459.426 65.1702C459.426 66.2602 459.516 67.5302 459.686 68.9702C459.966 71.2702 461.306 72.6002 463.696 72.9502L465.036 73.0002C466.596 72.8202 467.806 71.8902 468.646 70.2102C469.766 68.0802 470.406 65.8902 470.546 63.6202C470.686 61.3702 470.756 59.5202 470.756 58.0602C470.756 52.6602 469.996 48.4502 468.486 45.4302C468.376 45.1802 468.326 44.9302 468.326 44.6702C468.326 44.4602 468.416 44.3202 468.586 44.2502C469.126 44.0402 469.656 43.8002 470.166 43.5402C471.436 42.9602 472.466 42.6702 473.276 42.6702C473.876 42.6702 474.526 42.8902 475.226 43.3302C475.686 43.5802 476.096 43.7002 476.466 43.7002C477.066 43.7002 477.536 43.5102 477.886 43.1202C478.206 42.7302 478.356 42.3602 478.356 41.9902C478.356 41.3902 478.026 40.8102 477.376 40.2502L477.416 40.2302ZM473.416 19.5702C474.146 17.6102 474.686 16.3602 475.016 15.8202C474.376 20.6502 472.846 25.1702 470.466 29.3902C470.586 28.7102 470.656 28.1702 470.656 27.7902C470.846 27.1502 471.056 26.4502 471.326 25.6402C471.996 23.5602 472.696 21.5402 473.416 19.5802V19.5702ZM466.336 61.6202C465.506 66.3102 464.956 68.7002 464.676 68.7702C464.376 68.7902 464.226 68.3302 464.226 67.4002C464.226 63.0202 464.696 57.7302 465.646 51.5302C465.806 50.3002 465.946 49.6002 466.066 49.4202C466.176 49.2802 466.276 49.1602 466.386 49.0502C466.826 49.4502 467.136 50.7102 467.306 52.8202C467.306 54.9302 466.976 57.8602 466.326 61.6302L466.336 61.6202Z" fill="black"/>
<path d="M452.141 48.3965C453.266 47.7988 454.232 46.6475 455.041 44.9424C456.096 42.7275 456.623 40.5127 456.623 38.2979C456.623 36.9619 456.368 35.8105 455.858 34.8438C455.103 35.4941 454.382 36.707 453.696 38.4824C452.501 41.5762 451.903 44.3096 451.903 46.6826C451.903 47.3857 451.982 47.957 452.141 48.3965ZM452.984 53.0107C452.176 53.0107 451.244 52.7207 450.189 52.1406C449.064 51.543 448.177 50.4443 447.526 48.8447C447.175 47.9658 446.999 46.9551 446.999 45.8125C446.999 44.0898 447.447 41.7695 448.344 38.8516C449.258 35.9512 450.304 33.4463 451.481 31.3369C452.185 30.0889 453.16 29.4648 454.408 29.4648C456.395 29.4648 457.546 30.3613 457.862 32.1543C457.897 32.418 458.144 32.7959 458.601 33.2881C460.112 34.7295 460.868 36.8564 460.868 39.6689C460.868 39.8271 460.851 40.583 460.815 41.9365C460.763 43.3252 460.191 45.2324 459.102 47.6582C458.029 50.084 456.605 51.7188 454.83 52.5625C454.197 52.8613 453.582 53.0107 452.984 53.0107Z" fill="black"/>
<path d="M424.231 41.8828C425.163 41.2324 426.06 40.0986 426.921 38.4814C428.222 36.1084 428.872 34.6318 428.872 34.0518C428.872 33.7705 428.696 33.6211 428.345 33.6035C428.063 33.6035 427.861 33.7002 427.738 33.8936C425.031 38.4814 423.678 40.96 423.678 41.3291C423.678 41.6104 423.862 41.7949 424.231 41.8828ZM426.288 53.2207C420.821 53.2207 418.079 50.6807 418.062 45.6006C418.062 45.1084 418.176 44.0449 418.404 42.4102C418.562 40.7402 419.318 38.5781 420.672 35.9238C423.062 31.1777 425.638 28.8047 428.397 28.8047C430.612 28.8047 432.3 29.9209 433.46 32.1533C433.829 32.8389 434.014 33.5596 434.014 34.3154C434.014 35.2295 433.741 36.2051 433.196 37.2422C430.12 41.8125 427.202 44.7393 424.442 46.0225C423.476 46.5146 422.992 47.0068 422.992 47.499C422.992 47.71 423.027 47.9209 423.098 48.1318C423.414 49.292 424.064 49.8721 425.049 49.8721C426.508 49.8721 428.433 48.9844 430.823 47.209C432.388 46.0664 433.521 45.1875 434.225 44.5723C435.104 43.7109 435.789 43.2803 436.281 43.2803C436.545 43.2803 436.791 43.3682 437.02 43.5439C437.424 43.9131 437.626 44.3613 437.626 44.8887C437.626 45.4863 437.266 46.3389 436.545 47.4463C435.789 48.5713 434.585 49.7578 432.933 51.0059C431.245 52.2363 429.733 52.9395 428.397 53.1152C428.345 53.1152 428.283 53.1152 428.213 53.1152C427.527 53.1855 426.886 53.2207 426.288 53.2207Z" fill="black"/>
<path d="M416.467 57.8711C416.186 57.8711 415.896 57.792 415.597 57.6338C414.033 56.9658 413.004 55.9639 412.512 54.6279C411.651 52.3076 411.22 48.6865 411.22 43.7646C411.22 38.1045 411.976 31.1963 413.488 23.04C413.505 22.917 413.514 22.8027 413.514 22.6973C413.567 22.3633 413.593 22.0996 413.593 21.9062C413.593 21.5723 413.453 21.4053 413.171 21.4053C412.574 21.4053 411.906 21.5723 411.167 21.9062C410.218 22.293 408.9 22.4863 407.212 22.4863C406.509 22.4863 405.771 21.8359 404.998 20.5352C404.681 20.0254 404.523 19.5244 404.523 19.0322C404.523 18.1182 405.244 17.582 406.685 17.4238L413.646 16.501C414.472 16.3955 415.035 15.833 415.333 14.8135L418.999 1.97266C419.368 0.566406 420.071 -0.136719 421.108 -0.136719C421.424 -0.136719 421.802 -0.0664062 422.242 0.0742188C423.648 0.636719 424.351 1.42773 424.351 2.44727C424.351 2.83398 424.254 3.27344 424.061 3.76562C423.375 5.57617 422.497 8.17773 421.424 11.5703C420.774 13.5742 420.449 14.7168 420.449 14.998C420.484 15.5957 420.985 15.8945 421.952 15.8945L424.931 15.8418C425.634 15.8418 426.425 15.8945 427.304 16C428.218 16.123 429.264 16.5625 430.442 17.3184C431.62 18.0742 432.235 18.8828 432.288 19.7441C432.288 20.1133 432.191 20.4912 431.998 20.8779C431.716 21.4053 431.356 21.6689 430.917 21.6689C430.495 21.6689 430.011 21.5283 429.466 21.2471C428.517 20.7725 426.988 20.5352 424.878 20.5352C421.257 20.5352 419.315 20.8252 419.051 21.4053C418.893 21.6865 418.77 22.0469 418.682 22.4863C417.012 29.9219 416.177 37.5596 416.177 45.3994C416.177 48.1943 416.344 50.4971 416.678 52.3076C416.889 53.5029 417.39 54.6719 418.181 55.8145C418.357 56.0781 418.445 56.2891 418.445 56.4473C418.445 56.6758 418.357 56.9131 418.181 57.1592C417.83 57.5811 417.258 57.8184 416.467 57.8711Z" fill="black"/>
<path d="M405.966 53.2256H405.808C403.962 53.2256 402.987 51.9863 402.829 49.4814C402.776 48.2422 402.723 47.0557 402.723 45.9219C402.723 41.5449 403.145 37.5635 404.015 33.8457C404.279 32.8174 404.938 32.2637 406.072 32.2637C408.023 32.2637 408.999 33.0283 408.999 34.584C408.999 35.0322 408.946 35.4014 408.867 35.7705C407.97 40.3584 407.417 44.999 407.206 49.7188C407.206 50.0879 407.258 50.457 407.364 50.7998C407.417 51.1162 407.469 51.4326 407.469 51.8018C407.469 52.0918 407.469 52.4082 407.417 52.6719C407.364 52.9355 406.889 53.1729 405.966 53.2256Z" fill="#09090B"/>
<ellipse cx="408.566" cy="27.592" rx="2.88019" ry="3.92752" transform="rotate(19.8485 408.566 27.592)" fill="#09090B"/>
<path d="M393.837 52.7725C392.483 52.7725 391.798 52.3242 391.78 51.4277C391.78 50.9355 392.448 50.0566 393.784 48.791C395.595 47.0332 396.5 45.6973 396.5 44.7832C396.5 44.625 396.403 44.335 396.21 43.9131C396.052 43.5264 395.103 43.1924 393.362 42.9111C390.479 42.4717 389.038 40.8457 389.038 38.0332C389.038 36.6797 389.469 34.6318 390.33 31.8896C391.789 27.0908 393.626 24.6914 395.841 24.6914C396.157 24.6914 396.482 24.7529 396.816 24.876C398.293 25.3506 399.031 25.8867 399.031 26.4844C399.031 27.0293 398.759 27.6445 398.214 28.3301C395.524 31.6523 394.18 35.0713 394.18 38.5869C394.232 39.8174 395.146 40.5381 396.922 40.749C400.332 41.1182 402.063 42.1377 402.116 43.8076V45.3369C402.116 46.251 401.246 47.5957 399.506 49.3711C397.52 51.375 395.63 52.5088 393.837 52.7725Z" fill="black"/>
<path d="M380.067 48.3965C381.192 47.7988 382.159 46.6475 382.967 44.9424C384.022 42.7275 384.549 40.5127 384.549 38.2979C384.549 36.9619 384.294 35.8105 383.785 34.8438C383.029 35.4941 382.308 36.707 381.623 38.4824C380.427 41.5762 379.83 44.3096 379.83 46.6826C379.83 47.3857 379.909 47.957 380.067 48.3965ZM380.911 53.0107C380.102 53.0107 379.17 52.7207 378.116 52.1406C376.991 51.543 376.103 50.4443 375.453 48.8447C375.101 47.9658 374.925 46.9551 374.925 45.8125C374.925 44.0898 375.374 41.7695 376.27 38.8516C377.184 35.9512 378.23 33.4463 379.408 31.3369C380.111 30.0889 381.086 29.4648 382.334 29.4648C384.321 29.4648 385.472 30.3613 385.789 32.1543C385.824 32.418 386.07 32.7959 386.527 33.2881C388.039 34.7295 388.794 36.8564 388.794 39.6689C388.794 39.8271 388.777 40.583 388.742 41.9365C388.689 43.3252 388.118 45.2324 387.028 47.6582C385.956 50.084 384.532 51.7188 382.756 52.5625C382.124 52.8613 381.508 53.0107 380.911 53.0107Z" fill="black"/>
<path d="M363.08 46.8408C363.133 46.7881 363.221 46.7354 363.344 46.6826C364.469 46.2783 365.998 44.2656 367.932 40.6445C368.951 38.7461 369.461 37.3398 369.461 36.4258C369.461 35.8281 369.276 35.5205 368.907 35.5029C367.993 35.5029 366.394 37.6475 364.108 41.9365C362.808 44.3799 362.157 45.7598 362.157 46.0762C362.157 46.1992 362.175 46.3486 362.21 46.5244C362.21 46.6826 362.5 46.7881 363.08 46.8408ZM355.829 67.5654C353.737 67.5654 352.665 66.5459 352.612 64.5068L352.665 63.9531C353.614 52.9492 355.469 42.0947 358.229 31.3896C358.545 30.1768 359.187 29.5703 360.153 29.5703C360.435 29.5703 360.725 29.623 361.023 29.7285C362.184 30.0625 362.764 30.748 362.764 31.7852C362.764 32.3125 362.579 33.1387 362.21 34.2637C361.823 35.3887 361.63 36.5225 361.63 37.665C361.63 37.9287 361.7 38.0693 361.841 38.0869C362.21 38.0869 363.291 36.8477 365.084 34.3691C366.402 32.4355 367.835 31.4424 369.382 31.3896C370.208 31.3896 371.043 31.6094 371.887 32.0488C373.17 32.6992 373.829 33.7627 373.864 35.2393C373.864 35.7666 373.812 36.3379 373.706 36.9531C373.073 41.1191 371.333 44.6875 368.485 47.6582C367.343 48.8359 366.042 49.4248 364.583 49.4248C363.88 49.4248 363.194 49.3018 362.526 49.0557C362.228 48.915 361.946 48.8447 361.683 48.8447L361.129 48.8975C360.777 48.9678 359.934 51.6836 358.598 57.0449C357.982 59.6289 357.675 61.8086 357.675 63.584L357.728 65.4824C357.728 65.957 357.675 66.4229 357.569 66.8799C357.446 67.3369 356.866 67.5654 355.829 67.5654Z" fill="black"/>
<path d="M342.375 46.8408C342.428 46.7881 342.516 46.7354 342.639 46.6826C343.764 46.2783 345.293 44.2656 347.227 40.6445C348.247 38.7461 348.756 37.3398 348.756 36.4258C348.756 35.8281 348.572 35.5205 348.203 35.5029C347.289 35.5029 345.689 37.6475 343.404 41.9365C342.103 44.3799 341.453 45.7598 341.453 46.0762C341.453 46.1992 341.47 46.3486 341.505 46.5244C341.505 46.6826 341.795 46.7881 342.375 46.8408ZM335.125 67.5654C333.033 67.5654 331.96 66.5459 331.908 64.5068L331.96 63.9531C332.91 52.9492 334.764 42.0947 337.524 31.3896C337.84 30.1768 338.482 29.5703 339.449 29.5703C339.73 29.5703 340.02 29.623 340.319 29.7285C341.479 30.0625 342.059 30.748 342.059 31.7852C342.059 32.3125 341.875 33.1387 341.505 34.2637C341.119 35.3887 340.925 36.5225 340.925 37.665C340.925 37.9287 340.996 38.0693 341.136 38.0869C341.505 38.0869 342.586 36.8477 344.379 34.3691C345.698 32.4355 347.13 31.4424 348.677 31.3896C349.503 31.3896 350.338 31.6094 351.182 32.0488C352.465 32.6992 353.125 33.7627 353.16 35.2393C353.16 35.7666 353.107 36.3379 353.001 36.9531C352.369 41.1191 350.628 44.6875 347.781 47.6582C346.638 48.8359 345.337 49.4248 343.878 49.4248C343.175 49.4248 342.49 49.3018 341.822 49.0557C341.523 48.915 341.242 48.8447 340.978 48.8447L340.424 48.8975C340.073 48.9678 339.229 51.6836 337.893 57.0449C337.278 59.6289 336.97 61.8086 336.97 63.584L337.023 65.4824C337.023 65.957 336.97 66.4229 336.865 66.8799C336.742 67.3369 336.162 67.5654 335.125 67.5654Z" fill="black"/>
<path d="M324.545 48.3965C325.67 47.7988 326.637 46.6475 327.445 44.9424C328.5 42.7275 329.027 40.5127 329.027 38.2979C329.027 36.9619 328.772 35.8105 328.263 34.8438C327.507 35.4941 326.786 36.707 326.101 38.4824C324.905 41.5762 324.308 44.3096 324.308 46.6826C324.308 47.3857 324.387 47.957 324.545 48.3965ZM325.389 53.0107C324.58 53.0107 323.648 52.7207 322.594 52.1406C321.469 51.543 320.581 50.4443 319.931 48.8447C319.579 47.9658 319.403 46.9551 319.403 45.8125C319.403 44.0898 319.852 41.7695 320.748 38.8516C321.662 35.9512 322.708 33.4463 323.886 31.3369C324.589 30.0889 325.564 29.4648 326.812 29.4648C328.799 29.4648 329.95 30.3613 330.267 32.1543C330.302 32.418 330.548 32.7959 331.005 33.2881C332.517 34.7295 333.272 36.8564 333.272 39.6689C333.272 39.8271 333.255 40.583 333.22 41.9365C333.167 43.3252 332.596 45.2324 331.506 47.6582C330.434 50.084 329.01 51.7188 327.234 52.5625C326.602 52.8613 325.986 53.0107 325.389 53.0107Z" fill="black"/>
<path d="M296.635 41.8828C297.567 41.2324 298.463 40.0986 299.325 38.4814C300.625 36.1084 301.276 34.6318 301.276 34.0518C301.276 33.7705 301.1 33.6211 300.749 33.6035C300.467 33.6035 300.265 33.7002 300.142 33.8936C297.435 38.4814 296.082 40.96 296.082 41.3291C296.082 41.6104 296.266 41.7949 296.635 41.8828ZM298.692 53.2207C293.225 53.2207 290.483 50.6807 290.465 45.6006C290.465 45.1084 290.58 44.0449 290.808 42.4102C290.966 40.7402 291.722 38.5781 293.076 35.9238C295.466 31.1777 298.042 28.8047 300.801 28.8047C303.016 28.8047 304.704 29.9209 305.864 32.1533C306.233 32.8389 306.417 33.5596 306.417 34.3154C306.417 35.2295 306.145 36.2051 305.6 37.2422C302.524 41.8125 299.606 44.7393 296.846 46.0225C295.879 46.5146 295.396 47.0068 295.396 47.499C295.396 47.71 295.431 47.9209 295.501 48.1318C295.818 49.292 296.468 49.8721 297.453 49.8721C298.912 49.8721 300.836 48.9844 303.227 47.209C304.792 46.0664 305.925 45.1875 306.628 44.5723C307.507 43.7109 308.193 43.2803 308.685 43.2803C308.949 43.2803 309.195 43.3682 309.423 43.5439C309.828 43.9131 310.03 44.3613 310.03 44.8887C310.03 45.4863 309.669 46.3389 308.949 47.4463C308.193 48.5713 306.989 49.7578 305.336 51.0059C303.649 52.2363 302.137 52.9395 300.801 53.1152C300.749 53.1152 300.687 53.1152 300.617 53.1152C299.931 53.1855 299.29 53.2207 298.692 53.2207Z" fill="black"/>
<path d="M273.294 53.8525C270.974 53.8525 269.787 52.8857 269.734 50.9521C269.734 50.3545 270.815 41.8906 272.978 25.5605C272.978 25.1914 272.863 24.998 272.635 24.9805C272.529 24.9805 271.308 25.1914 268.97 25.6133C268.653 25.6836 268.416 25.9209 268.258 26.3252L267.177 30.5967C265.964 35.6768 265.357 39.9746 265.357 43.4902C265.357 46.3027 265.771 49.0537 266.597 51.7432C266.667 51.9541 266.702 52.1914 266.702 52.4551C266.702 53.3691 266.087 53.8174 264.856 53.7998C264.329 53.7998 263.828 53.6064 263.354 53.2197C261.789 51.9893 260.875 50.5479 260.611 48.8955C260.453 47.999 260.374 46.7949 260.374 45.2832C260.374 39.2363 261.042 33.6553 262.378 28.54C262.396 28.4697 262.404 28.3994 262.404 28.3291C262.457 28.083 262.483 27.8984 262.483 27.7754C262.483 27.459 262.378 27.3008 262.167 27.3008C261.833 27.3008 261.455 27.3711 261.033 27.5117C257.447 28.4785 255.197 28.9619 254.283 28.9619C252.561 28.9619 251.585 27.9336 251.356 25.877C251.356 25.1914 251.734 24.6553 252.49 24.2686C253.246 23.9521 254.345 23.6797 255.786 23.4512C257.228 23.2754 258.722 22.9326 260.269 22.4229C261.798 21.9307 262.967 21.4648 263.775 21.0254C264.566 20.6035 265.199 18.1602 265.674 13.6953C265.814 12.1133 266.553 11.2607 267.889 11.1377C268.152 11.1377 268.478 11.1904 268.864 11.2959C270.165 11.6475 270.815 12.4473 270.815 13.6953C270.815 14.7148 270.719 15.6992 270.525 16.6484C270.209 18.248 270.051 19.1357 270.051 19.3115C270.051 19.7334 270.288 19.9443 270.763 19.9443C272.696 19.6807 273.733 19.4697 273.874 19.3115C274.05 19.1182 275.166 13.6426 277.223 2.88477C277.434 1.6543 278.102 1.03906 279.227 1.03906L279.728 1.0918C280.976 1.17969 281.6 1.86523 281.6 3.14844C281.6 4.60742 280.879 9.19531 279.438 16.9121L279.174 18.2305C279.174 18.4941 279.279 18.6172 279.49 18.5996L279.648 18.5469C287.295 17.3867 291.979 16.8066 293.702 16.8066C294.511 16.8066 295.319 16.8418 296.128 16.9121C298.255 17.1934 299.354 18.3887 299.424 20.498C299.424 21.4121 299.046 21.8779 298.29 21.8955C297.974 21.8955 297.684 21.8604 297.42 21.79C296.26 21.4209 295.003 21.2363 293.649 21.2363C292.63 21.2363 287.585 22.0889 278.515 23.7939C278.444 23.8115 278.374 23.8379 278.304 23.873C278.251 23.9082 278.181 23.9697 278.093 24.0576C277.917 24.2334 277.776 24.8398 277.671 25.877C276.687 32.1348 276.194 35.5625 276.194 36.1602C276.194 36.5293 276.273 36.7051 276.432 36.6875C276.59 36.6875 276.871 36.3096 277.275 35.5537C278.787 32.8467 280.571 30.377 282.628 28.1445C283.437 27.3008 284.315 26.8525 285.265 26.7998C285.757 26.7998 286.267 26.9316 286.794 27.1953C287.919 27.7754 288.508 28.6543 288.561 29.832L288.508 31.0186C287.646 38.3135 287.216 43.2266 287.216 45.7578C287.216 47.3223 287.778 48.6934 288.903 49.8711C289.466 50.4512 289.773 50.9521 289.826 51.374C289.826 51.708 289.642 52.0859 289.272 52.5078C288.64 53.2637 287.866 53.6592 286.952 53.6943C286.407 53.6943 285.871 53.5537 285.344 53.2725C283.604 52.3584 282.681 50.9346 282.575 49.001C282.435 47.1025 282.364 44.9932 282.364 42.6729C282.364 41.4424 282.399 40.1855 282.47 38.9023C282.575 37.3555 282.628 36.4238 282.628 36.1074C282.61 35.5273 282.522 35.2373 282.364 35.2373C281.714 35.2373 280.431 37.8477 278.515 43.0684C277.003 47.2344 276.194 49.8447 276.089 50.8994C275.896 52.833 274.964 53.8174 273.294 53.8525Z" fill="black"/>
<path d="M239.399 52.7725C238.046 52.7725 237.36 52.3242 237.343 51.4277C237.343 50.9355 238.011 50.0566 239.347 48.791C241.157 47.0332 242.062 45.6973 242.062 44.7832C242.062 44.625 241.966 44.335 241.772 43.9131C241.614 43.5264 240.665 43.1924 238.925 42.9111C236.042 42.4717 234.601 40.8457 234.601 38.0332C234.601 36.6797 235.031 34.6318 235.893 31.8896C237.352 27.0908 239.188 24.6914 241.403 24.6914C241.72 24.6914 242.045 24.7529 242.379 24.876C243.855 25.3506 244.594 25.8867 244.594 26.4844C244.594 27.0293 244.321 27.6445 243.776 28.3301C241.087 31.6523 239.742 35.0713 239.742 38.5869C239.795 39.8174 240.709 40.5381 242.484 40.749C245.895 41.1182 247.626 42.1377 247.679 43.8076V45.3369C247.679 46.251 246.809 47.5957 245.068 49.3711C243.082 51.375 241.192 52.5088 239.399 52.7725Z" fill="black"/>
<path d="M199.75 52.668C199.258 52.668 198.774 52.5625 198.3 52.3516C196.366 51.543 195.373 50.3389 195.32 48.7393C195.32 48.2471 195.355 47.8516 195.426 47.5527C195.619 46.709 195.804 45.8652 195.979 45.0215C196.823 41.2949 197.649 37.5859 198.458 33.8945C198.739 32.4883 199.346 31.7676 200.277 31.7324C200.559 31.7324 200.866 31.7852 201.2 31.8906C202.659 32.3652 203.415 33.1387 203.468 34.2109C203.468 34.5273 203.38 34.9932 203.204 35.6084C202.448 37.9814 202.07 39.6602 202.07 40.6445C202.07 41.0137 202.141 41.207 202.281 41.2246C202.439 41.2246 202.782 40.8643 203.31 40.1436C205.683 36.8037 207.862 33.9209 209.849 31.4951C210.851 30.2646 211.861 29.623 212.881 29.5703C213.408 29.5703 213.927 29.7109 214.437 29.9922C215.614 30.6777 216.229 31.7939 216.282 33.3408C216.282 33.7275 216.221 34.1582 216.098 34.6328C214.445 41.4531 213.619 45.8652 213.619 47.8691C213.619 49.6973 213.751 50.7432 214.015 51.0068C214.085 51.2354 214.12 51.4287 214.12 51.5869C214.12 51.8682 213.971 52.0879 213.672 52.2461C213.391 52.457 213.092 52.5625 212.775 52.5625C212.072 52.5625 211.387 52.2725 210.719 51.6924C209.348 50.5498 208.627 48.9678 208.557 46.9463C208.557 44.1865 208.592 42.4814 208.662 41.8311C208.68 41.6377 208.697 41.4531 208.715 41.2773C208.75 40.8906 208.768 40.6006 208.768 40.4072C208.768 40.1963 208.732 40.0908 208.662 40.0908C208.504 40.0908 206.526 43.4746 202.729 50.2422C201.815 51.8594 200.822 52.668 199.75 52.668Z" fill="black"/>
<path d="M181.629 73.1279C179.362 73.1279 177.173 72.0732 175.064 69.9639C174.308 69.1729 173.93 68.2852 173.93 67.3008C173.93 66.123 174.449 65.5342 175.486 65.5342C176.083 65.5342 176.497 65.8945 176.725 66.6152C177.463 68.9883 178.94 70.1748 181.155 70.1748C181.963 70.1748 182.614 69.8848 183.106 69.3047C183.581 68.7598 184.029 68.0566 184.451 67.1953C186.332 63.5742 187.624 59.9004 188.327 56.1738C189.241 51.3223 189.698 47.0596 189.698 43.3857C189.698 42.999 189.548 42.7969 189.25 42.7793C189.144 42.7793 188.968 42.8408 188.722 42.9639C188.458 43.1221 186.094 45.7676 181.629 50.9004C180.434 52.2539 179.16 52.9307 177.806 52.9307C176.892 52.9307 175.934 52.6318 174.932 52.0342C173.42 51.085 172.665 49.8545 172.665 48.3428C172.665 47.6396 172.832 46.8838 173.166 46.0752C175.591 39.4658 179.204 33.6035 184.002 28.4883C185.127 27.2578 186.34 26.6426 187.641 26.6426C187.711 26.6426 187.852 26.6514 188.063 26.6689C188.292 26.7041 188.617 26.7305 189.039 26.748C189.794 26.8008 190.638 27.5566 191.57 29.0156C191.904 29.4902 192.071 29.8857 192.071 30.2021C192.071 30.5889 191.886 30.9141 191.517 31.1777C191.166 31.4766 190.823 31.626 190.489 31.626C190.12 31.626 189.777 31.4062 189.46 30.9668C189.162 30.5625 188.88 30.3604 188.617 30.3604C188.335 30.3604 187.975 30.6152 187.536 31.125C185.866 33.0059 183.958 35.6338 181.814 39.0088C179.652 42.4189 178.404 45.3193 178.07 47.71C178.984 47.0947 180.285 45.8906 181.972 44.0977C183.642 42.3047 185.207 40.4326 186.666 38.4814C188.125 36.5479 189.074 35.0713 189.513 34.0518C189.759 33.5068 190.234 33.2344 190.937 33.2344C192.501 33.2344 193.556 33.9551 194.101 35.3965C194.505 36.3809 194.708 38.3584 194.708 41.3291C194.708 51.9111 192.818 60.8057 189.039 68.0127C187.175 71.4229 184.706 73.1279 181.629 73.1279Z" fill="black"/>
<path d="M170.966 54.2197H170.808C168.962 54.2197 167.987 52.9805 167.829 50.4756C167.776 49.2363 167.723 48.0498 167.723 46.916C167.723 42.5391 168.145 38.5576 169.015 34.8398C169.279 33.8115 169.938 33.2578 171.072 33.2578C173.023 33.2578 173.999 34.0225 173.999 35.5781C173.999 36.0264 173.946 36.3955 173.867 36.7646C172.97 41.3525 172.417 45.9932 172.206 50.7129C172.206 51.082 172.258 51.4512 172.364 51.7939C172.417 52.1104 172.469 52.4268 172.469 52.7959C172.469 53.0859 172.469 53.4023 172.417 53.666C172.364 53.9297 171.889 54.167 170.966 54.2197Z" fill="#09090B"/>
<ellipse cx="173.566" cy="28.5862" rx="2.88019" ry="3.92752" transform="rotate(19.8485 173.566 28.5862)" fill="#09090B"/>
<path d="M158.679 52.7725C157.325 52.7725 156.64 52.3242 156.622 51.4277C156.622 50.9355 157.29 50.0566 158.626 48.791C160.437 47.0332 161.342 45.6973 161.342 44.7832C161.342 44.625 161.245 44.335 161.052 43.9131C160.894 43.5264 159.945 43.1924 158.204 42.9111C155.322 42.4717 153.88 40.8457 153.88 38.0332C153.88 36.6797 154.311 34.6318 155.172 31.8896C156.631 27.0908 158.468 24.6914 160.683 24.6914C160.999 24.6914 161.324 24.7529 161.658 24.876C163.135 25.3506 163.873 25.8867 163.873 26.4844C163.873 27.0293 163.601 27.6445 163.056 28.3301C160.366 31.6523 159.022 35.0713 159.022 38.5869C159.074 39.8174 159.989 40.5381 161.764 40.749C165.174 41.1182 166.906 42.1377 166.958 43.8076V45.3369C166.958 46.251 166.088 47.5957 164.348 49.3711C162.362 51.375 160.472 52.5088 158.679 52.7725Z" fill="black"/>
<path d="M142.905 41.8828C143.836 41.2324 144.733 40.0986 145.594 38.4814C146.895 36.1084 147.545 34.6318 147.545 34.0518C147.545 33.7705 147.37 33.6211 147.018 33.6035C146.737 33.6035 146.535 33.7002 146.412 33.8936C143.705 38.4814 142.351 40.96 142.351 41.3291C142.351 41.6104 142.536 41.7949 142.905 41.8828ZM144.961 53.2207C139.495 53.2207 136.752 50.6807 136.735 45.6006C136.735 45.1084 136.849 44.0449 137.078 42.4102C137.236 40.7402 137.992 38.5781 139.345 35.9238C141.736 31.1777 144.311 28.8047 147.071 28.8047C149.286 28.8047 150.973 29.9209 152.133 32.1533C152.502 32.8389 152.687 33.5596 152.687 34.3154C152.687 35.2295 152.415 36.2051 151.87 37.2422C148.793 41.8125 145.875 44.7393 143.116 46.0225C142.149 46.5146 141.666 47.0068 141.666 47.499C141.666 47.71 141.701 47.9209 141.771 48.1318C142.087 49.292 142.738 49.8721 143.722 49.8721C145.181 49.8721 147.106 48.9844 149.497 47.209C151.061 46.0664 152.195 45.1875 152.898 44.5723C153.777 43.7109 154.462 43.2803 154.955 43.2803C155.218 43.2803 155.464 43.3682 155.693 43.5439C156.097 43.9131 156.299 44.3613 156.299 44.8887C156.299 45.4863 155.939 46.3389 155.218 47.4463C154.462 48.5713 153.258 49.7578 151.606 51.0059C149.918 52.2363 148.407 52.9395 147.071 53.1152C147.018 53.1152 146.957 53.1152 146.886 53.1152C146.201 53.1855 145.559 53.2207 144.961 53.2207Z" fill="black"/>
<path d="M119.353 51.6904C120.495 51.6377 122.631 48.5088 125.76 42.3037C127.764 38.3662 129.601 34.2969 131.271 30.0957C133.292 24.8926 134.303 21.2979 134.303 19.3115C134.303 16.8154 132.949 15.5674 130.242 15.5674C128.818 15.6201 127.597 15.8926 126.577 16.3848C125.558 16.9297 124.969 17.5801 124.811 18.3359C123.299 25.4023 122.323 29.7178 121.884 31.2822C120.319 37.1182 119.238 43.0068 118.641 48.9482C118.676 50.7764 118.913 51.6904 119.353 51.6904ZM116.637 57.3594C115.986 57.3594 115.38 57.2012 114.817 56.8848C113.991 56.4102 113.578 54.8809 113.578 52.2969C113.578 49.9238 113.877 46.9004 114.475 43.2266C115.424 37.6016 116.197 33.6025 116.795 31.2295C117.375 28.8564 117.665 27.3975 117.665 26.8525C117.665 26.1494 117.234 25.666 116.373 25.4023C115.494 25.1211 115.028 24.4883 114.976 23.5039C114.976 23.2402 115.011 22.9766 115.081 22.7129C116.188 18.6348 119.353 15.6465 124.573 13.748C126.981 12.834 129.126 12.377 131.007 12.377C133.116 12.377 134.883 12.9746 136.307 14.1699C137.52 15.2598 138.126 17.29 138.126 20.2607C138.126 20.8057 138.056 22.1943 137.915 24.4268C137.774 26.6416 136.878 29.8848 135.226 34.1562C133.556 38.4277 131.534 42.4355 129.161 46.1797C126.806 49.9766 124.362 52.8945 121.831 54.9336C119.827 56.5508 118.096 57.3594 116.637 57.3594Z" fill="black"/>
<path d="M230.744 53.8525H230.586C228.74 53.8525 227.747 52.6045 227.606 50.1084C227.606 50.0557 227.606 50.0029 227.606 49.9502C227.536 48.7725 227.501 47.6387 227.501 46.5488C227.501 42.1719 227.932 38.1465 228.793 34.4727C229.021 33.418 229.707 32.8906 230.85 32.8906C232.801 32.8906 233.776 33.6641 233.776 35.2109C233.776 35.6504 233.732 36.0459 233.645 36.3975C232.748 40.9854 232.194 45.6348 231.983 50.3457C231.983 50.7148 232.036 51.0752 232.142 51.4268C232.212 51.7256 232.247 52.0596 232.247 52.4287C232.247 52.71 232.229 53 232.194 53.2988C232.142 53.5977 231.658 53.7822 230.744 53.8525Z" fill="black"/>
<ellipse cx="232.781" cy="27.9436" rx="2.88019" ry="3.92752" transform="rotate(19.8485 232.781 27.9436)" fill="#09090B"/>
<path d="M55.4902 47.1514C54.5674 46.9932 53.9609 46.5449 53.5918 45.9121C53.2227 45.3057 52.9854 44.7256 52.9854 44.1191C52.9854 43.9609 53.0381 43.6973 53.1436 43.3281C53.2227 42.9326 53.2754 42.6689 53.2754 42.4053C53.2754 42.2471 53.0381 42.0889 52.6162 42.0098C52.2471 42.0098 51.9043 42.2471 51.6406 42.6689C51.5352 42.8799 51.4297 43.0381 51.2715 43.1436C51.1133 43.2754 51.0078 43.3809 50.8232 43.5391C50.2432 44.1719 49.7422 44.5146 49.2676 44.5146C48.8984 44.5146 48.5029 44.2773 48.0283 43.8027C47.3691 43.1436 47.0527 42.5107 47.0527 41.8516C47.2109 40.8232 47.8174 40.085 48.793 39.584C51.0605 38.3975 52.1943 36.9473 52.1943 35.2598C52.1943 34.0732 51.6406 32.7285 50.5068 31.2783C49.7949 30.3555 49.4258 29.7227 49.4258 29.3799C49.4258 28.958 49.6367 28.6416 50.085 28.4043C50.3486 28.2461 50.5596 28.1934 50.8232 28.1934L51.6934 28.6416C51.957 28.9053 52.458 29.6436 53.2754 30.9619C53.6445 31.542 53.9609 31.8584 54.1191 31.8584C54.4092 31.8584 54.7256 30.9619 55.0947 29.1689C55.3057 28.1934 55.5957 27.3232 55.8594 26.5322C56.123 25.7148 56.624 25.3457 57.415 25.3457C58.8916 25.3457 59.5771 26.1367 59.5771 27.7715C59.5771 28.4043 59.4717 29.2217 59.3135 30.1973C59.208 30.6719 59.1553 31.0674 59.1553 31.3311C59.1553 31.542 59.208 31.6475 59.2607 31.6475C59.4189 31.6475 60.1309 31.1201 61.2646 30.0918C61.7393 29.6436 62.1084 29.4326 62.5039 29.4326C62.9785 29.4326 63.4268 29.8281 63.7432 30.6191C63.8486 30.9619 63.9014 31.2256 63.9014 31.4893C63.9014 32.0957 63.5322 32.7285 62.8203 33.3877C60.3945 35.5498 59.208 37.1582 59.208 38.1865C59.208 39.1094 60.1309 40.8232 62.0029 43.4336C62.5566 44.1719 62.8203 44.7783 62.8203 45.1475C62.6621 45.8066 62.2402 46.123 61.6338 46.123C61.2646 46.0703 60.6582 45.6484 59.9727 44.8311C59.4189 44.3564 59.0498 43.8555 58.7598 43.3809C58.3906 42.6689 57.9688 42.2998 57.5732 42.2998C57.0986 42.2998 56.8877 42.7217 56.8877 43.5391C56.8877 45.9648 56.3867 47.1514 55.4902 47.1514Z" fill="#EE3E38"/>
<path fill-rule="evenodd" clip-rule="evenodd" d="M40.7958 11.1836C53.3989 5.29322 68.3916 7.99926 79.3425 15.8304C84.2854 19.4111 88.2452 24.3995 88.887 30.9185C89.5287 37.1779 87.385 43.5194 83.7938 48.4258C79.8477 53.6875 74.263 57.2955 68.61 59.9469C65.3739 61.4639 61.933 62.6119 58.6149 63.7326C58.3828 63.8146 58.1507 63.8966 57.9049 63.9649C53.9724 65.195 50.0536 66.425 46.1211 67.655C45.7934 67.778 44.2504 68.3657 43.3902 67.655C42.4617 66.8896 42.6119 64.8806 43.3902 63.5549C44.7283 61.2452 47.4319 61.9149 57.468 58.7852C57.5499 58.7579 57.8912 58.6622 58.2053 58.5529C64.186 56.6122 70.0301 54.2068 74.9048 50.4621C79.7658 46.6901 83.0975 41.2507 83.9167 35.7566C84.736 30.3172 83.0838 24.7958 77.9087 20.6274C68.5964 13.138 55.2013 10.3636 44.1138 14.9147C33.5999 19.2744 26.4859 29.6749 27.9879 41.032C28.6843 46.5261 30.828 50.8311 34.0505 53.5781C37.2456 56.3115 41.656 57.6099 47.1315 56.8309H47.1451H47.1588C47.8415 56.7489 48.4696 56.9675 48.9339 57.3912C49.3708 57.7875 49.603 58.3205 49.6712 58.8262C49.7395 59.3319 49.6712 59.9059 49.3435 60.4116C49.0158 60.9446 48.4696 61.3272 47.7869 61.4502H47.7733H47.7596C40.8231 62.4753 34.9107 60.7532 30.5686 56.9265C26.2811 53.1135 23.6731 47.3461 23.0586 40.54C22.8947 37.9296 22.7582 30.6315 27.3188 23.0874C31.8794 15.516 38.4199 12.2496 40.7958 11.1836Z" fill="#EE3E38"/>
</g>
<defs>
<clipPath id="clip0_14580_3261">
<rect width="643" height="78" fill="white"/>
</clipPath>
</defs>
</svg>
