<svg width="643" height="78" viewBox="0 0 643 78" fill="none" xmlns="http://www.w3.org/2000/svg">
<path d="M375.966 53.6611H375.808C373.962 53.6611 372.986 52.4219 372.828 49.917C372.775 48.6777 372.723 47.4912 372.723 46.3574C372.723 41.9805 373.145 37.999 374.015 34.2812C374.278 33.2529 374.938 32.6992 376.071 32.6992C378.022 32.6992 378.998 33.4639 378.998 35.0195C378.998 35.4678 378.945 35.8369 378.866 36.2061C377.97 40.7939 377.416 45.4346 377.205 50.1543C377.205 50.5234 377.258 50.8926 377.363 51.2354C377.416 51.5518 377.469 51.8682 377.469 52.2373C377.469 52.5273 377.469 52.8438 377.416 53.1074C377.363 53.3711 376.889 53.6084 375.966 53.6611Z" fill="#09090B"/>
<ellipse cx="378.566" cy="28.0276" rx="2.88019" ry="3.92752" transform="rotate(19.8485 378.566 28.0276)" fill="#09090B"/>
<path d="M491.528 53.7656C489.207 53.7656 487.282 52.6494 485.753 50.417C485.103 49.4678 484.778 48.2637 484.778 46.8047C484.778 43.9922 485.736 40.4414 487.652 36.1523C488.794 33.5332 489.91 31.5557 491 30.2197C491.809 29.2178 492.89 28.7168 494.243 28.7168C496.827 28.7168 498.119 29.5254 498.119 31.1426C498.119 31.459 498.032 31.6875 497.856 31.8281C497.645 32.0039 497.082 32.2236 496.168 32.4873C494.973 32.8389 493.971 33.8496 493.162 35.5195C491.211 39.4746 490.236 43.6143 490.236 47.9385C490.236 49.0635 490.631 49.8721 491.422 50.3643C491.668 50.5049 491.906 50.5752 492.134 50.5752C492.943 50.5752 494.613 49.1689 497.144 46.3564C497.495 46.0049 497.908 45.8291 498.383 45.8291H499.095C499.464 45.8291 499.657 46.04 499.675 46.4619C499.464 48.1494 498.875 49.6436 497.908 50.9443C496.467 52.8252 494.34 53.7656 491.528 53.7656Z" fill="black"/>
<path d="M463.858 73.5674C461.59 73.5674 459.402 72.5127 457.292 70.4033C456.536 69.6123 456.158 68.7246 456.158 67.7402C456.158 66.5625 456.677 65.9736 457.714 65.9736C458.312 65.9736 458.725 66.334 458.953 67.0547C459.692 69.4277 461.168 70.6143 463.383 70.6143C464.192 70.6143 464.842 70.3242 465.334 69.7441C465.809 69.1992 466.257 68.4961 466.679 67.6348C468.56 64.0137 469.852 60.3398 470.555 56.6133C471.469 51.7617 471.926 47.499 471.926 43.8252C471.926 43.4385 471.777 43.2363 471.478 43.2188C471.372 43.2188 471.197 43.2803 470.95 43.4033C470.687 43.5615 468.323 46.207 463.858 51.3398C462.662 52.6934 461.388 53.3701 460.034 53.3701C459.12 53.3701 458.162 53.0713 457.16 52.4736C455.649 51.5244 454.893 50.2939 454.893 48.7822C454.893 48.0791 455.06 47.3232 455.394 46.5146C457.82 39.9053 461.432 34.043 466.231 28.9277C467.356 27.6973 468.569 27.082 469.869 27.082C469.94 27.082 470.08 27.0908 470.291 27.1084C470.52 27.1436 470.845 27.1699 471.267 27.1875C472.023 27.2402 472.866 27.9961 473.798 29.4551C474.132 29.9297 474.299 30.3252 474.299 30.6416C474.299 31.0283 474.115 31.3535 473.745 31.6172C473.394 31.916 473.051 32.0654 472.717 32.0654C472.348 32.0654 472.005 31.8457 471.689 31.4062C471.39 31.002 471.109 30.7998 470.845 30.7998C470.564 30.7998 470.203 31.0547 469.764 31.5645C468.094 33.4453 466.187 36.0732 464.042 39.4482C461.88 42.8584 460.632 45.7588 460.298 48.1494C461.212 47.5342 462.513 46.3301 464.2 44.5371C465.87 42.7441 467.435 40.8721 468.894 38.9209C470.353 36.9873 471.302 35.5107 471.741 34.4912C471.988 33.9463 472.462 33.6738 473.165 33.6738C474.73 33.6738 475.784 34.3945 476.329 35.8359C476.734 36.8203 476.936 38.7979 476.936 41.7686C476.936 52.3506 475.046 61.2451 471.267 68.4521C469.404 71.8623 466.934 73.5674 463.858 73.5674Z" fill="black"/>
<path d="M452.28 51.9736C452.016 51.9736 451.761 51.9385 451.515 51.8682C448.685 50.9717 447.27 48.8447 447.27 45.4873C447.27 44.3096 447.138 43.7207 446.874 43.7207C446.822 43.7207 445.943 44.8193 444.238 47.0166C443.271 48.2471 442.33 49.3809 441.416 50.418C440.502 51.4551 439.588 51.9736 438.674 51.9736C437.971 51.9736 437.268 51.7803 436.565 51.3936C435.088 50.5498 434.35 49.2842 434.35 47.5967C434.35 47.1748 434.403 46.7266 434.508 46.252C435.44 41.752 437.602 37.252 440.994 32.752C442.401 30.9238 443.86 30.0098 445.371 30.0098C446.285 30.0098 447.129 30.291 447.903 30.8535C448.658 31.4688 449.036 31.9961 449.036 32.4355C449.036 32.8574 448.966 33.2002 448.825 33.4639C448.456 34.2197 448.026 34.5977 447.533 34.5977C447.041 34.5977 446.646 34.5098 446.347 34.334C446.066 34.1582 445.811 34.0439 445.582 33.9912C445.371 33.9912 445.081 34.2461 444.712 34.7559C443.165 36.8652 441.618 39.9941 440.072 44.1426C439.861 44.6875 439.755 45.0654 439.755 45.2764C439.755 45.4521 439.808 45.5488 439.913 45.5664C440.458 45.5664 442.005 43.958 444.554 40.7412C447.806 36.6807 449.792 34.5449 450.513 34.334C450.917 34.2109 451.251 34.1494 451.515 34.1494C451.796 34.1494 452.033 34.1846 452.227 34.2549C453.229 34.7998 453.73 35.8281 453.73 37.3398C453.73 37.9902 453.642 38.6582 453.466 39.3438C452.816 41.9453 452.49 44.248 452.49 46.252C452.49 47.7109 452.798 49.1348 453.413 50.5234C453.554 50.8223 453.624 51.0596 453.624 51.2354C453.624 51.71 453.176 51.9561 452.28 51.9736Z" fill="black"/>
<path d="M409.466 53.5003C408.714 54.1113 407.715 54.4913 407.715 54.4913C407.127 54.7148 406.575 54.9234 405.875 54.8117C405.041 54.6776 404.504 54.1932 404.355 54.0517C403.252 53.016 403.372 51.496 403.394 51.2799C405.547 38.4048 407.544 32.0194 409.414 32.0194C410.122 32.0194 410.726 32.228 411.202 32.7049C411.62 33.2041 411.858 33.7853 411.91 34.4409C411.91 34.7539 411.858 35.1264 411.724 35.5213C410.726 39.8875 410.174 42.7785 410.174 44.2761C410.174 44.9839 410.279 45.3565 410.487 45.3565C411.091 45.3043 412.745 42.8828 415.509 38.0472C416.589 36.1546 417.715 34.3441 418.899 32.4516C419.585 31.3712 420.501 30.8198 421.529 30.7677C422.446 30.7677 423.213 31.0582 423.735 31.5798C424.182 32.0269 424.391 32.608 424.443 33.3159C424.443 33.7853 424.443 34.1578 424.391 34.4484C423.839 37.2872 423.578 39.1797 423.578 40.044C423.578 40.4091 423.631 40.6252 423.683 40.6252C423.891 40.573 424.443 39.7609 425.314 38.0993C425.896 36.9668 426.656 35.7374 427.445 34.3962C429.181 31.6394 430.731 30.2461 432.199 30.2461C432.46 30.2461 432.676 30.2982 432.885 30.3504C434.174 30.8198 434.829 31.6916 434.829 32.8763C434.829 34.0609 434.621 35.3723 434.174 36.9221C432.937 41.0722 432.363 44.4624 432.363 47.1969C432.363 49.0894 432.572 50.4305 432.996 51.2427C433.235 51.6078 433.339 51.876 433.339 52.1368C433.339 52.4274 433.101 52.7403 432.736 53.0533C432.475 53.2619 432.154 53.396 431.767 53.396C430.113 53.396 428.876 52.5317 428.012 50.7435C427.647 49.9537 427.408 48.8286 427.408 47.3012C427.408 46.8318 427.408 46.3326 427.46 45.96C427.542 45.5949 427.542 45.3043 427.542 45.0436C427.542 44.8722 427.572 43.5459 427.2 43.4416C426.909 43.3597 426.469 44.0451 426.171 44.522C424.912 46.5263 424.003 48.1729 423.593 48.8808C423.355 49.298 422.483 50.7882 420.993 52.3305C420.404 52.9415 419.853 53.4184 419.123 53.4333C418.251 53.4556 417.618 52.8223 417.491 52.6956C416.463 51.6227 417.044 49.6482 417.469 48.091C417.67 47.3459 418.08 46.2879 418.907 44.1644C419.518 42.5848 420.024 41.3703 419.652 41.0871C419.503 40.9754 419.272 41.0499 419.19 41.0797C417.118 41.7577 411.863 51.5582 409.553 53.4359L409.466 53.5003Z" fill="black"/>
<path d="M384.999 53.2119C383.646 53.2119 382.96 52.7637 382.943 51.8672C382.943 51.375 383.611 50.4961 384.947 49.2305C386.757 47.4727 387.662 46.1367 387.662 45.2227C387.662 45.0645 387.566 44.7744 387.372 44.3525C387.214 43.9658 386.265 43.6318 384.525 43.3506C381.642 42.9111 380.2 41.2852 380.2 38.4727C380.2 37.1191 380.631 35.0713 381.492 32.3291C382.951 27.5303 384.788 25.1309 387.003 25.1309C387.32 25.1309 387.645 25.1924 387.979 25.3154C389.455 25.79 390.194 26.3262 390.194 26.9238C390.194 27.4688 389.921 28.084 389.376 28.7695C386.687 32.0918 385.342 35.5107 385.342 39.0264C385.395 40.2568 386.309 40.9775 388.084 41.1885C391.494 41.5576 393.226 42.5771 393.279 44.2471V45.7764C393.279 46.6904 392.408 48.0352 390.668 49.8105C388.682 51.8145 386.792 52.9482 384.999 53.2119Z" fill="black"/>
<path d="M359.349 66.5537C358.874 66.5537 358.444 66.4658 358.057 66.29C356.492 65.6396 355.411 64.6641 354.814 63.3633C354.216 62.1152 353.917 60.085 353.917 57.2725C353.917 55.8135 354.005 53.7832 354.181 51.1816C354.181 49.5996 354.146 48.7998 354.075 48.7822C354.023 48.7822 353.821 49.0195 353.469 49.4941C352.256 51.0762 350.832 51.8672 349.198 51.8672C348.723 51.8672 348.222 51.7793 347.695 51.6035C345.392 50.7246 344.24 49.0635 344.24 46.6201C344.24 37.3389 345.067 32.6455 346.719 32.54L347.378 32.5928C349.206 32.6631 350.12 33.6738 350.12 35.625C349.98 38.5957 349.909 40.8633 349.909 42.4277C349.909 44.3086 350.05 45.2578 350.331 45.2754C350.823 45.2402 351.869 43.6055 353.469 40.3711C354.453 38.4551 355.675 36.1699 357.134 33.5156C357.784 32.3906 358.655 31.8281 359.744 31.8281C360.166 31.8281 360.597 31.9072 361.036 32.0654C362.267 32.5049 362.882 33.3486 362.882 34.5967C362.882 34.9658 362.838 35.291 362.75 35.5723C362.188 37.4355 361.511 40.2744 360.72 44.0889C359.63 49.3623 359.085 53.8096 359.085 57.4307C359.085 60.4541 359.63 62.6162 360.72 63.917C361.072 64.3564 361.265 64.7168 361.3 64.998C361.3 65.2617 361.177 65.5078 360.931 65.7363C360.456 66.2285 359.929 66.501 359.349 66.5537Z" fill="black"/>
<path d="M329.55 73.5674C327.282 73.5674 325.094 72.5127 322.984 70.4033C322.228 69.6123 321.85 68.7246 321.85 67.7402C321.85 66.5625 322.369 65.9736 323.406 65.9736C324.004 65.9736 324.417 66.334 324.645 67.0547C325.384 69.4277 326.86 70.6143 329.075 70.6143C329.884 70.6143 330.534 70.3242 331.026 69.7441C331.501 69.1992 331.949 68.4961 332.371 67.6348C334.252 64.0137 335.544 60.3398 336.247 56.6133C337.161 51.7617 337.618 47.499 337.618 43.8252C337.618 43.4385 337.469 43.2363 337.17 43.2188C337.064 43.2188 336.888 43.2803 336.642 43.4033C336.379 43.5615 334.014 46.207 329.55 51.3398C328.354 52.6934 327.08 53.3701 325.726 53.3701C324.812 53.3701 323.854 53.0713 322.852 52.4736C321.341 51.5244 320.585 50.2939 320.585 48.7822C320.585 48.0791 320.752 47.3232 321.086 46.5146C323.511 39.9053 327.124 34.043 331.923 28.9277C333.048 27.6973 334.26 27.082 335.561 27.082C335.632 27.082 335.772 27.0908 335.983 27.1084C336.212 27.1436 336.537 27.1699 336.959 27.1875C337.715 27.2402 338.558 27.9961 339.49 29.4551C339.824 29.9297 339.991 30.3252 339.991 30.6416C339.991 31.0283 339.806 31.3535 339.437 31.6172C339.086 31.916 338.743 32.0654 338.409 32.0654C338.04 32.0654 337.697 31.8457 337.381 31.4062C337.082 31.002 336.801 30.7998 336.537 30.7998C336.256 30.7998 335.895 31.0547 335.456 31.5645C333.786 33.4453 331.879 36.0732 329.734 39.4482C327.572 42.8584 326.324 45.7588 325.99 48.1494C326.904 47.5342 328.205 46.3301 329.892 44.5371C331.562 42.7441 333.127 40.8721 334.586 38.9209C336.045 36.9873 336.994 35.5107 337.433 34.4912C337.679 33.9463 338.154 33.6738 338.857 33.6738C340.422 33.6738 341.476 34.3945 342.021 35.8359C342.426 36.8203 342.628 38.7979 342.628 41.7686C342.628 52.3506 340.738 61.2451 336.959 68.4521C335.095 71.8623 332.626 73.5674 329.55 73.5674Z" fill="black"/>
<path d="M311.403 42.3223C312.334 41.6719 313.231 40.5381 314.092 38.9209C315.393 36.5479 316.043 35.0713 316.043 34.4912C316.043 34.21 315.867 34.0605 315.516 34.043C315.235 34.043 315.032 34.1396 314.909 34.333C312.202 38.9209 310.849 41.3994 310.849 41.7686C310.849 42.0498 311.033 42.2344 311.403 42.3223ZM313.459 53.6602C307.992 53.6602 305.25 51.1201 305.233 46.04C305.233 45.5479 305.347 44.4844 305.575 42.8496C305.734 41.1797 306.49 39.0176 307.843 36.3633C310.234 31.6172 312.809 29.2441 315.569 29.2441C317.783 29.2441 319.471 30.3604 320.631 32.5928C321 33.2783 321.185 33.999 321.185 34.7549C321.185 35.6689 320.912 36.6445 320.367 37.6816C317.291 42.252 314.373 45.1787 311.614 46.4619C310.647 46.9541 310.163 47.4463 310.163 47.9385C310.163 48.1494 310.198 48.3604 310.269 48.5713C310.585 49.7314 311.236 50.3115 312.22 50.3115C313.679 50.3115 315.604 49.4238 317.994 47.6484C319.559 46.5059 320.693 45.627 321.396 45.0117C322.275 44.1504 322.96 43.7197 323.452 43.7197C323.716 43.7197 323.962 43.8076 324.191 43.9834C324.595 44.3525 324.797 44.8008 324.797 45.3281C324.797 45.9258 324.437 46.7783 323.716 47.8857C322.96 49.0107 321.756 50.1973 320.104 51.4453C318.416 52.6758 316.905 53.3789 315.569 53.5547C315.516 53.5547 315.454 53.5547 315.384 53.5547C314.698 53.625 314.057 53.6602 313.459 53.6602Z" fill="black"/>
<path d="M303.196 60.3047C302.915 60.3047 302.625 60.2256 302.326 60.0674C300.761 59.3994 299.733 58.3975 299.241 57.0615C298.38 54.7412 297.949 51.1201 297.949 46.1982C297.949 40.5381 298.705 33.6299 300.217 25.4736C300.234 25.3506 300.243 25.2363 300.243 25.1309C300.296 24.7969 300.322 24.5332 300.322 24.3398C300.322 24.0059 300.181 23.8389 299.9 23.8389C299.302 23.8389 298.635 24.0059 297.896 24.3398C296.947 24.7266 295.629 24.9199 293.941 24.9199C293.238 24.9199 292.5 24.2695 291.726 22.9688C291.41 22.459 291.252 21.958 291.252 21.4658C291.252 20.5518 291.972 20.0156 293.414 19.8574L300.375 18.9346C301.201 18.8291 301.763 18.2666 302.062 17.2471L305.727 4.40625C306.096 3 306.8 2.29688 307.837 2.29688C308.153 2.29688 308.531 2.36719 308.97 2.50781C310.377 3.07031 311.08 3.86133 311.08 4.88086C311.08 5.26758 310.983 5.70703 310.79 6.19922C310.104 8.00977 309.225 10.6113 308.153 14.0039C307.503 16.0078 307.177 17.1504 307.177 17.4316C307.213 18.0293 307.714 18.3281 308.68 18.3281L311.66 18.2754C312.363 18.2754 313.154 18.3281 314.033 18.4336C314.947 18.5566 315.993 18.9961 317.171 19.752C318.348 20.5078 318.964 21.3164 319.016 22.1777C319.016 22.5469 318.92 22.9248 318.726 23.3115C318.445 23.8389 318.085 24.1025 317.645 24.1025C317.223 24.1025 316.74 23.9619 316.195 23.6807C315.246 23.2061 313.717 22.9688 311.607 22.9688C307.986 22.9688 306.044 23.2588 305.78 23.8389C305.622 24.1201 305.499 24.4805 305.411 24.9199C303.741 32.3555 302.906 39.9932 302.906 47.833C302.906 50.6279 303.073 52.9307 303.407 54.7412C303.618 55.9365 304.119 57.1055 304.91 58.248C305.086 58.5117 305.174 58.7227 305.174 58.8809C305.174 59.1094 305.086 59.3467 304.91 59.5928C304.558 60.0146 303.987 60.252 303.196 60.3047Z" fill="black"/>
<path d="M293.381 51.9736C293.117 51.9736 292.862 51.9385 292.616 51.8682C289.786 50.9717 288.371 48.8447 288.371 45.4873C288.371 44.3096 288.239 43.7207 287.976 43.7207C287.923 43.7207 287.044 44.8193 285.339 47.0166C284.372 48.2471 283.432 49.3809 282.518 50.418C281.604 51.4551 280.689 51.9736 279.775 51.9736C279.072 51.9736 278.369 51.7803 277.666 51.3936C276.189 50.5498 275.451 49.2842 275.451 47.5967C275.451 47.1748 275.504 46.7266 275.609 46.252C276.541 41.752 278.703 37.252 282.096 32.752C283.502 30.9238 284.961 30.0098 286.473 30.0098C287.387 30.0098 288.23 30.291 289.004 30.8535C289.76 31.4688 290.138 31.9961 290.138 32.4355C290.138 32.8574 290.067 33.2002 289.927 33.4639C289.558 34.2197 289.127 34.5977 288.635 34.5977C288.143 34.5977 287.747 34.5098 287.448 34.334C287.167 34.1582 286.912 34.0439 286.684 33.9912C286.473 33.9912 286.183 34.2461 285.813 34.7559C284.267 36.8652 282.72 39.9941 281.173 44.1426C280.962 44.6875 280.856 45.0654 280.856 45.2764C280.856 45.4521 280.909 45.5488 281.015 45.5664C281.56 45.5664 283.106 43.958 285.655 40.7412C288.907 36.6807 290.894 34.5449 291.614 34.334C292.019 34.2109 292.353 34.1494 292.616 34.1494C292.897 34.1494 293.135 34.1846 293.328 34.2549C294.33 34.7998 294.831 35.8281 294.831 37.3398C294.831 37.9902 294.743 38.6582 294.567 39.3438C293.917 41.9453 293.592 44.248 293.592 46.252C293.592 47.7109 293.899 49.1348 294.515 50.5234C294.655 50.8223 294.726 51.0596 294.726 51.2354C294.726 51.71 294.277 51.9561 293.381 51.9736Z" fill="black"/>
<path d="M267.904 53.3174C266.884 53.3174 265.988 52.9834 265.214 52.3154C264.81 51.9287 264.608 51.3838 264.608 50.6807C265.434 43.3506 266.225 37.2861 266.981 32.4873C267.139 31.4854 267.684 30.9844 268.616 30.9844C270.831 30.9844 271.92 31.9688 271.885 33.9375C271.885 34.3242 271.797 34.8164 271.622 35.4141C271.411 36.1875 271.305 36.8643 271.305 37.4443C271.305 37.9893 271.375 38.2617 271.516 38.2617C271.622 38.2617 271.745 38.1211 271.885 37.8398C272.694 36.0996 274.17 34.7637 276.315 33.832C276.983 33.5156 277.668 33.3574 278.372 33.3574C278.969 33.3574 279.479 33.6826 279.901 34.333C280.112 34.6318 280.217 34.9131 280.217 35.1768C280.217 35.6162 279.804 36.0293 278.978 36.416C278.767 36.5391 278.583 36.6533 278.424 36.7588C274.17 40.0283 271.367 44.7041 270.013 50.7861C269.626 52.4736 268.923 53.3174 267.904 53.3174Z" fill="black"/>
<path d="M261.912 60.3047C261.631 60.3047 261.341 60.2256 261.042 60.0674C259.477 59.3994 258.449 58.3975 257.957 57.0615C257.095 54.7412 256.665 51.1201 256.665 46.1982C256.665 40.5381 257.421 33.6299 258.932 25.4736C258.95 25.3506 258.959 25.2363 258.959 25.1309C259.011 24.7969 259.038 24.5332 259.038 24.3398C259.038 24.0059 258.897 23.8389 258.616 23.8389C258.018 23.8389 257.35 24.0059 256.612 24.3398C255.663 24.7266 254.344 24.9199 252.657 24.9199C251.954 24.9199 251.216 24.2695 250.442 22.9688C250.126 22.459 249.968 21.958 249.968 21.4658C249.968 20.5518 250.688 20.0156 252.13 19.8574L259.091 18.9346C259.917 18.8291 260.479 18.2666 260.778 17.2471L264.443 4.40625C264.812 3 265.515 2.29688 266.552 2.29688C266.869 2.29688 267.247 2.36719 267.686 2.50781C269.093 3.07031 269.796 3.86133 269.796 4.88086C269.796 5.26758 269.699 5.70703 269.506 6.19922C268.82 8.00977 267.941 10.6113 266.869 14.0039C266.219 16.0078 265.893 17.1504 265.893 17.4316C265.928 18.0293 266.429 18.3281 267.396 18.3281L270.376 18.2754C271.079 18.2754 271.87 18.3281 272.749 18.4336C273.663 18.5566 274.709 18.9961 275.886 19.752C277.064 20.5078 277.679 21.3164 277.732 22.1777C277.732 22.5469 277.635 22.9248 277.442 23.3115C277.161 23.8389 276.801 24.1025 276.361 24.1025C275.939 24.1025 275.456 23.9619 274.911 23.6807C273.962 23.2061 272.432 22.9688 270.323 22.9688C266.702 22.9688 264.76 23.2588 264.496 23.8389C264.338 24.1201 264.215 24.4805 264.127 24.9199C262.457 32.3555 261.622 39.9932 261.622 47.833C261.622 50.6279 261.789 52.9307 262.123 54.7412C262.334 55.9365 262.835 57.1055 263.626 58.248C263.802 58.5117 263.889 58.7227 263.889 58.8809C263.889 59.1094 263.802 59.3467 263.626 59.5928C263.274 60.0146 262.703 60.252 261.912 60.3047Z" fill="black"/>
<path d="M237.49 60.7793C236.365 60.7793 235.793 60.4893 235.776 59.9092C235.776 59.4346 236.408 58.8281 237.674 58.0898C238.694 57.5098 239.986 56.3936 241.55 54.7412C243.853 52.2979 245.004 50.2939 245.004 48.7295C245.004 47.71 243.167 46.1455 239.493 44.0361C235.82 41.9092 233.983 38.8506 233.983 34.8604C233.983 34.0518 234.185 32.54 234.589 30.3252C234.976 28.1279 236.25 25.2275 238.412 21.624C240.522 18.0205 243.062 14.8564 246.032 12.1318C246.859 11.376 247.922 10.6553 249.223 9.96973C250.858 9.1084 252.352 8.67773 253.705 8.67773C255.639 8.67773 257.221 9.77637 258.451 11.9736C258.768 12.501 258.926 13.0371 258.926 13.582C258.926 14.1797 258.768 14.7246 258.451 15.2168C258.1 15.7441 257.652 16.0078 257.107 16.0078C257.036 16.0078 256.913 15.9902 256.738 15.9551C256.615 15.9375 256.483 15.9199 256.342 15.9023C255.92 15.8672 255.709 15.4717 255.709 14.7158C255.709 13.3623 255.252 12.6768 254.338 12.6592C254.022 12.6592 253.705 12.7119 253.389 12.8174C251.315 13.5205 249.328 15.1465 247.43 17.6953C245.496 20.2793 243.826 23.1006 242.42 26.1592C240.364 30.6064 239.335 33.832 239.335 35.8359C239.335 36.3281 239.441 36.917 239.652 37.6025C239.827 38.2881 240.478 38.9209 241.603 39.501C247.333 42.5771 250.559 44.7393 251.28 45.9873C251.737 46.8135 251.965 47.71 251.965 48.6768C251.965 49.8721 251.447 51.2432 250.409 52.79C249.355 54.3369 247.553 56.0508 245.004 57.9316C242.438 59.8301 239.933 60.7793 237.49 60.7793Z" fill="black"/>
<path d="M481.823 53.7646H481.665C479.82 53.7646 478.844 52.5254 478.686 50.0205C478.633 48.7812 478.58 47.5947 478.58 46.4609C478.58 42.084 479.002 38.1025 479.872 34.3848C480.136 33.3564 480.795 32.8027 481.929 32.8027C483.88 32.8027 484.856 33.5674 484.856 35.123C484.856 35.5713 484.803 35.9404 484.724 36.3096C483.827 40.8975 483.274 45.5381 483.063 50.2578C483.063 50.627 483.115 50.9961 483.221 51.3389C483.274 51.6553 483.326 51.9717 483.326 52.3408C483.326 52.6309 483.326 52.9473 483.274 53.2109C483.221 53.4746 482.746 53.7119 481.823 53.7646Z" fill="#09090B"/>
<ellipse cx="484.424" cy="28.1311" rx="2.88019" ry="3.92752" transform="rotate(19.8485 484.424 28.1311)" fill="#09090B"/>
<path d="M175.49 47.4482C174.567 47.29 173.961 46.8418 173.592 46.209C173.223 45.6025 172.985 45.0225 172.985 44.416C172.985 44.2578 173.038 43.9941 173.144 43.625C173.223 43.2295 173.275 42.9658 173.275 42.7021C173.275 42.5439 173.038 42.3857 172.616 42.3066C172.247 42.3066 171.904 42.5439 171.641 42.9658C171.535 43.1768 171.43 43.335 171.271 43.4404C171.113 43.5723 171.008 43.6777 170.823 43.8359C170.243 44.4688 169.742 44.8115 169.268 44.8115C168.898 44.8115 168.503 44.5742 168.028 44.0996C167.369 43.4404 167.053 42.8076 167.053 42.1484C167.211 41.1201 167.817 40.3818 168.793 39.8809C171.061 38.6943 172.194 37.2441 172.194 35.5566C172.194 34.3701 171.641 33.0254 170.507 31.5752C169.795 30.6523 169.426 30.0195 169.426 29.6768C169.426 29.2549 169.637 28.9385 170.085 28.7012C170.349 28.543 170.56 28.4902 170.823 28.4902L171.693 28.9385C171.957 29.2021 172.458 29.9404 173.275 31.2588C173.645 31.8389 173.961 32.1553 174.119 32.1553C174.409 32.1553 174.726 31.2588 175.095 29.4658C175.306 28.4902 175.596 27.6201 175.859 26.8291C176.123 26.0117 176.624 25.6426 177.415 25.6426C178.892 25.6426 179.577 26.4336 179.577 28.0684C179.577 28.7012 179.472 29.5186 179.313 30.4941C179.208 30.9688 179.155 31.3643 179.155 31.6279C179.155 31.8389 179.208 31.9443 179.261 31.9443C179.419 31.9443 180.131 31.417 181.265 30.3887C181.739 29.9404 182.108 29.7295 182.504 29.7295C182.979 29.7295 183.427 30.125 183.743 30.916C183.849 31.2588 183.901 31.5225 183.901 31.7861C183.901 32.3926 183.532 33.0254 182.82 33.6846C180.395 35.8467 179.208 37.4551 179.208 38.4834C179.208 39.4062 180.131 41.1201 182.003 43.7305C182.557 44.4688 182.82 45.0752 182.82 45.4443C182.662 46.1035 182.24 46.4199 181.634 46.4199C181.265 46.3672 180.658 45.9453 179.973 45.1279C179.419 44.6533 179.05 44.1523 178.76 43.6777C178.391 42.9658 177.969 42.5967 177.573 42.5967C177.099 42.5967 176.888 43.0186 176.888 43.8359C176.888 46.2617 176.387 47.4482 175.49 47.4482Z" fill="#EE3E38"/>
<path fill-rule="evenodd" clip-rule="evenodd" d="M160.796 11.4805C173.399 5.5901 188.392 8.29613 199.342 16.1272C204.285 19.7079 208.245 24.6963 208.887 31.2154C209.529 37.4748 207.385 43.8162 203.794 48.7226C199.848 53.9844 194.263 57.5924 188.61 60.2438C185.374 61.7608 181.933 62.9088 178.615 64.0295C178.383 64.1115 178.151 64.1935 177.905 64.2618C173.972 65.4918 170.054 66.7219 166.121 67.9519C165.793 68.0749 164.25 68.6625 163.39 67.9519C162.462 67.1865 162.612 65.1775 163.39 63.8518C164.728 61.5421 167.432 62.2118 177.468 59.0821C177.55 59.0548 177.891 58.9591 178.205 58.8498C184.186 56.9091 190.03 54.5037 194.905 50.759C199.766 46.9869 203.097 41.5475 203.917 36.0535C204.736 30.6141 203.084 25.0927 197.909 20.9243C188.596 13.4349 175.201 10.6605 164.114 15.2116C153.6 19.5713 146.486 29.9717 147.988 41.3289C148.684 46.8229 150.828 51.128 154.05 53.875C157.246 56.6084 161.656 57.9067 167.131 57.1277H167.145H167.159C167.842 57.0457 168.47 57.2644 168.934 57.6881C169.371 58.0844 169.603 58.6174 169.671 59.1231C169.74 59.6288 169.671 60.2028 169.344 60.7084C169.016 61.2414 168.47 61.6241 167.787 61.7471H167.773H167.76C160.823 62.7721 154.911 61.0501 150.569 57.2234C146.281 53.4104 143.673 47.6429 143.059 40.8369C142.895 38.2265 142.758 30.9284 147.319 23.3843C151.879 15.8129 158.42 12.5465 160.796 11.4805Z" fill="#EE3E38"/>
</svg>
