<svg width="34" height="20" viewBox="0 0 34 20" fill="none" xmlns="http://www.w3.org/2000/svg">
<path d="M32.9278 2.62122C32.8237 2.41725 32.5753 2.20656 32.2185 2.28127L30.0898 2.62122L31.2146 3.68473C31.4354 3.89374 31.5596 4.17661 31.563 4.48131C31.563 4.52412 31.5613 4.56609 31.5571 4.60806L32.7834 3.3985C33.0579 3.1492 33.0327 2.82435 32.9295 2.62122H32.9278Z" fill="#FEFFFE"/>
<path d="M29.7693 2.67119L29.6543 2.56207L29.5393 2.45295L27.2242 0.262982C26.9582 0.0120042 26.6367 0.0615282 26.4419 0.180722C26.2472 0.299915 26.055 0.563484 26.1574 0.914349L26.4293 1.85027L28.4733 2.62335L28.71 2.71316L28.7905 2.74338C28.8409 2.76185 28.8888 2.78283 28.9349 2.80466C29.4083 3.02794 29.6316 3.41238 29.5955 3.94791C29.5905 4.0201 29.5762 4.08892 29.5636 4.14097L28.8208 7.30043L28.8174 7.31386L31.0502 5.10543C31.0628 5.09284 31.0737 5.08025 31.0854 5.06682C31.2298 4.90649 31.3079 4.70168 31.3054 4.48344C31.3028 4.24757 31.2071 4.02933 31.0359 3.86733L29.771 2.67119H29.7693Z" fill="#FEFFFE"/>
<path d="M29.3461 3.93099C29.378 3.45506 29.1749 3.15204 28.7048 2.97912L28.4488 2.88259L28.2121 2.79278L27.9754 2.70296L26.5199 2.15232L26.373 2.09692L26.2261 2.04152L23.0566 0.842035C22.9718 0.810138 22.8929 0.794189 22.8207 0.794189C22.8123 0.794189 22.8031 0.794189 22.7947 0.794189C22.5404 0.808459 22.3179 0.980534 22.2298 1.23235C22.1408 1.48501 22.2088 1.74354 22.4103 1.92485L27.7421 7.26086L27.7547 7.27345L27.9259 7.44468L28.1366 7.65621L28.1483 7.66796L28.1559 7.67551C28.1601 7.67971 28.166 7.68223 28.1702 7.68559C28.1743 7.68895 28.1769 7.69146 28.1819 7.69482C28.1836 7.69566 28.1861 7.69734 28.1878 7.69818C28.1911 7.7007 28.1945 7.70238 28.1987 7.70489C28.2004 7.70573 28.202 7.70741 28.2046 7.70825C28.2096 7.71077 28.2155 7.71329 28.2214 7.71581C28.2264 7.71749 28.2306 7.71916 28.2365 7.72084C28.2373 7.72084 28.2381 7.72168 28.239 7.72168C28.2398 7.72168 28.2407 7.72168 28.2415 7.72168C28.2449 7.72168 28.2474 7.72336 28.2507 7.7242C28.2583 7.72588 28.2658 7.72756 28.2734 7.7284C28.2759 7.7284 28.2776 7.72924 28.2801 7.72924C28.2818 7.72924 28.2835 7.72924 28.2851 7.72924C28.2885 7.72924 28.2919 7.73008 28.2961 7.73008H28.2977C28.3019 7.73008 28.3061 7.72924 28.3112 7.7284C28.3137 7.7284 28.317 7.7284 28.3196 7.7284C28.3221 7.7284 28.3246 7.72756 28.3271 7.72672C28.3313 7.72672 28.3355 7.72504 28.3397 7.7242C28.3464 7.72252 28.3523 7.72168 28.3582 7.71916C28.3716 7.71497 28.3842 7.70909 28.3959 7.70238C28.4488 7.67216 28.4891 7.61928 28.5051 7.55212L29.321 4.08292C29.3319 4.0376 29.3419 3.98387 29.3461 3.93099Z" fill="#FEFFFE"/>
<path d="M8.23918 8.53256C8.23918 8.53256 6.89783 13.0988 6.82481 13.3943C6.75178 13.6889 6.61664 13.8979 6.30019 13.8979H4.77333L3.21207 8.53256L2.58336 13.8979H0.601562L1.67682 6.00684H3.83154C4.09091 6.00684 4.26047 6.21165 4.33098 6.4643C4.40148 6.71696 5.7252 11.4444 5.7252 11.4444L7.24786 6.00684H9.39166C9.65104 6.00684 9.79541 6.168 9.83654 6.46682C9.87767 6.76564 10.8497 13.8979 10.8497 13.8979H8.86788L8.23918 8.53256Z" fill="#FEFFFE"/>
<path d="M14.9634 5.8501C12.6911 5.8501 11.3867 6.75664 11.3867 8.36323C11.3867 11.3364 15.8699 10.1276 15.8699 11.6016C15.8699 12.1699 15.2294 12.4477 13.9729 12.4477C13.1184 12.4477 12.4427 12.3277 11.6494 12.0641C11.7149 12.5459 11.7737 12.9698 11.8165 13.2888C11.8534 13.5649 11.9684 13.7639 12.2009 13.8235C12.7793 13.972 13.3853 14.0551 14.0694 14.0551C16.486 14.0551 17.8878 13.1125 17.8878 11.4572C17.8878 8.4967 13.4046 9.66849 13.4046 8.21886C13.4046 7.71103 13.9485 7.45753 15.0725 7.45753C15.9161 7.45753 16.5683 7.59015 17.3271 7.84281C17.3271 7.84281 17.4547 6.92452 17.4815 6.70963C17.5084 6.49475 17.5185 6.32016 17.2818 6.2379C16.5599 5.98524 15.8086 5.8501 14.9634 5.8501Z" fill="#FEFFFE"/>
<path d="M22.7231 12.4116C21.2853 12.4116 20.5357 11.6016 20.5357 10.0068C20.5357 8.41192 21.297 7.49279 22.7836 7.49279C23.351 7.49279 24.0032 7.61366 24.6672 7.84281C24.6672 7.84281 24.7796 7.01517 24.8141 6.76671C24.8476 6.51825 24.7948 6.29833 24.5505 6.21355C23.8613 5.97433 23.0891 5.8501 22.3253 5.8501C19.8113 5.8501 18.543 7.27622 18.543 9.99501C18.543 12.7138 19.8121 14.0551 22.3009 14.0551C23.1227 14.0551 23.9243 13.9116 24.6462 13.648C24.825 13.5826 24.8577 13.4541 24.825 13.2116L24.668 12.0616C23.968 12.2907 23.2905 12.4116 22.7231 12.4116Z" fill="#FEFFFE"/>
<path d="M2.34414 16.2932L1.96305 17.6807H1.53413L1.15304 16.2932L0.973413 17.6807H0.601562L0.861775 15.8508H1.34107L1.74985 17.2383L2.15611 15.8508H2.63541L2.89646 17.6807H2.52377L2.34414 16.2932Z" fill="#FEFFFE"/>
<path d="M3.21484 16.0042C3.21484 15.9001 3.28787 15.8389 3.4079 15.8389C3.52794 15.8389 3.60432 15.9001 3.60432 16.0042C3.60432 16.1083 3.53129 16.1721 3.4079 16.1721C3.28451 16.1721 3.21484 16.1075 3.21484 16.0042ZM3.23415 16.3459H3.58418V17.6797H3.23415V16.3459Z" fill="#FEFFFE"/>
<path d="M5.02551 17.6159C4.87946 17.6831 4.70906 17.7166 4.54874 17.7166C4.09211 17.7166 3.87891 17.4531 3.87891 17.0384C3.87891 16.6237 4.08624 16.3098 4.56301 16.3098C4.71158 16.3098 4.87694 16.3375 5.01712 16.408L4.96424 16.6598C4.84672 16.6154 4.75943 16.5977 4.66206 16.5977C4.36743 16.5977 4.24152 16.7404 4.24152 17.0157C4.24152 17.3045 4.36743 17.4279 4.63688 17.4279C4.75187 17.4279 4.85512 17.4061 4.97347 17.3607L5.02551 17.6159Z" fill="#FEFFFE"/>
<path d="M5.65943 16.6043C5.7719 16.3718 5.97588 16.3013 6.16978 16.3013V16.6236C5.9146 16.6236 5.76351 16.6824 5.66782 16.8057V17.6804H5.32031V16.3466H5.62333L5.65943 16.6043Z" fill="#FEFFFE"/>
<path d="M7.67932 17.0132C7.67932 17.4757 7.44429 17.7166 6.96752 17.7166C6.53355 17.7166 6.30859 17.4757 6.30859 17.0132C6.30859 16.5507 6.54362 16.3098 7.0204 16.3098C7.45436 16.3098 7.67932 16.5507 7.67932 17.0132ZM7.31502 17.0132C7.31502 16.7278 7.2143 16.5927 6.99857 16.5927C6.78285 16.5927 6.67037 16.727 6.67037 17.0132C6.67037 17.2995 6.77446 17.4338 6.99018 17.4338C7.2059 17.4338 7.31502 17.2995 7.31502 17.0132Z" fill="#FEFFFE"/>
<path d="M9.23672 16.2175C9.06548 16.1554 8.90852 16.1218 8.70706 16.1218C8.42419 16.1218 8.28149 16.1948 8.28149 16.34C8.28149 16.732 9.36011 16.455 9.36011 17.1416C9.36011 17.5084 9.05205 17.7158 8.514 17.7158C8.27561 17.7158 8.08004 17.6763 7.89453 17.5957L7.95077 17.3129C8.1304 17.38 8.28988 17.4086 8.49134 17.4086C8.81366 17.4086 8.97902 17.3238 8.97902 17.1677C8.97902 16.7698 7.90041 17.0527 7.90041 16.366C7.90041 16.0101 8.18664 15.8137 8.68776 15.8137C8.91187 15.8137 9.10829 15.8557 9.29296 15.9346L9.23672 16.2175Z" fill="#FEFFFE"/>
<path d="M10.2493 16.3098C10.0277 16.3098 9.82042 16.3744 9.65506 16.4752L9.7029 16.7136C9.88757 16.6296 10.0395 16.5902 10.1906 16.5902C10.1931 16.5902 10.1965 16.5902 10.199 16.5902C10.22 16.5902 10.2393 16.5918 10.2577 16.5944C10.3937 16.6128 10.4567 16.6926 10.4567 16.8311V16.8672C9.89596 16.8781 9.58203 17.0384 9.58203 17.349C9.58203 17.5815 9.74991 17.7158 10.011 17.7158C10.2015 17.7158 10.3643 17.6453 10.4785 17.5059V17.715H10.8067V16.8672C10.8067 16.4945 10.6246 16.3098 10.2493 16.3098ZM10.4567 17.3188V17.3246C10.361 17.4145 10.2603 17.4623 10.157 17.4623C10.0277 17.4623 9.94129 17.3977 9.94129 17.2827C9.94129 17.1282 10.1293 17.0309 10.4567 17.0166V17.3188Z" fill="#FEFFFE"/>
<path d="M12.0045 17.6805H11.5143L11.0039 16.3467H11.3934L11.7602 17.4538L12.1245 16.3467H12.5115L12.0045 17.6805Z" fill="#FEFFFE"/>
<path d="M13.9057 17.0804H12.9806C12.9916 17.2961 13.0847 17.4279 13.3676 17.4279C13.5078 17.4279 13.6564 17.3943 13.8049 17.3188L13.8553 17.5571C13.6899 17.6612 13.4549 17.7166 13.256 17.7166C12.8354 17.7166 12.6172 17.4648 12.6172 17.0611C12.6172 16.5818 12.8858 16.3098 13.3097 16.3098C13.6715 16.3098 13.9124 16.5062 13.9124 16.9679C13.9124 17.0099 13.9098 17.0518 13.9065 17.0795L13.9057 17.0804ZM12.989 16.884H13.5942C13.5917 16.6766 13.4985 16.57 13.3256 16.57C13.1771 16.57 13.0285 16.6431 12.989 16.884Z" fill="#FEFFFE"/>
<path d="M16.2316 16.22C16.0721 16.1587 15.9118 16.1251 15.7724 16.1251C15.3972 16.1251 15.2033 16.3551 15.2033 16.7782C15.2033 17.2012 15.3964 17.406 15.764 17.406C15.9042 17.406 16.0662 17.3725 16.2316 17.3104L16.2878 17.5932C16.1032 17.6746 15.8925 17.7166 15.6826 17.7166C15.1169 17.7166 14.8281 17.3943 14.8281 16.7748C14.8281 16.1554 15.1169 15.8137 15.6885 15.8137C15.8983 15.8137 16.1057 15.8557 16.2853 15.9371L16.2316 16.22Z" fill="#FEFFFE"/>
<path d="M17.8035 17.0132C17.8035 17.4757 17.5685 17.7166 17.0917 17.7166C16.6577 17.7166 16.4336 17.4757 16.4336 17.0132C16.4336 16.5507 16.6686 16.3098 17.1454 16.3098C17.5794 16.3098 17.8035 16.5507 17.8035 17.0132ZM17.4392 17.0132C17.4392 16.7278 17.3385 16.5927 17.1227 16.5927C16.907 16.5927 16.7945 16.727 16.7945 17.0132C16.7945 17.2995 16.8986 17.4338 17.1143 17.4338C17.3301 17.4338 17.4392 17.2995 17.4392 17.0132Z" fill="#FEFFFE"/>
<path d="M19.3372 16.8084V17.6797H18.9897V16.8672C18.9897 16.6733 18.8999 16.5809 18.7404 16.5809C18.6254 16.5809 18.5246 16.6372 18.4374 16.7354V17.6797H18.0898V16.3459H18.3929L18.4264 16.57C18.5414 16.4047 18.7152 16.3098 18.9032 16.3098C19.1693 16.3098 19.3372 16.4894 19.3372 16.8084Z" fill="#FEFFFE"/>
<path d="M20.6846 16.3686L20.6392 16.6062C20.5385 16.5785 20.4126 16.5642 20.3026 16.5642C20.123 16.5642 19.9946 16.6003 19.9946 16.7094C19.9946 16.9621 20.7542 16.7825 20.7542 17.2727C20.7542 17.5472 20.5192 17.715 20.1289 17.715C19.9384 17.715 19.7587 17.6731 19.6328 17.6109L19.6832 17.37C19.7923 17.4179 19.9384 17.4599 20.0894 17.4599C20.2775 17.4599 20.3891 17.3927 20.3891 17.2886C20.3891 17.0167 19.6437 17.2156 19.6437 16.7195C19.6437 16.4476 19.8704 16.3074 20.2657 16.3074C20.4227 16.3074 20.5771 16.33 20.6837 16.3661L20.6846 16.3686Z" fill="#FEFFFE"/>
<path d="M22.2772 17.6805H21.9742L21.9347 17.4647C21.8256 17.6184 21.6602 17.7166 21.4613 17.7166C21.1893 17.7166 21.0273 17.5369 21.0273 17.218V16.3467H21.3774V17.1592C21.3774 17.3523 21.4554 17.4454 21.6183 17.4454C21.7442 17.4454 21.8399 17.3892 21.9263 17.291V16.3467H22.2764L22.2772 17.6805Z" fill="#FEFFFE"/>
<path d="M22.6719 15.719H23.0194V17.6806H22.6719V15.719Z" fill="#FEFFFE"/>
<path d="M23.551 15.9741H23.828V16.3468H24.105V16.6188H23.828V17.2601C23.828 17.3776 23.8783 17.4313 23.9908 17.4313C24.0412 17.4313 24.0915 17.4204 24.1394 17.3952L24.1898 17.6445C24.1058 17.6949 23.9992 17.7175 23.8842 17.7175C23.6013 17.7175 23.4805 17.5891 23.4805 17.3054V15.975H23.5501" fill="#FEFFFE"/>
<path d="M24.4805 16.0042C24.4805 15.9001 24.5535 15.8389 24.6735 15.8389C24.7936 15.8389 24.8699 15.9001 24.8699 16.0042C24.8699 16.1083 24.7969 16.1721 24.6735 16.1721C24.5501 16.1721 24.4805 16.1075 24.4805 16.0042ZM24.4998 16.3459H24.8498V17.6797H24.4998V16.3459Z" fill="#FEFFFE"/>
<path d="M26.5051 16.8084V17.6797H26.1576V16.8672C26.1576 16.6733 26.0678 16.5809 25.9083 16.5809C25.7933 16.5809 25.6926 16.6372 25.6053 16.7354V17.6797H25.2578V16.3459H25.5608L25.5944 16.57C25.7094 16.4047 25.8832 16.3098 26.0712 16.3098C26.3373 16.3098 26.5051 16.4894 26.5051 16.8084Z" fill="#FEFFFE"/>
<path d="M27.8672 16.5091L27.9931 16.321L28.2667 16.4503L28.0577 16.8918" fill="#FEFFFE"/>
<path d="M27.9971 16.4474C28.0953 16.5288 28.1431 16.6438 28.1431 16.784C28.1431 17.0811 27.9417 17.2658 27.4876 17.2658C27.3499 17.2658 27.2383 17.249 27.1459 17.2179C27.1266 17.2431 27.1149 17.2683 27.1149 17.2935C27.1149 17.5369 28.2724 17.2146 28.2724 17.845C28.2724 18.1085 28.0542 18.3436 27.4599 18.3436C26.9663 18.3436 26.7422 18.1899 26.7422 17.9096C26.7422 17.7501 26.8177 17.6267 26.9269 17.5403C26.8622 17.5033 26.8228 17.4504 26.8228 17.3715C26.8228 17.2599 26.9042 17.1726 26.9772 17.1256C26.879 17.0408 26.8312 16.9267 26.8312 16.784C26.8312 16.4927 27.0326 16.3105 27.4867 16.3105C27.6689 16.3105 27.8116 16.3416 27.9157 16.3945M27.9098 17.8659C27.9098 17.6309 27.501 17.6527 27.1837 17.6108C27.1166 17.6838 27.0796 17.7702 27.0796 17.8517C27.0796 17.986 27.1778 18.1094 27.5086 18.1094C27.7914 18.1094 27.9098 17.9977 27.9098 17.8659ZM27.1535 16.7873C27.1535 16.9418 27.2626 17.0173 27.4867 17.0173C27.7108 17.0173 27.8233 16.9418 27.8233 16.7873C27.8233 16.6329 27.7142 16.5573 27.4867 16.5573C27.2593 16.5573 27.1535 16.6304 27.1535 16.7873Z" fill="#FEFFFE"/>
<path d="M25.341 6.96868V6.58508H25.2109V6.51709H25.5517V6.58508H25.4216V6.96868H25.341Z" fill="#FEFFFE"/>
<path d="M25.6228 6.96868V6.51709H25.7134L25.7932 6.73785C25.7982 6.75212 25.8032 6.76639 25.8074 6.7815C25.8116 6.79661 25.8167 6.81088 25.8217 6.82599H25.8242C25.8293 6.81088 25.8343 6.79661 25.8385 6.7815C25.8427 6.76639 25.8477 6.75212 25.8528 6.73785L25.9308 6.51709H26.0215V6.96868H25.9476V6.76219C25.9476 6.75128 25.9476 6.74037 25.9485 6.72778C25.9485 6.71519 25.9501 6.7026 25.951 6.69C25.9518 6.67741 25.9527 6.66482 25.9543 6.65307C25.956 6.64132 25.9568 6.62957 25.9577 6.61866H25.9552L25.9182 6.72358L25.8444 6.92671H25.7965L25.7218 6.72358L25.6857 6.61866H25.6832C25.684 6.62957 25.6849 6.64048 25.6866 6.65307C25.6874 6.66566 25.6891 6.67741 25.6899 6.69C25.6908 6.7026 25.6916 6.71519 25.6924 6.72778C25.6924 6.74037 25.6933 6.75128 25.6933 6.76219V6.96868H25.6211H25.6228Z" fill="#FEFFFE"/>
</svg>
