<svg width="554" height="68" viewBox="0 0 554 68" fill="none" xmlns="http://www.w3.org/2000/svg">
<path d="M28.625 59.4893C29.7588 59.4893 30.6289 59.1992 31.1035 58.7246C31.499 58.4082 31.71 58.1182 31.71 57.8545C31.71 57.6436 31.6045 57.4326 31.3672 57.2217C30.3652 56.0879 29.8115 54.1367 29.8115 51.4736C29.8115 47.6504 30.6816 42.5879 32.3428 36.207C34.0303 30.0371 36.4033 22.7598 39.4355 14.3223C39.5938 13.8477 39.6992 13.373 39.6992 12.9775C39.6992 11.9492 39.1455 11.2109 38.1172 10.6572C37.8535 10.5518 37.6426 10.499 37.3789 10.499C35.2695 10.499 32.1846 14.1113 28.0977 21.3096C26.1992 24.7109 24.3535 28.0596 22.6396 31.4082C19.2383 37.9736 17.2344 41.2695 16.5752 41.2695C16.3115 41.2695 16.2061 40.9004 16.2061 40.1885L16.4697 23.2871C16.4697 19.9912 15.9424 17.9609 14.8613 17.1963C13.7803 16.4316 12.6465 16.0625 11.5127 16.0625C9.8252 16.0625 8.375 17.9609 7.13574 21.6787C4.9209 28.4814 3.0752 36.1543 1.625 44.6709C0.913086 48.8369 0.543945 51.1572 0.543945 51.7109C0.543945 52.8447 0.860352 53.7412 1.57227 54.3477C2.28418 54.9541 2.96973 55.2705 3.73438 55.2705C4.9209 55.2705 5.58008 54.6113 5.63281 53.2666C5.68555 51.3682 6.47656 46.9912 7.95312 40.1885C9.9834 30.749 11.249 26.0029 11.6709 26.0029V27.6113C11.5127 30.2744 11.4072 33.0166 11.4072 35.8906C11.4072 38.1055 11.46 40.4785 11.5127 42.957C11.5654 45.4355 12.1455 47.7559 13.2793 49.8652C13.7803 50.5771 14.2549 50.9463 14.8613 50.9463C15.3887 50.9463 15.9951 50.6826 16.5752 50.1289C18.8955 48.2041 21.7168 43.5898 25.1182 36.418C26.4629 33.4912 27.6494 30.96 28.625 28.7451C29.7588 26.1611 30.3652 24.8691 30.5234 24.8691C30.5234 25.2383 30.0225 27.0312 29.0996 30.0898C27.7549 34.3086 27.0166 37.3408 26.832 39.1074C25.6982 44.6709 25.1182 49.1533 25.0654 52.6602C25.0654 53.7412 25.1709 55.165 25.3818 56.8789C25.54 58.6191 26.6211 59.4893 28.625 59.4893ZM51.5973 51.2627C52.5201 51.2627 52.942 50.999 52.942 50.5244C52.942 50.3398 52.8893 50.0762 52.7311 49.8125C52.151 48.4678 51.8082 46.9912 51.8082 45.541C51.8082 43.5371 52.151 41.2695 52.7838 38.6328C52.942 37.9209 53.0475 37.2881 53.0475 36.6289C53.0475 35.126 52.5729 34.0977 51.5445 33.5439C51.3863 33.4912 51.1227 33.4385 50.8326 33.4385C50.5689 33.4385 50.1998 33.4912 49.8307 33.623C49.1188 33.834 47.1148 35.9961 43.8717 40.0303C41.3404 43.2207 39.7848 44.8555 39.2311 44.8555C39.1256 44.8555 39.0729 44.7236 39.0729 44.5654C39.0729 44.3545 39.1783 43.9854 39.3893 43.4316C40.9713 39.292 42.4742 36.1543 44.0299 34.0449C44.4254 33.5439 44.6891 33.2803 44.9 33.2803C45.1109 33.333 45.401 33.4385 45.6646 33.623C45.9283 33.7812 46.3502 33.8867 46.8512 33.8867C47.3258 33.8867 47.774 33.4912 48.1432 32.7529C48.3014 32.4893 48.3541 32.1465 48.3541 31.7246C48.3541 31.2764 47.985 30.749 47.2203 30.1426C46.482 29.5625 45.6119 29.2988 44.6891 29.2988C43.1861 29.2988 41.7096 30.2217 40.3121 32.041C36.9107 36.5234 34.7486 41.0586 33.8258 45.541C33.7203 46.042 33.6676 46.4639 33.6676 46.8857C33.6676 48.5732 34.4322 49.8652 35.8824 50.6826C36.5943 51.0518 37.2799 51.2627 37.9918 51.2627C38.9146 51.2627 39.8375 50.7354 40.734 49.707C41.6568 48.6787 42.5797 47.5449 43.5553 46.3057C45.2691 44.0908 46.1393 43.0098 46.192 43.0098C46.482 43.0098 46.5875 43.5898 46.5875 44.7764C46.5875 48.125 47.985 50.2344 50.8326 51.1572C51.0699 51.21 51.3336 51.2627 51.5973 51.2627ZM56.4816 61.9678C57.299 61.915 57.8264 61.625 58.0637 61.1504C58.2746 60.6758 58.4328 59.1992 58.591 56.7734C58.7492 54.3477 59.092 52.8447 59.5666 52.2383C59.8303 51.9219 60.2258 51.7637 60.5949 51.7109C60.8586 51.7109 61.175 51.7637 61.5178 51.9219C63.2844 52.6602 65.341 53.4248 67.7668 54.1895C68.426 54.4004 68.9533 54.5059 69.3488 54.5059C70.0344 54.5059 70.3771 54.1367 70.3771 53.4248C70.298 53.0029 70.0344 52.6602 69.507 52.3965C67.4504 51.4736 65.3937 50.5771 63.3371 49.7598C61.9924 49.2061 61.3596 48.415 61.3596 47.3867C61.3596 46.8857 61.5178 46.3584 61.7814 45.752C64.7082 39.8721 67.9777 35.5479 71.6691 32.8057C72.3547 32.3047 72.6975 31.8301 72.6975 31.3555C72.6447 30.9072 72.1965 30.5381 71.2736 30.2217C70.8518 30.0371 70.298 29.9844 69.718 29.9844C68.0305 29.9844 66.3693 30.9072 64.6291 32.8057C63.7326 33.834 63.0734 34.3613 62.7043 34.3613C62.4934 34.3613 62.3615 34.1504 62.3615 33.6758C62.3615 32.7002 62.757 30.8018 63.4953 28.0596C63.8908 26.7412 64.049 25.8447 64.049 25.2383C64.049 23.3926 62.9152 22.4961 60.6477 22.4961C59.7248 22.4961 59.1447 23.2871 58.8547 24.9219C58.6437 26.3193 58.3801 27.7168 58.1164 29.1406C57.8264 30.5381 57.4572 32.4102 56.9826 34.8623C54.9787 44.5127 54.0031 51.6582 54.0031 56.1934C54.0031 56.8789 54.0031 57.5381 54.0559 58.1182C54.2141 60.4912 54.9787 61.8096 56.2707 61.9678H56.4816ZM75.367 41.6123C74.9978 41.5596 74.8133 41.3223 74.8133 41.0586C74.8133 40.6895 76.1844 38.2109 78.8738 33.623C79.032 33.4385 79.1902 33.333 79.4803 33.333C79.8494 33.333 80.0076 33.4912 80.0076 33.7812C80.0076 34.3613 79.3484 35.8379 78.0564 38.2109C77.2127 39.8193 76.2898 40.9531 75.367 41.6123ZM77.4236 52.9502C78.0564 52.9502 78.7684 52.8975 79.533 52.8447C80.8777 52.6602 82.3807 51.9746 84.0682 50.7354C85.7293 49.4961 86.9158 48.3096 87.6805 47.1758C88.366 46.042 88.7615 45.2246 88.7615 44.6182C88.7615 44.0908 88.5506 43.6426 88.1551 43.2734C87.8914 43.1152 87.6805 43.0098 87.4168 43.0098C86.9158 43.0098 86.2303 43.4316 85.3602 44.3018C84.6482 44.9082 83.5145 45.8047 81.9588 46.9385C79.533 48.7314 77.6346 49.6016 76.1844 49.6016C75.2088 49.6016 74.5496 48.9951 74.2332 47.8613C74.1805 47.6504 74.1277 47.4395 74.1277 47.2285C74.1277 46.7275 74.6023 46.2529 75.5779 45.752C78.3465 44.46 81.2469 41.5596 84.3318 36.9717C84.8592 35.9434 85.1492 34.9678 85.1492 34.0449C85.1492 33.2803 84.9646 32.5947 84.5955 31.8828C83.4617 29.668 81.7478 28.5342 79.533 28.5342C76.7645 28.5342 74.2332 30.9072 71.8074 35.6533C70.4627 38.3164 69.698 40.4785 69.5398 42.1396C69.3289 43.8271 69.1971 44.8555 69.1971 45.3301C69.1971 50.3926 71.9656 52.9502 77.4236 52.9502ZM112.558 53.583C114.219 53.5303 115.142 52.5547 115.353 50.6299C115.458 49.6016 116.275 46.9385 117.778 42.7988C119.677 37.5518 120.969 34.9678 121.628 34.9678C121.786 34.9678 121.839 35.2314 121.892 35.8379C121.892 36.1543 121.839 37.0771 121.733 38.6328C121.681 39.8721 121.628 41.1641 121.628 42.4033C121.628 44.7236 121.681 46.833 121.839 48.7314C121.944 50.6826 122.867 52.0801 124.607 53.0029C125.135 53.2666 125.662 53.4248 126.216 53.4248C127.139 53.3721 127.877 53.0029 128.536 52.2383C128.905 51.8164 129.09 51.4209 129.09 51.1045C129.011 50.6826 128.747 50.1816 128.167 49.6016C127.033 48.415 126.479 47.0439 126.479 45.4883C126.479 42.957 126.928 38.0264 127.771 30.749L127.824 29.5625C127.771 28.376 127.191 27.5059 126.058 26.9258C125.557 26.6357 125.029 26.5303 124.528 26.5303C123.579 26.583 122.709 27.0312 121.892 27.875C119.835 30.0898 118.068 32.5947 116.539 35.2842C116.17 36.0488 115.854 36.418 115.695 36.418C115.511 36.418 115.458 36.2598 115.458 35.8906C115.458 35.2842 115.959 31.8301 116.935 25.6074C117.04 24.6055 117.198 23.9463 117.356 23.7881C117.515 23.6299 117.62 23.5771 117.778 23.5244C126.875 21.8369 131.885 20.9668 132.913 20.9668C134.258 20.9668 135.497 21.125 136.684 21.5205C136.974 21.5732 137.237 21.626 137.554 21.626C138.318 21.5732 138.688 21.125 138.688 20.2285C138.635 18.1191 137.501 16.9326 135.392 16.6426C134.574 16.5898 133.783 16.5371 132.966 16.5371C131.226 16.5371 126.532 17.1436 118.912 18.2773L118.754 18.3301C118.543 18.3301 118.438 18.2246 118.438 17.9609L118.701 16.6426C120.178 8.94336 120.863 4.35547 120.863 2.87891C120.863 1.58691 120.23 0.875 118.991 0.822266L118.49 0.769531C117.356 0.769531 116.724 1.37598 116.486 2.61523C114.43 13.373 113.296 18.8574 113.138 19.042C112.979 19.2002 111.951 19.4111 110.026 19.6748C109.525 19.6748 109.314 19.4639 109.314 19.042C109.314 18.8574 109.473 18.0137 109.789 16.3789C109.974 15.4561 110.079 14.4541 110.079 13.4258C110.079 12.1602 109.42 11.3691 108.128 11.0264C107.759 10.9209 107.416 10.8682 107.152 10.8682C105.808 10.9736 105.096 11.8438 104.938 13.4258C104.463 17.9082 103.856 20.334 103.039 20.7559C102.248 21.2041 101.062 21.6787 99.5322 22.1533C97.9766 22.6543 96.5264 23.0234 95.0498 23.1816C93.5996 23.3926 92.5186 23.6826 91.7539 23.999C91.0156 24.3682 90.6201 24.9219 90.6201 25.6074C90.8574 27.6641 91.8066 28.6924 93.5469 28.6924C94.4697 28.6924 96.7373 28.2178 100.297 27.2422C100.719 27.084 101.114 27.0312 101.431 27.0312C101.642 27.0312 101.747 27.1895 101.747 27.5059C101.747 27.6641 101.694 27.9541 101.642 28.2705C100.297 33.3857 99.6377 38.9492 99.6377 45.0137C99.6377 46.5166 99.6904 47.7031 99.875 48.626C100.139 50.2871 101.062 51.7109 102.617 52.9502C103.092 53.3193 103.593 53.5303 104.12 53.5303C105.359 53.5303 105.966 53.1084 105.966 52.1855C105.966 51.9219 105.913 51.7109 105.86 51.4736C105.043 48.7842 104.621 46.042 104.621 43.2207C104.621 39.7139 105.201 35.3896 106.44 30.3271L107.521 26.0557C107.68 25.6602 107.917 25.3965 108.233 25.3438C110.554 24.9219 111.793 24.7109 111.898 24.7109C112.109 24.7109 112.241 24.9219 112.241 25.291C110.079 41.6123 108.998 50.0762 108.998 50.6826C109.051 52.6074 110.237 53.583 112.558 53.583ZM135.899 41.6123C135.53 41.5596 135.345 41.3223 135.345 41.0586C135.345 40.6895 136.716 38.2109 139.406 33.623C139.564 33.4385 139.722 33.333 140.012 33.333C140.381 33.333 140.54 33.4912 140.54 33.7812C140.54 34.3613 139.88 35.8379 138.588 38.2109C137.745 39.8193 136.822 40.9531 135.899 41.6123ZM137.956 52.9502C138.588 52.9502 139.3 52.8975 140.065 52.8447C141.41 52.6602 142.913 51.9746 144.6 50.7354C146.261 49.4961 147.448 48.3096 148.212 47.1758C148.898 46.042 149.294 45.2246 149.294 44.6182C149.294 44.0908 149.083 43.6426 148.687 43.2734C148.423 43.1152 148.212 43.0098 147.949 43.0098C147.448 43.0098 146.762 43.4316 145.892 44.3018C145.18 44.9082 144.046 45.8047 142.491 46.9385C140.065 48.7314 138.167 49.6016 136.716 49.6016C135.741 49.6016 135.082 48.9951 134.765 47.8613C134.712 47.6504 134.66 47.4395 134.66 47.2285C134.66 46.7275 135.134 46.2529 136.11 45.752C138.879 44.46 141.779 41.5596 144.864 36.9717C145.391 35.9434 145.681 34.9678 145.681 34.0449C145.681 33.2803 145.497 32.5947 145.128 31.8828C143.994 29.668 142.28 28.5342 140.065 28.5342C137.296 28.5342 134.765 30.9072 132.339 35.6533C130.995 38.3164 130.23 40.4785 130.072 42.1396C129.861 43.8271 129.729 44.8555 129.729 45.3301C129.729 50.3926 132.498 52.9502 137.956 52.9502ZM177.361 54.7695C178.047 54.7168 178.653 54.5059 179.022 54.1367C179.18 53.9785 179.233 53.7939 179.233 53.583C179.18 53.2666 179.075 52.9502 178.917 52.6074C178.811 52.4492 178.706 52.291 178.653 52.1328C177.625 49.8652 177.124 46.4639 177.124 41.9287C177.124 39.6084 177.308 37.2881 177.625 34.915C177.678 34.4141 177.73 33.9395 177.73 33.4912C177.73 30.749 176.28 29.3516 173.353 29.3516C171.56 29.3516 169.899 30.3799 168.291 32.4893C167.526 33.3857 167.078 33.8867 166.972 33.8867C166.92 33.834 166.867 33.4912 166.867 32.9639C166.867 31.5664 167.21 28.9033 167.79 25.0801C168.607 19.833 169.187 16.5898 169.583 15.4561C169.688 15.0342 169.741 14.6123 169.741 14.1113C169.741 12.3447 168.713 11.4746 166.603 11.4219C165.364 11.4219 164.547 12.4502 164.23 14.4541C163.307 19.6748 162.543 24.9219 161.963 30.2217C161.91 30.3799 161.594 32.7002 160.882 37.1826C160.17 41.665 159.484 46.1475 158.72 50.6299L158.667 51.3682C158.667 53.2139 159.853 54.1367 162.226 54.1367C163.413 54.084 164.178 53.3193 164.441 51.9219C165.68 46.4111 167.79 41.2695 170.769 36.5234C171.138 35.9961 171.402 35.7061 171.56 35.7061C171.798 35.7061 171.903 35.9961 171.903 36.5234V43.8799C171.903 51.1572 173.564 54.7695 176.966 54.7695H177.361ZM196.009 54.0312C196.853 53.9258 197.301 53.7412 197.354 53.4775V53.0557C197.354 52.6602 197.301 52.291 197.143 51.8164C196.985 51.3154 196.853 50.6299 196.853 49.707C196.853 46.1475 198.039 40.9004 200.492 33.9395C200.65 33.4912 200.703 33.0693 200.703 32.5947C200.65 31.6191 200.096 30.9072 198.962 30.4854C198.488 30.2744 197.987 30.1426 197.512 30.1426C196.484 30.2217 195.666 30.749 195.192 31.8301C194.269 33.834 192.608 36.6816 190.288 40.5312C187.519 45.0137 185.752 47.2812 185.04 47.334C184.882 47.334 184.829 47.123 184.829 46.6748C184.829 45.541 185.251 43.1152 186.174 39.5029C186.886 36.6289 187.361 34.625 187.677 33.4912C187.73 33.2275 187.783 32.8584 187.783 32.4893C187.73 31.4082 186.992 30.749 185.462 30.4854C184.118 30.5381 183.037 31.6191 182.219 33.7285C181.191 36.1543 180.505 38.8438 180.136 41.7705C179.741 44.6709 179.53 46.7275 179.53 47.9141C179.53 49.3906 180.057 50.5244 181.138 51.3154C182.166 52.1328 183.089 52.502 183.907 52.502L185.093 52.4492C186.438 52.3965 187.677 51.7637 188.705 50.5771C188.969 50.2344 189.734 49.3379 191.079 47.8086C191.237 48.0723 191.289 48.5205 191.369 49.1006C191.421 51.3154 191.949 52.7393 192.871 53.4248C193.399 53.7939 194.216 54.0312 195.245 54.0312H196.009ZM204.242 55.3232C206.272 55.165 208.276 52.8447 210.175 48.3096C211.098 46.042 212.126 44.3545 213.207 43.2734C212.706 45.9893 212.495 48.2568 212.495 50.0762C212.653 51.3682 213.523 52.291 215.132 52.792C215.527 52.8975 215.896 52.9502 216.266 52.9502C218.164 52.9502 219.852 51.1045 221.249 47.4395C221.724 46.0947 222.33 44.9082 222.963 43.8799C223.464 43.168 223.78 42.7988 223.991 42.7988C224.202 42.7988 224.334 43.3262 224.334 44.4072C224.334 44.6709 224.334 44.9609 224.255 45.3301C224.202 45.6992 224.202 46.2002 224.202 46.6748C224.202 48.2041 224.439 49.3379 224.809 50.1289C225.679 51.9219 226.918 52.792 228.579 52.792C228.975 52.792 229.291 52.6602 229.555 52.4492C229.924 52.1328 230.161 51.8164 230.161 51.5264C230.161 51.2627 230.056 50.999 229.818 50.6299C229.396 49.8125 229.186 48.4678 229.186 46.5693C229.186 43.8271 229.766 40.4258 231.005 36.2598C231.453 34.7041 231.664 33.333 231.664 32.1992C231.664 31.0127 231.005 30.1426 229.713 29.668C229.502 29.6152 229.291 29.5625 229.027 29.5625C227.551 29.5625 225.995 30.96 224.255 33.7285C223.464 35.0732 222.699 36.3125 222.119 37.4463C221.249 39.1074 220.695 39.9248 220.484 39.9775C220.432 39.9775 220.379 39.7666 220.379 39.3975C220.379 38.5273 220.643 36.6289 221.196 33.7812C221.249 33.4912 221.249 33.1221 221.249 32.6475C221.196 31.9355 220.985 31.3555 220.537 30.9072C220.01 30.3799 219.245 30.0898 218.322 30.0898C217.294 30.1426 216.371 30.6963 215.686 31.7773C214.499 33.6758 213.365 35.4951 212.284 37.3936C209.516 42.2451 207.854 44.6709 207.248 44.7236C207.037 44.7236 206.932 44.3545 206.932 43.6426C206.932 42.1396 207.485 39.2393 208.487 34.8623C208.619 34.4668 208.672 34.0977 208.672 33.7812C208.619 33.1221 208.382 32.542 207.96 32.041C207.485 31.5664 206.879 31.3555 206.167 31.3555C204.295 31.3555 202.291 37.7627 200.129 50.6826V52.0801C200.182 53.5303 200.946 54.5059 202.502 55.0596C203.003 55.2178 203.478 55.3232 203.952 55.3232H204.242ZM246.937 51.2627C247.86 51.2627 248.282 50.999 248.282 50.5244C248.282 50.3398 248.229 50.0762 248.071 49.8125C247.491 48.4678 247.148 46.9912 247.148 45.541C247.148 43.5371 247.491 41.2695 248.124 38.6328C248.282 37.9209 248.387 37.2881 248.387 36.6289C248.387 35.126 247.913 34.0977 246.884 33.5439C246.726 33.4912 246.462 33.4385 246.172 33.4385C245.909 33.4385 245.54 33.4912 245.171 33.623C244.459 33.834 242.455 35.9961 239.212 40.0303C236.68 43.2207 235.125 44.8555 234.571 44.8555C234.465 44.8555 234.413 44.7236 234.413 44.5654C234.413 44.3545 234.518 43.9854 234.729 43.4316C236.311 39.292 237.814 36.1543 239.37 34.0449C239.765 33.5439 240.029 33.2803 240.24 33.2803C240.451 33.333 240.741 33.4385 241.004 33.623C241.268 33.7812 241.69 33.8867 242.191 33.8867C242.666 33.8867 243.114 33.4912 243.483 32.7529C243.641 32.4893 243.694 32.1465 243.694 31.7246C243.694 31.2764 243.325 30.749 242.56 30.1426C241.822 29.5625 240.952 29.2988 240.029 29.2988C238.526 29.2988 237.049 30.2217 235.652 32.041C232.251 36.5234 230.088 41.0586 229.166 45.541C229.06 46.042 229.007 46.4639 229.007 46.8857C229.007 48.5732 229.772 49.8652 231.222 50.6826C231.934 51.0518 232.62 51.2627 233.332 51.2627C234.254 51.2627 235.177 50.7354 236.074 49.707C236.997 48.6787 237.92 47.5449 238.895 46.3057C240.609 44.0908 241.479 43.0098 241.532 43.0098C241.822 43.0098 241.927 43.5898 241.927 44.7764C241.927 48.125 243.325 50.2344 246.172 51.1572C246.41 51.21 246.673 51.2627 246.937 51.2627ZM253.773 52.3965C254.854 52.3965 255.829 51.6055 256.752 49.9707C260.523 43.2207 262.527 39.8193 262.685 39.8193C262.738 39.8193 262.79 39.9248 262.79 40.1357C262.79 40.4258 262.738 40.9004 262.685 41.5596C262.632 42.2451 262.579 43.9326 262.579 46.6748C262.632 48.6787 263.37 50.2871 264.741 51.4209C265.374 52.0273 266.086 52.291 266.798 52.291C267.114 52.291 267.431 52.1855 267.695 51.9746C267.985 51.8164 268.143 51.6055 268.143 51.3154C268.143 51.1572 268.09 50.9463 268.037 50.7354C267.747 50.4717 267.642 49.4434 267.642 47.5977C267.642 45.5938 268.459 41.1641 270.12 34.3613C270.252 33.8867 270.305 33.4385 270.305 33.0693C270.252 31.5137 269.646 30.4326 268.459 29.7207C267.985 29.457 267.431 29.2988 266.904 29.2988C265.875 29.3516 264.9 29.9844 263.871 31.2236C261.867 33.6758 259.705 36.5234 257.332 39.8721C256.858 40.584 256.462 40.9531 256.304 40.9531C256.146 40.9531 256.093 40.7422 256.093 40.373C256.093 39.3975 256.462 37.71 257.227 35.3369C257.385 34.7568 257.49 34.2559 257.49 33.9395C257.438 32.8584 256.699 32.0938 255.223 31.6191C254.854 31.5137 254.59 31.4609 254.3 31.4609C253.404 31.5137 252.744 32.1992 252.481 33.623C251.505 38.1582 250.477 42.6934 249.448 47.2812C249.396 47.5977 249.343 47.9668 249.343 48.4678C249.396 50.0762 250.371 51.2627 252.322 52.0801C252.797 52.291 253.298 52.3965 253.773 52.3965ZM289.935 56.457C291.069 56.4043 292.097 56.1934 293.02 55.7451C295.947 54.4004 297.397 52.9502 297.397 51.3682C297.397 50.999 297.239 50.6299 296.975 50.2871C296.632 49.9707 296.316 49.8125 295.999 49.8125C295.63 49.8125 295.182 50.0234 294.707 50.3926C292.651 52.1855 290.594 53.1084 288.59 53.1084C287.035 53.0557 286.27 50.1816 286.27 44.5127C286.27 43.7217 286.428 43.0098 286.771 42.5088C287.298 41.7178 288.538 41.0059 290.541 40.4258C292.756 39.7666 294.971 39.4502 297.239 39.4502C299.664 39.6084 301.299 39.6611 302.09 39.6611C303.119 39.6084 303.672 39.1074 303.672 38.2637C303.514 36.207 301.827 35.1787 298.689 35.1787C296.817 35.1787 294.813 35.3896 292.651 35.8906C291.016 36.207 289.935 36.3652 289.46 36.3652C288.168 36.3652 287.509 35.8906 287.509 34.915C287.509 33.623 288.221 31.0654 289.619 27.3477C290.067 26.3193 290.383 25.502 290.541 24.8164C291.464 22.7598 296.527 21.7314 305.887 21.7314C306.573 21.7314 306.915 21.3096 306.915 20.3867C306.863 19.2529 306.256 18.541 305.175 18.1719C304.358 17.9082 303.277 17.7764 301.932 17.7764C299.928 17.7764 297.397 18.0664 294.206 18.541C293.178 18.541 292.704 18.2773 292.704 17.7236C292.704 17.5654 292.756 17.1436 292.914 16.5371L292.967 16.2207C292.967 15.5088 292.334 15.1924 291.016 15.1924C289.619 15.1924 288.696 15.7988 288.274 17.0381C287.799 18.2773 287.14 19.1475 286.323 19.6221C285.532 20.1758 284.609 20.5977 283.58 20.8613C283.027 21.0195 282.499 21.2041 281.946 21.415C280.917 21.7842 280.39 22.4434 280.39 23.2344C280.443 23.7881 280.601 24.2627 280.865 24.7637C281.155 25.2383 281.524 25.4492 281.893 25.4492H282.605C284.055 25.4492 284.767 25.792 284.82 26.3721C284.82 26.9785 284.451 28.7451 283.739 31.6191C282.921 34.8096 282.341 36.6289 281.946 37.0771C281.049 38.6328 279.414 39.5557 277.094 39.8721C275.486 40.1357 274.668 40.6895 274.668 41.6123C274.668 42.5088 275.038 43.3262 275.802 43.9326C276.066 44.1963 276.514 44.3018 276.989 44.3018C277.358 44.3018 277.753 44.249 278.175 44.1436C279.256 43.8799 280.074 43.7744 280.548 43.7217C281.049 43.7217 281.313 43.8271 281.471 44.0908C281.629 44.3545 281.682 45.752 281.735 48.3623C281.998 52.291 283.844 54.875 287.246 56.1406C288.01 56.3516 288.933 56.457 289.935 56.457ZM306.157 54.1895C306.948 54.1895 307.555 53.0029 307.924 50.5771C308.319 48.4678 308.688 47.4395 309.163 47.4395C309.453 47.4395 309.822 47.8613 310.297 48.6787C311.984 51.3154 314.146 52.6602 316.836 52.6602C317.337 52.6602 317.812 52.6074 318.286 52.5547C319.051 52.4492 319.42 52.0273 319.42 51.21C319.42 50.6299 319.104 50.2344 318.523 49.9707C316.361 49.0479 314.964 47.6504 314.252 45.752C313.54 43.8799 313.224 42.4033 313.224 41.3223C313.224 40.083 313.54 38.9492 314.199 37.9209C316.625 33.9395 319.657 30.4326 323.27 27.4004C324.087 26.6885 324.456 26.2666 324.456 26.0029C324.456 25.8447 324.403 25.6602 324.298 25.4492C324.034 24.9746 323.691 24.7637 323.322 24.7637C322.848 24.7637 322.347 24.8691 321.872 25.1328C318.893 26.583 316.414 28.6396 314.305 31.3555C313.883 31.8301 313.54 32.0938 313.382 32.0938C313.329 32.0938 313.276 31.7773 313.276 31.0654C313.276 29.9316 313.382 27.875 313.593 24.8691C313.54 22.8652 312.512 21.8896 310.402 21.8896C309.559 21.8896 309.005 22.1006 308.741 22.6016C308.478 23.0762 308.267 23.7881 308.135 24.6582C307.871 27.084 307.713 29.457 307.713 31.7773L307.766 36.1016C307.766 37.5518 307.238 39.5029 306.157 41.9287C304.153 46.4639 303.125 49.7598 303.125 51.8164C303.125 53.3721 304.101 54.1895 306.052 54.1895H306.157ZM327.627 46.5693C327.02 46.5166 326.756 46.4111 326.756 46.2529C326.704 46.0947 326.704 45.9102 326.704 45.8047C326.704 45.4883 327.363 44.0908 328.655 41.665C330.922 37.3936 332.531 35.2314 333.454 35.2314C333.823 35.2314 334.007 35.5479 334.007 36.1543C334.007 37.0771 333.506 38.4746 332.478 40.373C330.527 43.9854 329.024 46.042 327.89 46.4111C327.785 46.4639 327.679 46.5166 327.627 46.5693ZM320.376 67.2939C321.404 67.2939 322.01 67.083 322.116 66.6084C322.221 66.1074 322.274 65.6855 322.274 65.2109L322.221 63.3125C322.221 61.5195 322.538 59.3047 323.144 56.7734C324.489 51.4209 325.306 48.6787 325.675 48.626L326.229 48.5732C326.493 48.5732 326.756 48.626 327.073 48.7842C327.785 49.0479 328.444 49.1533 329.129 49.1533C330.606 49.1533 331.898 48.5732 333.032 47.3867C335.879 44.4072 337.62 40.8477 338.253 36.6816C338.358 36.1016 338.411 35.4951 338.411 34.9678C338.358 33.4912 337.725 32.4102 336.433 31.7773C335.563 31.3555 334.746 31.1182 333.928 31.1182C332.373 31.1709 330.975 32.1465 329.63 34.0977C327.837 36.5762 326.756 37.8154 326.387 37.8154C326.229 37.8154 326.176 37.6572 326.176 37.3936C326.176 36.2598 326.387 35.126 326.756 33.9922C327.126 32.8584 327.31 32.041 327.31 31.5137C327.31 30.4854 326.704 29.7734 325.57 29.457C325.254 29.3516 324.99 29.2988 324.7 29.2988C323.724 29.2988 323.091 29.8789 322.775 31.1182C320.006 41.8232 318.161 52.6602 317.212 63.6816L317.159 64.2354C317.212 66.292 318.293 67.2939 320.376 67.2939ZM344.983 41.6123C344.613 41.5596 344.429 41.3223 344.429 41.0586C344.429 40.6895 345.8 38.2109 348.489 33.623C348.648 33.4385 348.806 33.333 349.096 33.333C349.465 33.333 349.623 33.4912 349.623 33.7812C349.623 34.3613 348.964 35.8379 347.672 38.2109C346.828 39.8193 345.905 40.9531 344.983 41.6123ZM347.039 52.9502C347.672 52.9502 348.384 52.8975 349.149 52.8447C350.493 52.6602 351.996 51.9746 353.684 50.7354C355.345 49.4961 356.531 48.3096 357.296 47.1758C357.982 46.042 358.377 45.2246 358.377 44.6182C358.377 44.0908 358.166 43.6426 357.771 43.2734C357.507 43.1152 357.296 43.0098 357.032 43.0098C356.531 43.0098 355.846 43.4316 354.976 44.3018C354.264 44.9082 353.13 45.8047 351.574 46.9385C349.149 48.7314 347.25 49.6016 345.8 49.6016C344.824 49.6016 344.165 48.9951 343.849 47.8613C343.796 47.6504 343.743 47.4395 343.743 47.2285C343.743 46.7275 344.218 46.2529 345.194 45.752C347.962 44.46 350.862 41.5596 353.947 36.9717C354.475 35.9434 354.765 34.9678 354.765 34.0449C354.765 33.2803 354.58 32.5947 354.211 31.8828C353.077 29.668 351.363 28.5342 349.149 28.5342C346.38 28.5342 343.849 30.9072 341.423 35.6533C340.078 38.3164 339.314 40.4785 339.155 42.1396C338.945 43.8271 338.813 44.8555 338.813 45.3301C338.813 50.3926 341.581 52.9502 347.039 52.9502ZM359.254 52.6074C360.282 52.6074 360.968 51.7637 361.363 50.0762C362.708 43.9854 365.503 39.3447 369.774 36.0488C369.932 35.9434 370.117 35.8379 370.328 35.7061C371.119 35.3369 371.567 34.915 371.567 34.4668C371.567 34.2031 371.462 33.9395 371.251 33.623C370.855 32.9639 370.328 32.6475 369.721 32.6475C369.036 32.6475 368.377 32.8057 367.665 33.1221C365.503 34.0449 364.053 35.3896 363.235 37.1299C363.077 37.3936 362.971 37.5518 362.866 37.5518C362.708 37.5518 362.655 37.2881 362.655 36.7344C362.655 36.1543 362.761 35.4424 362.971 34.7041C363.13 34.0977 363.235 33.623 363.235 33.2275C363.235 31.2236 362.18 30.2744 359.966 30.2744C359.043 30.2744 358.489 30.749 358.331 31.7773C357.566 36.5762 356.775 42.6406 355.958 49.9707C355.958 50.6826 356.169 51.21 356.564 51.6055C357.303 52.291 358.225 52.6074 359.254 52.6074ZM373.815 32.3047C374.474 32.3047 374.949 31.9355 375.291 31.2236C377.111 26.6885 378.034 24.0518 378.034 23.2344C377.981 22.4961 377.401 21.8369 376.135 21.3096C375.766 21.125 375.45 21.0723 375.08 21.0723C374.263 21.125 373.709 21.4678 373.446 22.1533L373.182 22.918C372.048 25.792 371.442 27.875 371.442 29.1934V30.2744C371.495 31.4082 372.048 32.041 373.077 32.252L373.815 32.3047ZM372.101 54.084C373.024 54.0312 373.498 53.7939 373.551 53.5303C373.604 53.2666 373.604 52.9502 373.604 52.6602C373.604 52.291 373.551 51.9746 373.498 51.6582C373.393 51.3154 373.34 50.9463 373.34 50.5771C373.551 45.8574 374.105 41.2168 375.001 36.6289C375.08 36.2598 375.133 35.8906 375.133 35.4424C375.133 33.8867 374.158 33.1221 372.206 33.1221C371.073 33.1221 370.413 33.6758 370.15 34.7041C369.28 38.4219 368.858 42.4033 368.858 46.7803C368.858 47.9141 368.911 49.1006 368.963 50.3398C369.121 52.8447 370.097 54.084 371.943 54.084H372.101ZM381.468 41.6123C381.099 41.5596 380.914 41.3223 380.914 41.0586C380.914 40.6895 382.285 38.2109 384.975 33.623C385.133 33.4385 385.291 33.333 385.581 33.333C385.95 33.333 386.108 33.4912 386.108 33.7812C386.108 34.3613 385.449 35.8379 384.157 38.2109C383.313 39.8193 382.391 40.9531 381.468 41.6123ZM383.524 52.9502C384.157 52.9502 384.869 52.8975 385.634 52.8447C386.979 52.6602 388.481 51.9746 390.169 50.7354C391.83 49.4961 393.017 48.3096 393.781 47.1758C394.467 46.042 394.862 45.2246 394.862 44.6182C394.862 44.0908 394.651 43.6426 394.256 43.2734C393.992 43.1152 393.781 43.0098 393.518 43.0098C393.017 43.0098 392.331 43.4316 391.461 44.3018C390.749 44.9082 389.615 45.8047 388.06 46.9385C385.634 48.7314 383.735 49.6016 382.285 49.6016C381.31 49.6016 380.65 48.9951 380.334 47.8613C380.281 47.6504 380.229 47.4395 380.229 47.2285C380.229 46.7275 380.703 46.2529 381.679 45.752C384.447 44.46 387.348 41.5596 390.433 36.9717C390.96 35.9434 391.25 34.9678 391.25 34.0449C391.25 33.2803 391.065 32.5947 390.696 31.8828C389.562 29.668 387.849 28.5342 385.634 28.5342C382.865 28.5342 380.334 30.9072 377.908 35.6533C376.563 38.3164 375.799 40.4785 375.641 42.1396C375.43 43.8271 375.298 44.8555 375.298 45.3301C375.298 50.3926 378.066 52.9502 383.524 52.9502ZM396.873 52.3965C397.954 52.3965 398.929 51.6055 399.852 49.9707C403.623 43.2207 405.627 39.8193 405.785 39.8193C405.837 39.8193 405.89 39.9248 405.89 40.1357C405.89 40.4258 405.837 40.9004 405.785 41.5596C405.732 42.2451 405.679 43.9326 405.679 46.6748C405.732 48.6787 406.47 50.2871 407.841 51.4209C408.474 52.0273 409.186 52.291 409.898 52.291C410.214 52.291 410.531 52.1855 410.795 51.9746C411.085 51.8164 411.243 51.6055 411.243 51.3154C411.243 51.1572 411.19 50.9463 411.137 50.7354C410.847 50.4717 410.742 49.4434 410.742 47.5977C410.742 45.5938 411.559 41.1641 413.22 34.3613C413.352 33.8867 413.405 33.4385 413.405 33.0693C413.352 31.5137 412.746 30.4326 411.559 29.7207C411.085 29.457 410.531 29.2988 410.004 29.2988C408.975 29.3516 408 29.9844 406.971 31.2236C404.967 33.6758 402.805 36.5234 400.432 39.8721C399.958 40.584 399.562 40.9531 399.404 40.9531C399.246 40.9531 399.193 40.7422 399.193 40.373C399.193 39.3975 399.562 37.71 400.327 35.3369C400.485 34.7568 400.59 34.2559 400.59 33.9395C400.538 32.8584 399.799 32.0938 398.323 31.6191C397.954 31.5137 397.69 31.4609 397.4 31.4609C396.504 31.5137 395.844 32.1992 395.581 33.623C394.605 38.1582 393.577 42.6934 392.548 47.2812C392.496 47.5977 392.443 47.9668 392.443 48.4678C392.496 50.0762 393.471 51.2627 395.422 52.0801C395.897 52.291 396.398 52.3965 396.873 52.3965ZM418.711 53.0557C421.532 53.0557 423.642 52.1328 425.092 50.2344C426.068 48.9424 426.648 47.4395 426.859 45.752C426.859 45.3301 426.648 45.1191 426.279 45.1191H425.567C425.092 45.1191 424.67 45.2773 424.327 45.6465C421.796 48.4678 420.109 49.8652 419.318 49.8652C419.107 49.8652 418.869 49.8125 418.606 49.6543C417.788 49.1533 417.419 48.3623 417.419 47.2285C417.419 42.9043 418.395 38.7383 420.346 34.8096C421.137 33.1221 422.165 32.1465 423.352 31.7773C424.275 31.5137 424.828 31.2764 425.039 31.1182C425.197 30.96 425.303 30.749 425.303 30.4326C425.303 28.7979 424.011 28.0068 421.427 28.0068C420.056 28.0068 418.975 28.4814 418.184 29.5098C417.103 30.8545 415.969 32.8057 414.835 35.4424C412.937 39.7139 411.961 43.2734 411.961 46.0947C411.961 47.5449 412.304 48.7842 412.937 49.707C414.44 51.9219 416.391 53.0557 418.711 53.0557ZM432.455 41.6123C432.086 41.5596 431.901 41.3223 431.901 41.0586C431.901 40.6895 433.272 38.2109 435.962 33.623C436.12 33.4385 436.278 33.333 436.568 33.333C436.937 33.333 437.096 33.4912 437.096 33.7812C437.096 34.3613 436.436 35.8379 435.144 38.2109C434.301 39.8193 433.378 40.9531 432.455 41.6123ZM434.512 52.9502C435.144 52.9502 435.856 52.8975 436.621 52.8447C437.966 52.6602 439.469 51.9746 441.156 50.7354C442.817 49.4961 444.004 48.3096 444.768 47.1758C445.454 46.042 445.849 45.2246 445.849 44.6182C445.849 44.0908 445.638 43.6426 445.243 43.2734C444.979 43.1152 444.768 43.0098 444.505 43.0098C444.004 43.0098 443.318 43.4316 442.448 44.3018C441.736 44.9082 440.602 45.8047 439.047 46.9385C436.621 48.7314 434.722 49.6016 433.272 49.6016C432.297 49.6016 431.638 48.9951 431.321 47.8613C431.268 47.6504 431.216 47.4395 431.216 47.2285C431.216 46.7275 431.69 46.2529 432.666 45.752C435.434 44.46 438.335 41.5596 441.42 36.9717C441.947 35.9434 442.237 34.9678 442.237 34.0449C442.237 33.2803 442.053 32.5947 441.683 31.8828C440.55 29.668 438.836 28.5342 436.621 28.5342C433.852 28.5342 431.321 30.9072 428.895 35.6533C427.551 38.3164 426.786 40.4785 426.628 42.1396C426.417 43.8271 426.285 44.8555 426.285 45.3301C426.285 50.3926 429.054 52.9502 434.512 52.9502ZM463.423 29.9316C463.054 29.9316 462.843 29.457 462.843 28.5342C462.843 27.5059 463.054 26.2666 463.423 24.7109C463.581 23.8936 463.766 23.3926 463.924 23.1816C466.402 19.2529 469.197 17.3018 472.282 17.3018C472.783 17.3018 472.994 17.5127 472.994 17.9609C472.994 18.541 472.546 19.5693 471.702 20.9668C470.12 23.3926 468.459 25.5547 466.561 27.4531C465.005 29.1406 463.924 29.9316 463.423 29.9316ZM458.571 61.5723C459.916 61.5723 461.261 61.2559 462.5 60.6758C464.768 59.4893 467.378 57.749 470.278 55.4287C473.152 53.1084 475.684 50.5771 477.898 47.7031C480.061 44.8555 481.142 41.9287 481.194 38.8438C481.194 35.8379 480.219 33.7812 478.215 32.6475C476.237 31.5664 473.68 30.8018 470.727 30.4326C470.384 30.3799 470.226 30.3271 470.226 30.1426C470.226 29.7734 471.148 28.6924 472.941 26.7939C477.213 22.5488 479.349 19.3584 479.349 17.249C479.349 16.8271 479.243 16.3789 479.085 15.957C477.846 13.8477 475.947 12.7666 473.363 12.7666C470.384 12.7666 466.982 13.6895 463.159 15.5088C459.863 17.0908 457.121 18.752 455.012 20.4395C452.902 22.1533 451.821 23.5244 451.821 24.5264C452.085 25.792 452.48 26.4775 452.955 26.5303C453.43 26.6357 453.772 26.6885 453.878 26.6885C454.695 26.6885 455.539 26.1084 456.567 24.9746C457.174 24.2627 457.543 23.8936 457.807 23.8936C458.097 23.8936 458.202 24.1572 458.202 24.7109C458.202 25.5547 457.965 27.1895 457.596 29.5625C455.987 39.3975 455.17 44.8555 455.17 45.9893C455.17 46.6748 455.223 47.334 455.381 47.9668C455.592 48.9424 456.198 49.8125 457.174 50.5244C457.648 50.8408 458.149 50.999 458.624 50.999C459.758 50.999 460.364 50.4717 460.364 49.3379V48.8369C460.232 47.9141 460.18 46.833 460.18 45.6992C460.18 44.4072 460.364 42.7461 460.733 40.6367C461.103 38.5801 462.236 37.0771 464.24 36.0488C466.191 35.0205 467.853 34.4668 469.197 34.3086C470.568 34.2031 471.359 34.1504 471.702 34.1504C473.521 34.1504 474.998 34.625 476 35.6533C476.659 36.3652 476.976 37.2354 476.976 38.2109C476.976 39.1074 476.659 40.1885 476 41.3223C474.761 43.6426 472.836 45.9893 470.278 48.415C467.694 50.8408 465.058 53.0029 462.395 54.8223C459.705 56.7207 457.543 57.96 455.935 58.5664C454.748 59.041 454.142 59.542 454.142 59.9639C454.142 60.1221 454.194 60.2803 454.353 60.4385C454.959 61.0449 455.697 61.4141 456.726 61.4668C457.701 61.5195 458.308 61.5723 458.571 61.5723ZM487.555 41.6123C487.186 41.5596 487.002 41.3223 487.002 41.0586C487.002 40.6895 488.373 38.2109 491.062 33.623C491.22 33.4385 491.379 33.333 491.669 33.333C492.038 33.333 492.196 33.4912 492.196 33.7812C492.196 34.3613 491.537 35.8379 490.245 38.2109C489.401 39.8193 488.478 40.9531 487.555 41.6123ZM489.612 52.9502C490.245 52.9502 490.957 52.8975 491.721 52.8447C493.066 52.6602 494.569 51.9746 496.256 50.7354C497.918 49.4961 499.104 48.3096 499.869 47.1758C500.554 46.042 500.95 45.2246 500.95 44.6182C500.95 44.0908 500.739 43.6426 500.343 43.2734C500.08 43.1152 499.869 43.0098 499.605 43.0098C499.104 43.0098 498.419 43.4316 497.548 44.3018C496.837 44.9082 495.703 45.8047 494.147 46.9385C491.721 48.7314 489.823 49.6016 488.373 49.6016C487.397 49.6016 486.738 48.9951 486.421 47.8613C486.369 47.6504 486.316 47.4395 486.316 47.2285C486.316 46.7275 486.791 46.2529 487.766 45.752C490.535 44.46 493.435 41.5596 496.52 36.9717C497.047 35.9434 497.337 34.9678 497.337 34.0449C497.337 33.2803 497.153 32.5947 496.784 31.8828C495.65 29.668 493.936 28.5342 491.721 28.5342C488.953 28.5342 486.421 30.9072 483.996 35.6533C482.651 38.3164 481.886 40.4785 481.728 42.1396C481.517 43.8271 481.385 44.8555 481.385 45.3301C481.385 50.3926 484.154 52.9502 489.612 52.9502ZM505.94 60.1221C506.731 60.0693 507.284 59.8584 507.654 59.4102C507.812 59.1465 507.917 58.9355 507.917 58.7246C507.917 58.5664 507.812 58.3555 507.654 58.0654C506.836 56.9316 506.362 55.7451 506.151 54.5586C505.808 52.792 505.65 50.3926 505.65 47.4922C505.65 42.0869 506.52 35.0732 508.207 26.3721C508.313 25.3438 510.237 24.7109 514.034 24.3154C514.245 24.3154 514.351 24.5264 514.351 24.9219C514.351 25.1855 514.298 25.502 514.193 26.0029C513.375 30.5908 512.742 34.1504 512.347 36.6289C511.978 39.1074 511.767 41.7705 511.767 44.5654L511.82 46.9385C511.978 50.1289 512.953 52.502 514.72 54.0312C515.221 54.4531 515.748 54.6641 516.302 54.6641C516.671 54.6641 517.04 54.5586 517.488 54.2949C517.858 54.084 518.069 53.7412 518.069 53.2666C518.069 53.0029 518.016 52.792 517.963 52.5547C517.225 50.0762 516.829 47.5977 516.829 45.1191C516.829 41.7178 517.963 34.915 520.231 24.7109C520.732 22.6016 523.474 21.5205 528.404 21.415L531.753 21.3096C533.678 21.3096 534.97 21.415 535.629 21.5732C535.945 21.626 536.236 21.6787 536.499 21.6787C537.29 21.626 537.686 21.2041 537.686 20.2812C537.369 17.9609 536.341 16.7744 534.548 16.5898C533.467 16.4844 532.439 16.4316 531.463 16.4316C529.486 16.4844 526.612 16.8271 522.894 17.4072C522.287 17.4072 521.971 17.1436 521.971 16.5898C521.971 16.3262 522.024 16.0098 522.076 15.6406C522.604 13.083 522.894 11.4219 522.894 10.499C522.841 8.99609 522.182 8.23145 520.837 8.23145C519.809 8.23145 518.991 8.60059 518.359 9.3125C518.016 9.62891 517.383 12.1074 516.355 16.8271C516.144 17.7236 515.854 18.3301 515.537 18.541C515.168 18.752 513.481 19.2002 510.422 19.7803C510.079 19.7803 509.921 19.6221 509.921 19.3584C509.921 19.042 510.528 16.4316 511.767 11.5801C512.241 9.68164 512.848 7.8623 513.533 6.0166C513.771 5.54199 513.876 5.09375 513.876 4.72461C513.876 3.69629 513.164 2.87891 511.714 2.35156C511.319 2.19336 510.949 2.14062 510.633 2.14062C509.605 2.14062 508.893 2.82617 508.471 4.22363C506.783 9.89258 505.386 14.9814 504.305 19.4639C504.199 19.9385 503.936 20.3867 503.54 20.7031C502.855 21.3623 501.009 21.9951 498.056 22.6016C496.474 22.918 495.235 23.2344 494.312 23.5771C493.336 23.8936 492.862 24.4736 492.862 25.3438C492.862 27.4531 493.943 28.4814 496.052 28.4814C496.975 28.4814 498.952 28.0596 501.932 27.1367C502.195 27.1367 502.301 27.2949 502.301 27.6641L502.248 28.1123C501.167 35.8379 500.64 41.7178 500.64 45.8574C500.64 46.9912 500.693 48.0195 500.745 49.0479C500.956 52.6602 501.404 55.2705 501.985 56.8789C502.486 58.2236 503.487 59.1992 505.07 59.9111C505.333 60.0693 505.65 60.1221 505.94 60.1221ZM526.908 41.6123C526.539 41.5596 526.354 41.3223 526.354 41.0586C526.354 40.6895 527.725 38.2109 530.415 33.623C530.573 33.4385 530.731 33.333 531.021 33.333C531.39 33.333 531.549 33.4912 531.549 33.7812C531.549 34.3613 530.889 35.8379 529.597 38.2109C528.754 39.8193 527.831 40.9531 526.908 41.6123ZM528.965 52.9502C529.597 52.9502 530.309 52.8975 531.074 52.8447C532.419 52.6602 533.922 51.9746 535.609 50.7354C537.27 49.4961 538.457 48.3096 539.221 47.1758C539.907 46.042 540.303 45.2246 540.303 44.6182C540.303 44.0908 540.092 43.6426 539.696 43.2734C539.432 43.1152 539.221 43.0098 538.958 43.0098C538.457 43.0098 537.771 43.4316 536.901 44.3018C536.189 44.9082 535.055 45.8047 533.5 46.9385C531.074 48.7314 529.176 49.6016 527.725 49.6016C526.75 49.6016 526.091 48.9951 525.774 47.8613C525.721 47.6504 525.669 47.4395 525.669 47.2285C525.669 46.7275 526.143 46.2529 527.119 45.752C529.888 44.46 532.788 41.5596 535.873 36.9717C536.4 35.9434 536.69 34.9678 536.69 34.0449C536.69 33.2803 536.506 32.5947 536.137 31.8828C535.003 29.668 533.289 28.5342 531.074 28.5342C528.305 28.5342 525.774 30.9072 523.348 35.6533C522.004 38.3164 521.239 40.4785 521.081 42.1396C520.87 43.8271 520.738 44.8555 520.738 45.3301C520.738 50.3926 523.507 52.9502 528.965 52.9502ZM541.179 52.6074C542.207 52.6074 542.893 51.7637 543.288 50.0762C544.633 43.9854 547.428 39.3447 551.7 36.0488C551.858 35.9434 552.042 35.8379 552.253 35.7061C553.044 35.3369 553.493 34.915 553.493 34.4668C553.493 34.2031 553.387 33.9395 553.176 33.623C552.781 32.9639 552.253 32.6475 551.647 32.6475C550.961 32.6475 550.302 32.8057 549.59 33.1221C547.428 34.0449 545.978 35.3896 545.161 37.1299C545.002 37.3936 544.897 37.5518 544.791 37.5518C544.633 37.5518 544.58 37.2881 544.58 36.7344C544.58 36.1543 544.686 35.4424 544.897 34.7041C545.055 34.0977 545.161 33.623 545.161 33.2275C545.161 31.2236 544.106 30.2744 541.891 30.2744C540.968 30.2744 540.414 30.749 540.256 31.7773C539.492 36.5762 538.701 42.6406 537.883 49.9707C537.883 50.6826 538.094 51.21 538.49 51.6055C539.228 52.291 540.151 52.6074 541.179 52.6074Z" fill="white"/>
</svg>
