<svg width="729" height="72" viewBox="0 0 729 72" fill="none" xmlns="http://www.w3.org/2000/svg">
<path d="M7.5332 59.4385C8.13965 59.4385 8.8252 59.3857 9.53711 59.2275C12.4111 58.7529 15.1533 57.7773 17.8428 56.2217C20.5586 54.6924 22.4834 53.2422 23.749 51.8447C24.9355 50.4736 25.5156 49.2871 25.5156 48.3379C25.4629 47.9951 25.252 47.7314 24.8301 47.4678C24.3818 47.2041 24.0654 47.0723 23.8545 47.0723C23.3535 47.0723 22.7734 47.4678 22.1143 48.1533L21.4287 48.8125C15.3115 53.2949 11.0928 55.5625 8.77246 55.5625C7.69141 55.5625 7.00586 55.2988 6.71582 54.6924C6.13574 53.7695 5.81934 52.2666 5.81934 50.1572C5.81934 47.9424 6.13574 45.0947 6.84766 41.5879C8.13965 34.8379 10.8291 28.5098 14.8896 22.6299C16.0234 20.8896 16.999 20.0195 17.8428 20.0195C18.2383 20.0195 18.3965 20.3623 18.4492 20.9424C18.502 21.6016 18.502 22.0762 18.502 22.4717C18.502 22.999 18.5547 23.4736 18.6602 23.9746C18.7656 24.4492 19.082 24.6602 19.6357 24.6602C20.7695 24.6602 21.5869 23.6582 22.0615 21.5488C22.167 20.9424 22.2197 20.415 22.2197 19.9141C22.2197 18.8857 22.0088 17.9893 21.5869 17.2246C20.7168 15.7744 19.8467 15.0098 18.9766 14.957C18.1328 14.9043 17.6318 14.9043 17.5791 14.9043C16.0234 14.9043 14.5996 15.5898 13.3604 16.9609C5.10742 26.6641 0.677734 37.8965 0.0976562 50.6055C0.0976562 56.4854 2.57617 59.4385 7.5332 59.4385ZM28.9498 51.6074C29.9781 51.6074 30.6637 50.7637 31.0592 49.0762C32.4039 42.9854 35.1988 38.3447 39.4703 35.0488C39.6285 34.9434 39.8131 34.8379 40.024 34.7061C40.815 34.3369 41.2633 33.915 41.2633 33.4668C41.2633 33.2031 41.1578 32.9395 40.9469 32.623C40.5514 31.9639 40.024 31.6475 39.4176 31.6475C38.732 31.6475 38.0729 31.8057 37.3609 32.1221C35.1988 33.0449 33.7486 34.3896 32.9312 36.1299C32.773 36.3936 32.6676 36.5518 32.5621 36.5518C32.4039 36.5518 32.3512 36.2881 32.3512 35.7344C32.3512 35.1543 32.4566 34.4424 32.6676 33.7041C32.8258 33.0977 32.9312 32.623 32.9312 32.2275C32.9312 30.2236 31.8766 29.2744 29.6617 29.2744C28.7389 29.2744 28.1852 29.749 28.027 30.7773C27.2623 35.5762 26.4713 41.6406 25.6539 48.9707C25.6539 49.6826 25.8648 50.21 26.2604 50.6055C26.9986 51.291 27.9215 51.6074 28.9498 51.6074ZM44.0646 40.6123C43.6955 40.5596 43.5109 40.3223 43.5109 40.0586C43.5109 39.6895 44.882 37.2109 47.5715 32.623C47.7297 32.4385 47.8879 32.333 48.1779 32.333C48.5471 32.333 48.7053 32.4912 48.7053 32.7812C48.7053 33.3613 48.0461 34.8379 46.7541 37.2109C45.9104 38.8193 44.9875 39.9531 44.0646 40.6123ZM46.1213 51.9502C46.7541 51.9502 47.466 51.8975 48.2307 51.8447C49.5754 51.6602 51.0783 50.9746 52.7658 49.7354C54.427 48.4961 55.6135 47.3096 56.3781 46.1758C57.0637 45.042 57.4592 44.2246 57.4592 43.6182C57.4592 43.0908 57.2482 42.6426 56.8527 42.2734C56.5891 42.1152 56.3781 42.0098 56.1145 42.0098C55.6135 42.0098 54.9279 42.4316 54.0578 43.3018C53.3459 43.9082 52.2121 44.8047 50.6564 45.9385C48.2307 47.7314 46.3322 48.6016 44.882 48.6016C43.9064 48.6016 43.2473 47.9951 42.9309 46.8613C42.8781 46.6504 42.8254 46.4395 42.8254 46.2285C42.8254 45.7275 43.3 45.2529 44.2756 44.752C47.0441 43.46 49.9445 40.5596 53.0295 35.9717C53.5568 34.9434 53.8469 33.9678 53.8469 33.0449C53.8469 32.2803 53.6623 31.5947 53.2932 30.8828C52.1594 28.668 50.4455 27.5342 48.2307 27.5342C45.4621 27.5342 42.9309 29.9072 40.5051 34.6533C39.1604 37.3164 38.3957 39.4785 38.2375 41.1396C38.0266 42.8271 37.8947 43.8555 37.8947 44.3301C37.8947 49.3926 40.6633 51.9502 46.1213 51.9502ZM70.9129 50.2627C71.8357 50.2627 72.2576 49.999 72.2576 49.5244C72.2576 49.3398 72.2049 49.0762 72.0467 48.8125C71.4666 47.4678 71.1238 45.9912 71.1238 44.541C71.1238 42.5371 71.4666 40.2695 72.0994 37.6328C72.2576 36.9209 72.3631 36.2881 72.3631 35.6289C72.3631 34.126 71.8885 33.0977 70.8602 32.5439C70.702 32.4912 70.4383 32.4385 70.1482 32.4385C69.8846 32.4385 69.5154 32.4912 69.1463 32.623C68.4344 32.834 66.4305 34.9961 63.1873 39.0303C60.6561 42.2207 59.1004 43.8555 58.5467 43.8555C58.4412 43.8555 58.3885 43.7236 58.3885 43.5654C58.3885 43.3545 58.4939 42.9854 58.7049 42.4316C60.2869 38.292 61.7898 35.1543 63.3455 33.0449C63.741 32.5439 64.0047 32.2803 64.2156 32.2803C64.4266 32.333 64.7166 32.4385 64.9803 32.623C65.2439 32.7812 65.6658 32.8867 66.1668 32.8867C66.6414 32.8867 67.0896 32.4912 67.4588 31.7529C67.617 31.4893 67.6697 31.1465 67.6697 30.7246C67.6697 30.2764 67.3006 29.749 66.5359 29.1426C65.7977 28.5625 64.9275 28.2988 64.0047 28.2988C62.5018 28.2988 61.0252 29.2217 59.6277 31.041C56.2264 35.5234 54.0643 40.0586 53.1414 44.541C53.0359 45.042 52.9832 45.4639 52.9832 45.8857C52.9832 47.5732 53.7479 48.8652 55.198 49.6826C55.91 50.0518 56.5955 50.2627 57.3074 50.2627C58.2303 50.2627 59.1531 49.7354 60.0496 48.707C60.9725 47.6787 61.8953 46.5449 62.8709 45.3057C64.5848 43.0908 65.4549 42.0098 65.5076 42.0098C65.7977 42.0098 65.9031 42.5898 65.9031 43.7764C65.9031 47.125 67.3006 49.2344 70.1482 50.1572C70.3855 50.21 70.6492 50.2627 70.9129 50.2627ZM80.7279 58.5947C81.5189 58.542 82.0727 58.3047 82.4418 57.8828C82.6 57.6191 82.7055 57.4082 82.7055 57.1709C82.7055 57.0127 82.6 56.8018 82.4418 56.5381C81.6244 55.4043 81.1498 54.2178 80.9389 53.0312C80.5961 51.2383 80.4379 48.918 80.4379 46.123C80.4379 38.292 81.2553 30.6719 82.9428 23.21C83.0482 22.7881 83.1537 22.3926 83.3119 22.1289C83.5756 21.5488 85.5268 21.2588 89.1391 21.2588C91.2484 21.2588 92.8041 21.4961 93.727 21.9707C94.2807 22.2344 94.7553 22.3926 95.1771 22.3926C95.6254 22.3926 95.9945 22.1289 96.2582 21.6016C96.4428 21.2061 96.5482 20.8369 96.5482 20.4678C96.4955 19.5977 95.8891 18.7803 94.7025 18.042C93.516 17.2773 92.4877 16.8555 91.5648 16.7236C90.642 16.6182 89.9037 16.5654 89.1918 16.5654L86.2123 16.6182C85.2631 16.6182 84.7621 16.3018 84.7094 15.7217C84.7094 15.4316 85.0258 14.2979 85.685 12.2939C86.766 8.89258 87.6361 6.30859 88.3217 4.48926C88.4799 3.98828 88.6117 3.56641 88.6117 3.1709C88.6117 2.14258 87.8998 1.35156 86.5023 0.797852C86.0541 0.639648 85.685 0.586914 85.3686 0.586914C84.3402 0.586914 83.6283 1.29883 83.2592 2.69629L79.5941 15.5371C79.3041 16.5654 78.724 17.1191 77.9066 17.2246L70.9457 18.1475C69.4955 18.3057 68.7836 18.833 68.7836 19.7559C68.7836 20.2568 68.9418 20.7314 69.2582 21.2588C70.0756 22.5771 70.7875 23.21 71.473 23.21C73.1605 23.21 74.4525 22.999 75.4281 22.6299C76.1928 22.2871 76.8256 22.1289 77.432 22.1289C77.6957 22.1289 77.8539 22.2871 77.8539 22.6299C77.8539 22.8936 77.8012 23.2627 77.7484 23.7637C76.2455 31.9111 75.4809 38.8193 75.4809 44.4883C75.4809 49.3926 75.9027 53.0312 76.7729 55.3516C77.2738 56.6963 78.2758 57.6719 79.8578 58.3574C80.1215 58.542 80.4379 58.5947 80.7279 58.5947ZM88.9346 40.6123C88.5654 40.5596 88.3809 40.3223 88.3809 40.0586C88.3809 39.6895 89.752 37.2109 92.4414 32.623C92.5996 32.4385 92.7578 32.333 93.0479 32.333C93.417 32.333 93.5752 32.4912 93.5752 32.7812C93.5752 33.3613 92.916 34.8379 91.624 37.2109C90.7803 38.8193 89.8574 39.9531 88.9346 40.6123ZM90.9912 51.9502C91.624 51.9502 92.3359 51.8975 93.1006 51.8447C94.4453 51.6602 95.9482 50.9746 97.6357 49.7354C99.2969 48.4961 100.483 47.3096 101.248 46.1758C101.934 45.042 102.329 44.2246 102.329 43.6182C102.329 43.0908 102.118 42.6426 101.723 42.2734C101.459 42.1152 101.248 42.0098 100.984 42.0098C100.483 42.0098 99.7979 42.4316 98.9277 43.3018C98.2158 43.9082 97.082 44.8047 95.5264 45.9385C93.1006 47.7314 91.2021 48.6016 89.752 48.6016C88.7764 48.6016 88.1172 47.9951 87.8008 46.8613C87.748 46.6504 87.6953 46.4395 87.6953 46.2285C87.6953 45.7275 88.1699 45.2529 89.1455 44.752C91.9141 43.46 94.8145 40.5596 97.8994 35.9717C98.4268 34.9434 98.7168 33.9678 98.7168 33.0449C98.7168 32.2803 98.5322 31.5947 98.1631 30.8828C97.0293 28.668 95.3154 27.5342 93.1006 27.5342C90.332 27.5342 87.8008 29.9072 85.375 34.6533C84.0303 37.3164 83.2656 39.4785 83.1074 41.1396C82.8965 42.8271 82.7646 43.8555 82.7646 44.3301C82.7646 49.3926 85.5332 51.9502 90.9912 51.9502ZM127.575 50.2627C128.498 50.2627 128.92 49.999 128.92 49.5244C128.92 49.3398 128.867 49.0762 128.709 48.8125C128.129 47.4678 127.786 45.9912 127.786 44.541C127.786 42.5371 128.129 40.2695 128.762 37.6328C128.92 36.9209 129.026 36.2881 129.026 35.6289C129.026 34.126 128.551 33.0977 127.523 32.5439C127.364 32.4912 127.101 32.4385 126.811 32.4385C126.547 32.4385 126.178 32.4912 125.809 32.623C125.097 32.834 123.093 34.9961 119.85 39.0303C117.319 42.2207 115.763 43.8555 115.209 43.8555C115.104 43.8555 115.051 43.7236 115.051 43.5654C115.051 43.3545 115.156 42.9854 115.367 42.4316C116.949 38.292 118.452 35.1543 120.008 33.0449C120.404 32.5439 120.667 32.2803 120.878 32.2803C121.089 32.333 121.379 32.4385 121.643 32.623C121.906 32.7812 122.328 32.8867 122.829 32.8867C123.304 32.8867 123.752 32.4912 124.121 31.7529C124.279 31.4893 124.332 31.1465 124.332 30.7246C124.332 30.2764 123.963 29.749 123.198 29.1426C122.46 28.5625 121.59 28.2988 120.667 28.2988C119.164 28.2988 117.688 29.2217 116.29 31.041C112.889 35.5234 110.727 40.0586 109.804 44.541C109.698 45.042 109.646 45.4639 109.646 45.8857C109.646 47.5732 110.41 48.8652 111.861 49.6826C112.572 50.0518 113.258 50.2627 113.97 50.2627C114.893 50.2627 115.816 49.7354 116.712 48.707C117.635 47.6787 118.558 46.5449 119.533 45.3057C121.247 43.0908 122.117 42.0098 122.17 42.0098C122.46 42.0098 122.566 42.5898 122.566 43.7764C122.566 47.125 123.963 49.2344 126.811 50.1572C127.048 50.21 127.312 50.2627 127.575 50.2627ZM145.887 54.3232C147.917 54.165 149.921 51.8447 151.82 47.3096C152.743 45.042 153.771 43.3545 154.852 42.2734C154.351 44.9893 154.14 47.2568 154.14 49.0762C154.298 50.3682 155.168 51.291 156.777 51.792C157.172 51.8975 157.541 51.9502 157.911 51.9502C159.809 51.9502 161.496 50.1045 162.894 46.4395C163.369 45.0947 163.975 43.9082 164.608 42.8799C165.109 42.168 165.425 41.7988 165.636 41.7988C165.847 41.7988 165.979 42.3262 165.979 43.4072C165.979 43.6709 165.979 43.9609 165.9 44.3301C165.847 44.6992 165.847 45.2002 165.847 45.6748C165.847 47.2041 166.084 48.3379 166.454 49.1289C167.324 50.9219 168.563 51.792 170.224 51.792C170.62 51.792 170.936 51.6602 171.2 51.4492C171.569 51.1328 171.806 50.8164 171.806 50.5264C171.806 50.2627 171.701 49.999 171.463 49.6299C171.041 48.8125 170.83 47.4678 170.83 45.5693C170.83 42.8271 171.411 39.4258 172.65 35.2598C173.098 33.7041 173.309 32.333 173.309 31.1992C173.309 30.0127 172.65 29.1426 171.358 28.668C171.147 28.6152 170.936 28.5625 170.672 28.5625C169.196 28.5625 167.64 29.96 165.9 32.7285C165.109 34.0732 164.344 35.3125 163.764 36.4463C162.894 38.1074 162.34 38.9248 162.129 38.9775C162.077 38.9775 162.024 38.7666 162.024 38.3975C162.024 37.5273 162.288 35.6289 162.841 32.7812C162.894 32.4912 162.894 32.1221 162.894 31.6475C162.841 30.9355 162.63 30.3555 162.182 29.9072C161.655 29.3799 160.89 29.0898 159.967 29.0898C158.939 29.1426 158.016 29.6963 157.33 30.7773C156.144 32.6758 155.01 34.4951 153.929 36.3936C151.161 41.2451 149.499 43.6709 148.893 43.7236C148.682 43.7236 148.577 43.3545 148.577 42.6426C148.577 41.1396 149.13 38.2393 150.132 33.8623C150.264 33.4668 150.317 33.0977 150.317 32.7812C150.264 32.1221 150.027 31.542 149.605 31.041C149.13 30.5664 148.524 30.3555 147.812 30.3555C145.94 30.3555 143.936 36.7627 141.774 49.6826V51.0801C141.827 52.5303 142.591 53.5059 144.147 54.0596C144.648 54.2178 145.122 54.3232 145.597 54.3232H145.887ZM177.851 47.125C177.666 46.6504 177.613 46.123 177.613 45.4111C177.613 43.0381 178.22 40.2695 179.406 37.2109C180.118 35.418 180.804 34.2314 181.568 33.5723C182.043 34.5479 182.333 35.6816 182.333 37.0264C182.333 39.2412 181.779 41.4561 180.751 43.6709C179.934 45.3584 178.984 46.5449 177.851 47.125ZM178.694 51.7393C179.301 51.7393 179.934 51.5547 180.54 51.291C182.333 50.4209 183.73 48.8125 184.812 46.3867C185.893 43.9609 186.473 42.0625 186.525 40.665C186.578 39.2939 186.578 38.5557 186.578 38.3975C186.578 35.5762 185.84 33.4668 184.311 32.0166C183.836 31.542 183.625 31.1465 183.572 30.8828C183.282 29.0898 182.096 28.1934 180.118 28.1934C178.853 28.1934 177.903 28.8262 177.191 30.0654C176.005 32.1748 174.977 34.6533 174.054 37.5801C173.131 40.5068 172.709 42.8271 172.709 44.541C172.709 45.6748 172.867 46.6504 173.236 47.5732C173.896 49.1816 174.766 50.2627 175.899 50.8691C176.98 51.4492 177.903 51.7393 178.694 51.7393ZM190.118 51.6074C191.146 51.6074 191.832 50.7637 192.227 49.0762C193.572 42.9854 196.367 38.3447 200.638 35.0488C200.796 34.9434 200.981 34.8379 201.192 34.7061C201.983 34.3369 202.431 33.915 202.431 33.4668C202.431 33.2031 202.326 32.9395 202.115 32.623C201.719 31.9639 201.192 31.6475 200.586 31.6475C199.9 31.6475 199.241 31.8057 198.529 32.1221C196.367 33.0449 194.917 34.3896 194.099 36.1299C193.941 36.3936 193.836 36.5518 193.73 36.5518C193.572 36.5518 193.519 36.2881 193.519 35.7344C193.519 35.1543 193.625 34.4424 193.836 33.7041C193.994 33.0977 194.099 32.623 194.099 32.2275C194.099 30.2236 193.045 29.2744 190.83 29.2744C189.907 29.2744 189.353 29.749 189.195 30.7773C188.43 35.5762 187.639 41.6406 186.822 48.9707C186.822 49.6826 187.033 50.21 187.428 50.6055C188.167 51.291 189.089 51.6074 190.118 51.6074ZM205.233 40.6123C204.863 40.5596 204.679 40.3223 204.679 40.0586C204.679 39.6895 206.05 37.2109 208.739 32.623C208.898 32.4385 209.056 32.333 209.346 32.333C209.715 32.333 209.873 32.4912 209.873 32.7812C209.873 33.3613 209.214 34.8379 207.922 37.2109C207.078 38.8193 206.155 39.9531 205.233 40.6123ZM207.289 51.9502C207.922 51.9502 208.634 51.8975 209.399 51.8447C210.743 51.6602 212.246 50.9746 213.934 49.7354C215.595 48.4961 216.781 47.3096 217.546 46.1758C218.232 45.042 218.627 44.2246 218.627 43.6182C218.627 43.0908 218.416 42.6426 218.021 42.2734C217.757 42.1152 217.546 42.0098 217.282 42.0098C216.781 42.0098 216.096 42.4316 215.226 43.3018C214.514 43.9082 213.38 44.8047 211.824 45.9385C209.399 47.7314 207.5 48.6016 206.05 48.6016C205.074 48.6016 204.415 47.9951 204.099 46.8613C204.046 46.6504 203.993 46.4395 203.993 46.2285C203.993 45.7275 204.468 45.2529 205.444 44.752C208.212 43.46 211.113 40.5596 214.197 35.9717C214.725 34.9434 215.015 33.9678 215.015 33.0449C215.015 32.2803 214.83 31.5947 214.461 30.8828C213.327 28.668 211.613 27.5342 209.399 27.5342C206.63 27.5342 204.099 29.9072 201.673 34.6533C200.328 37.3164 199.564 39.4785 199.405 41.1396C199.195 42.8271 199.063 43.8555 199.063 44.3301C199.063 49.3926 201.831 51.9502 207.289 51.9502ZM233.88 52.0557C236.702 52.0557 238.811 51.1328 240.261 49.2344C241.237 47.9424 241.817 46.4395 242.028 44.752C242.028 44.3301 241.817 44.1191 241.448 44.1191H240.736C240.261 44.1191 239.839 44.2773 239.496 44.6465C236.965 47.4678 235.278 48.8652 234.487 48.8652C234.276 48.8652 234.038 48.8125 233.775 48.6543C232.957 48.1533 232.588 47.3623 232.588 46.2285C232.588 41.9043 233.564 37.7383 235.515 33.8096C236.306 32.1221 237.334 31.1465 238.521 30.7773C239.444 30.5137 239.997 30.2764 240.208 30.1182C240.367 29.96 240.472 29.749 240.472 29.4326C240.472 27.7979 239.18 27.0068 236.596 27.0068C235.225 27.0068 234.144 27.4814 233.353 28.5098C232.272 29.8545 231.138 31.8057 230.004 34.4424C228.106 38.7139 227.13 42.2734 227.13 45.0947C227.13 46.5449 227.473 47.7842 228.106 48.707C229.609 50.9219 231.56 52.0557 233.88 52.0557ZM247.255 47.125C247.07 46.6504 247.018 46.123 247.018 45.4111C247.018 43.0381 247.624 40.2695 248.811 37.2109C249.522 35.418 250.208 34.2314 250.973 33.5723C251.447 34.5479 251.737 35.6816 251.737 37.0264C251.737 39.2412 251.184 41.4561 250.155 43.6709C249.338 45.3584 248.389 46.5449 247.255 47.125ZM248.099 51.7393C248.705 51.7393 249.338 51.5547 249.944 51.291C251.737 50.4209 253.135 48.8125 254.216 46.3867C255.297 43.9609 255.877 42.0625 255.93 40.665C255.982 39.2939 255.982 38.5557 255.982 38.3975C255.982 35.5762 255.244 33.4668 253.715 32.0166C253.24 31.542 253.029 31.1465 252.977 30.8828C252.687 29.0898 251.5 28.1934 249.522 28.1934C248.257 28.1934 247.308 28.8262 246.596 30.0654C245.409 32.1748 244.381 34.6533 243.458 37.5801C242.535 40.5068 242.113 42.8271 242.113 44.541C242.113 45.6748 242.271 46.6504 242.641 47.5732C243.3 49.1816 244.17 50.2627 245.304 50.8691C246.385 51.4492 247.308 51.7393 248.099 51.7393ZM262.264 54.9561C266.272 54.9561 269.726 52.5303 272.6 47.626C272.864 47.2041 272.969 46.8086 272.969 46.4395C272.969 46.123 272.864 45.833 272.6 45.6221C272.31 45.4111 272.099 45.3057 271.836 45.3057C271.387 45.3584 270.965 45.5166 270.596 45.8857C270.596 45.9385 270.596 45.9385 270.544 45.9385C266.483 49.7354 263.846 51.6074 262.607 51.6074C261.631 51.6074 261.13 50.2627 261.13 47.5732C261.13 41.7988 263.24 30.8828 267.459 14.7461C267.617 14.1924 267.67 13.7178 267.67 13.3223C267.67 12.4785 267.248 11.8721 266.378 11.5557C266.008 11.3975 265.613 11.3447 265.296 11.3447C264.163 11.3447 263.451 12.0303 263.082 13.375L258.546 30.7773C256.991 36.6045 256.226 41.4033 256.226 45.2529C256.226 47.5205 256.49 49.4717 256.991 51.0273C257.782 53.6641 259.522 54.9561 262.264 54.9561ZM276.588 54.9561C280.596 54.9561 284.05 52.5303 286.924 47.626C287.188 47.2041 287.293 46.8086 287.293 46.4395C287.293 46.123 287.188 45.833 286.924 45.6221C286.634 45.4111 286.423 45.3057 286.159 45.3057C285.711 45.3584 285.289 45.5166 284.92 45.8857C284.92 45.9385 284.92 45.9385 284.867 45.9385C280.807 49.7354 278.17 51.6074 276.931 51.6074C275.955 51.6074 275.454 50.2627 275.454 47.5732C275.454 41.7988 277.564 30.8828 281.782 14.7461C281.941 14.1924 281.993 13.7178 281.993 13.3223C281.993 12.4785 281.571 11.8721 280.701 11.5557C280.332 11.3975 279.937 11.3447 279.62 11.3447C278.487 11.3447 277.775 12.0303 277.405 13.375L272.87 30.7773C271.315 36.6045 270.55 41.4033 270.55 45.2529C270.55 47.5205 270.814 49.4717 271.315 51.0273C272.106 53.6641 273.846 54.9561 276.588 54.9561ZM300.747 50.2627C301.67 50.2627 302.092 49.999 302.092 49.5244C302.092 49.3398 302.039 49.0762 301.881 48.8125C301.301 47.4678 300.958 45.9912 300.958 44.541C300.958 42.5371 301.301 40.2695 301.933 37.6328C302.092 36.9209 302.197 36.2881 302.197 35.6289C302.197 34.126 301.722 33.0977 300.694 32.5439C300.536 32.4912 300.272 32.4385 299.982 32.4385C299.719 32.4385 299.349 32.4912 298.98 32.623C298.268 32.834 296.264 34.9961 293.021 39.0303C290.49 42.2207 288.934 43.8555 288.381 43.8555C288.275 43.8555 288.222 43.7236 288.222 43.5654C288.222 43.3545 288.328 42.9854 288.539 42.4316C290.121 38.292 291.624 35.1543 293.18 33.0449C293.575 32.5439 293.839 32.2803 294.05 32.2803C294.261 32.333 294.551 32.4385 294.814 32.623C295.078 32.7812 295.5 32.8867 296.001 32.8867C296.475 32.8867 296.924 32.4912 297.293 31.7529C297.451 31.4893 297.504 31.1465 297.504 30.7246C297.504 30.2764 297.135 29.749 296.37 29.1426C295.632 28.5625 294.762 28.2988 293.839 28.2988C292.336 28.2988 290.859 29.2217 289.462 31.041C286.06 35.5234 283.898 40.0586 282.975 44.541C282.87 45.042 282.817 45.4639 282.817 45.8857C282.817 47.5732 283.582 48.8652 285.032 49.6826C285.744 50.0518 286.43 50.2627 287.141 50.2627C288.064 50.2627 288.987 49.7354 289.884 48.707C290.806 47.6787 291.729 46.5449 292.705 45.3057C294.419 43.0908 295.289 42.0098 295.342 42.0098C295.632 42.0098 295.737 42.5898 295.737 43.7764C295.737 47.125 297.135 49.2344 299.982 50.1572C300.22 50.21 300.483 50.2627 300.747 50.2627ZM312.434 57.9883C313.673 57.9355 314.754 57.3555 315.73 56.3271C320.423 51.291 322.744 45.5693 322.744 39.2412C322.744 35.6289 320.924 33.8096 317.312 33.8096C315.73 33.8096 313.858 34.4951 311.643 35.8926C310.878 36.3936 310.325 36.6045 310.061 36.6045C309.903 36.6045 309.797 36.2881 309.797 35.6289C309.797 34.3896 310.667 29.0898 312.434 19.7559V18.6748C312.329 17.1191 311.247 16.3545 309.244 16.3545C308.004 16.3545 307.319 17.1719 307.108 18.7803C306.607 22.4717 306.027 26.1367 305.368 29.749C304.128 36.499 303.469 41.1396 303.364 43.5654C303.205 46.0439 303.153 47.5205 303.153 47.9951C303.153 51.3965 303.865 53.084 305.209 53.084C306.765 53.084 307.582 52.0557 307.688 50.0518C307.952 44.6992 310.667 40.375 315.73 37.1055C316.231 36.7627 316.758 36.6045 317.365 36.6045C317.839 36.6045 318.05 37.2637 318.05 38.5029C317.681 44.4883 315.572 49.8408 311.801 54.5342C311.406 55.0088 311.037 55.2988 310.72 55.2988C310.325 55.3516 310.114 55.3516 309.955 55.3516C309.692 55.3516 309.428 55.2988 309.138 55.2461C308.874 55.1934 308.558 55.1934 308.242 55.1934C307.846 55.2461 307.688 55.4043 307.688 55.7207C307.635 56.0371 307.635 56.2744 307.635 56.3271C307.635 57.4609 308.611 57.9883 310.615 57.9883H312.434ZM327.628 47.125C327.443 46.6504 327.391 46.123 327.391 45.4111C327.391 43.0381 327.997 40.2695 329.184 37.2109C329.896 35.418 330.581 34.2314 331.346 33.5723C331.82 34.5479 332.11 35.6816 332.11 37.0264C332.11 39.2412 331.557 41.4561 330.528 43.6709C329.711 45.3584 328.762 46.5449 327.628 47.125ZM328.472 51.7393C329.078 51.7393 329.711 51.5547 330.317 51.291C332.11 50.4209 333.508 48.8125 334.589 46.3867C335.67 43.9609 336.25 42.0625 336.303 40.665C336.355 39.2939 336.355 38.5557 336.355 38.3975C336.355 35.5762 335.617 33.4668 334.088 32.0166C333.613 31.542 333.402 31.1465 333.35 30.8828C333.06 29.0898 331.873 28.1934 329.896 28.1934C328.63 28.1934 327.681 28.8262 326.969 30.0654C325.782 32.1748 324.754 34.6533 323.831 37.5801C322.908 40.5068 322.486 42.8271 322.486 44.541C322.486 45.6748 322.645 46.6504 323.014 47.5732C323.673 49.1816 324.543 50.2627 325.677 50.8691C326.758 51.4492 327.681 51.7393 328.472 51.7393ZM339.895 51.6074C340.923 51.6074 341.609 50.7637 342.004 49.0762C343.349 42.9854 346.144 38.3447 350.416 35.0488C350.574 34.9434 350.758 34.8379 350.969 34.7061C351.76 34.3369 352.209 33.915 352.209 33.4668C352.209 33.2031 352.103 32.9395 351.892 32.623C351.497 31.9639 350.969 31.6475 350.363 31.6475C349.677 31.6475 349.018 31.8057 348.306 32.1221C346.144 33.0449 344.694 34.3896 343.877 36.1299C343.718 36.3936 343.613 36.5518 343.507 36.5518C343.349 36.5518 343.296 36.2881 343.296 35.7344C343.296 35.1543 343.402 34.4424 343.613 33.7041C343.771 33.0977 343.877 32.623 343.877 32.2275C343.877 30.2236 342.822 29.2744 340.607 29.2744C339.684 29.2744 339.13 29.749 338.972 30.7773C338.208 35.5762 337.417 41.6406 336.599 48.9707C336.599 49.6826 336.81 50.21 337.206 50.6055C337.944 51.291 338.867 51.6074 339.895 51.6074ZM365.372 50.2627C366.295 50.2627 366.717 49.999 366.717 49.5244C366.717 49.3398 366.664 49.0762 366.506 48.8125C365.926 47.4678 365.583 45.9912 365.583 44.541C365.583 42.5371 365.926 40.2695 366.559 37.6328C366.717 36.9209 366.822 36.2881 366.822 35.6289C366.822 34.126 366.348 33.0977 365.32 32.5439C365.161 32.4912 364.898 32.4385 364.608 32.4385C364.344 32.4385 363.975 32.4912 363.606 32.623C362.894 32.834 360.89 34.9961 357.647 39.0303C355.115 42.2207 353.56 43.8555 353.006 43.8555C352.901 43.8555 352.848 43.7236 352.848 43.5654C352.848 43.3545 352.953 42.9854 353.164 42.4316C354.746 38.292 356.249 35.1543 357.805 33.0449C358.2 32.5439 358.464 32.2803 358.675 32.2803C358.886 32.333 359.176 32.4385 359.44 32.623C359.703 32.7812 360.125 32.8867 360.626 32.8867C361.101 32.8867 361.549 32.4912 361.918 31.7529C362.076 31.4893 362.129 31.1465 362.129 30.7246C362.129 30.2764 361.76 29.749 360.995 29.1426C360.257 28.5625 359.387 28.2988 358.464 28.2988C356.961 28.2988 355.485 29.2217 354.087 31.041C350.686 35.5234 348.524 40.0586 347.601 44.541C347.495 45.042 347.443 45.4639 347.443 45.8857C347.443 47.5732 348.207 48.8652 349.657 49.6826C350.369 50.0518 351.055 50.2627 351.767 50.2627C352.69 50.2627 353.612 49.7354 354.509 48.707C355.432 47.6787 356.355 46.5449 357.33 45.3057C359.044 43.0908 359.914 42.0098 359.967 42.0098C360.257 42.0098 360.362 42.5898 360.362 43.7764C360.362 47.125 361.76 49.2344 364.608 50.1572C364.845 50.21 365.109 50.2627 365.372 50.2627ZM375.187 58.5947C375.978 58.542 376.532 58.3047 376.901 57.8828C377.059 57.6191 377.165 57.4082 377.165 57.1709C377.165 57.0127 377.059 56.8018 376.901 56.5381C376.084 55.4043 375.609 54.2178 375.398 53.0312C375.055 51.2383 374.897 48.918 374.897 46.123C374.897 38.292 375.715 30.6719 377.402 23.21C377.508 22.7881 377.613 22.3926 377.771 22.1289C378.035 21.5488 379.986 21.2588 383.598 21.2588C385.708 21.2588 387.263 21.4961 388.186 21.9707C388.74 22.2344 389.215 22.3926 389.637 22.3926C390.085 22.3926 390.454 22.1289 390.718 21.6016C390.902 21.2061 391.008 20.8369 391.008 20.4678C390.955 19.5977 390.348 18.7803 389.162 18.042C387.975 17.2773 386.947 16.8555 386.024 16.7236C385.101 16.6182 384.363 16.5654 383.651 16.5654L380.672 16.6182C379.722 16.6182 379.221 16.3018 379.169 15.7217C379.169 15.4316 379.485 14.2979 380.144 12.2939C381.225 8.89258 382.096 6.30859 382.781 4.48926C382.939 3.98828 383.071 3.56641 383.071 3.1709C383.071 2.14258 382.359 1.35156 380.962 0.797852C380.513 0.639648 380.144 0.586914 379.828 0.586914C378.8 0.586914 378.088 1.29883 377.719 2.69629L374.054 15.5371C373.763 16.5654 373.183 17.1191 372.366 17.2246L365.405 18.1475C363.955 18.3057 363.243 18.833 363.243 19.7559C363.243 20.2568 363.401 20.7314 363.718 21.2588C364.535 22.5771 365.247 23.21 365.932 23.21C367.62 23.21 368.912 22.999 369.888 22.6299C370.652 22.2871 371.285 22.1289 371.891 22.1289C372.155 22.1289 372.313 22.2871 372.313 22.6299C372.313 22.8936 372.261 23.2627 372.208 23.7637C370.705 31.9111 369.94 38.8193 369.94 44.4883C369.94 49.3926 370.362 53.0312 371.232 55.3516C371.733 56.6963 372.735 57.6719 374.317 58.3574C374.581 58.542 374.897 58.5947 375.187 58.5947ZM382.84 31.3047C383.499 31.3047 383.974 30.9355 384.317 30.2236C386.136 25.6885 387.059 23.0518 387.059 22.2344C387.006 21.4961 386.426 20.8369 385.161 20.3096C384.791 20.125 384.475 20.0723 384.106 20.0723C383.288 20.125 382.735 20.4678 382.471 21.1533L382.207 21.918C381.074 24.792 380.467 26.875 380.467 28.1934V29.2744C380.52 30.4082 381.074 31.041 382.102 31.252L382.84 31.3047ZM381.126 53.084C382.049 53.0312 382.524 52.7939 382.577 52.5303C382.629 52.2666 382.629 51.9502 382.629 51.6602C382.629 51.291 382.577 50.9746 382.524 50.6582C382.418 50.3154 382.366 49.9463 382.366 49.5771C382.577 44.8574 383.13 40.2168 384.027 35.6289C384.106 35.2598 384.159 34.8906 384.159 34.4424C384.159 32.8867 383.183 32.1221 381.232 32.1221C380.098 32.1221 379.439 32.6758 379.175 33.7041C378.305 37.4219 377.883 41.4033 377.883 45.7803C377.883 46.9141 377.936 48.1006 377.989 49.3398C378.147 51.8447 379.122 53.084 380.968 53.084H381.126ZM389.939 50.2627C390.704 50.2627 391.363 49.999 391.891 49.3926C392.444 48.8652 394.158 45.6748 397.085 39.8477C399.827 34.2842 401.172 31.1992 401.172 30.6191C401.172 30.0127 400.803 29.4854 400.038 29.0898C399.563 28.8262 398.957 28.668 398.377 28.668C397.454 28.668 396.742 29.1426 396.215 30.1709C395.187 32.0693 393.684 35.1543 391.627 39.5312C391.258 40.3223 390.915 40.7705 390.757 40.7705C390.599 40.7705 390.546 40.5068 390.546 39.9531C390.546 37.9492 390.968 34.8906 391.838 30.6719L391.891 30.2764C391.891 28.7734 390.915 28.0088 389.043 28.0088C388.067 28.0088 387.408 28.3516 387.092 28.9844C386.723 29.6963 386.485 30.5137 386.38 31.4893C386.327 32.2803 386.169 33.1504 386.011 33.9678C385.299 37.4746 384.982 40.4541 384.982 42.8799V45.6221C385.035 48.1533 386.327 49.7354 388.858 50.21L389.939 50.2627ZM404.712 40.6123C404.342 40.5596 404.158 40.3223 404.158 40.0586C404.158 39.6895 405.529 37.2109 408.218 32.623C408.377 32.4385 408.535 32.333 408.825 32.333C409.194 32.333 409.352 32.4912 409.352 32.7812C409.352 33.3613 408.693 34.8379 407.401 37.2109C406.557 38.8193 405.634 39.9531 404.712 40.6123ZM406.768 51.9502C407.401 51.9502 408.113 51.8975 408.878 51.8447C410.222 51.6602 411.725 50.9746 413.413 49.7354C415.074 48.4961 416.26 47.3096 417.025 46.1758C417.711 45.042 418.106 44.2246 418.106 43.6182C418.106 43.0908 417.895 42.6426 417.5 42.2734C417.236 42.1152 417.025 42.0098 416.761 42.0098C416.26 42.0098 415.575 42.4316 414.705 43.3018C413.993 43.9082 412.859 44.8047 411.303 45.9385C408.878 47.7314 406.979 48.6016 405.529 48.6016C404.553 48.6016 403.894 47.9951 403.578 46.8613C403.525 46.6504 403.472 46.4395 403.472 46.2285C403.472 45.7275 403.947 45.2529 404.922 44.752C407.691 43.46 410.591 40.5596 413.676 35.9717C414.204 34.9434 414.494 33.9678 414.494 33.0449C414.494 32.2803 414.309 31.5947 413.94 30.8828C412.806 28.668 411.092 27.5342 408.878 27.5342C406.109 27.5342 403.578 29.9072 401.152 34.6533C399.807 37.3164 399.043 39.4785 398.884 41.1396C398.673 42.8271 398.542 43.8555 398.542 44.3301C398.542 49.3926 401.31 51.9502 406.768 51.9502ZM432.779 36.7627C431.487 36.7627 430.828 36.3408 430.828 35.4707C430.881 35.1016 430.986 34.6006 431.144 34.0732C432.621 30.6719 435.205 27.4287 438.923 24.2383C442.878 20.7314 445.251 18.9385 446.121 18.9385C446.385 18.9385 446.49 19.123 446.49 19.4395L446.332 20.125C445.251 23.5264 444.17 27.2705 443.036 31.4102C442.72 32.4385 442.43 33.0449 442.166 33.2031C441.902 33.3613 441.586 33.5723 441.19 33.8096C440.927 33.8623 440.663 34.0205 440.32 34.2314C438.237 35.3652 435.97 36.2354 433.517 36.71L432.779 36.7627ZM436.602 50.7109C435.97 50.7109 435.627 50.4736 435.627 50.0518C435.627 49.2344 436.233 48.0479 437.367 46.5977C438.053 45.7803 438.554 45.3584 438.923 45.3584C439.028 45.3584 439.081 45.4639 439.081 45.7275C439.081 45.9385 438.764 47.4678 438.053 50.2627C437.894 50.3154 437.789 50.3682 437.631 50.3682C437.156 50.6055 436.813 50.7109 436.602 50.7109ZM438.764 70.6709C439.028 70.6709 439.424 70.5654 439.846 70.3018C440.267 70.0381 440.505 69.6426 440.505 69.168C440.505 68.8516 440.452 68.5088 440.373 68.2451C440.267 67.9814 440.215 67.5596 440.215 66.9531C440.215 64.2637 440.61 60.625 441.348 56.1426C441.507 55.457 441.744 54.9561 442.06 54.7451C442.377 54.5342 442.825 54.376 443.352 54.2705C443.853 54.2178 444.486 54.0068 445.198 53.6641C445.462 53.5059 445.778 53.4004 446.174 53.3477C447.413 53.2422 447.993 52.7939 447.993 52.0557C447.993 51.792 447.94 51.502 447.782 51.1855C446.965 49.3398 445.884 48.4434 444.433 48.4434C444.064 48.4434 443.616 48.4961 443.141 48.6543C443.036 48.6543 442.983 48.5488 442.983 48.3379C443.036 47.5205 443.616 45.1475 444.75 41.0869C444.855 39.9004 445.673 38.9775 447.202 38.292C448.336 37.6855 448.863 37.1055 448.863 36.499C448.863 35.6816 448.257 34.6533 447.017 33.4141C450.709 21.6016 453.029 15.168 454.057 14.1924C454.532 13.7178 455.297 13.2168 456.325 12.8477L458.039 12.0303C458.303 11.9775 458.593 11.9248 458.856 11.9248L460.096 11.9775C460.913 11.9775 461.388 11.6084 461.44 10.791C461.44 9.97363 461.177 9.39355 460.57 8.97168C459.331 8.10156 457.828 7.49512 456.035 7.23145C456.905 5.12207 457.353 3.83008 457.353 3.22363C457.353 1.98438 456.43 1.4043 454.532 1.4043C453.504 1.4043 452.739 1.82617 452.317 2.74902C451.394 5.0166 450.471 7.33691 449.68 9.65723C449.68 9.7627 449.628 9.86816 449.575 9.97363C437.947 16.0908 430.353 22.1289 426.715 28.0088C425.581 30.0654 425.054 31.9639 425.054 33.7041C425.054 36.9209 427.268 39.4258 431.698 41.1396C432.726 41.5088 433.254 41.9043 433.254 42.3262C433.254 42.7217 432.99 43.249 432.384 43.8555C430.221 45.7803 429.14 47.4678 429.14 48.8652C429.14 49.4717 429.325 50.1572 429.641 50.8691C430.986 53.5059 433.148 54.9561 436.18 55.1406C436.655 55.1406 436.919 55.2461 436.919 55.5098L436.761 56.4326C436.075 59.2803 435.68 62.5234 435.68 66.0303C435.68 68.4561 436.128 69.8799 436.919 70.3018C437.736 70.5654 438.395 70.6709 438.764 70.6709ZM472.949 45.5693C472.343 45.5166 472.079 45.4111 472.079 45.2529C472.026 45.0947 472.026 44.9102 472.026 44.8047C472.026 44.4883 472.686 43.0908 473.978 40.665C476.245 36.3936 477.854 34.2314 478.776 34.2314C479.146 34.2314 479.33 34.5479 479.33 35.1543C479.33 36.0771 478.829 37.4746 477.801 39.373C475.85 42.9854 474.347 45.042 473.213 45.4111C473.107 45.4639 473.002 45.5166 472.949 45.5693ZM465.698 66.2939C466.727 66.2939 467.333 66.083 467.438 65.6084C467.544 65.1074 467.597 64.6855 467.597 64.2109L467.544 62.3125C467.544 60.5195 467.86 58.3047 468.467 55.7734C469.812 50.4209 470.629 47.6787 470.998 47.626L471.552 47.5732C471.815 47.5732 472.079 47.626 472.396 47.7842C473.107 48.0479 473.767 48.1533 474.452 48.1533C475.929 48.1533 477.221 47.5732 478.354 46.3867C481.202 43.4072 482.942 39.8477 483.575 35.6816C483.681 35.1016 483.733 34.4951 483.733 33.9678C483.681 32.4912 483.048 31.4102 481.756 30.7773C480.886 30.3555 480.068 30.1182 479.251 30.1182C477.695 30.1709 476.298 31.1465 474.953 33.0977C473.16 35.5762 472.079 36.8154 471.71 36.8154C471.552 36.8154 471.499 36.6572 471.499 36.3936C471.499 35.2598 471.71 34.126 472.079 32.9922C472.448 31.8584 472.633 31.041 472.633 30.5137C472.633 29.4854 472.026 28.7734 470.893 28.457C470.576 28.3516 470.312 28.2988 470.022 28.2988C469.047 28.2988 468.414 28.8789 468.098 30.1182C465.329 40.8232 463.483 51.6602 462.534 62.6816L462.481 63.2354C462.534 65.292 463.615 66.2939 465.698 66.2939ZM488.09 51.6074C489.119 51.6074 489.804 50.7637 490.2 49.0762C491.545 42.9854 494.339 38.3447 498.611 35.0488C498.769 34.9434 498.954 34.8379 499.165 34.7061C499.956 34.3369 500.404 33.915 500.404 33.4668C500.404 33.2031 500.298 32.9395 500.087 32.623C499.692 31.9639 499.165 31.6475 498.558 31.6475C497.873 31.6475 497.213 31.8057 496.502 32.1221C494.339 33.0449 492.889 34.3896 492.072 36.1299C491.914 36.3936 491.808 36.5518 491.703 36.5518C491.545 36.5518 491.492 36.2881 491.492 35.7344C491.492 35.1543 491.597 34.4424 491.808 33.7041C491.966 33.0977 492.072 32.623 492.072 32.2275C492.072 30.2236 491.017 29.2744 488.802 29.2744C487.879 29.2744 487.326 29.749 487.168 30.7773C486.403 35.5762 485.612 41.6406 484.795 48.9707C484.795 49.6826 485.005 50.21 485.401 50.6055C486.139 51.291 487.062 51.6074 488.09 51.6074ZM502.836 47.125C502.652 46.6504 502.599 46.123 502.599 45.4111C502.599 43.0381 503.205 40.2695 504.392 37.2109C505.104 35.418 505.789 34.2314 506.554 33.5723C507.029 34.5479 507.319 35.6816 507.319 37.0264C507.319 39.2412 506.765 41.4561 505.737 43.6709C504.919 45.3584 503.97 46.5449 502.836 47.125ZM503.68 51.7393C504.286 51.7393 504.919 51.5547 505.526 51.291C507.319 50.4209 508.716 48.8125 509.797 46.3867C510.878 43.9609 511.458 42.0625 511.511 40.665C511.564 39.2939 511.564 38.5557 511.564 38.3975C511.564 35.5762 510.825 33.4668 509.296 32.0166C508.821 31.542 508.611 31.1465 508.558 30.8828C508.268 29.0898 507.081 28.1934 505.104 28.1934C503.838 28.1934 502.889 28.8262 502.177 30.0654C500.99 32.1748 499.962 34.6533 499.039 37.5801C498.116 40.5068 497.695 42.8271 497.695 44.541C497.695 45.6748 497.853 46.6504 498.222 47.5732C498.881 49.1816 499.751 50.2627 500.885 50.8691C501.966 51.4492 502.889 51.7393 503.68 51.7393ZM518.979 71.8574C522.064 71.8574 524.543 70.1436 526.388 66.7422C530.159 59.5439 532.057 50.6582 532.057 40.0586C532.057 37.1055 531.846 35.1016 531.451 34.126C530.924 32.6758 529.843 31.9639 528.287 31.9639C527.575 31.9639 527.153 32.2275 526.863 32.7812C526.441 33.8096 525.466 35.2598 524.015 37.2109C522.565 39.1357 520.983 41.0342 519.322 42.8271C517.635 44.5938 516.343 45.833 515.42 46.4395C515.763 44.0664 517.002 41.1396 519.164 37.7383C521.3 34.3369 523.198 31.7529 524.886 29.8545C525.307 29.3799 525.677 29.0898 525.967 29.0898C526.23 29.0898 526.494 29.3271 526.81 29.6963C527.153 30.1182 527.47 30.3555 527.839 30.3555C528.181 30.3555 528.498 30.1709 528.867 29.9072C529.263 29.6436 529.421 29.3271 529.421 28.9316C529.421 28.6152 529.263 28.2461 528.92 27.7451C527.997 26.2949 527.153 25.5303 526.388 25.4775C525.571 25.4248 525.149 25.3721 524.991 25.3721C523.699 25.3721 522.513 25.9785 521.352 27.2178C516.554 32.333 512.941 38.1602 510.515 44.8047C510.199 45.6221 510.014 46.3867 510.014 47.0723C510.014 48.6016 510.779 49.8408 512.282 50.7637C513.31 51.3438 514.233 51.6602 515.156 51.6602C516.501 51.6602 517.793 50.9746 518.979 49.6299C523.462 44.4883 525.782 41.8516 526.072 41.6934C526.336 41.5879 526.494 41.5088 526.599 41.5088C526.863 41.5088 527.048 41.7461 527.048 42.1152C527.048 45.7803 526.599 50.0518 525.677 54.9033C524.991 58.6475 523.699 62.3125 521.801 65.9248C521.352 66.7949 520.93 67.5068 520.456 68.0342C519.955 68.6406 519.322 68.9043 518.505 68.9043C516.29 68.9043 514.787 67.7178 514.075 65.3447C513.864 64.6328 513.416 64.2637 512.836 64.2637C511.807 64.2637 511.28 64.8438 511.28 66.0303C511.28 67.0059 511.649 67.876 512.414 68.6934C514.497 70.7764 516.712 71.8574 518.979 71.8574ZM535.966 51.6074C536.995 51.6074 537.68 50.7637 538.076 49.0762C539.42 42.9854 542.215 38.3447 546.487 35.0488C546.645 34.9434 546.829 34.8379 547.04 34.7061C547.831 34.3369 548.28 33.915 548.28 33.4668C548.28 33.2031 548.174 32.9395 547.963 32.623C547.568 31.9639 547.04 31.6475 546.434 31.6475C545.748 31.6475 545.089 31.8057 544.377 32.1221C542.215 33.0449 540.765 34.3896 539.948 36.1299C539.789 36.3936 539.684 36.5518 539.578 36.5518C539.42 36.5518 539.368 36.2881 539.368 35.7344C539.368 35.1543 539.473 34.4424 539.684 33.7041C539.842 33.0977 539.948 32.623 539.948 32.2275C539.948 30.2236 538.893 29.2744 536.678 29.2744C535.755 29.2744 535.202 29.749 535.043 30.7773C534.279 35.5762 533.488 41.6406 532.67 48.9707C532.67 49.6826 532.881 50.21 533.277 50.6055C534.015 51.291 534.938 51.6074 535.966 51.6074ZM551.081 40.6123C550.712 40.5596 550.527 40.3223 550.527 40.0586C550.527 39.6895 551.898 37.2109 554.588 32.623C554.746 32.4385 554.904 32.333 555.194 32.333C555.563 32.333 555.722 32.4912 555.722 32.7812C555.722 33.3613 555.062 34.8379 553.771 37.2109C552.927 38.8193 552.004 39.9531 551.081 40.6123ZM553.138 51.9502C553.771 51.9502 554.482 51.8975 555.247 51.8447C556.592 51.6602 558.095 50.9746 559.782 49.7354C561.443 48.4961 562.63 47.3096 563.395 46.1758C564.08 45.042 564.476 44.2246 564.476 43.6182C564.476 43.0908 564.265 42.6426 563.869 42.2734C563.605 42.1152 563.395 42.0098 563.131 42.0098C562.63 42.0098 561.944 42.4316 561.074 43.3018C560.362 43.9082 559.229 44.8047 557.673 45.9385C555.247 47.7314 553.349 48.6016 551.898 48.6016C550.923 48.6016 550.264 47.9951 549.947 46.8613C549.895 46.6504 549.842 46.4395 549.842 46.2285C549.842 45.7275 550.316 45.2529 551.292 44.752C554.061 43.46 556.961 40.5596 560.046 35.9717C560.573 34.9434 560.863 33.9678 560.863 33.0449C560.863 32.2803 560.679 31.5947 560.31 30.8828C559.176 28.668 557.462 27.5342 555.247 27.5342C552.479 27.5342 549.947 29.9072 547.521 34.6533C546.177 37.3164 545.412 39.4785 545.254 41.1396C545.043 42.8271 544.911 43.8555 544.911 44.3301C544.911 49.3926 547.68 51.9502 553.138 51.9502ZM566.855 51.502C568.648 51.2383 570.547 50.1045 572.524 48.1006C574.264 46.334 575.134 44.9893 575.134 44.0664V42.5371C575.082 40.876 573.341 39.8477 569.94 39.4785C568.147 39.2412 567.251 38.5557 567.198 37.3164C567.198 33.8096 568.543 30.4082 571.232 27.0596C571.786 26.3477 572.049 25.7412 572.049 25.2139C572.049 24.6074 571.285 24.0801 569.835 23.6055C569.518 23.4736 569.175 23.4209 568.859 23.4209C566.644 23.4209 564.798 25.7939 563.348 30.6191C562.478 33.3613 562.056 35.418 562.056 36.7627C562.056 39.584 563.506 41.1924 566.38 41.6406C568.094 41.9043 569.07 42.2734 569.228 42.6426C569.413 43.0381 569.518 43.3545 569.518 43.5127C569.518 44.4355 568.595 45.7803 566.802 47.5205C565.458 48.8125 564.798 49.6826 564.798 50.1572C564.798 51.0801 565.51 51.502 566.855 51.502ZM579.333 51.502C581.126 51.2383 583.025 50.1045 585.002 48.1006C586.742 46.334 587.612 44.9893 587.612 44.0664V42.5371C587.56 40.876 585.82 39.8477 582.418 39.4785C580.625 39.2412 579.729 38.5557 579.676 37.3164C579.676 33.8096 581.021 30.4082 583.71 27.0596C584.264 26.3477 584.528 25.7412 584.528 25.2139C584.528 24.6074 583.763 24.0801 582.313 23.6055C581.996 23.4736 581.654 23.4209 581.337 23.4209C579.122 23.4209 577.277 25.7939 575.826 30.6191C574.956 33.3613 574.534 35.418 574.534 36.7627C574.534 39.584 575.985 41.1924 578.859 41.6406C580.572 41.9043 581.548 42.2734 581.706 42.6426C581.891 43.0381 581.996 43.3545 581.996 43.5127C581.996 44.4355 581.073 45.7803 579.28 47.5205C577.936 48.8125 577.277 49.6826 577.277 50.1572C577.277 51.0801 577.988 51.502 579.333 51.502ZM591.97 31.3047C592.629 31.3047 593.103 30.9355 593.446 30.2236C595.265 25.6885 596.188 23.0518 596.188 22.2344C596.136 21.4961 595.555 20.8369 594.29 20.3096C593.921 20.125 593.604 20.0723 593.235 20.0723C592.418 20.125 591.864 20.4678 591.6 21.1533L591.337 21.918C590.203 24.792 589.596 26.875 589.596 28.1934V29.2744C589.649 30.4082 590.203 31.041 591.231 31.252L591.97 31.3047ZM590.256 53.084C591.179 53.0312 591.653 52.7939 591.706 52.5303C591.759 52.2666 591.759 51.9502 591.759 51.6602C591.759 51.291 591.706 50.9746 591.653 50.6582C591.548 50.3154 591.495 49.9463 591.495 49.5771C591.706 44.8574 592.26 40.2168 593.156 35.6289C593.235 35.2598 593.288 34.8906 593.288 34.4424C593.288 32.8867 592.312 32.1221 590.361 32.1221C589.227 32.1221 588.568 32.6758 588.305 33.7041C587.434 37.4219 587.013 41.4033 587.013 45.7803C587.013 46.9141 587.065 48.1006 587.118 49.3398C587.276 51.8447 588.252 53.084 590.097 53.084H590.256ZM599.069 50.2627C599.833 50.2627 600.493 49.999 601.02 49.3926C601.574 48.8652 603.287 45.6748 606.214 39.8477C608.956 34.2842 610.301 31.1992 610.301 30.6191C610.301 30.0127 609.932 29.4854 609.167 29.0898C608.693 28.8262 608.086 28.668 607.506 28.668C606.583 28.668 605.871 29.1426 605.344 30.1709C604.316 32.0693 602.813 35.1543 600.756 39.5312C600.387 40.3223 600.044 40.7705 599.886 40.7705C599.728 40.7705 599.675 40.5068 599.675 39.9531C599.675 37.9492 600.097 34.8906 600.967 30.6719L601.02 30.2764C601.02 28.7734 600.044 28.0088 598.172 28.0088C597.197 28.0088 596.537 28.3516 596.221 28.9844C595.852 29.6963 595.615 30.5137 595.509 31.4893C595.456 32.2803 595.298 33.1504 595.14 33.9678C594.428 37.4746 594.112 40.4541 594.112 42.8799V45.6221C594.164 48.1533 595.456 49.7354 597.988 50.21L599.069 50.2627ZM613.841 40.6123C613.472 40.5596 613.287 40.3223 613.287 40.0586C613.287 39.6895 614.658 37.2109 617.348 32.623C617.506 32.4385 617.664 32.333 617.954 32.333C618.323 32.333 618.481 32.4912 618.481 32.7812C618.481 33.3613 617.822 34.8379 616.53 37.2109C615.687 38.8193 614.764 39.9531 613.841 40.6123ZM615.897 51.9502C616.53 51.9502 617.242 51.8975 618.007 51.8447C619.352 51.6602 620.854 50.9746 622.542 49.7354C624.203 48.4961 625.39 47.3096 626.154 46.1758C626.84 45.042 627.235 44.2246 627.235 43.6182C627.235 43.0908 627.024 42.6426 626.629 42.2734C626.365 42.1152 626.154 42.0098 625.891 42.0098C625.39 42.0098 624.704 42.4316 623.834 43.3018C623.122 43.9082 621.988 44.8047 620.433 45.9385C618.007 47.7314 616.108 48.6016 614.658 48.6016C613.683 48.6016 613.023 47.9951 612.707 46.8613C612.654 46.6504 612.602 46.4395 612.602 46.2285C612.602 45.7275 613.076 45.2529 614.052 44.752C616.82 43.46 619.721 40.5596 622.806 35.9717C623.333 34.9434 623.623 33.9678 623.623 33.0449C623.623 32.2803 623.438 31.5947 623.069 30.8828C621.936 28.668 620.222 27.5342 618.007 27.5342C615.238 27.5342 612.707 29.9072 610.281 34.6533C608.937 37.3164 608.172 39.4785 608.014 41.1396C607.803 42.8271 607.671 43.8555 607.671 44.3301C607.671 49.3926 610.439 51.9502 615.897 51.9502ZM641.355 51.6074C642.436 51.5547 643.464 50.9219 644.387 49.6299C646.971 45.9912 648.263 44.2246 648.316 44.2246L648.368 44.2773V44.5938C648.316 44.752 648.316 45.0947 648.316 45.5693C648.368 47.7314 649.792 49.1816 652.429 49.999C652.904 50.1572 653.404 50.21 653.985 50.21C656.595 50.21 659.126 47.2041 661.657 41.1396C662.791 38.5029 663.345 36.499 663.345 35.0488L663.292 32.623C663.187 30.0127 662 27.7451 659.785 25.7939C659.232 25.3193 658.757 25.1084 658.362 25.1084C658.045 25.1084 657.781 25.2666 657.518 25.5303C657.228 25.7939 657.122 26.084 657.122 26.3477C657.122 26.7168 657.333 27.2178 657.781 27.7979C658.81 29.0898 659.337 30.7246 659.337 32.7285C659.337 34.7061 658.862 36.8682 657.887 39.1885C657.017 41.1924 656.147 42.8271 655.356 44.0137C654.486 45.2002 653.826 45.7803 653.352 45.7803C653.194 45.5693 653.088 44.9893 653.088 44.0664C653.088 42.9854 653.194 41.6406 653.457 40.0586C653.932 37.1055 654.327 35.2598 654.591 34.5479C654.855 33.8623 654.96 33.2031 654.96 32.5439C654.907 31.6475 654.38 30.9883 653.299 30.5137C652.904 30.3555 652.534 30.2764 652.218 30.2764C651.295 30.2764 650.478 30.9883 649.687 32.4385C645.099 40.9287 642.541 45.2002 642.067 45.2002C641.961 45.2002 641.908 45.0947 641.908 44.8574C641.908 43.6182 642.989 39.7422 645.152 33.3086C645.31 32.834 645.362 32.3857 645.362 31.9639C645.31 30.9355 644.756 30.2236 643.622 29.8545C643.253 29.6963 642.831 29.6436 642.383 29.6436C641.46 29.6963 640.775 30.4082 640.274 31.8057C638.718 36.4463 637.531 41.1924 636.661 46.123C636.609 46.3867 636.609 46.6504 636.609 46.9668C636.609 49.0234 637.531 50.4209 639.351 51.1855C640.063 51.4492 640.722 51.6074 641.355 51.6074ZM667.887 47.125C667.702 46.6504 667.649 46.123 667.649 45.4111C667.649 43.0381 668.256 40.2695 669.442 37.2109C670.154 35.418 670.84 34.2314 671.604 33.5723C672.079 34.5479 672.369 35.6816 672.369 37.0264C672.369 39.2412 671.815 41.4561 670.787 43.6709C669.97 45.3584 669.02 46.5449 667.887 47.125ZM668.73 51.7393C669.337 51.7393 669.97 51.5547 670.576 51.291C672.369 50.4209 673.766 48.8125 674.847 46.3867C675.929 43.9609 676.509 42.0625 676.561 40.665C676.614 39.2939 676.614 38.5557 676.614 38.3975C676.614 35.5762 675.876 33.4668 674.346 32.0166C673.872 31.542 673.661 31.1465 673.608 30.8828C673.318 29.0898 672.132 28.1934 670.154 28.1934C668.888 28.1934 667.939 28.8262 667.227 30.0654C666.041 32.1748 665.013 34.6533 664.09 37.5801C663.167 40.5068 662.745 42.8271 662.745 44.541C662.745 45.6748 662.903 46.6504 663.272 47.5732C663.931 49.1816 664.802 50.2627 665.935 50.8691C667.016 51.4492 667.939 51.7393 668.73 51.7393ZM680.154 51.6074C681.182 51.6074 681.868 50.7637 682.263 49.0762C683.608 42.9854 686.403 38.3447 690.674 35.0488C690.832 34.9434 691.017 34.8379 691.228 34.7061C692.019 34.3369 692.467 33.915 692.467 33.4668C692.467 33.2031 692.362 32.9395 692.151 32.623C691.755 31.9639 691.228 31.6475 690.621 31.6475C689.936 31.6475 689.277 31.8057 688.565 32.1221C686.403 33.0449 684.953 34.3896 684.135 36.1299C683.977 36.3936 683.871 36.5518 683.766 36.5518C683.608 36.5518 683.555 36.2881 683.555 35.7344C683.555 35.1543 683.661 34.4424 683.871 33.7041C684.03 33.0977 684.135 32.623 684.135 32.2275C684.135 30.2236 683.08 29.2744 680.866 29.2744C679.943 29.2744 679.389 29.749 679.231 30.7773C678.466 35.5762 677.675 41.6406 676.858 48.9707C676.858 49.6826 677.069 50.21 677.464 50.6055C678.203 51.291 679.125 51.6074 680.154 51.6074ZM695.796 54.9561C699.804 54.9561 703.258 52.5303 706.132 47.626C706.396 47.2041 706.501 46.8086 706.501 46.4395C706.501 46.123 706.396 45.833 706.132 45.6221C705.842 45.4111 705.631 45.3057 705.367 45.3057C704.919 45.3584 704.497 45.5166 704.128 45.8857C704.128 45.9385 704.128 45.9385 704.075 45.9385C700.015 49.7354 697.378 51.6074 696.139 51.6074C695.163 51.6074 694.662 50.2627 694.662 47.5732C694.662 41.7988 696.771 30.8828 700.99 14.7461C701.148 14.1924 701.201 13.7178 701.201 13.3223C701.201 12.4785 700.779 11.8721 699.909 11.5557C699.54 11.3975 699.145 11.3447 698.828 11.3447C697.694 11.3447 696.982 12.0303 696.613 13.375L692.078 30.7773C690.522 36.6045 689.758 41.4033 689.758 45.2529C689.758 47.5205 690.021 49.4717 690.522 51.0273C691.313 53.6641 693.054 54.9561 695.796 54.9561ZM709.039 49.8936C708.722 49.8936 708.564 49.6826 708.564 49.2344V47.9951C708.564 39.8477 710.779 33.2559 715.261 28.3516C715.841 27.7451 716.237 27.4287 716.501 27.4287C716.712 27.4287 716.817 27.6396 716.817 28.0879C716.817 29.0371 716.026 31.7002 714.391 36.0244C712.73 40.375 711.544 43.7764 710.726 46.2285C709.909 48.6543 709.381 49.8936 709.039 49.8936ZM723.725 65.5029C725.096 65.4502 725.782 65.1602 725.782 64.6328C725.782 64.1582 725.571 63.7627 725.149 63.499C723.356 60.7568 722.433 57.1709 722.433 52.7412C722.38 48.3906 722.38 45.9385 722.38 45.5693C722.38 37.5801 723.145 30.6719 724.595 24.792C725.413 21.4434 726.599 17.2773 728.049 12.373C728.656 10.2637 728.972 8.78711 728.972 8.04883C728.92 7.02051 728.155 6.30859 726.705 5.93945C726.388 5.88672 725.993 5.83398 725.518 5.83398C724.701 5.88672 724.068 6.7041 723.567 8.25977L721.141 16.4072C720.456 18.7275 719.797 20.5732 719.19 21.918C718.61 23.2627 717.265 23.9746 715.209 23.9746C713.099 24.0273 711.491 24.9502 710.225 26.7695C706.086 33.0977 703.976 39.6367 703.976 46.4922C703.976 48.2588 704.134 49.8936 704.504 51.3438C705.163 53.9541 706.666 55.2461 709.091 55.2461C710.779 55.2461 712.176 53.6641 713.31 50.4736C713.917 48.8652 715.261 44.6465 717.476 37.8438C717.845 36.71 718.109 36.1299 718.241 36.1299C718.294 36.1299 718.346 36.2354 718.346 36.4463C718.188 37.8438 718.056 41.6934 718.056 47.9424C718.056 53.1895 718.663 57.4082 719.797 60.5195C720.983 63.8154 722.275 65.5029 723.62 65.5029H723.725Z" fill="white"/>
</svg>
