<svg width="550" height="67" viewBox="0 0 550 67" fill="none" xmlns="http://www.w3.org/2000/svg">
<path d="M8.55762 44.2246C8.83887 44.1719 9.48926 43.627 10.5088 42.5898C16.5205 36.5957 21.1787 29.7402 24.4834 22.0234C25.0986 20.3535 25.4062 18.9473 25.4062 17.8047C25.4062 15.0625 23.499 13.6826 19.6846 13.665C19.0869 13.665 18.085 13.7705 16.6787 13.9814C15.2021 14.2451 13.8838 14.7285 12.7236 15.4316C11.5459 16.1348 10.8252 17.5938 10.5615 19.8086C10.0869 24.502 9.4541 29.1514 8.66309 33.7568C7.83691 38.3975 7.42383 41.3066 7.42383 42.4844C7.42383 43.627 7.67871 44.207 8.18848 44.2246H8.55762ZM4.18066 58.9639H3.70605C2.03613 58.9639 1.19238 58.0674 1.1748 56.2744C2.08887 45.376 3.53027 34.5566 5.49902 23.8164C5.63965 22.9199 5.70996 22.252 5.70996 21.8125C5.69238 21.4082 5.54297 21.2061 5.26172 21.2061C5.20898 21.2061 5.10352 21.2236 4.94531 21.2588C4.80469 21.3291 4.5498 22.085 4.18066 23.5264C3.9873 25.0908 3.38086 25.873 2.36133 25.873C1.16602 25.873 0.568359 24.9326 0.568359 23.0518C0.568359 22.0322 0.858398 21.0391 1.43848 20.0723C2.01855 19.1582 3.06445 17.8838 4.57617 16.249C5.78906 15.2471 6.52734 14.1309 6.79102 12.9004C6.91406 12.2852 7.53809 11.9775 8.66309 11.9775C10.9307 11.9775 12.8818 11.749 14.5166 11.292C16.2744 10.7471 17.9619 10.4746 19.5791 10.4746C22.3916 10.4746 24.8086 11.2305 26.8301 12.7422C29.0625 14.4121 30.1787 16.6797 30.1787 19.5449C30.1787 20.5117 29.9941 21.4873 29.625 22.4717C28.8164 24.5635 28.166 25.9082 27.6738 26.5059C24.2812 32.8164 20.1592 38.5732 15.3076 43.7764C13.6904 45.6924 11.8535 46.7559 9.79688 46.9668C9.28711 46.9668 8.72461 46.9404 8.10938 46.8877C8.00391 46.8877 7.90723 46.8789 7.81934 46.8613C6.72949 46.8613 6.04395 50.1221 5.7627 56.6436C5.62207 58.1201 5.09473 58.8936 4.18066 58.9639ZM29.5787 47.125C30.7037 46.5273 31.6705 45.376 32.4791 43.6709C33.5338 41.4561 34.0611 39.2412 34.0611 37.0264C34.0611 35.6904 33.8062 34.5391 33.2965 33.5723C32.5406 34.2227 31.8199 35.4355 31.1344 37.2109C29.9391 40.3047 29.3414 43.0381 29.3414 45.4111C29.3414 46.1143 29.4205 46.6855 29.5787 47.125ZM30.4225 51.7393C29.6139 51.7393 28.6822 51.4492 27.6275 50.8691C26.5025 50.2715 25.6148 49.1729 24.9645 47.5732C24.6129 46.6943 24.4371 45.6836 24.4371 44.541C24.4371 42.8184 24.8854 40.498 25.7818 37.5801C26.6959 34.6797 27.7418 32.1748 28.9195 30.0654C29.6227 28.8174 30.5982 28.1934 31.8463 28.1934C33.8326 28.1934 34.984 29.0898 35.3004 30.8828C35.3355 31.1465 35.5816 31.5244 36.0387 32.0166C37.5504 33.458 38.3062 35.585 38.3062 38.3975C38.3062 38.5557 38.2887 39.3115 38.2535 40.665C38.2008 42.0537 37.6295 43.9609 36.5396 46.3867C35.4674 48.8125 34.0436 50.4473 32.2682 51.291C31.6354 51.5898 31.0201 51.7393 30.4225 51.7393ZM43.3488 51.502C41.9953 51.502 41.3098 51.0537 41.2922 50.1572C41.2922 49.665 41.9602 48.7861 43.2961 47.5205C45.1066 45.7627 46.0119 44.4268 46.0119 43.5127C46.0119 43.3545 45.9152 43.0645 45.7219 42.6426C45.5637 42.2559 44.6145 41.9219 42.8742 41.6406C39.9914 41.2012 38.55 39.5752 38.55 36.7627C38.55 35.4092 38.9807 33.3613 39.842 30.6191C41.301 25.8203 43.1379 23.4209 45.3527 23.4209C45.6691 23.4209 45.9943 23.4824 46.3283 23.6055C47.8049 24.0801 48.5432 24.6162 48.5432 25.2139C48.5432 25.7588 48.2707 26.374 47.7258 27.0596C45.0363 30.3818 43.6916 33.8008 43.6916 37.3164C43.7443 38.5469 44.6584 39.2676 46.4338 39.4785C49.8439 39.8477 51.5754 40.8672 51.6281 42.5371V44.0664C51.6281 44.9805 50.758 46.3252 49.0178 48.1006C47.0314 50.1045 45.1418 51.2383 43.3488 51.502ZM55.9852 31.3047L55.2469 31.252C54.2098 31.0586 53.6648 30.3994 53.6121 29.2744V28.1934C53.6121 26.8926 54.1922 24.8008 55.3523 21.918L55.616 21.1533C55.8797 20.4678 56.4246 20.1074 57.2508 20.0723C57.6199 20.0723 57.9715 20.1514 58.3055 20.3096C59.5359 20.8369 60.1688 21.4785 60.2039 22.2344C60.2039 23.043 59.2898 25.7061 57.4617 30.2236C57.1277 30.9443 56.6355 31.3047 55.9852 31.3047ZM54.2713 53.084H54.1131C52.2674 53.084 51.2742 51.8359 51.1336 49.3398C51.1336 49.2871 51.1336 49.2344 51.1336 49.1816C51.0633 48.0039 51.0281 46.8701 51.0281 45.7803C51.0281 41.4033 51.4588 37.3779 52.3201 33.7041C52.5486 32.6494 53.2342 32.1221 54.3768 32.1221C56.3279 32.1221 57.3035 32.8955 57.3035 34.4424C57.3035 34.8818 57.2596 35.2773 57.1717 35.6289C56.2752 40.2168 55.7215 44.8662 55.5105 49.5771C55.5105 49.9463 55.5633 50.3066 55.6688 50.6582C55.7391 50.957 55.7742 51.291 55.7742 51.6602C55.7742 51.9414 55.7566 52.2314 55.7215 52.5303C55.6688 52.8291 55.1854 53.0137 54.2713 53.084ZM65.5365 58.5947C65.2553 58.5947 64.9652 58.5156 64.6664 58.3574C63.102 57.6895 62.0736 56.6875 61.5814 55.3516C60.7201 53.0312 60.2895 49.4102 60.2895 44.4883C60.2895 38.8281 61.0453 31.9199 62.557 23.7637C62.5746 23.6406 62.5834 23.5264 62.5834 23.4209C62.6361 23.0869 62.6625 22.8232 62.6625 22.6299C62.6625 22.2959 62.5219 22.1289 62.2406 22.1289C61.643 22.1289 60.975 22.2959 60.2367 22.6299C59.2875 23.0166 57.9691 23.21 56.2816 23.21C55.5785 23.21 54.8402 22.5596 54.0668 21.2588C53.7504 20.749 53.5922 20.248 53.5922 19.7559C53.5922 18.8418 54.3129 18.3057 55.7543 18.1475L62.7152 17.2246C63.5414 17.1191 64.1039 16.5566 64.4027 15.5371L68.0678 2.69629C68.4369 1.29004 69.14 0.586914 70.1771 0.586914C70.4936 0.586914 70.8715 0.657227 71.3109 0.797852C72.7172 1.36035 73.4203 2.15137 73.4203 3.1709C73.4203 3.55762 73.3236 3.99707 73.1303 4.48926C72.4447 6.2998 71.5658 8.90137 70.4936 12.2939C69.8432 14.2979 69.518 15.4404 69.518 15.7217C69.5531 16.3193 70.0541 16.6182 71.0209 16.6182L74.0004 16.5654C74.7035 16.5654 75.4945 16.6182 76.3734 16.7236C77.2875 16.8467 78.3334 17.2861 79.5111 18.042C80.6889 18.7979 81.3041 19.6064 81.3568 20.4678C81.3568 20.8369 81.2602 21.2148 81.0668 21.6016C80.7855 22.1289 80.4252 22.3926 79.9857 22.3926C79.5639 22.3926 79.0805 22.252 78.5355 21.9707C77.5863 21.4961 76.057 21.2588 73.9477 21.2588C70.3266 21.2588 68.3842 21.5488 68.1205 22.1289C67.9623 22.4102 67.8393 22.7705 67.7514 23.21C66.0814 30.6455 65.2465 38.2832 65.2465 46.123C65.2465 48.918 65.4135 51.2207 65.7475 53.0312C65.9584 54.2266 66.4594 55.3955 67.2504 56.5381C67.4262 56.8018 67.5141 57.0127 67.5141 57.1709C67.5141 57.3994 67.4262 57.6367 67.2504 57.8828C66.8988 58.3047 66.3275 58.542 65.5365 58.5947ZM73.1895 31.3047L72.4512 31.252C71.4141 31.0586 70.8691 30.3994 70.8164 29.2744V28.1934C70.8164 26.8926 71.3965 24.8008 72.5566 21.918L72.8203 21.1533C73.084 20.4678 73.6289 20.1074 74.4551 20.0723C74.8242 20.0723 75.1758 20.1514 75.5098 20.3096C76.7402 20.8369 77.373 21.4785 77.4082 22.2344C77.4082 23.043 76.4941 25.7061 74.666 30.2236C74.332 30.9443 73.8398 31.3047 73.1895 31.3047ZM71.4756 53.084H71.3174C69.4717 53.084 68.4785 51.8359 68.3379 49.3398C68.3379 49.2871 68.3379 49.2344 68.3379 49.1816C68.2676 48.0039 68.2324 46.8701 68.2324 45.7803C68.2324 41.4033 68.6631 37.3779 69.5244 33.7041C69.7529 32.6494 70.4385 32.1221 71.5811 32.1221C73.5322 32.1221 74.5078 32.8955 74.5078 34.4424C74.5078 34.8818 74.4639 35.2773 74.376 35.6289C73.4795 40.2168 72.9258 44.8662 72.7148 49.5771C72.7148 49.9463 72.7676 50.3066 72.873 50.6582C72.9434 50.957 72.9785 51.291 72.9785 51.6602C72.9785 51.9414 72.9609 52.2314 72.9258 52.5303C72.873 52.8291 72.3896 53.0137 71.4756 53.084ZM80.2887 50.2627L79.2076 50.21C76.6764 49.7178 75.3844 48.1885 75.3316 45.6221V42.8799C75.3316 40.4365 75.6744 37.4658 76.36 33.9678C76.5357 33.1416 76.6588 32.3154 76.7291 31.4893C76.8346 30.5225 77.0719 29.6875 77.441 28.9844C77.7574 28.334 78.4078 28.0088 79.3922 28.0088C81.273 28.0088 82.2223 28.7646 82.2398 30.2764L82.1871 30.6719C81.3258 34.8555 80.8951 37.9492 80.8951 39.9531C80.8951 40.498 80.9654 40.7705 81.1061 40.7705C81.2643 40.7705 81.5543 40.3574 81.9762 39.5312C84.0152 35.1719 85.5445 32.0518 86.5641 30.1709C87.0914 29.1689 87.8121 28.668 88.7262 28.668C89.3238 28.668 89.8775 28.8086 90.3873 29.0898C91.1432 29.5117 91.5211 30.0215 91.5211 30.6191C91.5211 31.2168 90.1588 34.293 87.4342 39.8477C84.5162 45.6836 82.7848 48.8652 82.2398 49.3926C81.6949 49.9727 81.0445 50.2627 80.2887 50.2627ZM95.0607 40.6123C95.9924 39.9619 96.8889 38.8281 97.7502 37.2109C99.051 34.8379 99.7014 33.3613 99.7014 32.7812C99.7014 32.5 99.5256 32.3506 99.174 32.333C98.8928 32.333 98.6906 32.4297 98.5676 32.623C95.8605 37.2109 94.507 39.6895 94.507 40.0586C94.507 40.3398 94.6916 40.5244 95.0607 40.6123ZM97.1174 51.9502C91.6506 51.9502 88.9084 49.4102 88.8908 44.3301C88.8908 43.8379 89.0051 42.7744 89.2336 41.1396C89.3918 39.4697 90.1477 37.3076 91.5012 34.6533C93.8918 29.9072 96.467 27.5342 99.2268 27.5342C101.442 27.5342 103.129 28.6504 104.289 30.8828C104.658 31.5684 104.843 32.2891 104.843 33.0449C104.843 33.959 104.571 34.9346 104.026 35.9717C100.949 40.542 98.0314 43.4688 95.2717 44.752C94.3049 45.2441 93.8215 45.7363 93.8215 46.2285C93.8215 46.4395 93.8566 46.6504 93.927 46.8613C94.2434 48.0215 94.8938 48.6016 95.8781 48.6016C97.3371 48.6016 99.2619 47.7139 101.653 45.9385C103.217 44.7959 104.351 43.917 105.054 43.3018C105.933 42.4404 106.618 42.0098 107.111 42.0098C107.374 42.0098 107.62 42.0977 107.849 42.2734C108.253 42.6426 108.455 43.0908 108.455 43.6182C108.455 44.2158 108.095 45.0684 107.374 46.1758C106.618 47.3008 105.414 48.4873 103.762 49.7354C102.074 50.9658 100.563 51.6689 99.2268 51.8447C99.174 51.8447 99.1125 51.8447 99.0422 51.8447C98.3566 51.915 97.715 51.9502 97.1174 51.9502ZM112.074 54.9561C109.332 54.9561 107.574 53.6465 106.801 51.0273C106.291 49.4453 106.036 47.5205 106.036 45.2529C106.036 41.4209 106.809 36.5957 108.356 30.7773L112.891 13.375C113.243 12.0215 113.981 11.3447 115.106 11.3447C115.423 11.3447 115.783 11.415 116.187 11.5557C117.049 11.8721 117.479 12.4609 117.479 13.3223C117.479 13.709 117.409 14.1836 117.268 14.7461C113.05 30.8477 110.94 41.79 110.94 47.5732C110.94 50.2627 111.432 51.6074 112.417 51.6074C113.647 51.6074 116.293 49.7178 120.353 45.9385C120.371 45.9385 120.38 45.9385 120.38 45.9385C120.397 45.9385 120.406 45.9209 120.406 45.8857C120.793 45.5342 121.206 45.3408 121.645 45.3057C121.909 45.3057 122.164 45.4111 122.41 45.6221C122.656 45.833 122.779 46.1055 122.779 46.4395C122.779 46.8086 122.656 47.2041 122.41 47.626C119.527 52.5127 116.082 54.9561 112.074 54.9561ZM135.468 64.8438C134.994 64.8438 134.563 64.7559 134.176 64.5801C132.612 63.9297 131.531 62.9541 130.933 61.6533C130.335 60.4053 130.037 58.375 130.037 55.5625C130.037 54.1035 130.124 52.0732 130.3 49.4717C130.3 47.8896 130.265 47.0898 130.195 47.0723C130.142 47.0723 129.94 47.3096 129.588 47.7842C128.375 49.3662 126.952 50.1572 125.317 50.1572C124.842 50.1572 124.341 50.0693 123.814 49.8936C121.511 49.0146 120.36 47.3535 120.36 44.9102C120.36 35.6289 121.186 30.9355 122.838 30.8301L123.497 30.8828C125.326 30.9531 126.24 31.9639 126.24 33.915C126.099 36.8857 126.029 39.1533 126.029 40.7178C126.029 42.5986 126.169 43.5479 126.451 43.5654C126.943 43.5303 127.989 41.8955 129.588 38.6611C130.573 36.7451 131.794 34.46 133.253 31.8057C133.904 30.6807 134.774 30.1182 135.864 30.1182C136.286 30.1182 136.716 30.1973 137.156 30.3555C138.386 30.7949 139.001 31.6387 139.001 32.8867C139.001 33.2559 138.957 33.5811 138.87 33.8623C138.307 35.7256 137.63 38.5645 136.839 42.3789C135.749 47.6523 135.204 52.0996 135.204 55.7207C135.204 58.7441 135.749 60.9062 136.839 62.207C137.191 62.6465 137.384 63.0068 137.419 63.2881C137.419 63.5518 137.296 63.7979 137.05 64.0264C136.576 64.5186 136.048 64.791 135.468 64.8438ZM155.177 31.3047L154.439 31.252C153.402 31.0586 152.857 30.3994 152.804 29.2744V28.1934C152.804 26.8926 153.384 24.8008 154.545 21.918L154.808 21.1533C155.072 20.4678 155.617 20.1074 156.443 20.0723C156.812 20.0723 157.164 20.1514 157.498 20.3096C158.728 20.8369 159.361 21.4785 159.396 22.2344C159.396 23.043 158.482 25.7061 156.654 30.2236C156.32 30.9443 155.828 31.3047 155.177 31.3047ZM153.463 53.084H153.305C151.46 53.084 150.466 51.8359 150.326 49.3398C150.326 49.2871 150.326 49.2344 150.326 49.1816C150.255 48.0039 150.22 46.8701 150.22 45.7803C150.22 41.4033 150.651 37.3779 151.512 33.7041C151.741 32.6494 152.426 32.1221 153.569 32.1221C155.52 32.1221 156.496 32.8955 156.496 34.4424C156.496 34.8818 156.452 35.2773 156.364 35.6289C155.467 40.2168 154.914 44.8662 154.703 49.5771C154.703 49.9463 154.755 50.3066 154.861 50.6582C154.931 50.957 154.966 51.291 154.966 51.6602C154.966 51.9414 154.949 52.2314 154.914 52.5303C154.861 52.8291 154.378 53.0137 153.463 53.084ZM161.433 54.3232H161.143C160.668 54.3232 160.185 54.2354 159.693 54.0596C158.146 53.5146 157.355 52.5215 157.32 51.0801V49.6826C159.464 36.7979 161.477 30.3555 163.358 30.3555C164.061 30.3555 164.658 30.584 165.151 31.041C165.572 31.5332 165.81 32.1133 165.863 32.7812C165.863 33.0977 165.801 33.458 165.678 33.8623C164.641 38.2041 164.122 41.1309 164.122 42.6426C164.122 43.3457 164.228 43.7061 164.439 43.7236C165.036 43.6885 166.715 41.2451 169.475 36.3936C170.547 34.5127 171.681 32.6406 172.876 30.7773C173.597 29.7051 174.476 29.1426 175.513 29.0898C176.427 29.0898 177.165 29.3623 177.728 29.9072C178.15 30.3467 178.387 30.9268 178.44 31.6475C178.44 32.1221 178.422 32.5 178.387 32.7812C177.842 35.6641 177.57 37.5361 177.57 38.3975C177.57 38.7666 177.605 38.96 177.675 38.9775C177.886 38.9424 178.431 38.0986 179.31 36.4463C179.855 35.4268 180.488 34.3193 181.208 33.124C181.296 32.9834 181.375 32.8516 181.446 32.7285C183.168 29.9512 184.759 28.5625 186.218 28.5625C186.482 28.5625 186.71 28.5977 186.904 28.668C188.204 29.1777 188.855 30.0215 188.855 31.1992C188.855 32.3418 188.635 33.6953 188.196 35.2598C186.983 39.373 186.376 42.8096 186.376 45.5693C186.376 47.4678 186.587 48.8213 187.009 49.6299C187.238 49.9639 187.352 50.2627 187.352 50.5264C187.352 50.8076 187.15 51.1152 186.745 51.4492C186.482 51.6777 186.156 51.792 185.77 51.792C184.1 51.792 182.843 50.9043 181.999 49.1289C181.595 48.3379 181.393 47.1865 181.393 45.6748C181.393 45.2002 181.41 44.752 181.446 44.3301C181.498 43.9961 181.525 43.6885 181.525 43.4072C181.525 42.335 181.41 41.7988 181.182 41.7988C180.971 41.7988 180.628 42.1592 180.154 42.8799C179.503 43.8994 178.932 45.0859 178.44 46.4395C177.016 50.1133 175.355 51.9502 173.456 51.9502C173.087 51.9502 172.709 51.8975 172.322 51.792C170.723 51.2822 169.844 50.377 169.686 49.0762C169.686 47.248 169.923 44.9805 170.398 42.2734C169.308 43.3633 168.297 45.042 167.365 47.3096C165.467 51.8271 163.489 54.165 161.433 54.3232ZM197.114 45.5693C197.167 45.5166 197.255 45.4639 197.378 45.4111C198.503 45.0068 200.032 42.9941 201.966 39.373C202.985 37.4746 203.495 36.0684 203.495 35.1543C203.495 34.5566 203.31 34.249 202.941 34.2314C202.027 34.2314 200.428 36.376 198.142 40.665C196.842 43.1084 196.191 44.4883 196.191 44.8047C196.191 44.9277 196.209 45.0771 196.244 45.2529C196.244 45.4111 196.534 45.5166 197.114 45.5693ZM189.863 66.2939C187.771 66.2939 186.699 65.2744 186.646 63.2354L186.699 62.6816C187.648 51.6777 189.503 40.8232 192.262 30.1182C192.579 28.9053 193.221 28.2988 194.187 28.2988C194.469 28.2988 194.759 28.3516 195.057 28.457C196.218 28.791 196.798 29.4766 196.798 30.5137C196.798 31.041 196.613 31.8672 196.244 32.9922C195.857 34.1172 195.664 35.251 195.664 36.3936C195.664 36.6572 195.734 36.7979 195.875 36.8154C196.244 36.8154 197.325 35.5762 199.118 33.0977C200.436 31.1641 201.869 30.1709 203.416 30.1182C204.242 30.1182 205.077 30.3379 205.921 30.7773C207.204 31.4277 207.863 32.4912 207.898 33.9678C207.898 34.4951 207.846 35.0664 207.74 35.6816C207.107 39.8477 205.367 43.416 202.519 46.3867C201.377 47.5645 200.076 48.1533 198.617 48.1533C197.914 48.1533 197.228 48.0303 196.56 47.7842C196.262 47.6436 195.98 47.5732 195.717 47.5732L195.163 47.626C194.811 47.6963 193.968 50.4121 192.632 55.7734C192.016 58.3574 191.709 60.5371 191.709 62.3125L191.762 64.2109C191.762 64.6855 191.709 65.1514 191.603 65.6084C191.48 66.0654 190.9 66.2939 189.863 66.2939ZM224.832 50.2627C224.569 50.2627 224.314 50.2275 224.068 50.1572C221.238 49.2607 219.823 47.1338 219.823 43.7764C219.823 42.5986 219.691 42.0098 219.427 42.0098C219.374 42.0098 218.496 43.1084 216.79 45.3057C215.824 46.5361 214.883 47.6699 213.969 48.707C213.055 49.7441 212.141 50.2627 211.227 50.2627C210.524 50.2627 209.821 50.0693 209.118 49.6826C207.641 48.8389 206.903 47.5732 206.903 45.8857C206.903 45.4639 206.955 45.0156 207.061 44.541C207.993 40.041 210.155 35.541 213.547 31.041C214.954 29.2129 216.413 28.2988 217.924 28.2988C218.838 28.2988 219.682 28.5801 220.455 29.1426C221.211 29.7578 221.589 30.2852 221.589 30.7246C221.589 31.1465 221.519 31.4893 221.378 31.7529C221.009 32.5088 220.579 32.8867 220.086 32.8867C219.594 32.8867 219.199 32.7988 218.9 32.623C218.619 32.4473 218.364 32.333 218.135 32.2803C217.924 32.2803 217.634 32.5352 217.265 33.0449C215.718 35.1543 214.171 38.2832 212.624 42.4316C212.413 42.9766 212.308 43.3545 212.308 43.5654C212.308 43.7412 212.361 43.8379 212.466 43.8555C213.011 43.8555 214.558 42.2471 217.107 39.0303C220.359 34.9697 222.345 32.834 223.066 32.623C223.47 32.5 223.804 32.4385 224.068 32.4385C224.349 32.4385 224.586 32.4736 224.78 32.5439C225.782 33.0889 226.283 34.1172 226.283 35.6289C226.283 36.2793 226.195 36.9473 226.019 37.6328C225.369 40.2344 225.043 42.5371 225.043 44.541C225.043 46 225.351 47.4238 225.966 48.8125C226.107 49.1113 226.177 49.3486 226.177 49.5244C226.177 49.999 225.729 50.2451 224.832 50.2627ZM233.118 52.0557C230.798 52.0557 228.873 50.9395 227.344 48.707C226.693 47.7578 226.368 46.5537 226.368 45.0947C226.368 42.2822 227.326 38.7314 229.242 34.4424C230.385 31.8232 231.501 29.8457 232.591 28.5098C233.399 27.5078 234.48 27.0068 235.834 27.0068C238.418 27.0068 239.71 27.8154 239.71 29.4326C239.71 29.749 239.622 29.9775 239.446 30.1182C239.235 30.2939 238.673 30.5137 237.759 30.7773C236.563 31.1289 235.562 32.1396 234.753 33.8096C232.802 37.7646 231.826 41.9043 231.826 46.2285C231.826 47.3535 232.222 48.1621 233.013 48.6543C233.259 48.7949 233.496 48.8652 233.725 48.8652C234.533 48.8652 236.203 47.459 238.734 44.6465C239.086 44.2949 239.499 44.1191 239.974 44.1191H240.686C241.055 44.1191 241.248 44.3301 241.266 44.752C241.055 46.4395 240.466 47.9336 239.499 49.2344C238.058 51.1152 235.931 52.0557 233.118 52.0557ZM248.76 58.5947C248.479 58.5947 248.189 58.5156 247.89 58.3574C246.326 57.6895 245.297 56.6875 244.805 55.3516C243.944 53.0312 243.513 49.4102 243.513 44.4883C243.513 38.8281 244.269 31.9199 245.781 23.7637C245.798 23.6406 245.807 23.5264 245.807 23.4209C245.86 23.0869 245.886 22.8232 245.886 22.6299C245.886 22.2959 245.746 22.1289 245.464 22.1289C244.867 22.1289 244.199 22.2959 243.461 22.6299C242.511 23.0166 241.193 23.21 239.505 23.21C238.802 23.21 238.064 22.5596 237.291 21.2588C236.974 20.749 236.816 20.248 236.816 19.7559C236.816 18.8418 237.537 18.3057 238.978 18.1475L245.939 17.2246C246.765 17.1191 247.328 16.5566 247.627 15.5371L251.292 2.69629C251.661 1.29004 252.364 0.586914 253.401 0.586914C253.717 0.586914 254.095 0.657227 254.535 0.797852C255.941 1.36035 256.644 2.15137 256.644 3.1709C256.644 3.55762 256.547 3.99707 256.354 4.48926C255.669 6.2998 254.79 8.90137 253.717 12.2939C253.067 14.2979 252.742 15.4404 252.742 15.7217C252.777 16.3193 253.278 16.6182 254.245 16.6182L257.224 16.5654C257.927 16.5654 258.718 16.6182 259.597 16.7236C260.511 16.8467 261.557 17.2861 262.735 18.042C263.913 18.7979 264.528 19.6064 264.581 20.4678C264.581 20.8369 264.484 21.2148 264.291 21.6016C264.009 22.1289 263.649 22.3926 263.21 22.3926C262.788 22.3926 262.304 22.252 261.759 21.9707C260.81 21.4961 259.281 21.2588 257.171 21.2588C253.55 21.2588 251.608 21.5488 251.344 22.1289C251.186 22.4102 251.063 22.7705 250.975 23.21C249.305 30.6455 248.47 38.2832 248.47 46.123C248.47 48.918 248.637 51.2207 248.971 53.0312C249.182 54.2266 249.683 55.3955 250.474 56.5381C250.65 56.8018 250.738 57.0127 250.738 57.1709C250.738 57.3994 250.65 57.6367 250.474 57.8828C250.123 58.3047 249.551 58.542 248.76 58.5947ZM272.53 57.9883H270.711C268.707 57.9883 267.714 57.4346 267.731 56.3271C267.731 56.2744 267.749 56.0723 267.784 55.7207C267.784 55.4043 267.969 55.2285 268.338 55.1934C268.654 55.1934 268.953 55.2109 269.234 55.2461C269.515 55.3164 269.788 55.3516 270.052 55.3516C270.21 55.3516 270.465 55.334 270.816 55.2988C271.133 55.2988 271.493 55.0439 271.897 54.5342C275.677 49.8408 277.76 44.4971 278.146 38.5029C278.146 37.2549 277.918 36.6221 277.461 36.6045C276.863 36.6045 276.318 36.7715 275.826 37.1055C270.746 40.3926 268.065 44.708 267.784 50.0518C267.696 52.0732 266.87 53.084 265.305 53.084C263.952 53.084 263.266 51.3877 263.249 47.9951C263.249 47.5205 263.319 46.0439 263.46 43.5654C263.565 41.1221 264.233 36.5166 265.464 29.749C266.114 26.1279 266.694 22.4717 267.204 18.7803C267.397 17.1631 268.109 16.3545 269.34 16.3545C271.344 16.3545 272.407 17.1279 272.53 18.6748V19.7559C270.772 29.1074 269.893 34.3984 269.893 35.6289C269.893 36.2793 269.981 36.6045 270.157 36.6045C270.438 36.6045 270.966 36.3672 271.739 35.8926C273.936 34.5039 275.826 33.8096 277.408 33.8096C281.012 33.8096 282.822 35.6201 282.84 39.2412C282.84 45.5693 280.502 51.2646 275.826 56.3271C274.859 57.3643 273.761 57.918 272.53 57.9883ZM287.539 31.3047L286.801 31.252C285.764 31.0586 285.219 30.3994 285.166 29.2744V28.1934C285.166 26.8926 285.746 24.8008 286.907 21.918L287.17 21.1533C287.434 20.4678 287.979 20.1074 288.805 20.0723C289.174 20.0723 289.526 20.1514 289.86 20.3096C291.09 20.8369 291.723 21.4785 291.758 22.2344C291.758 23.043 290.844 25.7061 289.016 30.2236C288.682 30.9443 288.19 31.3047 287.539 31.3047ZM285.826 53.084H285.667C283.822 53.084 282.829 51.8359 282.688 49.3398C282.688 49.2871 282.688 49.2344 282.688 49.1816C282.618 48.0039 282.582 46.8701 282.582 45.7803C282.582 41.4033 283.013 37.3779 283.874 33.7041C284.103 32.6494 284.788 32.1221 285.931 32.1221C287.882 32.1221 288.858 32.8955 288.858 34.4424C288.858 34.8818 288.814 35.2773 288.726 35.6289C287.829 40.2168 287.276 44.8662 287.065 49.5771C287.065 49.9463 287.118 50.3066 287.223 50.6582C287.293 50.957 287.329 51.291 287.329 51.6602C287.329 51.9414 287.311 52.2314 287.276 52.5303C287.223 52.8291 286.74 53.0137 285.826 53.084ZM295.72 54.9561C292.978 54.9561 291.22 53.6465 290.446 51.0273C289.937 49.4453 289.682 47.5205 289.682 45.2529C289.682 41.4209 290.455 36.5957 292.002 30.7773L296.537 13.375C296.889 12.0215 297.627 11.3447 298.752 11.3447C299.068 11.3447 299.429 11.415 299.833 11.5557C300.694 11.8721 301.125 12.4609 301.125 13.3223C301.125 13.709 301.055 14.1836 300.914 14.7461C296.695 30.8477 294.586 41.79 294.586 47.5732C294.586 50.2627 295.078 51.6074 296.062 51.6074C297.293 51.6074 299.938 49.7178 303.999 45.9385C304.017 45.9385 304.025 45.9385 304.025 45.9385C304.043 45.9385 304.052 45.9209 304.052 45.8857C304.438 45.5342 304.852 45.3408 305.291 45.3057C305.555 45.3057 305.81 45.4111 306.056 45.6221C306.302 45.833 306.425 46.1055 306.425 46.4395C306.425 46.8086 306.302 47.2041 306.056 47.626C303.173 52.5127 299.728 54.9561 295.72 54.9561ZM310.044 54.9561C307.301 54.9561 305.544 53.6465 304.77 51.0273C304.26 49.4453 304.005 47.5205 304.005 45.2529C304.005 41.4209 304.779 36.5957 306.326 30.7773L310.861 13.375C311.212 12.0215 311.951 11.3447 313.076 11.3447C313.392 11.3447 313.753 11.415 314.157 11.5557C315.018 11.8721 315.449 12.4609 315.449 13.3223C315.449 13.709 315.379 14.1836 315.238 14.7461C311.019 30.8477 308.91 41.79 308.91 47.5732C308.91 50.2627 309.402 51.6074 310.386 51.6074C311.617 51.6074 314.262 49.7178 318.323 45.9385C318.34 45.9385 318.349 45.9385 318.349 45.9385C318.367 45.9385 318.376 45.9209 318.376 45.8857C318.762 45.5342 319.175 45.3408 319.615 45.3057C319.879 45.3057 320.133 45.4111 320.379 45.6221C320.626 45.833 320.749 46.1055 320.749 46.4395C320.749 46.8086 320.626 47.2041 320.379 47.626C317.497 52.5127 314.051 54.9561 310.044 54.9561ZM323.286 31.3047L322.548 31.252C321.511 31.0586 320.966 30.3994 320.913 29.2744V28.1934C320.913 26.8926 321.493 24.8008 322.654 21.918L322.917 21.1533C323.181 20.4678 323.726 20.1074 324.552 20.0723C324.921 20.0723 325.273 20.1514 325.607 20.3096C326.837 20.8369 327.47 21.4785 327.505 22.2344C327.505 23.043 326.591 25.7061 324.763 30.2236C324.429 30.9443 323.937 31.3047 323.286 31.3047ZM321.572 53.084H321.414C319.569 53.084 318.575 51.8359 318.435 49.3398C318.435 49.2871 318.435 49.2344 318.435 49.1816C318.364 48.0039 318.329 46.8701 318.329 45.7803C318.329 41.4033 318.76 37.3779 319.621 33.7041C319.85 32.6494 320.535 32.1221 321.678 32.1221C323.629 32.1221 324.605 32.8955 324.605 34.4424C324.605 34.8818 324.561 35.2773 324.473 35.6289C323.576 40.2168 323.023 44.8662 322.812 49.5771C322.812 49.9463 322.864 50.3066 322.97 50.6582C323.04 50.957 323.075 51.291 323.075 51.6602C323.075 51.9414 323.058 52.2314 323.023 52.5303C322.97 52.8291 322.487 53.0137 321.572 53.084ZM330.57 47.125C331.695 46.5273 332.662 45.376 333.471 43.6709C334.525 41.4561 335.053 39.2412 335.053 37.0264C335.053 35.6904 334.798 34.5391 334.288 33.5723C333.532 34.2227 332.811 35.4355 332.126 37.2109C330.93 40.3047 330.333 43.0381 330.333 45.4111C330.333 46.1143 330.412 46.6855 330.57 47.125ZM331.414 51.7393C330.605 51.7393 329.674 51.4492 328.619 50.8691C327.494 50.2715 326.606 49.1729 325.956 47.5732C325.604 46.6943 325.429 45.6836 325.429 44.541C325.429 42.8184 325.877 40.498 326.773 37.5801C327.687 34.6797 328.733 32.1748 329.911 30.0654C330.614 28.8174 331.59 28.1934 332.838 28.1934C334.824 28.1934 335.975 29.0898 336.292 30.8828C336.327 31.1465 336.573 31.5244 337.03 32.0166C338.542 33.458 339.298 35.585 339.298 38.3975C339.298 38.5557 339.28 39.3115 339.245 40.665C339.192 42.0537 338.621 43.9609 337.531 46.3867C336.459 48.8125 335.035 50.4473 333.26 51.291C332.627 51.5898 332.012 51.7393 331.414 51.7393ZM343.971 51.3965C343.479 51.3965 342.996 51.291 342.521 51.0801C340.587 50.2715 339.594 49.0674 339.541 47.4678C339.541 46.9756 339.577 46.5801 339.647 46.2812C339.84 45.4375 340.025 44.5938 340.201 43.75C341.044 40.0234 341.871 36.3145 342.679 32.623C342.96 31.2168 343.567 30.4961 344.498 30.4609C344.78 30.4609 345.087 30.5137 345.421 30.6191C346.88 31.0938 347.636 31.8672 347.689 32.9395C347.689 33.2559 347.601 33.7217 347.425 34.3369C346.669 36.71 346.291 38.3887 346.291 39.373C346.291 39.7422 346.362 39.9355 346.502 39.9531C346.661 39.9531 347.003 39.5928 347.531 38.8721C349.904 35.5322 352.083 32.6494 354.07 30.2236C355.072 28.9932 356.082 28.3516 357.102 28.2988C357.629 28.2988 358.148 28.4395 358.658 28.7207C359.835 29.4062 360.451 30.5225 360.503 32.0693C360.503 32.4561 360.442 32.8867 360.319 33.3613C358.666 40.1816 357.84 44.5938 357.84 46.5977C357.84 48.4258 357.972 49.4717 358.236 49.7354C358.306 49.9639 358.341 50.1572 358.341 50.3154C358.341 50.5967 358.192 50.8164 357.893 50.9746C357.612 51.1855 357.313 51.291 356.996 51.291C356.293 51.291 355.608 51.001 354.94 50.4209C353.569 49.2783 352.848 47.6963 352.778 45.6748C352.778 42.915 352.813 41.21 352.883 40.5596C352.901 40.3662 352.918 40.1816 352.936 40.0059C352.971 39.6191 352.989 39.3291 352.989 39.1357C352.989 38.9248 352.954 38.8193 352.883 38.8193C352.725 38.8193 350.747 42.2031 346.951 48.9707C346.037 50.5879 345.043 51.3965 343.971 51.3965ZM364.729 51.502C363.375 51.502 362.689 51.0537 362.672 50.1572C362.672 49.665 363.34 48.7861 364.676 47.5205C366.486 45.7627 367.392 44.4268 367.392 43.5127C367.392 43.3545 367.295 43.0645 367.102 42.6426C366.943 42.2559 365.994 41.9219 364.254 41.6406C361.371 41.2012 359.93 39.5752 359.93 36.7627C359.93 35.4092 360.36 33.3613 361.222 30.6191C362.681 25.8203 364.518 23.4209 366.732 23.4209C367.049 23.4209 367.374 23.4824 367.708 23.6055C369.185 24.0801 369.923 24.6162 369.923 25.2139C369.923 25.7588 369.65 26.374 369.105 27.0596C366.416 30.3818 365.071 33.8008 365.071 37.3164C365.124 38.5469 366.038 39.2676 367.813 39.4785C371.224 39.8477 372.955 40.8672 373.008 42.5371V44.0664C373.008 44.9805 372.138 46.3252 370.397 48.1006C368.411 50.1045 366.521 51.2383 364.729 51.502ZM388.946 51.6074C388.296 51.6074 387.628 51.4668 386.943 51.1855C385.114 50.4297 384.2 49.0234 384.2 46.9668C384.2 46.6504 384.218 46.3691 384.253 46.123C385.114 41.2188 386.319 36.4463 387.865 31.8057C388.358 30.3994 389.061 29.6787 389.975 29.6436C390.414 29.6436 390.827 29.7139 391.214 29.8545C392.339 30.2412 392.919 30.9443 392.954 31.9639C392.954 32.4033 392.884 32.8516 392.743 33.3086C390.581 39.7773 389.5 43.627 389.5 44.8574C389.5 45.0859 389.553 45.2002 389.658 45.2002C390.133 45.2002 392.673 40.9463 397.279 32.4385C398.052 30.9971 398.896 30.2764 399.81 30.2764C400.126 30.2764 400.487 30.3555 400.891 30.5137C401.963 30.9707 402.517 31.6475 402.552 32.5439C402.552 33.1943 402.429 33.8623 402.183 34.5479C401.919 35.251 401.541 37.0879 401.049 40.0586C400.803 41.6406 400.68 42.9766 400.68 44.0664C400.68 44.9805 400.768 45.5518 400.944 45.7803C401.436 45.7803 402.104 45.1914 402.947 44.0137C403.756 42.8184 404.6 41.21 405.479 39.1885C406.445 36.8682 406.929 34.7148 406.929 32.7285C406.929 30.7246 406.41 29.0811 405.373 27.7979C404.934 27.2002 404.714 26.7168 404.714 26.3477C404.714 26.084 404.846 25.8115 405.11 25.5303C405.356 25.249 405.637 25.1084 405.953 25.1084C406.34 25.1084 406.815 25.3369 407.377 25.7939C409.592 27.7451 410.761 30.0215 410.884 32.623L410.937 35.0488C410.937 36.5078 410.374 38.5381 409.249 41.1396C406.736 47.1865 404.178 50.21 401.576 50.21C400.996 50.21 400.478 50.1396 400.021 49.999C397.366 49.1904 395.995 47.7139 395.907 45.5693C395.907 45.0771 395.925 44.752 395.96 44.5938V44.2773L395.907 44.2246C395.855 44.2246 394.545 46.0264 391.979 49.6299C391.047 50.9131 390.036 51.5723 388.946 51.6074ZM415.478 47.125C416.603 46.5273 417.57 45.376 418.379 43.6709C419.433 41.4561 419.961 39.2412 419.961 37.0264C419.961 35.6904 419.706 34.5391 419.196 33.5723C418.44 34.2227 417.72 35.4355 417.034 37.2109C415.839 40.3047 415.241 43.0381 415.241 45.4111C415.241 46.1143 415.32 46.6855 415.478 47.125ZM416.322 51.7393C415.513 51.7393 414.582 51.4492 413.527 50.8691C412.402 50.2715 411.514 49.1729 410.864 47.5732C410.513 46.6943 410.337 45.6836 410.337 44.541C410.337 42.8184 410.785 40.498 411.681 37.5801C412.596 34.6797 413.641 32.1748 414.819 30.0654C415.522 28.8174 416.498 28.1934 417.746 28.1934C419.732 28.1934 420.884 29.0898 421.2 30.8828C421.235 31.1465 421.481 31.5244 421.938 32.0166C423.45 33.458 424.206 35.585 424.206 38.3975C424.206 38.5557 424.188 39.3115 424.153 40.665C424.1 42.0537 423.529 43.9609 422.439 46.3867C421.367 48.8125 419.943 50.4473 418.168 51.291C417.535 51.5898 416.92 51.7393 416.322 51.7393ZM427.746 51.6074C426.726 51.6074 425.829 51.2734 425.056 50.6055C424.652 50.2188 424.45 49.6738 424.45 48.9707C425.276 41.6406 426.067 35.5762 426.823 30.7773C426.981 29.7754 427.526 29.2744 428.457 29.2744C430.672 29.2744 431.762 30.2588 431.727 32.2275C431.727 32.6143 431.639 33.1064 431.463 33.7041C431.252 34.4775 431.147 35.1543 431.147 35.7344C431.147 36.2793 431.217 36.5518 431.358 36.5518C431.463 36.5518 431.586 36.4111 431.727 36.1299C432.536 34.3896 434.012 33.0537 436.157 32.1221C436.825 31.8057 437.51 31.6475 438.213 31.6475C438.811 31.6475 439.321 31.9727 439.743 32.623C439.954 32.9219 440.059 33.2031 440.059 33.4668C440.059 33.9062 439.646 34.3193 438.82 34.7061C438.609 34.8291 438.424 34.9434 438.266 35.0488C434.012 38.3184 431.208 42.9941 429.855 49.0762C429.468 50.7637 428.765 51.6074 427.746 51.6074ZM443.388 54.9561C440.646 54.9561 438.888 53.6465 438.114 51.0273C437.604 49.4453 437.35 47.5205 437.35 45.2529C437.35 41.4209 438.123 36.5957 439.67 30.7773L444.205 13.375C444.557 12.0215 445.295 11.3447 446.42 11.3447C446.736 11.3447 447.097 11.415 447.501 11.5557C448.362 11.8721 448.793 12.4609 448.793 13.3223C448.793 13.709 448.723 14.1836 448.582 14.7461C444.363 30.8477 442.254 41.79 442.254 47.5732C442.254 50.2627 442.746 51.6074 443.73 51.6074C444.961 51.6074 447.606 49.7178 451.667 45.9385C451.685 45.9385 451.693 45.9385 451.693 45.9385C451.711 45.9385 451.72 45.9209 451.72 45.8857C452.106 45.5342 452.52 45.3408 452.959 45.3057C453.223 45.3057 453.478 45.4111 453.724 45.6221C453.97 45.833 454.093 46.1055 454.093 46.4395C454.093 46.8086 453.97 47.2041 453.724 47.626C450.841 52.5127 447.396 54.9561 443.388 54.9561ZM456.63 49.8936C456.964 49.8936 457.527 48.6719 458.318 46.2285C459.109 43.7852 460.331 40.3838 461.983 36.0244C463.6 31.7002 464.409 29.0547 464.409 28.0879C464.409 27.6484 464.303 27.4287 464.092 27.4287C463.829 27.4287 463.416 27.7363 462.853 28.3516C458.388 33.291 456.156 39.8389 456.156 47.9951V49.2344C456.156 49.6738 456.314 49.8936 456.63 49.8936ZM471.317 65.5029H471.212C469.876 65.5029 468.601 63.8418 467.388 60.5195C466.228 57.373 465.648 53.1807 465.648 47.9424C465.648 41.6846 465.745 37.8525 465.938 36.4463C465.938 36.2354 465.903 36.1299 465.833 36.1299C465.71 36.1299 465.455 36.7012 465.068 37.8438C464.611 39.25 464.189 40.5508 463.802 41.7461C462.343 46.2812 461.377 49.1904 460.902 50.4736C459.777 53.6553 458.371 55.2461 456.683 55.2461C454.257 55.2461 452.728 53.9453 452.095 51.3438C451.744 49.8848 451.568 48.2676 451.568 46.4922C451.568 39.6367 453.651 33.0625 457.817 26.7695C459.047 24.9414 460.709 24.0098 462.8 23.9746C464.857 23.9746 466.184 23.2891 466.782 21.918C467.379 20.5645 468.03 18.7275 468.733 16.4072L471.159 8.25977C471.651 6.69531 472.301 5.88672 473.11 5.83398C473.602 5.83398 473.998 5.86914 474.296 5.93945C475.755 6.30859 476.511 7.01172 476.564 8.04883C476.564 8.80469 476.256 10.2461 475.641 12.373C474.165 17.2949 473.013 21.4346 472.187 24.792C470.711 30.6455 469.972 37.5713 469.972 45.5693C469.972 45.9561 469.99 48.3467 470.025 52.7412C470.025 57.1709 470.93 60.7568 472.741 63.499C473.163 63.7627 473.374 64.1406 473.374 64.6328C473.374 65.1777 472.688 65.4678 471.317 65.5029ZM477.177 51.6074C476.527 51.6074 475.859 51.4668 475.173 51.1855C473.345 50.4297 472.431 49.0234 472.431 46.9668C472.431 46.6504 472.448 46.3691 472.484 46.123C473.345 41.2188 474.549 36.4463 476.096 31.8057C476.588 30.3994 477.291 29.6787 478.205 29.6436C478.645 29.6436 479.058 29.7139 479.445 29.8545C480.57 30.2412 481.15 30.9443 481.185 31.9639C481.185 32.4033 481.114 32.8516 480.974 33.3086C478.812 39.7773 477.731 43.627 477.731 44.8574C477.731 45.0859 477.783 45.2002 477.889 45.2002C478.363 45.2002 480.904 40.9463 485.509 32.4385C486.282 30.9971 487.126 30.2764 488.04 30.2764C488.357 30.2764 488.717 30.3555 489.121 30.5137C490.194 30.9707 490.747 31.6475 490.782 32.5439C490.782 33.1943 490.659 33.8623 490.413 34.5479C490.15 35.251 489.772 37.0879 489.279 40.0586C489.033 41.6406 488.91 42.9766 488.91 44.0664C488.91 44.9805 488.998 45.5518 489.174 45.7803C489.666 45.7803 490.334 45.1914 491.178 44.0137C491.987 42.8184 492.83 41.21 493.709 39.1885C494.676 36.8682 495.159 34.7148 495.159 32.7285C495.159 30.7246 494.641 29.0811 493.604 27.7979C493.164 27.2002 492.945 26.7168 492.945 26.3477C492.945 26.084 493.076 25.8115 493.34 25.5303C493.586 25.249 493.867 25.1084 494.184 25.1084C494.57 25.1084 495.045 25.3369 495.608 25.7939C497.822 27.7451 498.991 30.0215 499.114 32.623L499.167 35.0488C499.167 36.5078 498.605 38.5381 497.48 41.1396C494.966 47.1865 492.408 50.21 489.807 50.21C489.227 50.21 488.708 50.1396 488.251 49.999C485.597 49.1904 484.226 47.7139 484.138 45.5693C484.138 45.0771 484.155 44.752 484.191 44.5938V44.2773L484.138 44.2246C484.085 44.2246 482.776 46.0264 480.209 49.6299C479.278 50.9131 478.267 51.5723 477.177 51.6074ZM503.524 31.3047L502.786 31.252C501.749 31.0586 501.204 30.3994 501.151 29.2744V28.1934C501.151 26.8926 501.731 24.8008 502.891 21.918L503.155 21.1533C503.419 20.4678 503.964 20.1074 504.79 20.0723C505.159 20.0723 505.511 20.1514 505.845 20.3096C507.075 20.8369 507.708 21.4785 507.743 22.2344C507.743 23.043 506.829 25.7061 505.001 30.2236C504.667 30.9443 504.175 31.3047 503.524 31.3047ZM501.81 53.084H501.652C499.806 53.084 498.813 51.8359 498.673 49.3398C498.673 49.2871 498.673 49.2344 498.673 49.1816C498.602 48.0039 498.567 46.8701 498.567 45.7803C498.567 41.4033 498.998 37.3779 499.859 33.7041C500.088 32.6494 500.773 32.1221 501.916 32.1221C503.867 32.1221 504.843 32.8955 504.843 34.4424C504.843 34.8818 504.799 35.2773 504.711 35.6289C503.814 40.2168 503.261 44.8662 503.05 49.5771C503.05 49.9463 503.102 50.3066 503.208 50.6582C503.278 50.957 503.313 51.291 503.313 51.6602C503.313 51.9414 503.296 52.2314 503.261 52.5303C503.208 52.8291 502.724 53.0137 501.81 53.084ZM510.623 49.8936C510.957 49.8936 511.52 48.6719 512.311 46.2285C513.102 43.7852 514.324 40.3838 515.976 36.0244C517.593 31.7002 518.402 29.0547 518.402 28.0879C518.402 27.6484 518.296 27.4287 518.085 27.4287C517.822 27.4287 517.409 27.7363 516.846 28.3516C512.381 33.291 510.149 39.8389 510.149 47.9951V49.2344C510.149 49.6738 510.307 49.8936 510.623 49.8936ZM525.31 65.5029H525.204C523.869 65.5029 522.594 63.8418 521.381 60.5195C520.221 57.373 519.641 53.1807 519.641 47.9424C519.641 41.6846 519.738 37.8525 519.931 36.4463C519.931 36.2354 519.896 36.1299 519.826 36.1299C519.703 36.1299 519.448 36.7012 519.061 37.8438C518.604 39.25 518.182 40.5508 517.795 41.7461C516.336 46.2812 515.37 49.1904 514.895 50.4736C513.77 53.6553 512.364 55.2461 510.676 55.2461C508.25 55.2461 506.721 53.9453 506.088 51.3438C505.737 49.8848 505.561 48.2676 505.561 46.4922C505.561 39.6367 507.644 33.0625 511.81 26.7695C513.04 24.9414 514.702 24.0098 516.793 23.9746C518.85 23.9746 520.177 23.2891 520.775 21.918C521.372 20.5645 522.023 18.7275 522.726 16.4072L525.152 8.25977C525.644 6.69531 526.294 5.88672 527.103 5.83398C527.595 5.83398 527.991 5.86914 528.289 5.93945C529.748 6.30859 530.504 7.01172 530.557 8.04883C530.557 8.80469 530.249 10.2461 529.634 12.373C528.158 17.2949 527.006 21.4346 526.18 24.792C524.704 30.6455 523.965 37.5713 523.965 45.5693C523.965 45.9561 523.983 48.3467 524.018 52.7412C524.018 57.1709 524.923 60.7568 526.734 63.499C527.156 63.7627 527.367 64.1406 527.367 64.6328C527.367 65.1777 526.681 65.4678 525.31 65.5029ZM531.935 40.6123C532.866 39.9619 533.763 38.8281 534.624 37.2109C535.925 34.8379 536.575 33.3613 536.575 32.7812C536.575 32.5 536.399 32.3506 536.048 32.333C535.767 32.333 535.564 32.4297 535.441 32.623C532.734 37.2109 531.381 39.6895 531.381 40.0586C531.381 40.3398 531.565 40.5244 531.935 40.6123ZM533.991 51.9502C528.524 51.9502 525.782 49.4102 525.765 44.3301C525.765 43.8379 525.879 42.7744 526.107 41.1396C526.266 39.4697 527.021 37.3076 528.375 34.6533C530.766 29.9072 533.341 27.5342 536.101 27.5342C538.315 27.5342 540.003 28.6504 541.163 30.8828C541.532 31.5684 541.717 32.2891 541.717 33.0449C541.717 33.959 541.444 34.9346 540.899 35.9717C537.823 40.542 534.905 43.4688 532.146 44.752C531.179 45.2441 530.695 45.7363 530.695 46.2285C530.695 46.4395 530.73 46.6504 530.801 46.8613C531.117 48.0215 531.768 48.6016 532.752 48.6016C534.211 48.6016 536.136 47.7139 538.526 45.9385C540.091 44.7959 541.225 43.917 541.928 43.3018C542.807 42.4404 543.492 42.0098 543.984 42.0098C544.248 42.0098 544.494 42.0977 544.723 42.2734C545.127 42.6426 545.329 43.0908 545.329 43.6182C545.329 44.2158 544.969 45.0684 544.248 46.1758C543.492 47.3008 542.288 48.4873 540.636 49.7354C538.948 50.9658 537.437 51.6689 536.101 51.8447C536.048 51.8447 535.986 51.8447 535.916 51.8447C535.23 51.915 534.589 51.9502 533.991 51.9502ZM546.628 53.084C544.589 53.0312 543.569 51.9502 543.569 49.8408C543.569 47.6787 544.518 46.5977 546.417 46.5977C547.331 46.5977 548.139 46.7734 548.842 47.125C549.387 47.3711 549.66 47.793 549.66 48.3906C549.642 48.4609 549.625 48.5488 549.607 48.6543C549.554 48.9531 549.502 49.3311 549.449 49.7881C549.343 50.5791 549.124 51.3174 548.79 52.0029C548.438 52.7236 547.717 53.084 546.628 53.084Z" fill="white"/>
</svg>
