<svg width="675" height="72" viewBox="0 0 675 72" fill="none" xmlns="http://www.w3.org/2000/svg">
<path d="M5.10938 54.7988H4.34473C2.12988 54.6406 0.996094 53.5068 0.837891 51.3447C0.837891 47.126 1.25977 42.2744 2.07715 36.7637C2.68359 32.7822 3.81738 26.0322 5.53125 16.5664C5.68945 15.1689 6.2959 14.4043 7.27148 14.3516C9.09082 14.3516 10.0664 15.0635 10.1719 16.4609C10.1719 16.8564 10.1191 17.2256 10.0664 17.4893C7.42969 32.334 6.08496 40.165 6.08496 40.877C6.08496 41.5889 6.24316 41.9053 6.50684 41.9053C6.82324 41.9053 7.37695 40.7188 8.1416 38.3984C8.82715 36.0781 10.1719 32.835 12.1758 28.6689C14.6016 23.6064 16.7109 21.0488 18.5039 21.0488C20.165 21.207 21.0352 21.8135 21.0352 22.9473V23.8701C20.877 28.0098 20.8242 30.9893 20.8242 32.7822C20.8242 36.0254 20.9297 38.9258 21.0879 41.457C21.4043 46.6514 22.0107 49.2354 22.9336 49.2354C23.0918 49.2354 23.25 49.1826 23.5137 49.0771C23.7773 48.9717 24.4365 47.7324 25.5703 45.4121C26.6514 43.0918 27.7852 39.9014 28.9717 35.7881C30.6592 29.9609 31.5029 24.7402 31.5029 20.0205C31.3447 16.3027 30.8701 13.6133 29.9473 12.0312C29.7891 11.7148 29.6836 11.3984 29.6836 11.0029C29.6836 10.7393 29.7891 10.5283 30 10.2646C30.2109 9.97461 30.5273 9.86914 30.9229 9.86914C31.292 9.86914 31.7402 10.0273 32.2148 10.3701C34.0605 11.6094 35.1416 13.0596 35.5107 14.7998C35.7744 15.8281 35.8799 16.9619 35.8799 18.0957C35.8799 20.2578 35.5107 23.4746 34.7461 27.7988C34.166 31.3584 33.2959 35.1025 32.1621 39.0312C29.6309 48.0488 26.7568 52.5312 23.6191 52.5312H21.2461C19.6377 52.4785 18.3984 51.1865 17.4756 48.6025C16.2363 44.5947 15.5771 40.376 15.5771 35.8936C15.5771 35.208 15.5771 34.5488 15.6299 33.9688C15.6826 33.3623 15.6826 32.9404 15.6826 32.6768C15.6826 32.1758 15.5771 31.9121 15.4189 31.9121L15.0498 32.0703C14.707 32.334 12.3867 38.873 8.1416 51.6611C7.74609 53.665 6.77051 54.6934 5.10938 54.7988ZM53.2623 53.7705H52.8668C49.4654 53.7705 47.8043 50.1582 47.8043 42.8809V35.5244C47.8043 34.9971 47.6988 34.707 47.4615 34.707C47.3033 34.707 47.0396 34.9971 46.6705 35.5244C43.691 40.2705 41.5816 45.4121 40.3424 50.9229C40.0787 52.3203 39.3141 53.085 38.1275 53.1377C35.7545 53.1377 34.568 52.2148 34.568 50.3691L34.6207 49.6309C35.3854 45.1484 36.0709 40.666 36.7828 36.1836C37.4947 31.7012 37.8111 29.3809 37.8639 29.2227C38.4439 23.9229 39.2086 18.6758 40.1314 13.4551C40.4479 11.4512 41.2652 10.4229 42.5045 10.4229C44.6139 10.4756 45.6422 11.3457 45.6422 13.1123C45.6422 13.6133 45.5895 14.0352 45.484 14.457C45.0885 15.5908 44.5084 18.834 43.691 24.0811C43.1109 27.9043 42.7682 30.5674 42.7682 31.9648C42.7682 32.4922 42.8209 32.835 42.8736 32.8877C42.9791 32.8877 43.4273 32.3867 44.192 31.4902C45.8004 29.3809 47.4615 28.3525 49.2545 28.3525C52.1812 28.3525 53.6314 29.75 53.6314 32.4922C53.6314 32.9404 53.5787 33.415 53.526 33.916C53.2096 36.2891 53.025 38.6094 53.025 40.9297C53.025 45.4648 53.526 48.8662 54.5543 51.1338C54.607 51.292 54.7125 51.4502 54.818 51.6084C54.9762 51.9512 55.0816 52.2676 55.1344 52.584C55.1344 52.7949 55.0816 52.9795 54.9234 53.1377C54.5543 53.5068 53.9479 53.7178 53.2623 53.7705ZM71.3039 50.2637C71.0402 50.2637 70.7766 50.2109 70.5393 50.1582C67.6916 49.2354 66.2941 47.126 66.2941 43.7773C66.2941 42.5908 66.1887 42.0107 65.8986 42.0107C65.8459 42.0107 64.9758 43.0918 63.2619 45.3066C62.2863 46.5459 61.3635 47.6797 60.4406 48.708C59.5441 49.7363 58.6213 50.2637 57.6984 50.2637C56.9865 50.2637 56.301 50.0527 55.5891 49.6836C54.1389 48.8662 53.3742 47.5742 53.3742 45.8867C53.3742 45.4648 53.427 45.043 53.5324 44.542C54.4553 40.0596 56.6174 35.5244 60.0187 31.042C61.4162 29.2227 62.8928 28.2998 64.3957 28.2998C65.3186 28.2998 66.1887 28.5635 66.927 29.1436C67.6916 29.75 68.0607 30.2773 68.0607 30.7256C68.0607 31.1475 68.008 31.4902 67.8498 31.7539C67.4807 32.4922 67.0324 32.8877 66.5578 32.8877C66.0568 32.8877 65.635 32.7822 65.3713 32.624C65.1076 32.4395 64.8176 32.334 64.6066 32.2812C64.3957 32.2812 64.132 32.5449 63.7365 33.0459C62.1809 35.1553 60.6779 38.293 59.0959 42.4326C58.885 42.9863 58.7795 43.3555 58.7795 43.5664C58.7795 43.7246 58.8322 43.8564 58.9377 43.8564C59.4914 43.8564 61.0471 42.2217 63.5783 39.0312C66.8215 34.9971 68.8254 32.835 69.5373 32.624C69.9064 32.4922 70.2756 32.4395 70.5393 32.4395C70.8293 32.4395 71.093 32.4922 71.2512 32.5449C72.2795 33.0986 72.7541 34.127 72.7541 35.6299C72.7541 36.2891 72.6486 36.9219 72.4904 37.6338C71.8576 40.2705 71.5148 42.5381 71.5148 44.542C71.5148 45.9922 71.8576 47.4688 72.4377 48.8135C72.5959 49.0771 72.6486 49.3408 72.6486 49.5254C72.6486 50 72.2268 50.2637 71.3039 50.2637ZM81.1189 58.5957C80.8289 58.5957 80.5125 58.543 80.2488 58.3584C78.6668 57.6729 77.6648 56.6973 77.1639 55.3525C76.2937 53.0322 75.8719 49.3936 75.8719 44.4893C75.8719 38.8203 76.6365 31.9121 78.1395 23.7646C78.1922 23.2637 78.2449 22.8945 78.2449 22.6309C78.2449 22.2881 78.0867 22.1299 77.823 22.1299C77.2166 22.1299 76.5838 22.2881 75.8191 22.6309C74.8436 23 73.5516 23.2109 71.8641 23.2109C71.1785 23.2109 70.4666 22.5781 69.6492 21.2598C69.3328 20.7324 69.1746 20.2578 69.1746 19.7568C69.1746 18.834 69.8865 18.3066 71.3367 18.1484L78.2977 17.2256C79.115 17.1201 79.6951 16.5664 79.9852 15.5381L83.6502 2.69727C84.0193 1.2998 84.7312 0.587891 85.7596 0.587891C86.076 0.587891 86.4451 0.640625 86.8934 0.798828C88.2908 1.35254 89.0027 2.14355 89.0027 3.17188C89.0027 3.56738 88.8709 3.98926 88.7127 4.49023C88.0271 6.30957 87.157 8.89355 86.076 12.2949C85.4168 14.2988 85.1004 15.4326 85.1004 15.7227C85.1531 16.3027 85.6541 16.6191 86.6033 16.6191L89.5828 16.5664C90.2947 16.5664 91.033 16.6191 91.9559 16.7246C92.8787 16.8564 93.907 17.2783 95.0936 18.043C96.2801 18.7812 96.8865 19.5986 96.9393 20.4688C96.9393 20.8379 96.8338 21.207 96.6492 21.6025C96.3855 22.1299 96.0164 22.3936 95.5682 22.3936C95.1463 22.3936 94.6717 22.2354 94.118 21.9717C93.1951 21.4971 91.6395 21.2598 89.5301 21.2598C85.9178 21.2598 83.9666 21.5498 83.7029 22.1299C83.5447 22.3936 83.4393 22.7891 83.3338 23.2109C81.6463 30.6729 80.8289 38.293 80.8289 46.124C80.8289 48.9189 80.9871 51.2393 81.3299 53.0322C81.5408 54.2188 82.0154 55.4053 82.8328 56.5391C82.991 56.8027 83.0965 57.0137 83.0965 57.1719C83.0965 57.4092 82.991 57.6201 82.8328 57.8838C82.4637 58.3057 81.91 58.543 81.1189 58.5957ZM100.564 50.2637L99.4834 50.2109C96.9521 49.7363 95.6602 48.1543 95.6074 45.623V42.8809C95.6074 40.4551 95.9238 37.4756 96.6357 33.9688C96.7939 33.1514 96.9521 32.2812 97.0049 31.4902C97.1104 30.5146 97.3477 29.6973 97.7168 28.9854C98.0332 28.3525 98.6924 28.0098 99.668 28.0098C101.54 28.0098 102.516 28.7744 102.516 30.2773L102.463 30.6729C101.593 34.8916 101.171 37.9502 101.171 39.9541C101.171 40.5078 101.224 40.7715 101.382 40.7715C101.54 40.7715 101.883 40.3232 102.252 39.5322C104.309 35.1553 105.812 32.0703 106.84 30.1719C107.367 29.1436 108.079 28.6689 109.002 28.6689C109.582 28.6689 110.188 28.8271 110.663 29.0908C111.428 29.4863 111.797 30.0137 111.797 30.6201C111.797 31.2002 110.452 34.2852 107.71 39.8486C104.783 45.6758 103.069 48.8662 102.516 49.3936C101.988 50 101.329 50.2637 100.564 50.2637ZM125.699 50.2637C125.435 50.2637 125.171 50.2109 124.934 50.1582C122.087 49.2354 120.689 47.126 120.689 43.7773C120.689 42.5908 120.584 42.0107 120.294 42.0107C120.241 42.0107 119.371 43.0918 117.657 45.3066C116.681 46.5459 115.758 47.6797 114.836 48.708C113.939 49.7363 113.016 50.2637 112.093 50.2637C111.381 50.2637 110.696 50.0527 109.984 49.6836C108.534 48.8662 107.769 47.5742 107.769 45.8867C107.769 45.4648 107.822 45.043 107.927 44.542C108.85 40.0596 111.012 35.5244 114.414 31.042C115.811 29.2227 117.288 28.2998 118.791 28.2998C119.713 28.2998 120.584 28.5635 121.322 29.1436C122.087 29.75 122.456 30.2773 122.456 30.7256C122.456 31.1475 122.403 31.4902 122.245 31.7539C121.876 32.4922 121.427 32.8877 120.953 32.8877C120.452 32.8877 120.03 32.7822 119.766 32.624C119.503 32.4395 119.213 32.334 119.002 32.2812C118.791 32.2812 118.527 32.5449 118.131 33.0459C116.576 35.1553 115.073 38.293 113.491 42.4326C113.28 42.9863 113.174 43.3555 113.174 43.5664C113.174 43.7246 113.227 43.8564 113.333 43.8564C113.886 43.8564 115.442 42.2217 117.973 39.0312C121.216 34.9971 123.22 32.835 123.932 32.624C124.301 32.4922 124.671 32.4395 124.934 32.4395C125.224 32.4395 125.488 32.4922 125.646 32.5449C126.674 33.0986 127.149 34.127 127.149 35.6299C127.149 36.2891 127.044 36.9219 126.885 37.6338C126.253 40.2705 125.91 42.5381 125.91 44.542C125.91 45.9922 126.253 47.4688 126.833 48.8135C126.991 49.0771 127.044 49.3408 127.044 49.5254C127.044 50 126.622 50.2637 125.699 50.2637ZM134.143 54.957C131.401 54.957 129.66 53.665 128.869 51.0283C128.368 49.4727 128.105 47.5215 128.105 45.2539C128.105 41.4043 128.869 36.6055 130.425 30.7783L134.96 13.376C135.329 12.0312 136.041 11.3457 137.175 11.3457C137.491 11.3457 137.887 11.3984 138.256 11.5566C139.126 11.873 139.548 12.4795 139.548 13.3232C139.548 13.7188 139.495 14.1934 139.337 14.7471C135.118 30.8838 133.009 41.7998 133.009 47.5742C133.009 50.2637 133.51 51.6084 134.486 51.6084C135.725 51.6084 138.362 49.7363 142.422 45.9395C142.475 45.9395 142.475 45.9395 142.475 45.8867C142.844 45.5176 143.266 45.3594 143.714 45.3066C143.978 45.3066 144.189 45.4121 144.479 45.623C144.742 45.834 144.848 46.124 144.848 46.4404C144.848 46.8096 144.742 47.2051 144.479 47.627C141.605 52.5312 138.151 54.957 134.143 54.957ZM158.908 53.0322H158.143C157.115 53.0322 156.298 52.7949 155.77 52.4258C154.847 51.7402 154.32 50.3164 154.267 48.1016C154.188 47.5215 154.136 47.0732 153.977 46.8096C152.633 48.3389 151.868 49.2354 151.604 49.5781C150.576 50.7646 149.337 51.3975 147.992 51.4502L146.805 51.5029C145.988 51.5029 145.065 51.1338 144.037 50.3164C142.956 49.5254 142.429 48.3916 142.429 46.915C142.429 45.7285 142.639 43.6719 143.035 40.7715C143.404 37.8447 144.09 35.1553 145.118 32.7295C145.935 30.6201 147.016 29.5391 148.361 29.4863C149.89 29.75 150.629 30.4092 150.681 31.4902C150.681 31.8594 150.629 32.2285 150.576 32.4922C150.26 33.626 149.785 35.6299 149.073 38.5039C148.15 42.1162 147.728 44.542 147.728 45.6758C147.728 46.124 147.781 46.335 147.939 46.335C148.651 46.2822 150.418 44.0146 153.186 39.5322C155.507 35.6826 157.168 32.835 158.091 30.8311C158.565 29.75 159.383 29.2227 160.411 29.1436C160.886 29.1436 161.387 29.2754 161.861 29.4863C162.995 29.9082 163.549 30.6201 163.601 31.5957C163.601 32.0703 163.549 32.4922 163.39 32.9404C160.938 39.9014 159.752 45.1484 159.752 48.708C159.752 49.6309 159.884 50.3164 160.042 50.8174C160.2 51.292 160.253 51.6611 160.253 52.0566V52.4785C160.2 52.7422 159.752 52.9268 158.908 53.0322ZM178.901 50.2637C178.637 50.2637 178.373 50.2109 178.136 50.1582C175.288 49.2354 173.891 47.126 173.891 43.7773C173.891 42.5908 173.786 42.0107 173.496 42.0107C173.443 42.0107 172.573 43.0918 170.859 45.3066C169.883 46.5459 168.96 47.6797 168.038 48.708C167.141 49.7363 166.218 50.2637 165.295 50.2637C164.583 50.2637 163.898 50.0527 163.186 49.6836C161.736 48.8662 160.971 47.5742 160.971 45.8867C160.971 45.4648 161.024 45.043 161.129 44.542C162.052 40.0596 164.214 35.5244 167.616 31.042C169.013 29.2227 170.49 28.2998 171.993 28.2998C172.915 28.2998 173.786 28.5635 174.524 29.1436C175.288 29.75 175.658 30.2773 175.658 30.7256C175.658 31.1475 175.605 31.4902 175.447 31.7539C175.078 32.4922 174.629 32.8877 174.155 32.8877C173.654 32.8877 173.232 32.7822 172.968 32.624C172.704 32.4395 172.414 32.334 172.204 32.2812C171.993 32.2812 171.729 32.5449 171.333 33.0459C169.778 35.1553 168.275 38.293 166.693 42.4326C166.482 42.9863 166.376 43.3555 166.376 43.5664C166.376 43.7246 166.429 43.8564 166.535 43.8564C167.088 43.8564 168.644 42.2217 171.175 39.0312C174.418 34.9971 176.422 32.835 177.134 32.624C177.503 32.4922 177.872 32.4395 178.136 32.4395C178.426 32.4395 178.69 32.4922 178.848 32.5449C179.876 33.0986 180.351 34.127 180.351 35.6299C180.351 36.2891 180.246 36.9219 180.087 37.6338C179.454 40.2705 179.112 42.5381 179.112 44.542C179.112 45.9922 179.454 47.4688 180.035 48.8135C180.193 49.0771 180.246 49.3408 180.246 49.5254C180.246 50 179.824 50.2637 178.901 50.2637ZM190.588 57.9893H188.769C186.765 57.9893 185.789 57.4619 185.789 56.3281C185.789 56.2754 185.789 56.0381 185.842 55.7217C185.842 55.4053 186 55.2471 186.396 55.1943C186.712 55.1943 187.028 55.1943 187.292 55.2471C187.582 55.2998 187.846 55.3525 188.109 55.3525C188.268 55.3525 188.479 55.3525 188.874 55.2998C189.19 55.2998 189.56 55.0098 189.955 54.5352C193.726 49.8418 195.835 44.4893 196.204 38.5039C196.204 37.2646 195.993 36.6055 195.519 36.6055C194.912 36.6055 194.385 36.7637 193.884 37.1064C188.821 40.376 186.105 44.7002 185.842 50.0527C185.736 52.0566 184.919 53.085 183.363 53.085C182.019 53.085 181.307 51.3975 181.307 47.9961C181.307 47.5215 181.359 46.0449 181.518 43.5664C181.623 41.1406 182.282 36.5 183.521 29.75C184.181 26.1377 184.761 22.4727 185.262 18.7812C185.473 17.1729 186.158 16.3555 187.397 16.3555C189.401 16.3555 190.482 17.1201 190.588 18.6758V19.7568C188.821 29.0908 187.951 34.3906 187.951 35.6299C187.951 36.2891 188.057 36.6055 188.215 36.6055C188.479 36.6055 189.032 36.3945 189.797 35.8936C192.012 34.4961 193.884 33.8105 195.466 33.8105C199.078 33.8105 200.897 35.6299 200.897 39.2422C200.897 45.5703 198.577 51.292 193.884 56.3281C192.908 57.3564 191.827 57.9365 190.588 57.9893ZM206.678 54.957C203.936 54.957 202.196 53.665 201.405 51.0283C200.904 49.4727 200.64 47.5215 200.64 45.2539C200.64 41.4043 201.405 36.6055 202.961 30.7783L207.496 13.376C207.865 12.0312 208.577 11.3457 209.711 11.3457C210.027 11.3457 210.422 11.3984 210.792 11.5566C211.662 11.873 212.084 12.4795 212.084 13.3232C212.084 13.7188 212.031 14.1934 211.873 14.7471C207.654 30.8838 205.545 41.7998 205.545 47.5742C205.545 50.2637 206.046 51.6084 207.021 51.6084C208.26 51.6084 210.897 49.7363 214.958 45.9395C215.01 45.9395 215.01 45.9395 215.01 45.8867C215.379 45.5176 215.801 45.3594 216.25 45.3066C216.513 45.3066 216.724 45.4121 217.014 45.623C217.278 45.834 217.383 46.124 217.383 46.4404C217.383 46.8096 217.278 47.2051 217.014 47.627C214.14 52.5312 210.686 54.957 206.678 54.957ZM220.475 40.6133C221.398 39.9541 222.321 38.8203 223.164 37.2119C224.456 34.8389 225.115 33.3623 225.115 32.7822C225.115 32.4922 224.957 32.334 224.588 32.334C224.298 32.334 224.14 32.4395 223.982 32.624C221.292 37.2119 219.921 39.6904 219.921 40.0596C219.921 40.3232 220.106 40.5605 220.475 40.6133ZM222.531 51.9512C217.073 51.9512 214.305 49.3936 214.305 44.3311C214.305 43.8564 214.437 42.8281 214.648 41.1406C214.806 39.4795 215.571 37.3174 216.915 34.6543C219.341 29.9082 221.872 27.5352 224.641 27.5352C226.856 27.5352 228.57 28.6689 229.703 30.8838C230.072 31.5957 230.257 32.2812 230.257 33.0459C230.257 33.9688 229.967 34.9443 229.44 35.9727C226.355 40.5605 223.454 43.4609 220.686 44.7529C219.71 45.2539 219.236 45.7285 219.236 46.2295C219.236 46.4404 219.288 46.6514 219.341 46.8623C219.657 47.9961 220.317 48.6025 221.292 48.6025C222.742 48.6025 224.641 47.7324 227.067 45.9395C228.622 44.8057 229.756 43.9092 230.468 43.3027C231.338 42.4326 232.024 42.0107 232.525 42.0107C232.788 42.0107 232.999 42.1162 233.263 42.2744C233.658 42.6436 233.869 43.0918 233.869 43.6191C233.869 44.2256 233.474 45.043 232.788 46.1768C232.024 47.3105 230.837 48.4971 229.176 49.7363C227.488 50.9756 225.986 51.6611 224.641 51.8457C223.876 51.8984 223.164 51.9512 222.531 51.9512ZM252.102 45.5703C252.155 45.5176 252.26 45.4648 252.366 45.4121C253.499 45.043 255.002 42.9863 256.954 39.374C257.982 37.4756 258.483 36.0781 258.483 35.1553C258.483 34.5488 258.298 34.2324 257.929 34.2324C257.006 34.2324 255.398 36.3945 253.13 40.666C251.838 43.0918 251.179 44.4893 251.179 44.8057C251.179 44.9111 251.179 45.0957 251.232 45.2539C251.232 45.4121 251.496 45.5176 252.102 45.5703ZM244.851 66.2949C242.768 66.2949 241.687 65.293 241.634 63.2363L241.687 62.6826C242.636 51.6611 244.482 40.8242 247.25 30.1191C247.567 28.8799 248.2 28.2998 249.175 28.2998C249.465 28.2998 249.729 28.3525 250.045 28.458C251.179 28.7744 251.786 29.4863 251.786 30.5146C251.786 31.042 251.601 31.8594 251.232 32.9932C250.863 34.127 250.652 35.2607 250.652 36.3945C250.652 36.6582 250.704 36.8164 250.863 36.8164C251.232 36.8164 252.313 35.5771 254.106 33.0986C255.451 31.1475 256.848 30.1719 258.404 30.1191C259.221 30.1191 260.038 30.3564 260.909 30.7783C262.201 31.4111 262.833 32.4922 262.886 33.9688C262.886 34.4961 262.833 35.1025 262.728 35.6826C262.095 39.8486 260.355 43.4082 257.507 46.3877C256.373 47.5742 255.081 48.1543 253.605 48.1543C252.919 48.1543 252.26 48.0488 251.548 47.7852C251.232 47.627 250.968 47.5742 250.704 47.5742L250.151 47.627C249.782 47.6797 248.964 50.4219 247.62 55.7744C247.013 58.3057 246.697 60.5205 246.697 62.3135L246.749 64.2119C246.749 64.6865 246.697 65.1084 246.591 65.6094C246.486 66.084 245.879 66.2949 244.851 66.2949ZM267.243 51.6084C266.215 51.6084 265.292 51.292 264.554 50.6064C264.158 50.2109 263.947 49.6836 263.947 48.9717C264.765 41.6416 265.556 35.5771 266.32 30.7783C266.479 29.75 267.032 29.2754 267.955 29.2754C270.17 29.2754 271.225 30.2246 271.225 32.2285C271.225 32.624 271.119 33.0986 270.961 33.7051C270.75 34.4434 270.645 35.1553 270.645 35.7354C270.645 36.2891 270.697 36.5527 270.855 36.5527C270.961 36.5527 271.066 36.3945 271.225 36.1309C272.042 34.3906 273.492 33.0459 275.654 32.123C276.366 31.8066 277.025 31.6484 277.711 31.6484C278.317 31.6484 278.845 31.9648 279.24 32.624C279.451 32.9404 279.557 33.2041 279.557 33.4678C279.557 33.916 279.108 34.3379 278.317 34.707C278.106 34.8389 277.922 34.9443 277.764 35.0498C273.492 38.3457 270.697 42.9863 269.353 49.0771C268.957 50.7646 268.271 51.6084 267.243 51.6084ZM281.989 47.126C283.123 46.5459 284.072 45.3594 284.889 43.6719C285.918 41.457 286.471 39.2422 286.471 37.0273C286.471 35.6826 286.181 34.5488 285.707 33.5732C284.942 34.2324 284.256 35.4189 283.545 37.2119C282.358 40.2705 281.752 43.0391 281.752 45.4121C281.752 46.124 281.804 46.6514 281.989 47.126ZM282.833 51.7402C282.042 51.7402 281.119 51.4502 280.038 50.8701C278.904 50.2637 278.034 49.1826 277.375 47.5742C277.005 46.6514 276.847 45.6758 276.847 44.542C276.847 42.8281 277.269 40.5078 278.192 37.5811C279.115 34.6543 280.143 32.1758 281.33 30.0664C282.042 28.8271 282.991 28.1943 284.256 28.1943C286.234 28.1943 287.421 29.0908 287.711 30.8838C287.763 31.1475 287.974 31.543 288.449 32.0176C289.978 33.4678 290.716 35.5771 290.716 38.3984C290.716 38.5566 290.716 39.2949 290.664 40.666C290.611 42.0635 290.031 43.9619 288.95 46.3877C287.869 48.8135 286.471 50.4219 284.678 51.292C284.072 51.5557 283.439 51.7402 282.833 51.7402ZM295.917 49.8945C296.26 49.8945 296.787 48.6553 297.605 46.2295C298.422 43.7773 299.609 40.376 301.27 36.0254C302.904 31.7012 303.695 29.0381 303.695 28.0889C303.695 27.6406 303.59 27.4297 303.379 27.4297C303.115 27.4297 302.72 27.7461 302.14 28.3525C297.657 33.2568 295.443 39.8486 295.443 47.9961V49.2354C295.443 49.6836 295.601 49.8945 295.917 49.8945ZM310.604 65.5039H310.498C309.154 65.5039 307.862 63.8164 306.675 60.5205C305.541 57.4092 304.935 53.1904 304.935 47.9434C304.935 41.6943 305.067 37.8447 305.225 36.4473C305.225 36.2363 305.172 36.1309 305.119 36.1309C304.987 36.1309 304.724 36.7109 304.355 37.8447C302.14 44.6475 300.795 48.8662 300.189 50.4746C299.055 53.665 297.657 55.2471 295.97 55.2471C293.544 55.2471 292.041 53.9551 291.382 51.3447C291.013 49.8945 290.855 48.2598 290.855 46.4932C290.855 39.6377 292.964 33.0986 297.104 26.7705C298.369 24.9512 299.978 24.0283 302.087 23.9756C304.144 23.9756 305.488 23.2637 306.069 21.9189C306.675 20.5742 307.334 18.7285 308.02 16.4082L310.445 8.26074C310.946 6.70508 311.579 5.8877 312.397 5.83496C312.871 5.83496 313.267 5.8877 313.583 5.94043C315.033 6.30957 315.798 7.02148 315.851 8.0498C315.851 8.78809 315.534 10.2646 314.928 12.374C313.478 17.2783 312.291 21.4443 311.474 24.793C310.024 30.6729 309.259 37.5811 309.259 45.5703C309.259 45.9395 309.259 48.3916 309.312 52.7422C309.312 57.1719 310.235 60.7578 312.028 63.5C312.449 63.7637 312.66 64.1592 312.66 64.6338C312.66 65.1611 311.975 65.4512 310.604 65.5039ZM328.197 53.0322H327.432C326.404 53.0322 325.587 52.7949 325.059 52.4258C324.137 51.7402 323.609 50.3164 323.556 48.1016C323.477 47.5215 323.425 47.0732 323.266 46.8096C321.922 48.3389 321.157 49.2354 320.893 49.5781C319.865 50.7646 318.626 51.3975 317.281 51.4502L316.095 51.5029C315.277 51.5029 314.354 51.1338 313.326 50.3164C312.245 49.5254 311.718 48.3916 311.718 46.915C311.718 45.7285 311.929 43.6719 312.324 40.7715C312.693 37.8447 313.379 35.1553 314.407 32.7295C315.224 30.6201 316.305 29.5391 317.65 29.4863C319.18 29.75 319.918 30.4092 319.971 31.4902C319.971 31.8594 319.918 32.2285 319.865 32.4922C319.549 33.626 319.074 35.6299 318.362 38.5039C317.439 42.1162 317.017 44.542 317.017 45.6758C317.017 46.124 317.07 46.335 317.228 46.335C317.94 46.2822 319.707 44.0146 322.475 39.5322C324.796 35.6826 326.457 32.835 327.38 30.8311C327.854 29.75 328.672 29.2227 329.7 29.1436C330.175 29.1436 330.676 29.2754 331.15 29.4863C332.284 29.9082 332.838 30.6201 332.89 31.5957C332.89 32.0703 332.838 32.4922 332.68 32.9404C330.227 39.9014 329.041 45.1484 329.041 48.708C329.041 49.6309 329.173 50.3164 329.331 50.8174C329.489 51.292 329.542 51.6611 329.542 52.0566V52.4785C329.489 52.7422 329.041 52.9268 328.197 53.0322ZM338.197 52.0566C335.876 52.0566 333.925 50.9229 332.422 48.708C331.789 47.7852 331.447 46.5459 331.447 45.0957C331.447 42.2744 332.422 38.7148 334.321 34.4434C335.454 31.8066 336.588 29.8555 337.669 28.5107C338.46 27.4824 339.541 27.0078 340.913 27.0078C343.496 27.0078 344.788 27.7988 344.788 29.4336C344.788 29.75 344.683 29.9609 344.525 30.1191C344.314 30.2773 343.76 30.5146 342.837 30.7783C341.651 31.1475 340.622 32.123 339.831 33.8105C337.88 37.7393 336.905 41.9053 336.905 46.2295C336.905 47.3633 337.274 48.1543 338.091 48.6553C338.355 48.8135 338.592 48.8662 338.803 48.8662C339.594 48.8662 341.282 47.4688 343.813 44.6475C344.156 44.2783 344.578 44.1201 345.052 44.1201H345.764C346.133 44.1201 346.344 44.3311 346.344 44.7529C346.133 46.4404 345.553 47.9434 344.578 49.2354C343.127 51.1338 341.018 52.0566 338.197 52.0566ZM353.839 58.5957C353.549 58.5957 353.232 58.543 352.969 58.3584C351.387 57.6729 350.385 56.6973 349.884 55.3525C349.014 53.0322 348.592 49.3936 348.592 44.4893C348.592 38.8203 349.356 31.9121 350.859 23.7646C350.912 23.2637 350.965 22.8945 350.965 22.6309C350.965 22.2881 350.807 22.1299 350.543 22.1299C349.937 22.1299 349.304 22.2881 348.539 22.6309C347.563 23 346.271 23.2109 344.584 23.2109C343.898 23.2109 343.187 22.5781 342.369 21.2598C342.053 20.7324 341.895 20.2578 341.895 19.7568C341.895 18.834 342.606 18.3066 344.057 18.1484L351.018 17.2256C351.835 17.1201 352.415 16.5664 352.705 15.5381L356.37 2.69727C356.739 1.2998 357.451 0.587891 358.479 0.587891C358.796 0.587891 359.165 0.640625 359.613 0.798828C361.011 1.35254 361.723 2.14355 361.723 3.17188C361.723 3.56738 361.591 3.98926 361.433 4.49023C360.747 6.30957 359.877 8.89355 358.796 12.2949C358.137 14.2988 357.82 15.4326 357.82 15.7227C357.873 16.3027 358.374 16.6191 359.323 16.6191L362.303 16.5664C363.015 16.5664 363.753 16.6191 364.676 16.7246C365.599 16.8564 366.627 17.2783 367.813 18.043C369 18.7812 369.606 19.5986 369.659 20.4688C369.659 20.8379 369.554 21.207 369.369 21.6025C369.105 22.1299 368.736 22.3936 368.288 22.3936C367.866 22.3936 367.392 22.2354 366.838 21.9717C365.915 21.4971 364.359 21.2598 362.25 21.2598C358.638 21.2598 356.687 21.5498 356.423 22.1299C356.265 22.3936 356.159 22.7891 356.054 23.2109C354.366 30.6729 353.549 38.293 353.549 46.124C353.549 48.9189 353.707 51.2393 354.05 53.0322C354.261 54.2188 354.735 55.4053 355.553 56.5391C355.711 56.8027 355.816 57.0137 355.816 57.1719C355.816 57.4092 355.711 57.6201 355.553 57.8838C355.184 58.3057 354.63 58.543 353.839 58.5957ZM373.284 31.3057L372.546 31.2529C371.518 31.042 370.964 30.4092 370.911 29.2754V28.1943C370.911 26.876 371.518 24.793 372.652 21.9189L372.915 21.1543C373.179 20.4688 373.733 20.126 374.55 20.0732C374.919 20.0732 375.236 20.126 375.605 20.3105C376.87 20.8379 377.45 21.4971 377.503 22.2354C377.503 23.0527 376.58 25.6895 374.761 30.2246C374.418 30.9365 373.944 31.3057 373.284 31.3057ZM371.57 53.085H371.412C369.567 53.085 368.591 51.8457 368.433 49.3408C368.38 48.1016 368.327 46.915 368.327 45.7812C368.327 41.4043 368.749 37.4229 369.619 33.7051C369.883 32.6768 370.542 32.123 371.676 32.123C373.627 32.123 374.603 32.8877 374.603 34.4434C374.603 34.8916 374.55 35.2607 374.471 35.6299C373.574 40.2178 373.021 44.8584 372.81 49.5781C372.81 49.9473 372.862 50.3164 372.968 50.6592C373.021 50.9756 373.073 51.292 373.073 51.6611C373.073 51.9512 373.073 52.2676 373.021 52.5312C372.968 52.7949 372.493 53.0322 371.57 53.085ZM380.225 51.5029C378.881 51.5029 378.169 51.0811 378.169 50.1582C378.169 49.6836 378.828 48.8135 380.173 47.5215C381.966 45.7812 382.888 44.4365 382.888 43.5137C382.888 43.3555 382.783 43.0391 382.598 42.6436C382.44 42.2744 381.465 41.9053 379.751 41.6416C376.877 41.1934 375.427 39.585 375.427 36.7637C375.427 35.4189 375.848 33.3623 376.719 30.6201C378.169 25.7949 380.014 23.4219 382.229 23.4219C382.546 23.4219 382.888 23.4746 383.205 23.6064C384.655 24.0811 385.42 24.6084 385.42 25.2148C385.42 25.7422 385.156 26.3486 384.602 27.0605C381.913 30.4092 380.568 33.8105 380.568 37.3174C380.621 38.5566 381.517 39.2422 383.31 39.4795C386.712 39.8486 388.452 40.877 388.505 42.5381V44.0674C388.505 44.9902 387.635 46.335 385.894 48.1016C383.917 50.1055 382.018 51.2393 380.225 51.5029ZM404.127 51.3975C403.652 51.3975 403.151 51.292 402.677 51.0811C400.726 50.2637 399.75 49.0771 399.697 47.4688C399.697 46.9678 399.75 46.5986 399.803 46.2822C400.831 41.6943 401.859 37.1592 402.835 32.624C403.099 31.2002 403.758 30.5146 404.654 30.4619C404.944 30.4619 405.208 30.5146 405.577 30.6201C407.054 31.0947 407.792 31.8594 407.845 32.9404C407.845 33.2568 407.739 33.7578 407.581 34.3379C406.816 36.7109 406.447 38.3984 406.447 39.374C406.447 39.7432 406.5 39.9541 406.658 39.9541C406.816 39.9541 407.212 39.585 407.687 38.873C410.06 35.5244 412.222 32.6768 414.226 30.2246C415.254 28.9854 416.229 28.3525 417.258 28.2998C417.785 28.2998 418.339 28.458 418.813 28.7217C420 29.4336 420.606 30.5146 420.659 32.0703C420.659 32.4395 420.606 32.8877 420.475 33.3623C418.813 40.165 417.996 44.5947 417.996 46.5986C417.996 48.4443 418.102 49.4727 418.392 49.7363C418.444 49.9473 418.497 50.1582 418.497 50.3164C418.497 50.6064 418.339 50.8174 418.049 50.9756C417.785 51.1865 417.469 51.292 417.152 51.292C416.44 51.292 415.729 51.0283 415.096 50.4219C413.725 49.2881 412.986 47.6797 412.934 45.6758C412.934 42.9336 412.986 41.2461 413.039 40.5605C413.092 39.9014 413.145 39.4268 413.145 39.1367C413.145 38.9258 413.092 38.8203 413.039 38.8203C412.881 38.8203 410.877 42.2217 407.106 48.9717C406.184 50.6064 405.208 51.3975 404.127 51.3975ZM425.227 47.126C426.361 46.5459 427.31 45.3594 428.128 43.6719C429.156 41.457 429.71 39.2422 429.71 37.0273C429.71 35.6826 429.42 34.5488 428.945 33.5732C428.18 34.2324 427.495 35.4189 426.783 37.2119C425.596 40.2705 424.99 43.0391 424.99 45.4121C424.99 46.124 425.043 46.6514 425.227 47.126ZM426.071 51.7402C425.28 51.7402 424.357 51.4502 423.276 50.8701C422.142 50.2637 421.272 49.1826 420.613 47.5742C420.244 46.6514 420.086 45.6758 420.086 44.542C420.086 42.8281 420.507 40.5078 421.43 37.5811C422.353 34.6543 423.381 32.1758 424.568 30.0664C425.28 28.8271 426.229 28.1943 427.495 28.1943C429.472 28.1943 430.659 29.0908 430.949 30.8838C431.002 31.1475 431.212 31.543 431.687 32.0176C433.216 33.4678 433.955 35.5771 433.955 38.3984C433.955 38.5566 433.955 39.2949 433.902 40.666C433.849 42.0635 433.269 43.9619 432.188 46.3877C431.107 48.8135 429.71 50.4219 427.917 51.292C427.31 51.5557 426.677 51.7402 426.071 51.7402ZM443.48 57.9893H441.66C439.656 57.9893 438.681 57.4619 438.681 56.3281C438.681 56.2754 438.681 56.0381 438.734 55.7217C438.734 55.4053 438.892 55.2471 439.287 55.1943C439.604 55.1943 439.92 55.1943 440.184 55.2471C440.474 55.2998 440.737 55.3525 441.001 55.3525C441.159 55.3525 441.37 55.3525 441.766 55.2998C442.082 55.2998 442.451 55.0098 442.847 54.5352C446.617 49.8418 448.727 44.4893 449.096 38.5039C449.096 37.2646 448.885 36.6055 448.41 36.6055C447.804 36.6055 447.277 36.7637 446.776 37.1064C441.713 40.376 438.997 44.7002 438.734 50.0527C438.628 52.0566 437.811 53.085 436.255 53.085C434.91 53.085 434.198 51.3975 434.198 47.9961C434.198 47.5215 434.251 46.0449 434.409 43.5664C434.515 41.1406 435.174 36.5 436.413 29.75C437.072 26.1377 437.653 22.4727 438.154 18.7812C438.364 17.1729 439.05 16.3555 440.289 16.3555C442.293 16.3555 443.374 17.1201 443.48 18.6758V19.7568C441.713 29.0908 440.843 34.3906 440.843 35.6299C440.843 36.2891 440.948 36.6055 441.107 36.6055C441.37 36.6055 441.924 36.3945 442.689 35.8936C444.904 34.4961 446.776 33.8105 448.358 33.8105C451.97 33.8105 453.789 35.6299 453.789 39.2422C453.789 45.5703 451.469 51.292 446.776 56.3281C445.8 57.3564 444.719 57.9365 443.48 57.9893ZM458.674 47.126C459.807 46.5459 460.757 45.3594 461.574 43.6719C462.602 41.457 463.156 39.2422 463.156 37.0273C463.156 35.6826 462.866 34.5488 462.391 33.5732C461.627 34.2324 460.941 35.4189 460.229 37.2119C459.043 40.2705 458.436 43.0391 458.436 45.4121C458.436 46.124 458.489 46.6514 458.674 47.126ZM459.517 51.7402C458.726 51.7402 457.804 51.4502 456.722 50.8701C455.589 50.2637 454.719 49.1826 454.059 47.5742C453.69 46.6514 453.532 45.6758 453.532 44.542C453.532 42.8281 453.954 40.5078 454.877 37.5811C455.8 34.6543 456.828 32.1758 458.014 30.0664C458.726 28.8271 459.676 28.1943 460.941 28.1943C462.919 28.1943 464.105 29.0908 464.395 30.8838C464.448 31.1475 464.659 31.543 465.134 32.0176C466.663 33.4678 467.401 35.5771 467.401 38.3984C467.401 38.5566 467.401 39.2949 467.348 40.666C467.296 42.0635 466.716 43.9619 465.635 46.3877C464.554 48.8135 463.156 50.4219 461.363 51.292C460.757 51.5557 460.124 51.7402 459.517 51.7402ZM472.602 49.8945C472.945 49.8945 473.472 48.6553 474.289 46.2295C475.107 43.7773 476.293 40.376 477.954 36.0254C479.589 31.7012 480.38 29.0381 480.38 28.0889C480.38 27.6406 480.275 27.4297 480.064 27.4297C479.8 27.4297 479.405 27.7461 478.825 28.3525C474.342 33.2568 472.127 39.8486 472.127 47.9961V49.2354C472.127 49.6836 472.286 49.8945 472.602 49.8945ZM487.288 65.5039H487.183C485.838 65.5039 484.546 63.8164 483.36 60.5205C482.226 57.4092 481.62 53.1904 481.62 47.9434C481.62 41.6943 481.751 37.8447 481.91 36.4473C481.91 36.2363 481.857 36.1309 481.804 36.1309C481.672 36.1309 481.409 36.7109 481.039 37.8447C478.825 44.6475 477.48 48.8662 476.873 50.4746C475.74 53.665 474.342 55.2471 472.655 55.2471C470.229 55.2471 468.726 53.9551 468.067 51.3447C467.698 49.8945 467.539 48.2598 467.539 46.4932C467.539 39.6377 469.649 33.0986 473.788 26.7705C475.054 24.9512 476.663 24.0283 478.772 23.9756C480.829 23.9756 482.173 23.2637 482.753 21.9189C483.36 20.5742 484.019 18.7285 484.704 16.4082L487.13 8.26074C487.631 6.70508 488.264 5.8877 489.081 5.83496C489.556 5.83496 489.952 5.8877 490.268 5.94043C491.718 6.30957 492.483 7.02148 492.536 8.0498C492.536 8.78809 492.219 10.2646 491.613 12.374C490.163 17.2783 488.976 21.4443 488.159 24.793C486.708 30.6729 485.944 37.5811 485.944 45.5703C485.944 45.9395 485.944 48.3916 485.996 52.7422C485.996 57.1719 486.919 60.7578 488.712 63.5C489.134 63.7637 489.345 64.1592 489.345 64.6338C489.345 65.1611 488.66 65.4512 487.288 65.5039ZM503.511 64.8447C503.036 64.8447 502.614 64.7393 502.219 64.5811C500.663 63.9219 499.582 62.9727 498.976 61.6543C498.396 60.415 498.079 58.3584 498.079 55.5635C498.079 54.1133 498.185 52.0566 498.343 49.4727C498.343 47.8906 498.29 47.0732 498.237 47.0732C498.185 47.0732 497.947 47.3105 497.631 47.7852C496.392 49.3408 494.994 50.1582 493.359 50.1582C492.885 50.1582 492.357 50.0527 491.856 49.8945C489.536 48.9717 488.402 47.3633 488.402 44.9111C488.402 35.6299 489.22 30.9365 490.881 30.8311L491.54 30.8838C493.359 30.9365 494.282 31.9648 494.282 33.916C494.124 36.8691 494.071 39.1367 494.071 40.7188C494.071 42.5908 494.229 43.5664 494.493 43.5664C494.994 43.5137 496.022 41.9053 497.631 38.6621C498.606 36.7637 499.846 34.4434 501.296 31.8066C501.955 30.6729 502.825 30.1191 503.906 30.1191C504.328 30.1191 504.776 30.1719 505.198 30.3564C506.438 30.8311 507.044 31.6484 507.044 32.8877C507.044 33.2568 506.991 33.5732 506.912 33.8633C506.332 35.7354 505.673 38.5566 504.882 42.3799C503.801 47.627 503.247 52.1094 503.247 55.7217C503.247 58.7539 503.801 60.916 504.882 62.208C505.251 62.6299 505.409 63.0254 505.462 63.2891C505.462 63.5527 505.356 63.7637 505.093 64.0273C504.592 64.5283 504.117 64.792 503.511 64.8447ZM527.544 57.9893H525.725C523.721 57.9893 522.745 57.4619 522.745 56.3281C522.745 56.2754 522.745 56.0381 522.798 55.7217C522.798 55.4053 522.956 55.2471 523.352 55.1943C523.668 55.1943 523.985 55.1943 524.248 55.2471C524.538 55.2998 524.802 55.3525 525.066 55.3525C525.224 55.3525 525.435 55.3525 525.83 55.2998C526.147 55.2998 526.516 55.0098 526.911 54.5352C530.682 49.8418 532.791 44.4893 533.16 38.5039C533.16 37.2646 532.949 36.6055 532.475 36.6055C531.868 36.6055 531.341 36.7637 530.84 37.1064C525.778 40.376 523.062 44.7002 522.798 50.0527C522.693 52.0566 521.875 53.085 520.32 53.085C518.975 53.085 518.263 51.3975 518.263 47.9961C518.263 47.5215 518.316 46.0449 518.474 43.5664C518.579 41.1406 519.238 36.5 520.478 29.75C521.137 26.1377 521.717 22.4727 522.218 18.7812C522.429 17.1729 523.114 16.3555 524.354 16.3555C526.358 16.3555 527.439 17.1201 527.544 18.6758V19.7568C525.778 29.0908 524.907 34.3906 524.907 35.6299C524.907 36.2891 525.013 36.6055 525.171 36.6055C525.435 36.6055 525.988 36.3945 526.753 35.8936C528.968 34.4961 530.84 33.8105 532.422 33.8105C536.034 33.8105 537.854 35.6299 537.854 39.2422C537.854 45.5703 535.533 51.292 530.84 56.3281C529.864 57.3564 528.783 57.9365 527.544 57.9893ZM554.076 53.0322H553.311C552.283 53.0322 551.466 52.7949 550.938 52.4258C550.015 51.7402 549.488 50.3164 549.435 48.1016C549.356 47.5215 549.304 47.0732 549.145 46.8096C547.801 48.3389 547.036 49.2354 546.772 49.5781C545.744 50.7646 544.505 51.3975 543.16 51.4502L541.973 51.5029C541.156 51.5029 540.233 51.1338 539.205 50.3164C538.124 49.5254 537.596 48.3916 537.596 46.915C537.596 45.7285 537.807 43.6719 538.203 40.7715C538.572 37.8447 539.258 35.1553 540.286 32.7295C541.103 30.6201 542.184 29.5391 543.529 29.4863C545.058 29.75 545.797 30.4092 545.849 31.4902C545.849 31.8594 545.797 32.2285 545.744 32.4922C545.428 33.626 544.953 35.6299 544.241 38.5039C543.318 42.1162 542.896 44.542 542.896 45.6758C542.896 46.124 542.949 46.335 543.107 46.335C543.819 46.2822 545.586 44.0146 548.354 39.5322C550.675 35.6826 552.336 32.835 553.259 30.8311C553.733 29.75 554.551 29.2227 555.579 29.1436C556.054 29.1436 556.555 29.2754 557.029 29.4863C558.163 29.9082 558.717 30.6201 558.769 31.5957C558.769 32.0703 558.717 32.4922 558.558 32.9404C556.106 39.9014 554.92 45.1484 554.92 48.708C554.92 49.6309 555.052 50.3164 555.21 50.8174C555.368 51.292 555.421 51.6611 555.421 52.0566V52.4785C555.368 52.7422 554.92 52.9268 554.076 53.0322ZM563.153 31.3057L562.414 31.2529C561.386 31.042 560.832 30.4092 560.78 29.2754V28.1943C560.78 26.876 561.386 24.793 562.52 21.9189L562.784 21.1543C563.047 20.4688 563.601 20.126 564.418 20.0732C564.787 20.0732 565.104 20.126 565.473 20.3105C566.739 20.8379 567.319 21.4971 567.371 22.2354C567.371 23.0527 566.449 25.6895 564.629 30.2246C564.286 30.9365 563.812 31.3057 563.153 31.3057ZM561.439 53.085H561.281C559.435 53.085 558.459 51.8457 558.301 49.3408C558.248 48.1016 558.196 46.915 558.196 45.7812C558.196 41.4043 558.618 37.4229 559.488 33.7051C559.751 32.6768 560.411 32.123 561.544 32.123C563.495 32.123 564.471 32.8877 564.471 34.4434C564.471 34.8916 564.418 35.2607 564.339 35.6299C563.443 40.2178 562.889 44.8584 562.678 49.5781C562.678 49.9473 562.731 50.3164 562.836 50.6592C562.889 50.9756 562.942 51.292 562.942 51.6611C562.942 51.9512 562.942 52.2676 562.889 52.5312C562.836 52.7949 562.362 53.0322 561.439 53.085ZM571.333 54.957C568.591 54.957 566.851 53.665 566.06 51.0283C565.559 49.4727 565.295 47.5215 565.295 45.2539C565.295 41.4043 566.06 36.6055 567.615 30.7783L572.15 13.376C572.52 12.0312 573.231 11.3457 574.365 11.3457C574.682 11.3457 575.077 11.3984 575.446 11.5566C576.316 11.873 576.738 12.4795 576.738 13.3232C576.738 13.7188 576.686 14.1934 576.527 14.7471C572.309 30.8838 570.199 41.7998 570.199 47.5742C570.199 50.2637 570.7 51.6084 571.676 51.6084C572.915 51.6084 575.552 49.7363 579.612 45.9395C579.665 45.9395 579.665 45.9395 579.665 45.8867C580.034 45.5176 580.456 45.3594 580.904 45.3066C581.168 45.3066 581.379 45.4121 581.669 45.623C581.933 45.834 582.038 46.124 582.038 46.4404C582.038 46.8096 581.933 47.2051 581.669 47.627C578.795 52.5312 575.341 54.957 571.333 54.957ZM584.576 49.8945C584.919 49.8945 585.446 48.6553 586.263 46.2295C587.081 43.7773 588.267 40.376 589.928 36.0254C591.563 31.7012 592.354 29.0381 592.354 28.0889C592.354 27.6406 592.249 27.4297 592.038 27.4297C591.774 27.4297 591.379 27.7461 590.798 28.3525C586.316 33.2568 584.101 39.8486 584.101 47.9961V49.2354C584.101 49.6836 584.259 49.8945 584.576 49.8945ZM599.262 65.5039H599.157C597.812 65.5039 596.52 63.8164 595.334 60.5205C594.2 57.4092 593.593 53.1904 593.593 47.9434C593.593 41.6943 593.725 37.8447 593.883 36.4473C593.883 36.2363 593.831 36.1309 593.778 36.1309C593.646 36.1309 593.382 36.7109 593.013 37.8447C590.798 44.6475 589.454 48.8662 588.847 50.4746C587.714 53.665 586.316 55.2471 584.629 55.2471C582.203 55.2471 580.7 53.9551 580.041 51.3447C579.672 49.8945 579.513 48.2598 579.513 46.4932C579.513 39.6377 581.623 33.0986 585.762 26.7705C587.028 24.9512 588.636 24.0283 590.746 23.9756C592.802 23.9756 594.147 23.2637 594.727 21.9189C595.334 20.5742 595.993 18.7285 596.678 16.4082L599.104 8.26074C599.605 6.70508 600.238 5.8877 601.055 5.83496C601.53 5.83496 601.925 5.8877 602.242 5.94043C603.692 6.30957 604.457 7.02148 604.509 8.0498C604.509 8.78809 604.193 10.2646 603.587 12.374C602.136 17.2783 600.95 21.4443 600.132 24.793C598.682 30.6729 597.918 37.5811 597.918 45.5703C597.918 45.9395 597.918 48.3916 597.97 52.7422C597.97 57.1719 598.893 60.7578 600.686 63.5C601.108 63.7637 601.319 64.1592 601.319 64.6338C601.319 65.1611 600.633 65.4512 599.262 65.5039ZM605.333 31.3057L604.595 31.2529C603.567 31.042 603.013 30.4092 602.96 29.2754V28.1943C602.96 26.876 603.567 24.793 604.7 21.9189L604.964 21.1543C605.228 20.4688 605.781 20.126 606.599 20.0732C606.968 20.0732 607.284 20.126 607.654 20.3105C608.919 20.8379 609.499 21.4971 609.552 22.2354C609.552 23.0527 608.629 25.6895 606.81 30.2246C606.467 30.9365 605.992 31.3057 605.333 31.3057ZM603.619 53.085H603.461C601.615 53.085 600.64 51.8457 600.482 49.3408C600.429 48.1016 600.376 46.915 600.376 45.7812C600.376 41.4043 600.798 37.4229 601.668 33.7051C601.932 32.6768 602.591 32.123 603.725 32.123C605.676 32.123 606.652 32.8877 606.652 34.4434C606.652 34.8916 606.599 35.2607 606.52 35.6299C605.623 40.2178 605.07 44.8584 604.859 49.5781C604.859 49.9473 604.911 50.3164 605.017 50.6592C605.07 50.9756 605.122 51.292 605.122 51.6611C605.122 51.9512 605.122 52.2676 605.07 52.5312C605.017 52.7949 604.542 53.0322 603.619 53.085ZM611.905 51.3975C611.43 51.3975 610.93 51.292 610.455 51.0811C608.504 50.2637 607.528 49.0771 607.475 47.4688C607.475 46.9678 607.528 46.5986 607.581 46.2822C608.609 41.6943 609.638 37.1592 610.613 32.624C610.877 31.2002 611.536 30.5146 612.432 30.4619C612.722 30.4619 612.986 30.5146 613.355 30.6201C614.832 31.0947 615.57 31.8594 615.623 32.9404C615.623 33.2568 615.517 33.7578 615.359 34.3379C614.595 36.7109 614.225 38.3984 614.225 39.374C614.225 39.7432 614.278 39.9541 614.436 39.9541C614.595 39.9541 614.99 39.585 615.465 38.873C617.838 35.5244 620 32.6768 622.004 30.2246C623.032 28.9854 624.008 28.3525 625.036 28.2998C625.563 28.2998 626.117 28.458 626.592 28.7217C627.778 29.4336 628.385 30.5146 628.437 32.0703C628.437 32.4395 628.385 32.8877 628.253 33.3623C626.592 40.165 625.774 44.5947 625.774 46.5986C625.774 48.4443 625.88 49.4727 626.17 49.7363C626.222 49.9473 626.275 50.1582 626.275 50.3164C626.275 50.6064 626.117 50.8174 625.827 50.9756C625.563 51.1865 625.247 51.292 624.93 51.292C624.219 51.292 623.507 51.0283 622.874 50.4219C621.503 49.2881 620.764 47.6797 620.712 45.6758C620.712 42.9336 620.764 41.2461 620.817 40.5605C620.87 39.9014 620.923 39.4268 620.923 39.1367C620.923 38.9258 620.87 38.8203 620.817 38.8203C620.659 38.8203 618.655 42.2217 614.885 48.9717C613.962 50.6064 612.986 51.3975 611.905 51.3975ZM635.036 71.8584C632.768 71.8584 630.553 70.7773 628.47 68.6943C627.705 67.877 627.336 67.0068 627.336 66.0312C627.336 64.8447 627.864 64.2646 628.892 64.2646C629.472 64.2646 629.92 64.6338 630.131 65.3457C630.843 67.7188 632.346 68.9053 634.561 68.9053C635.378 68.9053 636.011 68.6416 636.512 68.0352C636.987 67.5078 637.409 66.7959 637.857 65.9258C639.755 62.3135 641.047 58.6484 641.733 54.9043C642.656 50.0527 643.104 45.7812 643.104 42.1162C643.104 41.7471 642.919 41.5098 642.656 41.5098C642.55 41.5098 642.392 41.5889 642.128 41.6943C641.838 41.8525 639.518 44.4893 635.036 49.6309C633.849 50.9756 632.557 51.6611 631.212 51.6611C630.289 51.6611 629.367 51.3447 628.338 50.7646C626.835 49.8418 626.071 48.6025 626.071 47.0732C626.071 46.3877 626.255 45.623 626.572 44.8057C628.997 38.1611 632.61 32.334 637.409 27.2188C638.569 25.9795 639.755 25.373 641.047 25.373C641.205 25.373 641.627 25.4258 642.445 25.4785C643.209 25.5312 644.053 26.2959 644.976 27.7461C645.319 28.2471 645.477 28.6162 645.477 28.9326C645.477 29.3281 645.319 29.6445 644.923 29.9082C644.554 30.1719 644.238 30.3564 643.895 30.3564C643.526 30.3564 643.209 30.1191 642.867 29.6973C642.55 29.3281 642.286 29.0908 642.023 29.0908C641.733 29.0908 641.364 29.3809 640.942 29.8555C639.254 31.7539 637.356 34.3379 635.22 37.7393C633.058 41.1406 631.819 44.0674 631.476 46.4404C632.399 45.834 633.691 44.5947 635.378 42.8281C637.039 41.0352 638.621 39.1367 640.072 37.2119C641.522 35.2607 642.497 33.8105 642.919 32.7822C643.209 32.2285 643.631 31.9648 644.343 31.9648C645.899 31.9648 646.98 32.6768 647.507 34.127C647.903 35.1025 648.114 37.1064 648.114 40.0596C648.114 50.6592 646.215 59.5449 642.445 66.7432C640.599 70.1445 638.12 71.8584 635.036 71.8584ZM655.846 50.8174C654.949 50.8174 653.974 50.5273 652.84 50C651.706 49.4727 651.1 48.5498 650.941 47.2578C650.941 46.124 651.416 44.8057 652.444 43.4609C656.399 38.1084 659.59 33.626 662.016 30.0137C664.23 26.7178 666.103 23.3164 667.737 19.7041C668.66 17.6475 669.082 16.0391 669.082 14.7998C669.082 14.1934 668.977 13.7188 668.766 13.2705C668.265 12.374 667.526 11.9258 666.445 11.9258C666.05 11.9258 665.312 12.0312 664.283 12.2949C663.255 12.585 661.805 13.666 659.959 15.5381C659.353 16.1445 658.878 16.9092 658.509 17.9111C657.902 19.4404 657.322 20.2578 656.716 20.3105C656.452 20.3105 656.294 20.3105 656.136 20.2578C654.554 19.5459 653.736 18.5703 653.736 17.2783C653.736 17.0146 653.815 16.7246 653.868 16.4609C654.343 14.7998 655.424 13.165 657.085 11.6621C658.772 10.2119 660.275 9.3418 661.752 9.18359C662.438 9.07812 663.149 9.02539 663.835 9.02539C665.628 9.02539 667.131 9.28906 668.37 9.76367C672.22 11.2402 674.118 13.5078 674.118 16.5664C674.118 20.5215 669.741 28.458 660.987 40.2705L657.138 45.4121C656.452 46.4404 656.083 47.126 656.083 47.627C656.136 47.9961 656.452 48.3389 657.032 48.5498C657.639 48.8135 657.902 49.1826 657.902 49.6836C657.902 50.4219 657.217 50.8174 655.846 50.8174ZM657.744 62.6299C656.61 62.6299 656.004 61.707 655.951 59.835C655.898 59.3867 655.898 58.9121 655.898 58.4111C655.898 57.5146 656.004 56.6973 656.294 55.9854C656.558 55.2998 657.322 54.8516 658.667 54.6934C659.247 54.6934 659.801 54.7988 660.381 55.0889C660.987 55.3525 661.251 55.9854 661.251 57.1191C661.251 60.0986 660.223 61.9443 658.113 62.5244L657.744 62.6299Z" fill="white"/>
</svg>
