<svg width="440" height="44" viewBox="0 0 440 44" fill="none" xmlns="http://www.w3.org/2000/svg">
<path d="M2.20312 31.8281C2.84375 31.8281 3.26562 31.5938 3.48438 31.1875C3.6875 30.7656 3.8125 30.3594 3.875 29.875C3.90625 29.5156 3.96875 29.2344 4 29.0469C4 28.6875 3.84375 28.4688 3.51562 28.2969C3.10938 28.0781 2.625 27.9844 2.07812 27.9844C0.953125 27.9844 0.390625 28.625 0.390625 29.9062C0.390625 31.1562 0.984375 31.7969 2.20312 31.8281ZM6.44688 31.8281C7.0875 31.8281 7.50938 31.5938 7.72813 31.1875C7.93125 30.7656 8.05625 30.3594 8.11875 29.875C8.15 29.5156 8.2125 29.2344 8.24375 29.0469C8.24375 28.6875 8.0875 28.4688 7.75938 28.2969C7.35313 28.0781 6.86875 27.9844 6.32188 27.9844C5.19688 27.9844 4.63438 28.625 4.63438 29.9062C4.63438 31.1562 5.22813 31.7969 6.44688 31.8281ZM10.6906 31.8281C11.3313 31.8281 11.7531 31.5938 11.9719 31.1875C12.175 30.7656 12.3 30.3594 12.3625 29.875C12.3938 29.5156 12.4563 29.2344 12.4875 29.0469C12.4875 28.6875 12.3313 28.4688 12.0031 28.2969C11.5969 28.0781 11.1125 27.9844 10.5656 27.9844C9.44063 27.9844 8.87813 28.625 8.87813 29.9062C8.87813 31.1562 9.47188 31.7969 10.6906 31.8281ZM15.7781 28.2969C15.6687 28.0156 15.6375 27.7031 15.6375 27.2812C15.6375 25.875 15.9969 24.2344 16.7 22.4219C17.1219 21.3594 17.5281 20.6562 17.9812 20.2656C18.2625 20.8438 18.4344 21.5156 18.4344 22.3125C18.4344 23.625 18.1062 24.9375 17.4969 26.25C17.0125 27.25 16.45 27.9531 15.7781 28.2969ZM16.2781 31.0312C16.6375 31.0312 17.0125 30.9219 17.3719 30.7656C18.4344 30.25 19.2625 29.2969 19.9031 27.8594C20.5437 26.4219 20.8875 25.2969 20.9187 24.4688C20.95 23.6562 20.95 23.2188 20.95 23.125C20.95 21.4531 20.5125 20.2031 19.6062 19.3438C19.325 19.0625 19.2 18.8281 19.1687 18.6719C18.9969 17.6094 18.2937 17.0781 17.1219 17.0781C16.3719 17.0781 15.8094 17.4531 15.3875 18.1875C14.6844 19.4375 14.075 20.9062 13.5281 22.6406C12.9812 24.375 12.7312 25.75 12.7312 26.7656C12.7312 27.4375 12.825 28.0156 13.0437 28.5625C13.4344 29.5156 13.95 30.1562 14.6219 30.5156C15.2625 30.8594 15.8094 31.0312 16.2781 31.0312ZM30.6156 31.7969C31.1156 31.7344 31.3813 31.625 31.4125 31.4688V31.2188C31.4125 30.9844 31.3813 30.7656 31.2875 30.4844C31.1938 30.1875 31.1156 29.7812 31.1156 29.2344C31.1156 27.125 31.8188 24.0156 33.2719 19.8906C33.3656 19.625 33.3969 19.375 33.3969 19.0938C33.3656 18.5156 33.0375 18.0938 32.3656 17.8438C32.0844 17.7188 31.7875 17.6406 31.5063 17.6406C30.8969 17.6875 30.4125 18 30.1313 18.6406C29.5844 19.8281 28.6 21.5156 27.225 23.7969C25.5844 26.4531 24.5375 27.7969 24.1156 27.8281C24.0219 27.8281 23.9906 27.7031 23.9906 27.4375C23.9906 26.7656 24.2406 25.3281 24.7875 23.1875C25.2094 21.4844 25.4906 20.2969 25.6781 19.625C25.7094 19.4688 25.7406 19.25 25.7406 19.0312C25.7094 18.3906 25.2719 18 24.3656 17.8438C23.5688 17.875 22.9281 18.5156 22.4438 19.7656C21.8344 21.2031 21.4281 22.7969 21.2094 24.5312C20.975 26.25 20.85 27.4688 20.85 28.1719C20.85 29.0469 21.1625 29.7188 21.8031 30.1875C22.4125 30.6719 22.9594 30.8906 23.4438 30.8906L24.1469 30.8594C24.9438 30.8281 25.6781 30.4531 26.2875 29.75C26.4438 29.5469 26.8969 29.0156 27.6938 28.1094C27.7875 28.2656 27.8188 28.5312 27.8656 28.875C27.8969 30.1875 28.2094 31.0312 28.7563 31.4375C29.0688 31.6562 29.5531 31.7969 30.1625 31.7969H30.6156ZM34.7656 30.9531C35.375 30.9531 35.7812 30.4531 36.0156 29.4531C36.8125 25.8438 38.4688 23.0938 41 21.1406C41.0938 21.0781 41.2031 21.0156 41.3281 20.9375C41.7969 20.7188 42.0625 20.4688 42.0625 20.2031C42.0625 20.0469 42 19.8906 41.875 19.7031C41.6406 19.3125 41.3281 19.125 40.9688 19.125C40.5625 19.125 40.1719 19.2188 39.75 19.4062C38.4688 19.9531 37.6094 20.75 37.125 21.7812C37.0312 21.9375 36.9688 22.0312 36.9062 22.0312C36.8125 22.0312 36.7812 21.875 36.7812 21.5469C36.7812 21.2031 36.8438 20.7812 36.9688 20.3438C37.0625 19.9844 37.125 19.7031 37.125 19.4688C37.125 18.2812 36.5 17.7188 35.1875 17.7188C34.6406 17.7188 34.3125 18 34.2188 18.6094C33.7656 21.4531 33.2969 25.0469 32.8125 29.3906C32.8125 29.8125 32.9375 30.125 33.1719 30.3594C33.6094 30.7656 34.1562 30.9531 34.7656 30.9531ZM52.2062 27.375C51.8469 27.3438 51.6906 27.2812 51.6906 27.1875C51.6594 27.0938 51.6594 26.9844 51.6594 26.9219C51.6594 26.7344 52.05 25.9062 52.8156 24.4688C54.1594 21.9375 55.1125 20.6562 55.6594 20.6562C55.8781 20.6562 55.9875 20.8438 55.9875 21.2031C55.9875 21.75 55.6906 22.5781 55.0812 23.7031C53.925 25.8438 53.0344 27.0625 52.3625 27.2812C52.3 27.3125 52.2375 27.3438 52.2062 27.375ZM47.9094 39.6562C48.5187 39.6562 48.8781 39.5312 48.9406 39.25C49.0031 38.9531 49.0344 38.7031 49.0344 38.4219L49.0031 37.2969C49.0031 36.2344 49.1906 34.9219 49.55 33.4219C50.3469 30.25 50.8312 28.625 51.05 28.5938L51.3781 28.5625C51.5344 28.5625 51.6906 28.5938 51.8781 28.6875C52.3 28.8438 52.6906 28.9062 53.0969 28.9062C53.9719 28.9062 54.7375 28.5625 55.4094 27.8594C57.0969 26.0938 58.1281 23.9844 58.5031 21.5156C58.5656 21.1719 58.5969 20.8125 58.5969 20.5C58.5656 19.625 58.1906 18.9844 57.425 18.6094C56.9094 18.3594 56.425 18.2188 55.9406 18.2188C55.0187 18.25 54.1906 18.8281 53.3937 19.9844C52.3312 21.4531 51.6906 22.1875 51.4719 22.1875C51.3781 22.1875 51.3469 22.0938 51.3469 21.9375C51.3469 21.2656 51.4719 20.5938 51.6906 19.9219C51.9094 19.25 52.0187 18.7656 52.0187 18.4531C52.0187 17.8438 51.6594 17.4219 50.9875 17.2344C50.8 17.1719 50.6437 17.1406 50.4719 17.1406C49.8937 17.1406 49.5187 17.4844 49.3312 18.2188C47.6906 24.5625 46.5969 30.9844 46.0344 37.5156L46.0031 37.8438C46.0344 39.0625 46.675 39.6562 47.9094 39.6562ZM68.3875 30.1562C68.9344 30.1562 69.1844 30 69.1844 29.7188C69.1844 29.6094 69.1531 29.4531 69.0594 29.2969C68.7156 28.5 68.5125 27.625 68.5125 26.7656C68.5125 25.5781 68.7156 24.2344 69.0906 22.6719C69.1844 22.25 69.2469 21.875 69.2469 21.4844C69.2469 20.5938 68.9656 19.9844 68.3563 19.6562C68.2625 19.625 68.1063 19.5938 67.9344 19.5938C67.7781 19.5938 67.5594 19.625 67.3406 19.7031C66.9188 19.8281 65.7313 21.1094 63.8094 23.5C62.3094 25.3906 61.3875 26.3594 61.0594 26.3594C60.9969 26.3594 60.9656 26.2812 60.9656 26.1875C60.9656 26.0625 61.0281 25.8438 61.1531 25.5156C62.0906 23.0625 62.9813 21.2031 63.9031 19.9531C64.1375 19.6562 64.2938 19.5 64.4188 19.5C64.5438 19.5312 64.7156 19.5938 64.8719 19.7031C65.0281 19.7969 65.2781 19.8594 65.575 19.8594C65.8563 19.8594 66.1219 19.625 66.3406 19.1875C66.4344 19.0312 66.4656 18.8281 66.4656 18.5781C66.4656 18.3125 66.2469 18 65.7938 17.6406C65.3563 17.2969 64.8406 17.1406 64.2938 17.1406C63.4031 17.1406 62.5281 17.6875 61.7 18.7656C59.6844 21.4219 58.4031 24.1094 57.8563 26.7656C57.7938 27.0625 57.7625 27.3125 57.7625 27.5625C57.7625 28.5625 58.2156 29.3281 59.075 29.8125C59.4969 30.0312 59.9031 30.1562 60.325 30.1562C60.8719 30.1562 61.4188 29.8438 61.95 29.2344C62.4969 28.625 63.0438 27.9531 63.6219 27.2188C64.6375 25.9062 65.1531 25.2656 65.1844 25.2656C65.3563 25.2656 65.4188 25.6094 65.4188 26.3125C65.4188 28.2969 66.2469 29.5469 67.9344 30.0938C68.075 30.125 68.2313 30.1562 68.3875 30.1562ZM71.5219 30.9531C72.1312 30.9531 72.5375 30.4531 72.7719 29.4531C73.5687 25.8438 75.225 23.0938 77.7562 21.1406C77.85 21.0781 77.9594 21.0156 78.0844 20.9375C78.5531 20.7188 78.8187 20.4688 78.8187 20.2031C78.8187 20.0469 78.7562 19.8906 78.6312 19.7031C78.3969 19.3125 78.0844 19.125 77.725 19.125C77.3187 19.125 76.9281 19.2188 76.5062 19.4062C75.225 19.9531 74.3656 20.75 73.8812 21.7812C73.7875 21.9375 73.725 22.0312 73.6625 22.0312C73.5687 22.0312 73.5375 21.875 73.5375 21.5469C73.5375 21.2031 73.6 20.7812 73.725 20.3438C73.8187 19.9844 73.8812 19.7031 73.8812 19.4688C73.8812 18.2812 73.2562 17.7188 71.9437 17.7188C71.3969 17.7188 71.0687 18 70.975 18.6094C70.5219 21.4531 70.0531 25.0469 69.5687 29.3906C69.5687 29.8125 69.6937 30.125 69.9281 30.3594C70.3656 30.7656 70.9125 30.9531 71.5219 30.9531ZM81.3594 35.0938C81.8281 35.0625 82.1562 34.9219 82.375 34.6719C82.4688 34.5156 82.5312 34.3906 82.5312 34.25C82.5312 34.1562 82.4688 34.0312 82.375 33.875C81.8906 33.2031 81.6094 32.5 81.4844 31.7969C81.2812 30.7344 81.1875 29.3594 81.1875 27.7031C81.1875 23.0625 81.6719 18.5469 82.6719 14.125C82.7344 13.875 82.7969 13.6406 82.8906 13.4844C83.0469 13.1406 84.2031 12.9688 86.3438 12.9688C87.5938 12.9688 88.5156 13.1094 89.0625 13.3906C89.3906 13.5469 89.6719 13.6406 89.9219 13.6406C90.1875 13.6406 90.4062 13.4844 90.5625 13.1719C90.6719 12.9375 90.7344 12.7188 90.7344 12.5C90.7031 11.9844 90.3438 11.5 89.6406 11.0625C88.9375 10.6094 88.3281 10.3594 87.7812 10.2812C87.2344 10.2188 86.7969 10.1875 86.375 10.1875L84.6094 10.2188C84.0469 10.2188 83.75 10.0312 83.7188 9.6875C83.7188 9.51562 83.9062 8.84375 84.2969 7.65625C84.9375 5.64062 85.4531 4.10938 85.8594 3.03125C85.9531 2.73438 86.0312 2.48438 86.0312 2.25C86.0312 1.64062 85.6094 1.17188 84.7812 0.84375C84.5156 0.75 84.2969 0.71875 84.1094 0.71875C83.5 0.71875 83.0781 1.14062 82.8594 1.96875L80.6875 9.57812C80.5156 10.1875 80.1719 10.5156 79.6875 10.5781L75.5625 11.125C74.7031 11.2188 74.2812 11.5312 74.2812 12.0781C74.2812 12.375 74.375 12.6562 74.5625 12.9688C75.0469 13.75 75.4688 14.125 75.875 14.125C76.875 14.125 77.6406 14 78.2188 13.7812C78.6719 13.5781 79.0469 13.4844 79.4062 13.4844C79.5625 13.4844 79.6562 13.5781 79.6562 13.7812C79.6562 13.9375 79.625 14.1562 79.5938 14.4531C78.7031 19.2812 78.25 23.375 78.25 26.7344C78.25 29.6406 78.5 31.7969 79.0156 33.1719C79.3125 33.9688 79.9062 34.5469 80.8438 34.9531C81 35.0625 81.1875 35.0938 81.3594 35.0938ZM85.3375 30.8281C85.9781 30.8281 86.5563 30.3594 87.1031 29.3906C89.3375 25.3906 90.525 23.375 90.6188 23.375C90.65 23.375 90.6813 23.4375 90.6813 23.5625C90.6813 23.7344 90.65 24.0156 90.6188 24.4062C90.5875 24.8125 90.5563 25.8125 90.5563 27.4375C90.5875 28.625 91.025 29.5781 91.8375 30.25C92.2125 30.6094 92.6344 30.7656 93.0563 30.7656C93.2438 30.7656 93.4313 30.7031 93.5875 30.5781C93.7594 30.4844 93.8531 30.3594 93.8531 30.1875C93.8531 30.0938 93.8219 29.9688 93.7906 29.8438C93.6188 29.6875 93.5563 29.0781 93.5563 27.9844C93.5563 26.7969 94.0406 24.1719 95.025 20.1406C95.1031 19.8594 95.1344 19.5938 95.1344 19.375C95.1031 18.4531 94.7438 17.8125 94.0406 17.3906C93.7594 17.2344 93.4313 17.1406 93.1188 17.1406C92.5094 17.1719 91.9313 17.5469 91.3219 18.2812C90.1344 19.7344 88.8531 21.4219 87.4469 23.4062C87.1656 23.8281 86.9313 24.0469 86.8375 24.0469C86.7438 24.0469 86.7125 23.9219 86.7125 23.7031C86.7125 23.125 86.9313 22.125 87.3844 20.7188C87.4781 20.375 87.5406 20.0781 87.5406 19.8906C87.5094 19.25 87.0719 18.7969 86.1969 18.5156C85.9781 18.4531 85.8219 18.4219 85.65 18.4219C85.1188 18.4531 84.7281 18.8594 84.5719 19.7031C83.9938 22.3906 83.3844 25.0781 82.775 27.7969C82.7438 27.9844 82.7125 28.2031 82.7125 28.5C82.7438 29.4531 83.3219 30.1562 84.4781 30.6406C84.7594 30.7656 85.0563 30.8281 85.3375 30.8281ZM97.8156 24.4375C97.5969 24.4062 97.4875 24.2656 97.4875 24.1094C97.4875 23.8906 98.3 22.4219 99.8938 19.7031C99.9875 19.5938 100.081 19.5312 100.253 19.5312C100.472 19.5312 100.566 19.625 100.566 19.7969C100.566 20.1406 100.175 21.0156 99.4094 22.4219C98.9094 23.375 98.3625 24.0469 97.8156 24.4375ZM99.0344 31.1562C99.4094 31.1562 99.8313 31.125 100.284 31.0938C101.081 30.9844 101.972 30.5781 102.972 29.8438C103.956 29.1094 104.659 28.4062 105.113 27.7344C105.519 27.0625 105.753 26.5781 105.753 26.2188C105.753 25.9062 105.628 25.6406 105.394 25.4219C105.238 25.3281 105.113 25.2656 104.956 25.2656C104.659 25.2656 104.253 25.5156 103.738 26.0312C103.316 26.3906 102.644 26.9219 101.722 27.5938C100.284 28.6562 99.1594 29.1719 98.3 29.1719C97.7219 29.1719 97.3313 28.8125 97.1438 28.1406C97.1125 28.0156 97.0813 27.8906 97.0813 27.7656C97.0813 27.4688 97.3625 27.1875 97.9406 26.8906C99.5813 26.125 101.3 24.4062 103.128 21.6875C103.441 21.0781 103.613 20.5 103.613 19.9531C103.613 19.5 103.503 19.0938 103.284 18.6719C102.613 17.3594 101.597 16.6875 100.284 16.6875C98.6438 16.6875 97.1438 18.0938 95.7063 20.9062C94.9094 22.4844 94.4563 23.7656 94.3625 24.75C94.2375 25.75 94.1594 26.3594 94.1594 26.6406C94.1594 29.6406 95.8 31.1562 99.0344 31.1562ZM106.028 30.9531C106.637 30.9531 107.044 30.4531 107.278 29.4531C108.075 25.8438 109.731 23.0938 112.262 21.1406C112.356 21.0781 112.466 21.0156 112.591 20.9375C113.059 20.7188 113.325 20.4688 113.325 20.2031C113.325 20.0469 113.262 19.8906 113.137 19.7031C112.903 19.3125 112.591 19.125 112.231 19.125C111.825 19.125 111.434 19.2188 111.012 19.4062C109.731 19.9531 108.872 20.75 108.387 21.7812C108.294 21.9375 108.231 22.0312 108.169 22.0312C108.075 22.0312 108.044 21.875 108.044 21.5469C108.044 21.2031 108.106 20.7812 108.231 20.3438C108.325 19.9844 108.387 19.7031 108.387 19.4688C108.387 18.2812 107.762 17.7188 106.45 17.7188C105.903 17.7188 105.575 18 105.481 18.6094C105.028 21.4531 104.559 25.0469 104.075 29.3906C104.075 29.8125 104.2 30.125 104.434 30.3594C104.872 30.7656 105.419 30.9531 106.028 30.9531ZM114.319 30.8906C115.381 30.7344 116.506 30.0625 117.678 28.875C118.709 27.8281 119.225 27.0312 119.225 26.4844V25.5781C119.194 24.5938 118.162 23.9844 116.147 23.7656C115.084 23.625 114.553 23.2188 114.522 22.4844C114.522 20.4062 115.319 18.3906 116.912 16.4062C117.241 15.9844 117.397 15.625 117.397 15.3125C117.397 14.9531 116.944 14.6406 116.084 14.3594C115.897 14.2812 115.694 14.25 115.506 14.25C114.194 14.25 113.1 15.6562 112.241 18.5156C111.725 20.1406 111.475 21.3594 111.475 22.1562C111.475 23.8281 112.334 24.7812 114.037 25.0469C115.053 25.2031 115.631 25.4219 115.725 25.6406C115.834 25.875 115.897 26.0625 115.897 26.1562C115.897 26.7031 115.35 27.5 114.287 28.5312C113.491 29.2969 113.1 29.8125 113.1 30.0938C113.1 30.6406 113.522 30.8906 114.319 30.8906ZM128.181 30.9531C128.822 30.9219 129.431 30.5469 129.978 29.7812C131.509 27.625 132.275 26.5781 132.306 26.5781L132.338 26.6094V26.7969C132.306 26.8906 132.306 27.0938 132.306 27.375C132.338 28.6562 133.181 29.5156 134.744 30C135.025 30.0938 135.322 30.125 135.666 30.125C137.213 30.125 138.713 28.3438 140.213 24.75C140.884 23.1875 141.213 22 141.213 21.1406L141.181 19.7031C141.119 18.1562 140.416 16.8125 139.103 15.6562C138.775 15.375 138.494 15.25 138.259 15.25C138.072 15.25 137.916 15.3438 137.759 15.5C137.588 15.6562 137.525 15.8281 137.525 15.9844C137.525 16.2031 137.65 16.5 137.916 16.8438C138.525 17.6094 138.838 18.5781 138.838 19.7656C138.838 20.9375 138.556 22.2188 137.978 23.5938C137.463 24.7812 136.947 25.75 136.478 26.4531C135.963 27.1562 135.572 27.5 135.291 27.5C135.197 27.375 135.134 27.0312 135.134 26.4844C135.134 25.8438 135.197 25.0469 135.353 24.1094C135.634 22.3594 135.869 21.2656 136.025 20.8438C136.181 20.4375 136.244 20.0469 136.244 19.6562C136.213 19.125 135.9 18.7344 135.259 18.4531C135.025 18.3594 134.806 18.3125 134.619 18.3125C134.072 18.3125 133.588 18.7344 133.119 19.5938C130.4 24.625 128.884 27.1562 128.603 27.1562C128.541 27.1562 128.509 27.0938 128.509 26.9531C128.509 26.2188 129.15 23.9219 130.431 20.1094C130.525 19.8281 130.556 19.5625 130.556 19.3125C130.525 18.7031 130.197 18.2812 129.525 18.0625C129.306 17.9688 129.056 17.9375 128.791 17.9375C128.244 17.9688 127.838 18.3906 127.541 19.2188C126.619 21.9688 125.916 24.7812 125.4 27.7031C125.369 27.8594 125.369 28.0156 125.369 28.2031C125.369 29.4219 125.916 30.25 126.994 30.7031C127.416 30.8594 127.806 30.9531 128.181 30.9531ZM151.691 32.2344C152.097 32.2031 152.456 32.0781 152.675 31.8594C152.769 31.7656 152.8 31.6562 152.8 31.5312C152.769 31.3438 152.706 31.1562 152.613 30.9531C152.55 30.8594 152.488 30.7656 152.456 30.6719C151.847 29.3281 151.55 27.3125 151.55 24.625C151.55 23.25 151.659 21.875 151.847 20.4688C151.878 20.1719 151.909 19.8906 151.909 19.625C151.909 18 151.05 17.1719 149.316 17.1719C148.253 17.1719 147.269 17.7812 146.316 19.0312C145.863 19.5625 145.597 19.8594 145.534 19.8594C145.503 19.8281 145.472 19.625 145.472 19.3125C145.472 18.4844 145.675 16.9062 146.019 14.6406C146.503 11.5312 146.847 9.60938 147.081 8.9375C147.144 8.6875 147.175 8.4375 147.175 8.14062C147.175 7.09375 146.566 6.57812 145.316 6.54688C144.581 6.54688 144.097 7.15625 143.909 8.34375C143.363 11.4375 142.909 14.5469 142.566 17.6875C142.534 17.7812 142.347 19.1562 141.925 21.8125C141.503 24.4688 141.097 27.125 140.644 29.7812L140.613 30.2188C140.613 31.3125 141.316 31.8594 142.722 31.8594C143.425 31.8281 143.878 31.375 144.034 30.5469C144.769 27.2812 146.019 24.2344 147.784 21.4219C148.003 21.1094 148.159 20.9375 148.253 20.9375C148.394 20.9375 148.456 21.1094 148.456 21.4219V25.7812C148.456 30.0938 149.441 32.2344 151.456 32.2344H151.691ZM155.778 28.2969C155.669 28.0156 155.637 27.7031 155.637 27.2812C155.637 25.875 155.997 24.2344 156.7 22.4219C157.122 21.3594 157.528 20.6562 157.981 20.2656C158.262 20.8438 158.434 21.5156 158.434 22.3125C158.434 23.625 158.106 24.9375 157.497 26.25C157.012 27.25 156.45 27.9531 155.778 28.2969ZM156.278 31.0312C156.637 31.0312 157.012 30.9219 157.372 30.7656C158.434 30.25 159.262 29.2969 159.903 27.8594C160.544 26.4219 160.887 25.2969 160.919 24.4688C160.95 23.6562 160.95 23.2188 160.95 23.125C160.95 21.4531 160.512 20.2031 159.606 19.3438C159.325 19.0625 159.2 18.8281 159.169 18.6719C158.997 17.6094 158.294 17.0781 157.122 17.0781C156.372 17.0781 155.809 17.4531 155.387 18.1875C154.684 19.4375 154.075 20.9062 153.528 22.6406C152.981 24.375 152.731 25.75 152.731 26.7656C152.731 27.4375 152.825 28.0156 153.044 28.5625C153.434 29.5156 153.95 30.1562 154.622 30.5156C155.262 30.8594 155.809 31.0312 156.278 31.0312ZM172.844 27.375C172.484 27.3438 172.328 27.2812 172.328 27.1875C172.297 27.0938 172.297 26.9844 172.297 26.9219C172.297 26.7344 172.688 25.9062 173.453 24.4688C174.797 21.9375 175.75 20.6562 176.297 20.6562C176.516 20.6562 176.625 20.8438 176.625 21.2031C176.625 21.75 176.328 22.5781 175.719 23.7031C174.562 25.8438 173.672 27.0625 173 27.2812C172.938 27.3125 172.875 27.3438 172.844 27.375ZM168.547 39.6562C169.156 39.6562 169.516 39.5312 169.578 39.25C169.641 38.9531 169.672 38.7031 169.672 38.4219L169.641 37.2969C169.641 36.2344 169.828 34.9219 170.188 33.4219C170.984 30.25 171.469 28.625 171.688 28.5938L172.016 28.5625C172.172 28.5625 172.328 28.5938 172.516 28.6875C172.938 28.8438 173.328 28.9062 173.734 28.9062C174.609 28.9062 175.375 28.5625 176.047 27.8594C177.734 26.0938 178.766 23.9844 179.141 21.5156C179.203 21.1719 179.234 20.8125 179.234 20.5C179.203 19.625 178.828 18.9844 178.062 18.6094C177.547 18.3594 177.062 18.2188 176.578 18.2188C175.656 18.25 174.828 18.8281 174.031 19.9844C172.969 21.4531 172.328 22.1875 172.109 22.1875C172.016 22.1875 171.984 22.0938 171.984 21.9375C171.984 21.2656 172.109 20.5938 172.328 19.9219C172.547 19.25 172.656 18.7656 172.656 18.4531C172.656 17.8438 172.297 17.4219 171.625 17.2344C171.438 17.1719 171.281 17.1406 171.109 17.1406C170.531 17.1406 170.156 17.4844 169.969 18.2188C168.328 24.5625 167.234 30.9844 166.672 37.5156L166.641 37.8438C166.672 39.0625 167.312 39.6562 168.547 39.6562ZM189.384 31.7969C189.884 31.7344 190.15 31.625 190.181 31.4688V31.2188C190.181 30.9844 190.15 30.7656 190.056 30.4844C189.962 30.1875 189.884 29.7812 189.884 29.2344C189.884 27.125 190.587 24.0156 192.041 19.8906C192.134 19.625 192.166 19.375 192.166 19.0938C192.134 18.5156 191.806 18.0938 191.134 17.8438C190.853 17.7188 190.556 17.6406 190.275 17.6406C189.666 17.6875 189.181 18 188.9 18.6406C188.353 19.8281 187.369 21.5156 185.994 23.7969C184.353 26.4531 183.306 27.7969 182.884 27.8281C182.791 27.8281 182.759 27.7031 182.759 27.4375C182.759 26.7656 183.009 25.3281 183.556 23.1875C183.978 21.4844 184.259 20.2969 184.447 19.625C184.478 19.4688 184.509 19.25 184.509 19.0312C184.478 18.3906 184.041 18 183.134 17.8438C182.337 17.875 181.697 18.5156 181.212 19.7656C180.603 21.2031 180.197 22.7969 179.978 24.5312C179.744 26.25 179.619 27.4688 179.619 28.1719C179.619 29.0469 179.931 29.7188 180.572 30.1875C181.181 30.6719 181.728 30.8906 182.212 30.8906L182.916 30.8594C183.712 30.8281 184.447 30.4531 185.056 29.75C185.212 29.5469 185.666 29.0156 186.462 28.1094C186.556 28.2656 186.587 28.5312 186.634 28.875C186.666 30.1875 186.978 31.0312 187.525 31.4375C187.837 31.6562 188.322 31.7969 188.931 31.7969H189.384ZM194.425 30.8906C195.488 30.7344 196.613 30.0625 197.784 28.875C198.816 27.8281 199.331 27.0312 199.331 26.4844V25.5781C199.3 24.5938 198.269 23.9844 196.253 23.7656C195.191 23.625 194.659 23.2188 194.628 22.4844C194.628 20.4062 195.425 18.3906 197.019 16.4062C197.347 15.9844 197.503 15.625 197.503 15.3125C197.503 14.9531 197.05 14.6406 196.191 14.3594C196.003 14.2812 195.8 14.25 195.613 14.25C194.3 14.25 193.206 15.6562 192.347 18.5156C191.831 20.1406 191.581 21.3594 191.581 22.1562C191.581 23.8281 192.441 24.7812 194.144 25.0469C195.159 25.2031 195.738 25.4219 195.831 25.6406C195.941 25.875 196.003 26.0625 196.003 26.1562C196.003 26.7031 195.456 27.5 194.394 28.5312C193.597 29.2969 193.206 29.8125 193.206 30.0938C193.206 30.6406 193.628 30.8906 194.425 30.8906ZM209.809 32.2344C210.216 32.2031 210.575 32.0781 210.794 31.8594C210.887 31.7656 210.919 31.6562 210.919 31.5312C210.887 31.3438 210.825 31.1562 210.731 30.9531C210.669 30.8594 210.606 30.7656 210.575 30.6719C209.966 29.3281 209.669 27.3125 209.669 24.625C209.669 23.25 209.778 21.875 209.966 20.4688C209.997 20.1719 210.028 19.8906 210.028 19.625C210.028 18 209.169 17.1719 207.434 17.1719C206.372 17.1719 205.387 17.7812 204.434 19.0312C203.981 19.5625 203.716 19.8594 203.653 19.8594C203.622 19.8281 203.591 19.625 203.591 19.3125C203.591 18.4844 203.794 16.9062 204.137 14.6406C204.622 11.5312 204.966 9.60938 205.2 8.9375C205.262 8.6875 205.294 8.4375 205.294 8.14062C205.294 7.09375 204.684 6.57812 203.434 6.54688C202.7 6.54688 202.216 7.15625 202.028 8.34375C201.481 11.4375 201.028 14.5469 200.684 17.6875C200.653 17.7812 200.466 19.1562 200.044 21.8125C199.622 24.4688 199.216 27.125 198.762 29.7812L198.731 30.2188C198.731 31.3125 199.434 31.8594 200.841 31.8594C201.544 31.8281 201.997 31.375 202.153 30.5469C202.887 27.2812 204.137 24.2344 205.903 21.4219C206.122 21.1094 206.278 20.9375 206.372 20.9375C206.512 20.9375 206.575 21.1094 206.575 21.4219V25.7812C206.575 30.0938 207.559 32.2344 209.575 32.2344H209.809ZM226.141 31.5312C227.125 31.5 227.672 30.9219 227.797 29.7812C227.859 29.1719 228.344 27.5938 229.234 25.1406C230.359 22.0312 231.125 20.5 231.516 20.5C231.609 20.5 231.641 20.6562 231.672 21.0156C231.672 21.2031 231.641 21.75 231.578 22.6719C231.547 23.4062 231.516 24.1719 231.516 24.9062C231.516 26.2812 231.547 27.5312 231.641 28.6562C231.703 29.8125 232.25 30.6406 233.281 31.1875C233.594 31.3438 233.906 31.4375 234.234 31.4375C234.781 31.4062 235.219 31.1875 235.609 30.7344C235.828 30.4844 235.938 30.25 235.938 30.0625C235.891 29.8125 235.734 29.5156 235.391 29.1719C234.719 28.4688 234.391 27.6562 234.391 26.7344C234.391 25.2344 234.656 22.3125 235.156 18L235.188 17.2969C235.156 16.5938 234.812 16.0781 234.141 15.7344C233.844 15.5625 233.531 15.5 233.234 15.5C232.672 15.5312 232.156 15.7969 231.672 16.2969C230.453 17.6094 229.406 19.0938 228.5 20.6875C228.281 21.1406 228.094 21.3594 228 21.3594C227.891 21.3594 227.859 21.2656 227.859 21.0469C227.859 20.6875 228.156 18.6406 228.734 14.9531C228.797 14.3594 228.891 13.9688 228.984 13.875C229.078 13.7812 229.141 13.75 229.234 13.7188C234.625 12.7188 237.594 12.2031 238.203 12.2031C239 12.2031 239.734 12.2969 240.438 12.5312C240.609 12.5625 240.766 12.5938 240.953 12.5938C241.406 12.5625 241.625 12.2969 241.625 11.7656C241.594 10.5156 240.922 9.8125 239.672 9.64062C239.188 9.60938 238.719 9.57812 238.234 9.57812C237.203 9.57812 234.422 9.9375 229.906 10.6094L229.812 10.6406C229.688 10.6406 229.625 10.5781 229.625 10.4219L229.781 9.64062C230.656 5.07812 231.062 2.35938 231.062 1.48438C231.062 0.71875 230.688 0.296875 229.953 0.265625L229.656 0.234375C228.984 0.234375 228.609 0.59375 228.469 1.32812C227.25 7.70312 226.578 10.9531 226.484 11.0625C226.391 11.1562 225.781 11.2812 224.641 11.4375C224.344 11.4375 224.219 11.3125 224.219 11.0625C224.219 10.9531 224.312 10.4531 224.5 9.48438C224.609 8.9375 224.672 8.34375 224.672 7.73438C224.672 6.98438 224.281 6.51562 223.516 6.3125C223.297 6.25 223.094 6.21875 222.938 6.21875C222.141 6.28125 221.719 6.79688 221.625 7.73438C221.344 10.3906 220.984 11.8281 220.5 12.0781C220.031 12.3438 219.328 12.625 218.422 12.9062C217.5 13.2031 216.641 13.4219 215.766 13.5156C214.906 13.6406 214.266 13.8125 213.812 14C213.375 14.2188 213.141 14.5469 213.141 14.9531C213.281 16.1719 213.844 16.7812 214.875 16.7812C215.422 16.7812 216.766 16.5 218.875 15.9219C219.125 15.8281 219.359 15.7969 219.547 15.7969C219.672 15.7969 219.734 15.8906 219.734 16.0781C219.734 16.1719 219.703 16.3438 219.672 16.5312C218.875 19.5625 218.484 22.8594 218.484 26.4531C218.484 27.3438 218.516 28.0469 218.625 28.5938C218.781 29.5781 219.328 30.4219 220.25 31.1562C220.531 31.375 220.828 31.5 221.141 31.5C221.875 31.5 222.234 31.25 222.234 30.7031C222.234 30.5469 222.203 30.4219 222.172 30.2812C221.688 28.6875 221.438 27.0625 221.438 25.3906C221.438 23.3125 221.781 20.75 222.516 17.75L223.156 15.2188C223.25 14.9844 223.391 14.8281 223.578 14.7969C224.953 14.5469 225.688 14.4219 225.75 14.4219C225.875 14.4219 225.953 14.5469 225.953 14.7656C224.672 24.4375 224.031 29.4531 224.031 29.8125C224.062 30.9531 224.766 31.5312 226.141 31.5312ZM239.728 24.4375C239.509 24.4062 239.4 24.2656 239.4 24.1094C239.4 23.8906 240.212 22.4219 241.806 19.7031C241.9 19.5938 241.994 19.5312 242.166 19.5312C242.384 19.5312 242.478 19.625 242.478 19.7969C242.478 20.1406 242.087 21.0156 241.322 22.4219C240.822 23.375 240.275 24.0469 239.728 24.4375ZM240.947 31.1562C241.322 31.1562 241.744 31.125 242.197 31.0938C242.994 30.9844 243.884 30.5781 244.884 29.8438C245.869 29.1094 246.572 28.4062 247.025 27.7344C247.431 27.0625 247.666 26.5781 247.666 26.2188C247.666 25.9062 247.541 25.6406 247.306 25.4219C247.15 25.3281 247.025 25.2656 246.869 25.2656C246.572 25.2656 246.166 25.5156 245.65 26.0312C245.228 26.3906 244.556 26.9219 243.634 27.5938C242.197 28.6562 241.072 29.1719 240.212 29.1719C239.634 29.1719 239.244 28.8125 239.056 28.1406C239.025 28.0156 238.994 27.8906 238.994 27.7656C238.994 27.4688 239.275 27.1875 239.853 26.8906C241.494 26.125 243.212 24.4062 245.041 21.6875C245.353 21.0781 245.525 20.5 245.525 19.9531C245.525 19.5 245.416 19.0938 245.197 18.6719C244.525 17.3594 243.509 16.6875 242.197 16.6875C240.556 16.6875 239.056 18.0938 237.619 20.9062C236.822 22.4844 236.369 23.7656 236.275 24.75C236.15 25.75 236.072 26.3594 236.072 26.6406C236.072 29.6406 237.712 31.1562 240.947 31.1562ZM263.809 32.2344C264.216 32.2031 264.575 32.0781 264.794 31.8594C264.887 31.7656 264.919 31.6562 264.919 31.5312C264.887 31.3438 264.825 31.1562 264.731 30.9531C264.669 30.8594 264.606 30.7656 264.575 30.6719C263.966 29.3281 263.669 27.3125 263.669 24.625C263.669 23.25 263.778 21.875 263.966 20.4688C263.997 20.1719 264.028 19.8906 264.028 19.625C264.028 18 263.169 17.1719 261.434 17.1719C260.372 17.1719 259.387 17.7812 258.434 19.0312C257.981 19.5625 257.716 19.8594 257.653 19.8594C257.622 19.8281 257.591 19.625 257.591 19.3125C257.591 18.4844 257.794 16.9062 258.137 14.6406C258.622 11.5312 258.966 9.60938 259.2 8.9375C259.262 8.6875 259.294 8.4375 259.294 8.14062C259.294 7.09375 258.684 6.57812 257.434 6.54688C256.7 6.54688 256.216 7.15625 256.028 8.34375C255.481 11.4375 255.028 14.5469 254.684 17.6875C254.653 17.7812 254.466 19.1562 254.044 21.8125C253.622 24.4688 253.216 27.125 252.762 29.7812L252.731 30.2188C252.731 31.3125 253.434 31.8594 254.841 31.8594C255.544 31.8281 255.997 31.375 256.153 30.5469C256.887 27.2812 258.137 24.2344 259.903 21.4219C260.122 21.1094 260.278 20.9375 260.372 20.9375C260.512 20.9375 260.575 21.1094 260.575 21.4219V25.7812C260.575 30.0938 261.559 32.2344 263.575 32.2344H263.809ZM274.616 31.7969C275.116 31.7344 275.381 31.625 275.413 31.4688V31.2188C275.413 30.9844 275.381 30.7656 275.288 30.4844C275.194 30.1875 275.116 29.7812 275.116 29.2344C275.116 27.125 275.819 24.0156 277.272 19.8906C277.366 19.625 277.397 19.375 277.397 19.0938C277.366 18.5156 277.038 18.0938 276.366 17.8438C276.084 17.7188 275.788 17.6406 275.506 17.6406C274.897 17.6875 274.413 18 274.131 18.6406C273.584 19.8281 272.6 21.5156 271.225 23.7969C269.584 26.4531 268.538 27.7969 268.116 27.8281C268.022 27.8281 267.991 27.7031 267.991 27.4375C267.991 26.7656 268.241 25.3281 268.788 23.1875C269.209 21.4844 269.491 20.2969 269.678 19.625C269.709 19.4688 269.741 19.25 269.741 19.0312C269.709 18.3906 269.272 18 268.366 17.8438C267.569 17.875 266.928 18.5156 266.444 19.7656C265.834 21.2031 265.428 22.7969 265.209 24.5312C264.975 26.25 264.85 27.4688 264.85 28.1719C264.85 29.0469 265.163 29.7188 265.803 30.1875C266.413 30.6719 266.959 30.8906 267.444 30.8906L268.147 30.8594C268.944 30.8281 269.678 30.4531 270.288 29.75C270.444 29.5469 270.897 29.0156 271.694 28.1094C271.788 28.2656 271.819 28.5312 271.866 28.875C271.897 30.1875 272.209 31.0312 272.756 31.4375C273.069 31.6562 273.553 31.7969 274.163 31.7969H274.616ZM279.25 32.5625C280.453 32.4688 281.641 31.0938 282.766 28.4062C283.312 27.0625 283.922 26.0625 284.562 25.4219C284.266 27.0312 284.141 28.375 284.141 29.4531C284.234 30.2188 284.75 30.7656 285.703 31.0625C285.938 31.125 286.156 31.1562 286.375 31.1562C287.5 31.1562 288.5 30.0625 289.328 27.8906C289.609 27.0938 289.969 26.3906 290.344 25.7812C290.641 25.3594 290.828 25.1406 290.953 25.1406C291.078 25.1406 291.156 25.4531 291.156 26.0938C291.156 26.25 291.156 26.4219 291.109 26.6406C291.078 26.8594 291.078 27.1562 291.078 27.4375C291.078 28.3438 291.219 29.0156 291.438 29.4844C291.953 30.5469 292.688 31.0625 293.672 31.0625C293.906 31.0625 294.094 30.9844 294.25 30.8594C294.469 30.6719 294.609 30.4844 294.609 30.3125C294.609 30.1562 294.547 30 294.406 29.7812C294.156 29.2969 294.031 28.5 294.031 27.375C294.031 25.75 294.375 23.7344 295.109 21.2656C295.375 20.3438 295.5 19.5312 295.5 18.8594C295.5 18.1562 295.109 17.6406 294.344 17.3594C294.219 17.3281 294.094 17.2969 293.938 17.2969C293.062 17.2969 292.141 18.125 291.109 19.7656C290.641 20.5625 290.188 21.2969 289.844 21.9688C289.328 22.9531 289 23.4375 288.875 23.4688C288.844 23.4688 288.812 23.3438 288.812 23.125C288.812 22.6094 288.969 21.4844 289.297 19.7969C289.328 19.625 289.328 19.4062 289.328 19.125C289.297 18.7031 289.172 18.3594 288.906 18.0938C288.594 17.7812 288.141 17.6094 287.594 17.6094C286.984 17.6406 286.438 17.9688 286.031 18.6094C285.328 19.7344 284.656 20.8125 284.016 21.9375C282.375 24.8125 281.391 26.25 281.031 26.2812C280.906 26.2812 280.844 26.0625 280.844 25.6406C280.844 24.75 281.172 23.0312 281.766 20.4375C281.844 20.2031 281.875 19.9844 281.875 19.7969C281.844 19.4062 281.703 19.0625 281.453 18.7656C281.172 18.4844 280.812 18.3594 280.391 18.3594C279.281 18.3594 278.094 22.1562 276.812 29.8125V30.6406C276.844 31.5 277.297 32.0781 278.219 32.4062C278.516 32.5 278.797 32.5625 279.078 32.5625H279.25ZM304.306 30.1562C304.853 30.1562 305.103 30 305.103 29.7188C305.103 29.6094 305.072 29.4531 304.978 29.2969C304.634 28.5 304.431 27.625 304.431 26.7656C304.431 25.5781 304.634 24.2344 305.009 22.6719C305.103 22.25 305.166 21.875 305.166 21.4844C305.166 20.5938 304.884 19.9844 304.275 19.6562C304.181 19.625 304.025 19.5938 303.853 19.5938C303.697 19.5938 303.478 19.625 303.259 19.7031C302.837 19.8281 301.65 21.1094 299.728 23.5C298.228 25.3906 297.306 26.3594 296.978 26.3594C296.916 26.3594 296.884 26.2812 296.884 26.1875C296.884 26.0625 296.947 25.8438 297.072 25.5156C298.009 23.0625 298.9 21.2031 299.822 19.9531C300.056 19.6562 300.212 19.5 300.337 19.5C300.462 19.5312 300.634 19.5938 300.791 19.7031C300.947 19.7969 301.197 19.8594 301.494 19.8594C301.775 19.8594 302.041 19.625 302.259 19.1875C302.353 19.0312 302.384 18.8281 302.384 18.5781C302.384 18.3125 302.166 18 301.712 17.6406C301.275 17.2969 300.759 17.1406 300.212 17.1406C299.322 17.1406 298.447 17.6875 297.619 18.7656C295.603 21.4219 294.322 24.1094 293.775 26.7656C293.712 27.0625 293.681 27.3125 293.681 27.5625C293.681 28.5625 294.134 29.3281 294.994 29.8125C295.416 30.0312 295.822 30.1562 296.244 30.1562C296.791 30.1562 297.337 29.8438 297.869 29.2344C298.416 28.625 298.962 27.9531 299.541 27.2188C300.556 25.9062 301.072 25.2656 301.103 25.2656C301.275 25.2656 301.337 25.6094 301.337 26.3125C301.337 28.2969 302.166 29.5469 303.853 30.0938C303.994 30.125 304.15 30.1562 304.306 30.1562ZM308.112 30.8281C308.753 30.8281 309.331 30.3594 309.878 29.3906C312.112 25.3906 313.3 23.375 313.394 23.375C313.425 23.375 313.456 23.4375 313.456 23.5625C313.456 23.7344 313.425 24.0156 313.394 24.4062C313.362 24.8125 313.331 25.8125 313.331 27.4375C313.362 28.625 313.8 29.5781 314.612 30.25C314.987 30.6094 315.409 30.7656 315.831 30.7656C316.019 30.7656 316.206 30.7031 316.362 30.5781C316.534 30.4844 316.628 30.3594 316.628 30.1875C316.628 30.0938 316.597 29.9688 316.566 29.8438C316.394 29.6875 316.331 29.0781 316.331 27.9844C316.331 26.7969 316.816 24.1719 317.8 20.1406C317.878 19.8594 317.909 19.5938 317.909 19.375C317.878 18.4531 317.519 17.8125 316.816 17.3906C316.534 17.2344 316.206 17.1406 315.894 17.1406C315.284 17.1719 314.706 17.5469 314.097 18.2812C312.909 19.7344 311.628 21.4219 310.222 23.4062C309.941 23.8281 309.706 24.0469 309.612 24.0469C309.519 24.0469 309.487 23.9219 309.487 23.7031C309.487 23.125 309.706 22.125 310.159 20.7188C310.253 20.375 310.316 20.0781 310.316 19.8906C310.284 19.25 309.847 18.7969 308.972 18.5156C308.753 18.4531 308.597 18.4219 308.425 18.4219C307.894 18.4531 307.503 18.8594 307.347 19.7031C306.769 22.3906 306.159 25.0781 305.55 27.7969C305.519 27.9844 305.487 28.2031 305.487 28.5C305.519 29.4531 306.097 30.1562 307.253 30.6406C307.534 30.7656 307.831 30.8281 308.112 30.8281ZM326.022 30.9531C326.631 30.9531 327.038 30.4531 327.272 29.4531C328.069 25.8438 329.725 23.0938 332.256 21.1406C332.35 21.0781 332.459 21.0156 332.584 20.9375C333.053 20.7188 333.319 20.4688 333.319 20.2031C333.319 20.0469 333.256 19.8906 333.131 19.7031C332.897 19.3125 332.584 19.125 332.225 19.125C331.819 19.125 331.428 19.2188 331.006 19.4062C329.725 19.9531 328.866 20.75 328.381 21.7812C328.288 21.9375 328.225 22.0312 328.163 22.0312C328.069 22.0312 328.038 21.875 328.038 21.5469C328.038 21.2031 328.1 20.7812 328.225 20.3438C328.319 19.9844 328.381 19.7031 328.381 19.4688C328.381 18.2812 327.756 17.7188 326.444 17.7188C325.897 17.7188 325.569 18 325.475 18.6094C325.022 21.4531 324.553 25.0469 324.069 29.3906C324.069 29.8125 324.194 30.125 324.428 30.3594C324.866 30.7656 325.413 30.9531 326.022 30.9531ZM340.875 30.1562C341.422 30.1562 341.672 30 341.672 29.7188C341.672 29.6094 341.641 29.4531 341.547 29.2969C341.203 28.5 341 27.625 341 26.7656C341 25.5781 341.203 24.2344 341.578 22.6719C341.672 22.25 341.734 21.875 341.734 21.4844C341.734 20.5938 341.453 19.9844 340.844 19.6562C340.75 19.625 340.594 19.5938 340.422 19.5938C340.266 19.5938 340.047 19.625 339.828 19.7031C339.406 19.8281 338.219 21.1094 336.297 23.5C334.797 25.3906 333.875 26.3594 333.547 26.3594C333.484 26.3594 333.453 26.2812 333.453 26.1875C333.453 26.0625 333.516 25.8438 333.641 25.5156C334.578 23.0625 335.469 21.2031 336.391 19.9531C336.625 19.6562 336.781 19.5 336.906 19.5C337.031 19.5312 337.203 19.5938 337.359 19.7031C337.516 19.7969 337.766 19.8594 338.062 19.8594C338.344 19.8594 338.609 19.625 338.828 19.1875C338.922 19.0312 338.953 18.8281 338.953 18.5781C338.953 18.3125 338.734 18 338.281 17.6406C337.844 17.2969 337.328 17.1406 336.781 17.1406C335.891 17.1406 335.016 17.6875 334.188 18.7656C332.172 21.4219 330.891 24.1094 330.344 26.7656C330.281 27.0625 330.25 27.3125 330.25 27.5625C330.25 28.5625 330.703 29.3281 331.562 29.8125C331.984 30.0312 332.391 30.1562 332.812 30.1562C333.359 30.1562 333.906 29.8438 334.438 29.2344C334.984 28.625 335.531 27.9531 336.109 27.2188C337.125 25.9062 337.641 25.2656 337.672 25.2656C337.844 25.2656 337.906 25.6094 337.906 26.3125C337.906 28.2969 338.734 29.5469 340.422 30.0938C340.562 30.125 340.719 30.1562 340.875 30.1562ZM345.541 31.2188C347.212 31.2188 348.462 30.6719 349.322 29.5469C349.9 28.7812 350.244 27.8906 350.369 26.8906C350.369 26.6406 350.244 26.5156 350.025 26.5156H349.603C349.322 26.5156 349.072 26.6094 348.869 26.8281C347.369 28.5 346.369 29.3281 345.9 29.3281C345.775 29.3281 345.634 29.2969 345.478 29.2031C344.994 28.9062 344.775 28.4375 344.775 27.7656C344.775 25.2031 345.353 22.7344 346.509 20.4062C346.978 19.4062 347.587 18.8281 348.291 18.6094C348.837 18.4531 349.166 18.3125 349.291 18.2188C349.384 18.125 349.447 18 349.447 17.8125C349.447 16.8438 348.681 16.375 347.15 16.375C346.337 16.375 345.697 16.6562 345.228 17.2656C344.587 18.0625 343.916 19.2188 343.244 20.7812C342.119 23.3125 341.541 25.4219 341.541 27.0938C341.541 27.9531 341.744 28.6875 342.119 29.2344C343.009 30.5469 344.166 31.2188 345.541 31.2188ZM353.441 24.4375C353.222 24.4062 353.112 24.2656 353.112 24.1094C353.112 23.8906 353.925 22.4219 355.519 19.7031C355.612 19.5938 355.706 19.5312 355.878 19.5312C356.097 19.5312 356.191 19.625 356.191 19.7969C356.191 20.1406 355.8 21.0156 355.034 22.4219C354.534 23.375 353.987 24.0469 353.441 24.4375ZM354.659 31.1562C355.034 31.1562 355.456 31.125 355.909 31.0938C356.706 30.9844 357.597 30.5781 358.597 29.8438C359.581 29.1094 360.284 28.4062 360.737 27.7344C361.144 27.0625 361.378 26.5781 361.378 26.2188C361.378 25.9062 361.253 25.6406 361.019 25.4219C360.862 25.3281 360.737 25.2656 360.581 25.2656C360.284 25.2656 359.878 25.5156 359.362 26.0312C358.941 26.3906 358.269 26.9219 357.347 27.5938C355.909 28.6562 354.784 29.1719 353.925 29.1719C353.347 29.1719 352.956 28.8125 352.769 28.1406C352.737 28.0156 352.706 27.8906 352.706 27.7656C352.706 27.4688 352.987 27.1875 353.566 26.8906C355.206 26.125 356.925 24.4062 358.753 21.6875C359.066 21.0781 359.237 20.5 359.237 19.9531C359.237 19.5 359.128 19.0938 358.909 18.6719C358.237 17.3594 357.222 16.6875 355.909 16.6875C354.269 16.6875 352.769 18.0938 351.331 20.9062C350.534 22.4844 350.081 23.7656 349.987 24.75C349.862 25.75 349.784 26.3594 349.784 26.6406C349.784 29.6406 351.425 31.1562 354.659 31.1562ZM370.288 41.0156C370.131 41.0156 370.022 40.75 370.022 40.2031C370.022 37.6094 370.319 34.4844 370.866 30.7969C370.959 30.0625 371.053 29.6406 371.116 29.5469C371.178 29.4531 371.241 29.3906 371.303 29.3281C371.569 29.5469 371.756 30.3125 371.85 31.5625C371.85 32.8125 371.663 34.5469 371.272 36.7812C370.803 39.5625 370.444 40.9688 370.288 41.0156ZM370.506 43.5312C371.428 43.4375 372.147 42.8594 372.647 41.875C373.319 40.625 373.678 39.3125 373.772 37.9688C373.866 36.6562 373.897 35.5312 373.897 34.6719C373.897 31.4688 373.459 28.9688 372.553 27.1875C372.491 27.0625 372.459 26.8906 372.459 26.7344C372.459 26.6094 372.522 26.5156 372.616 26.4844C372.944 26.3594 373.256 26.2188 373.553 26.0625C374.288 25.7188 374.928 25.5469 375.397 25.5469C375.756 25.5469 376.147 25.6875 376.553 25.9375C376.819 26.0938 377.069 26.1562 377.288 26.1562C377.647 26.1562 377.928 26.0312 378.131 25.8125C378.319 25.5781 378.413 25.3594 378.413 25.1406C378.413 24.7812 378.225 24.4688 377.834 24.1094C377.35 23.6562 377.006 23.4375 376.741 23.4062C376.459 23.375 376.272 23.375 376.1 23.375C375.631 23.375 375.084 23.4688 374.413 23.625C373.741 23.7969 373.288 23.8906 373.006 23.8906C372.678 23.8906 372.522 23.625 372.522 23.125C372.522 22.7656 372.584 22.3594 372.709 21.8438C373.459 19.125 373.834 17.3906 373.834 16.6875C373.834 15.8594 373.319 15.4375 372.272 15.4375C371.975 15.4375 371.788 15.5 371.631 15.625C371.366 15.8594 371.084 16.5938 370.803 17.7812C370.256 19.8906 369.897 21.6406 369.678 23.0312C369.413 24.625 368.616 25.7188 367.303 26.3125C366.756 26.5781 366.506 26.7969 366.475 27.0312C366.444 27.25 366.444 27.4062 366.444 27.4688C366.475 27.8281 366.756 28.1094 367.303 28.3438C367.85 28.5625 368.147 28.7812 368.178 28.9375C368.209 29.1406 368.241 29.2656 368.272 29.3281V29.6094C368.272 29.875 368.241 30.1562 368.178 30.4531C367.506 33.9375 367.178 36.75 367.178 38.8906C367.178 39.5312 367.241 40.2656 367.334 41.1406C367.506 42.5156 368.303 43.2812 369.709 43.5L370.506 43.5312ZM379.047 28.2969C378.938 28.0156 378.906 27.7031 378.906 27.2812C378.906 25.875 379.266 24.2344 379.969 22.4219C380.391 21.3594 380.797 20.6562 381.25 20.2656C381.531 20.8438 381.703 21.5156 381.703 22.3125C381.703 23.625 381.375 24.9375 380.766 26.25C380.281 27.25 379.719 27.9531 379.047 28.2969ZM379.547 31.0312C379.906 31.0312 380.281 30.9219 380.641 30.7656C381.703 30.25 382.531 29.2969 383.172 27.8594C383.812 26.4219 384.156 25.2969 384.188 24.4688C384.219 23.6562 384.219 23.2188 384.219 23.125C384.219 21.4531 383.781 20.2031 382.875 19.3438C382.594 19.0625 382.469 18.8281 382.438 18.6719C382.266 17.6094 381.562 17.0781 380.391 17.0781C379.641 17.0781 379.078 17.4531 378.656 18.1875C377.953 19.4375 377.344 20.9062 376.797 22.6406C376.25 24.375 376 25.75 376 26.7656C376 27.4375 376.094 28.0156 376.312 28.5625C376.703 29.5156 377.219 30.1562 377.891 30.5156C378.531 30.8594 379.078 31.0312 379.547 31.0312ZM386.072 30.9531C386.681 30.9531 387.087 30.4531 387.322 29.4531C388.119 25.8438 389.775 23.0938 392.306 21.1406C392.4 21.0781 392.509 21.0156 392.634 20.9375C393.103 20.7188 393.369 20.4688 393.369 20.2031C393.369 20.0469 393.306 19.8906 393.181 19.7031C392.947 19.3125 392.634 19.125 392.275 19.125C391.869 19.125 391.478 19.2188 391.056 19.4062C389.775 19.9531 388.916 20.75 388.431 21.7812C388.337 21.9375 388.275 22.0312 388.212 22.0312C388.119 22.0312 388.087 21.875 388.087 21.5469C388.087 21.2031 388.15 20.7812 388.275 20.3438C388.369 19.9844 388.431 19.7031 388.431 19.4688C388.431 18.2812 387.806 17.7188 386.494 17.7188C385.947 17.7188 385.619 18 385.525 18.6094C385.072 21.4531 384.603 25.0469 384.119 29.3906C384.119 29.8125 384.244 30.125 384.478 30.3594C384.916 30.7656 385.462 30.9531 386.072 30.9531ZM394.331 30.9531C394.972 30.9219 395.581 30.5469 396.128 29.7812C397.659 27.625 398.425 26.5781 398.456 26.5781L398.487 26.6094V26.7969C398.456 26.8906 398.456 27.0938 398.456 27.375C398.487 28.6562 399.331 29.5156 400.894 30C401.175 30.0938 401.472 30.125 401.816 30.125C403.362 30.125 404.862 28.3438 406.362 24.75C407.034 23.1875 407.362 22 407.362 21.1406L407.331 19.7031C407.269 18.1562 406.566 16.8125 405.253 15.6562C404.925 15.375 404.644 15.25 404.409 15.25C404.222 15.25 404.066 15.3438 403.909 15.5C403.737 15.6562 403.675 15.8281 403.675 15.9844C403.675 16.2031 403.8 16.5 404.066 16.8438C404.675 17.6094 404.987 18.5781 404.987 19.7656C404.987 20.9375 404.706 22.2188 404.128 23.5938C403.612 24.7812 403.097 25.75 402.628 26.4531C402.112 27.1562 401.722 27.5 401.441 27.5C401.347 27.375 401.284 27.0312 401.284 26.4844C401.284 25.8438 401.347 25.0469 401.503 24.1094C401.784 22.3594 402.019 21.2656 402.175 20.8438C402.331 20.4375 402.394 20.0469 402.394 19.6562C402.362 19.125 402.05 18.7344 401.409 18.4531C401.175 18.3594 400.956 18.3125 400.769 18.3125C400.222 18.3125 399.737 18.7344 399.269 19.5938C396.55 24.625 395.034 27.1562 394.753 27.1562C394.691 27.1562 394.659 27.0938 394.659 26.9531C394.659 26.2188 395.3 23.9219 396.581 20.1094C396.675 19.8281 396.706 19.5625 396.706 19.3125C396.675 18.7031 396.347 18.2812 395.675 18.0625C395.456 17.9688 395.206 17.9375 394.941 17.9375C394.394 17.9688 393.987 18.3906 393.691 19.2188C392.769 21.9688 392.066 24.7812 391.55 27.7031C391.519 27.8594 391.519 28.0156 391.519 28.2031C391.519 29.4219 392.066 30.25 393.144 30.7031C393.566 30.8594 393.956 30.9531 394.331 30.9531ZM416.169 30.1562C416.716 30.1562 416.966 30 416.966 29.7188C416.966 29.6094 416.934 29.4531 416.841 29.2969C416.497 28.5 416.294 27.625 416.294 26.7656C416.294 25.5781 416.497 24.2344 416.872 22.6719C416.966 22.25 417.028 21.875 417.028 21.4844C417.028 20.5938 416.747 19.9844 416.138 19.6562C416.044 19.625 415.888 19.5938 415.716 19.5938C415.559 19.5938 415.341 19.625 415.122 19.7031C414.7 19.8281 413.513 21.1094 411.591 23.5C410.091 25.3906 409.169 26.3594 408.841 26.3594C408.778 26.3594 408.747 26.2812 408.747 26.1875C408.747 26.0625 408.809 25.8438 408.934 25.5156C409.872 23.0625 410.763 21.2031 411.684 19.9531C411.919 19.6562 412.075 19.5 412.2 19.5C412.325 19.5312 412.497 19.5938 412.653 19.7031C412.809 19.7969 413.059 19.8594 413.356 19.8594C413.638 19.8594 413.903 19.625 414.122 19.1875C414.216 19.0312 414.247 18.8281 414.247 18.5781C414.247 18.3125 414.028 18 413.575 17.6406C413.138 17.2969 412.622 17.1406 412.075 17.1406C411.184 17.1406 410.309 17.6875 409.481 18.7656C407.466 21.4219 406.184 24.1094 405.638 26.7656C405.575 27.0625 405.544 27.3125 405.544 27.5625C405.544 28.5625 405.997 29.3281 406.856 29.8125C407.278 30.0312 407.684 30.1562 408.106 30.1562C408.653 30.1562 409.2 29.8438 409.731 29.2344C410.278 28.625 410.825 27.9531 411.403 27.2188C412.419 25.9062 412.934 25.2656 412.966 25.2656C413.138 25.2656 413.2 25.6094 413.2 26.3125C413.2 28.2969 414.028 29.5469 415.716 30.0938C415.856 30.125 416.013 30.1562 416.169 30.1562ZM419.303 30.9531C419.913 30.9531 420.319 30.4531 420.553 29.4531C421.35 25.8438 423.006 23.0938 425.538 21.1406C425.631 21.0781 425.741 21.0156 425.866 20.9375C426.334 20.7188 426.6 20.4688 426.6 20.2031C426.6 20.0469 426.538 19.8906 426.413 19.7031C426.178 19.3125 425.866 19.125 425.506 19.125C425.1 19.125 424.709 19.2188 424.288 19.4062C423.006 19.9531 422.147 20.75 421.663 21.7812C421.569 21.9375 421.506 22.0312 421.444 22.0312C421.35 22.0312 421.319 21.875 421.319 21.5469C421.319 21.2031 421.381 20.7812 421.506 20.3438C421.6 19.9844 421.663 19.7031 421.663 19.4688C421.663 18.2812 421.038 17.7188 419.725 17.7188C419.178 17.7188 418.85 18 418.756 18.6094C418.303 21.4531 417.834 25.0469 417.35 29.3906C417.35 29.8125 417.475 30.125 417.709 30.3594C418.147 30.7656 418.694 30.9531 419.303 30.9531ZM427.688 29.9375C427.5 29.9375 427.406 29.8125 427.406 29.5469V28.8125C427.406 23.9844 428.719 20.0781 431.375 17.1719C431.719 16.8125 431.953 16.625 432.109 16.625C432.234 16.625 432.297 16.75 432.297 17.0156C432.297 17.5781 431.828 19.1562 430.859 21.7188C429.875 24.2969 429.172 26.3125 428.688 27.7656C428.203 29.2031 427.891 29.9375 427.688 29.9375ZM436.391 39.1875C437.203 39.1562 437.609 38.9844 437.609 38.6719C437.609 38.3906 437.484 38.1562 437.234 38C436.172 36.375 435.625 34.25 435.625 31.625C435.594 29.0469 435.594 27.5938 435.594 27.375C435.594 22.6406 436.047 18.5469 436.906 15.0625C437.391 13.0781 438.094 10.6094 438.953 7.70312C439.312 6.45312 439.5 5.57812 439.5 5.14062C439.469 4.53125 439.016 4.10938 438.156 3.89062C437.969 3.85938 437.734 3.82812 437.453 3.82812C436.969 3.85938 436.594 4.34375 436.297 5.26562L434.859 10.0938C434.453 11.4688 434.062 12.5625 433.703 13.3594C433.359 14.1562 432.562 14.5781 431.344 14.5781C430.094 14.6094 429.141 15.1562 428.391 16.2344C425.938 19.9844 424.688 23.8594 424.688 27.9219C424.688 28.9688 424.781 29.9375 425 30.7969C425.391 32.3438 426.281 33.1094 427.719 33.1094C428.719 33.1094 429.547 32.1719 430.219 30.2812C430.578 29.3281 431.375 26.8281 432.688 22.7969C432.906 22.125 433.062 21.7812 433.141 21.7812C433.172 21.7812 433.203 21.8438 433.203 21.9688C433.109 22.7969 433.031 25.0781 433.031 28.7812C433.031 31.8906 433.391 34.3906 434.062 36.2344C434.766 38.1875 435.531 39.1875 436.328 39.1875H436.391Z" fill="#2B2B30"/>
</svg>
