<svg width="367" height="43" viewBox="0 0 367 43" fill="none" xmlns="http://www.w3.org/2000/svg">
<path d="M3.25 32.8438H2.79688C1.48438 32.75 0.8125 32.0781 0.71875 30.7969C0.71875 28.2969 0.96875 25.4219 1.45312 22.1562C1.8125 19.7969 2.48438 15.7969 3.5 10.1875C3.59375 9.35938 3.95312 8.90625 4.53125 8.875C5.60938 8.875 6.1875 9.29688 6.25 10.125C6.25 10.3594 6.21875 10.5781 6.1875 10.7344C4.625 19.5312 3.82812 24.1719 3.82812 24.5938C3.82812 25.0156 3.92188 25.2031 4.07812 25.2031C4.26562 25.2031 4.59375 24.5 5.04688 23.125C5.45312 21.75 6.25 19.8281 7.4375 17.3594C8.875 14.3594 10.125 12.8438 11.1875 12.8438C12.1719 12.9375 12.6875 13.2969 12.6875 13.9688V14.5156C12.5938 16.9688 12.5625 18.7344 12.5625 19.7969C12.5625 21.7188 12.625 23.4375 12.7188 24.9375C12.9062 28.0156 13.2656 29.5469 13.8125 29.5469C13.9062 29.5469 14 29.5156 14.1562 29.4531C14.3125 29.3906 14.7031 28.6562 15.375 27.2812C16.0156 25.9062 16.6875 24.0156 17.3906 21.5781C18.3906 18.125 18.8906 15.0312 18.8906 12.2344C18.7969 10.0312 18.5156 8.4375 17.9688 7.5C17.875 7.3125 17.8125 7.125 17.8125 6.89062C17.8125 6.73438 17.875 6.60938 18 6.45312C18.125 6.28125 18.3125 6.21875 18.5469 6.21875C18.7656 6.21875 19.0312 6.3125 19.3125 6.51562C20.4062 7.25 21.0469 8.10938 21.2656 9.14062C21.4219 9.75 21.4844 10.4219 21.4844 11.0938C21.4844 12.375 21.2656 14.2812 20.8125 16.8438C20.4688 18.9531 19.9531 21.1719 19.2812 23.5C17.7812 28.8438 16.0781 31.5 14.2188 31.5H12.8125C11.8594 31.4688 11.125 30.7031 10.5781 29.1719C9.84375 26.7969 9.45312 24.2969 9.45312 21.6406C9.45312 21.2344 9.45312 20.8438 9.48438 20.5C9.51562 20.1406 9.51562 19.8906 9.51562 19.7344C9.51562 19.4375 9.45312 19.2812 9.35938 19.2812L9.14062 19.375C8.9375 19.5312 7.5625 23.4062 5.04688 30.9844C4.8125 32.1719 4.23438 32.7812 3.25 32.8438ZM23.7281 24.4375C24.275 24.0469 24.8219 23.375 25.3219 22.4219C26.0875 21.0156 26.4781 20.1406 26.4781 19.7969C26.4781 19.625 26.3844 19.5312 26.1656 19.5312C25.9937 19.5312 25.9 19.5938 25.8062 19.7031C24.2125 22.4219 23.4 23.8906 23.4 24.1094C23.4 24.2656 23.5094 24.4062 23.7281 24.4375ZM24.9469 31.1562C21.7125 31.1562 20.0719 29.6406 20.0719 26.6406C20.0719 26.3594 20.15 25.75 20.275 24.75C20.3687 23.7656 20.8219 22.4844 21.6187 20.9062C23.0562 18.0938 24.5562 16.6875 26.1969 16.6875C27.5094 16.6875 28.525 17.3594 29.1969 18.6719C29.4156 19.0938 29.525 19.5 29.525 19.9531C29.525 20.5 29.3531 21.0781 29.0406 21.6875C27.2125 24.4062 25.4937 26.125 23.8531 26.8906C23.275 27.1875 22.9937 27.4688 22.9937 27.7656C22.9937 27.8906 23.025 28.0156 23.0562 28.1406C23.2437 28.8125 23.6344 29.1719 24.2125 29.1719C25.0719 29.1719 26.1969 28.6562 27.6344 27.5938C28.5562 26.9219 29.2281 26.3906 29.65 26.0312C30.1656 25.5156 30.5719 25.2656 30.8687 25.2656C31.025 25.2656 31.15 25.3281 31.3062 25.4219C31.5406 25.6406 31.6656 25.9062 31.6656 26.2188C31.6656 26.5781 31.4312 27.0625 31.025 27.7344C30.5719 28.4062 29.8687 29.1094 28.8844 29.8438C27.8844 30.5781 26.9937 30.9844 26.1969 31.0938C25.7437 31.125 25.3219 31.1562 24.9469 31.1562ZM40.3094 32.9375C38.6844 32.9375 37.6531 32.1719 37.1844 30.6094C36.8875 29.6875 36.7313 28.5312 36.7313 27.1875C36.7313 24.9062 37.1844 22.0625 38.1063 18.6094L40.7938 8.29688C41.0125 7.5 41.4344 7.09375 42.1063 7.09375C42.2938 7.09375 42.5281 7.125 42.7469 7.21875C43.2625 7.40625 43.5125 7.76562 43.5125 8.26562C43.5125 8.5 43.4813 8.78125 43.3875 9.10938C40.8875 18.6719 39.6375 25.1406 39.6375 28.5625C39.6375 30.1562 39.9344 30.9531 40.5125 30.9531C41.2469 30.9531 42.8094 29.8438 45.2156 27.5938C45.2469 27.5938 45.2469 27.5938 45.2469 27.5625C45.4656 27.3438 45.7156 27.25 45.9813 27.2188C46.1375 27.2188 46.2625 27.2812 46.4344 27.4062C46.5906 27.5312 46.6531 27.7031 46.6531 27.8906C46.6531 28.1094 46.5906 28.3438 46.4344 28.5938C44.7313 31.5 42.6844 32.9375 40.3094 32.9375ZM48.0219 28.2969C48.6937 27.9531 49.2562 27.25 49.7406 26.25C50.35 24.9375 50.6781 23.625 50.6781 22.3125C50.6781 21.5156 50.5062 20.8438 50.225 20.2656C49.7719 20.6562 49.3656 21.3594 48.9437 22.4219C48.2406 24.2344 47.8812 25.875 47.8812 27.2812C47.8812 27.7031 47.9125 28.0156 48.0219 28.2969ZM48.5219 31.0312C48.0531 31.0312 47.5062 30.8594 46.8656 30.5156C46.1937 30.1562 45.6781 29.5156 45.2875 28.5625C45.0687 28.0156 44.975 27.4375 44.975 26.7656C44.975 25.75 45.225 24.375 45.7719 22.6406C46.3187 20.9062 46.9281 19.4375 47.6312 18.1875C48.0531 17.4531 48.6156 17.0781 49.3656 17.0781C50.5375 17.0781 51.2406 17.6094 51.4125 18.6719C51.4437 18.8281 51.5687 19.0625 51.85 19.3438C52.7562 20.2031 53.1937 21.4531 53.1937 23.125C53.1937 23.2188 53.1937 23.6562 53.1625 24.4688C53.1312 25.2969 52.7875 26.4219 52.1469 27.8594C51.5062 29.2969 50.6781 30.25 49.6156 30.7656C49.2562 30.9219 48.8812 31.0312 48.5219 31.0312ZM56.0312 30.1562L55.3906 30.125C53.8906 29.8438 53.125 28.9062 53.0938 27.4062V25.7812C53.0938 24.3438 53.2812 22.5781 53.7031 20.5C53.7969 20.0156 53.8906 19.5 53.9219 19.0312C53.9844 18.4531 54.125 17.9688 54.3438 17.5469C54.5312 17.1719 54.9219 16.9688 55.5 16.9688C56.6094 16.9688 57.1875 17.4219 57.1875 18.3125L57.1562 18.5469C56.6406 21.0469 56.3906 22.8594 56.3906 24.0469C56.3906 24.375 56.4219 24.5312 56.5156 24.5312C56.6094 24.5312 56.8125 24.2656 57.0312 23.7969C58.25 21.2031 59.1406 19.375 59.75 18.25C60.0625 17.6406 60.4844 17.3594 61.0312 17.3594C61.375 17.3594 61.7344 17.4531 62.0156 17.6094C62.4688 17.8438 62.6875 18.1562 62.6875 18.5156C62.6875 18.8594 61.8906 20.6875 60.2656 23.9844C58.5312 27.4375 57.5156 29.3281 57.1875 29.6406C56.875 30 56.4844 30.1562 56.0312 30.1562ZM64.5406 24.4375C65.0875 24.0469 65.6344 23.375 66.1344 22.4219C66.9 21.0156 67.2906 20.1406 67.2906 19.7969C67.2906 19.625 67.1969 19.5312 66.9781 19.5312C66.8063 19.5312 66.7125 19.5938 66.6188 19.7031C65.025 22.4219 64.2125 23.8906 64.2125 24.1094C64.2125 24.2656 64.3219 24.4062 64.5406 24.4375ZM65.7594 31.1562C62.525 31.1562 60.8844 29.6406 60.8844 26.6406C60.8844 26.3594 60.9625 25.75 61.0875 24.75C61.1813 23.7656 61.6344 22.4844 62.4313 20.9062C63.8688 18.0938 65.3688 16.6875 67.0094 16.6875C68.3219 16.6875 69.3375 17.3594 70.0094 18.6719C70.2281 19.0938 70.3375 19.5 70.3375 19.9531C70.3375 20.5 70.1656 21.0781 69.8531 21.6875C68.025 24.4062 66.3063 26.125 64.6656 26.8906C64.0875 27.1875 63.8063 27.4688 63.8063 27.7656C63.8063 27.8906 63.8375 28.0156 63.8688 28.1406C64.0563 28.8125 64.4469 29.1719 65.025 29.1719C65.8844 29.1719 67.0094 28.6562 68.4469 27.5938C69.3688 26.9219 70.0406 26.3906 70.4625 26.0312C70.9781 25.5156 71.3844 25.2656 71.6813 25.2656C71.8375 25.2656 71.9625 25.3281 72.1188 25.4219C72.3531 25.6406 72.4781 25.9062 72.4781 26.2188C72.4781 26.5781 72.2438 27.0625 71.8375 27.7344C71.3844 28.4062 70.6813 29.1094 69.6969 29.8438C68.6969 30.5781 67.8063 30.9844 67.0094 31.0938C66.5563 31.125 66.1344 31.1562 65.7594 31.1562ZM81.0281 31.2188C79.6531 31.2188 78.4969 30.5469 77.6062 29.2344C77.2312 28.6875 77.0281 27.9531 77.0281 27.0938C77.0281 25.4219 77.6062 23.3125 78.7312 20.7812C79.4031 19.2188 80.075 18.0625 80.7156 17.2656C81.1844 16.6562 81.825 16.375 82.6375 16.375C84.1687 16.375 84.9344 16.8438 84.9344 17.8125C84.9344 18 84.8719 18.125 84.7781 18.2188C84.6531 18.3125 84.325 18.4531 83.7781 18.6094C83.075 18.8281 82.4656 19.4062 81.9969 20.4062C80.8406 22.7344 80.2625 25.2031 80.2625 27.7656C80.2625 28.4375 80.4812 28.9062 80.9656 29.2031C81.1219 29.2969 81.2625 29.3281 81.3875 29.3281C81.8562 29.3281 82.8562 28.5 84.3562 26.8281C84.5594 26.6094 84.8094 26.5156 85.0906 26.5156H85.5125C85.7312 26.5156 85.8562 26.6406 85.8562 26.8906C85.7312 27.8906 85.3875 28.7812 84.8094 29.5469C83.95 30.6719 82.7 31.2188 81.0281 31.2188ZM96.7406 32.2344H96.5062C94.4906 32.2344 93.5062 30.0938 93.5062 25.7812V21.4219C93.5062 21.1094 93.4437 20.9375 93.3031 20.9375C93.2094 20.9375 93.0531 21.1094 92.8344 21.4219C91.0687 24.2344 89.8187 27.2812 89.0844 30.5469C88.9281 31.375 88.475 31.8281 87.7719 31.8594C86.3656 31.8594 85.6625 31.3125 85.6625 30.2188L85.6937 29.7812C86.1469 27.125 86.5531 24.4688 86.975 21.8125C87.3969 19.1562 87.5844 17.7812 87.6156 17.6875C87.9594 14.5469 88.4125 11.4375 88.9594 8.34375C89.1469 7.15625 89.6312 6.54688 90.3656 6.54688C91.6156 6.57812 92.225 7.09375 92.225 8.14062C92.225 8.4375 92.1937 8.6875 92.1312 8.9375C91.8969 9.60938 91.5531 11.5312 91.0687 14.6406C90.725 16.9062 90.5219 18.4844 90.5219 19.3125C90.5219 19.625 90.5531 19.8281 90.5844 19.8594C90.6469 19.8594 90.9125 19.5625 91.3656 19.0312C92.3187 17.7812 93.3031 17.1719 94.3656 17.1719C96.1 17.1719 96.9594 18 96.9594 19.625C96.9594 19.8906 96.9281 20.1719 96.8969 20.4688C96.7094 21.875 96.6 23.25 96.6 24.625C96.6 27.3125 96.8969 29.3281 97.5062 30.6719C97.5375 30.7656 97.6 30.8594 97.6625 30.9531C97.7562 31.1562 97.8187 31.3438 97.85 31.5312C97.85 31.6562 97.8187 31.7656 97.725 31.8594C97.5062 32.0781 97.1469 32.2031 96.7406 32.2344ZM107.188 30.1562C107.031 30.1562 106.875 30.125 106.734 30.0938C105.047 29.5469 104.219 28.2969 104.219 26.3125C104.219 25.6094 104.156 25.2656 103.984 25.2656C103.953 25.2656 103.438 25.9062 102.422 27.2188C101.844 27.9531 101.297 28.625 100.75 29.2344C100.219 29.8438 99.6719 30.1562 99.125 30.1562C98.7031 30.1562 98.2969 30.0312 97.875 29.8125C97.0156 29.3281 96.5625 28.5625 96.5625 27.5625C96.5625 27.3125 96.5938 27.0625 96.6562 26.7656C97.2031 24.1094 98.4844 21.4219 100.5 18.7656C101.328 17.6875 102.203 17.1406 103.094 17.1406C103.641 17.1406 104.156 17.2969 104.594 17.6406C105.047 18 105.266 18.3125 105.266 18.5781C105.266 18.8281 105.234 19.0312 105.141 19.1875C104.922 19.625 104.656 19.8594 104.375 19.8594C104.078 19.8594 103.828 19.7969 103.672 19.7031C103.516 19.5938 103.344 19.5312 103.219 19.5C103.094 19.5 102.938 19.6562 102.703 19.9531C101.781 21.2031 100.891 23.0625 99.9531 25.5156C99.8281 25.8438 99.7656 26.0625 99.7656 26.1875C99.7656 26.2812 99.7969 26.3594 99.8594 26.3594C100.188 26.3594 101.109 25.3906 102.609 23.5C104.531 21.1094 105.719 19.8281 106.141 19.7031C106.359 19.625 106.578 19.5938 106.734 19.5938C106.906 19.5938 107.062 19.625 107.156 19.6562C107.766 19.9844 108.047 20.5938 108.047 21.4844C108.047 21.875 107.984 22.25 107.891 22.6719C107.516 24.2344 107.312 25.5781 107.312 26.7656C107.312 27.625 107.516 28.5 107.859 29.2969C107.953 29.4531 107.984 29.6094 107.984 29.7188C107.984 30 107.734 30.1562 107.188 30.1562ZM111.947 32.9375C110.322 32.9375 109.291 32.1719 108.822 30.6094C108.525 29.6875 108.369 28.5312 108.369 27.1875C108.369 24.9062 108.822 22.0625 109.744 18.6094L112.431 8.29688C112.65 7.5 113.072 7.09375 113.744 7.09375C113.931 7.09375 114.166 7.125 114.384 7.21875C114.9 7.40625 115.15 7.76562 115.15 8.26562C115.15 8.5 115.119 8.78125 115.025 9.10938C112.525 18.6719 111.275 25.1406 111.275 28.5625C111.275 30.1562 111.572 30.9531 112.15 30.9531C112.884 30.9531 114.447 29.8438 116.853 27.5938C116.884 27.5938 116.884 27.5938 116.884 27.5625C117.103 27.3438 117.353 27.25 117.619 27.2188C117.775 27.2188 117.9 27.2812 118.072 27.4062C118.228 27.5312 118.291 27.7031 118.291 27.8906C118.291 28.1094 118.228 28.3438 118.072 28.5938C116.369 31.5 114.322 32.9375 111.947 32.9375ZM120.191 32.9375C118.566 32.9375 117.534 32.1719 117.066 30.6094C116.769 29.6875 116.613 28.5312 116.613 27.1875C116.613 24.9062 117.066 22.0625 117.988 18.6094L120.675 8.29688C120.894 7.5 121.316 7.09375 121.988 7.09375C122.175 7.09375 122.409 7.125 122.628 7.21875C123.144 7.40625 123.394 7.76562 123.394 8.26562C123.394 8.5 123.363 8.78125 123.269 9.10938C120.769 18.6719 119.519 25.1406 119.519 28.5625C119.519 30.1562 119.816 30.9531 120.394 30.9531C121.128 30.9531 122.691 29.8438 125.097 27.5938C125.128 27.5938 125.128 27.5938 125.128 27.5625C125.347 27.3438 125.597 27.25 125.863 27.2188C126.019 27.2188 126.144 27.2812 126.316 27.4062C126.472 27.5312 126.534 27.7031 126.534 27.8906C126.534 28.1094 126.472 28.3438 126.316 28.5938C124.613 31.5 122.566 32.9375 120.191 32.9375ZM128.122 24.4375C128.669 24.0469 129.216 23.375 129.716 22.4219C130.481 21.0156 130.872 20.1406 130.872 19.7969C130.872 19.625 130.778 19.5312 130.559 19.5312C130.387 19.5312 130.294 19.5938 130.2 19.7031C128.606 22.4219 127.794 23.8906 127.794 24.1094C127.794 24.2656 127.903 24.4062 128.122 24.4375ZM129.341 31.1562C126.106 31.1562 124.466 29.6406 124.466 26.6406C124.466 26.3594 124.544 25.75 124.669 24.75C124.762 23.7656 125.216 22.4844 126.012 20.9062C127.45 18.0938 128.95 16.6875 130.591 16.6875C131.903 16.6875 132.919 17.3594 133.591 18.6719C133.809 19.0938 133.919 19.5 133.919 19.9531C133.919 20.5 133.747 21.0781 133.434 21.6875C131.606 24.4062 129.887 26.125 128.247 26.8906C127.669 27.1875 127.387 27.4688 127.387 27.7656C127.387 27.8906 127.419 28.0156 127.45 28.1406C127.637 28.8125 128.028 29.1719 128.606 29.1719C129.466 29.1719 130.591 28.6562 132.028 27.5938C132.95 26.9219 133.622 26.3906 134.044 26.0312C134.559 25.5156 134.966 25.2656 135.262 25.2656C135.419 25.2656 135.544 25.3281 135.7 25.4219C135.934 25.6406 136.059 25.9062 136.059 26.2188C136.059 26.5781 135.825 27.0625 135.419 27.7344C134.966 28.4062 134.262 29.1094 133.278 29.8438C132.278 30.5781 131.387 30.9844 130.591 31.0938C130.137 31.125 129.716 31.1562 129.341 31.1562ZM137.006 30.8281C136.725 30.8281 136.428 30.7656 136.147 30.6406C134.991 30.1562 134.413 29.4531 134.381 28.5C134.381 28.2031 134.413 27.9844 134.444 27.7969C135.053 25.0781 135.663 22.3906 136.241 19.7031C136.397 18.8594 136.788 18.4531 137.319 18.4219C137.491 18.4219 137.647 18.4531 137.866 18.5156C138.741 18.7969 139.178 19.25 139.209 19.8906C139.209 20.0781 139.147 20.375 139.053 20.7188C138.6 22.125 138.381 23.125 138.381 23.7031C138.381 23.9219 138.413 24.0469 138.506 24.0469C138.6 24.0469 138.834 23.8281 139.116 23.4062C140.522 21.4219 141.803 19.7344 142.991 18.2812C143.6 17.5469 144.178 17.1719 144.788 17.1406C145.1 17.1406 145.428 17.2344 145.709 17.3906C146.413 17.8125 146.772 18.4531 146.803 19.375C146.803 19.5938 146.772 19.8594 146.694 20.1406C145.709 24.1719 145.225 26.7969 145.225 27.9844C145.225 29.0781 145.288 29.6875 145.459 29.8438C145.491 29.9688 145.522 30.0938 145.522 30.1875C145.522 30.3594 145.428 30.4844 145.256 30.5781C145.1 30.7031 144.913 30.7656 144.725 30.7656C144.303 30.7656 143.881 30.6094 143.506 30.25C142.694 29.5781 142.256 28.625 142.225 27.4375C142.225 25.8125 142.256 24.8125 142.288 24.4062C142.319 24.0156 142.35 23.7344 142.35 23.5625C142.35 23.4375 142.319 23.375 142.288 23.375C142.194 23.375 141.006 25.3906 138.772 29.3906C138.225 30.3594 137.647 30.8281 137.006 30.8281ZM150.469 42.9531C149.125 42.9531 147.812 42.3125 146.578 41.0781C146.125 40.5938 145.906 40.0781 145.906 39.5C145.906 38.7969 146.219 38.4531 146.828 38.4531C147.172 38.4531 147.438 38.6719 147.562 39.0938C147.984 40.5 148.875 41.2031 150.188 41.2031C150.672 41.2031 151.047 41.0469 151.344 40.6875C151.625 40.375 151.875 39.9531 152.141 39.4375C153.266 37.2969 154.031 35.125 154.438 32.9062C154.984 30.0312 155.25 27.5 155.25 25.3281C155.25 25.1094 155.141 24.9688 154.984 24.9688C154.922 24.9688 154.828 25.0156 154.672 25.0781C154.5 25.1719 153.125 26.7344 150.469 29.7812C149.766 30.5781 149 30.9844 148.203 30.9844C147.656 30.9844 147.109 30.7969 146.5 30.4531C145.609 29.9062 145.156 29.1719 145.156 28.2656C145.156 27.8594 145.266 27.4062 145.453 26.9219C146.891 22.9844 149.031 19.5312 151.875 16.5C152.562 15.7656 153.266 15.4062 154.031 15.4062C154.125 15.4062 154.375 15.4375 154.859 15.4688C155.312 15.5 155.812 15.9531 156.359 16.8125C156.562 17.1094 156.656 17.3281 156.656 17.5156C156.656 17.75 156.562 17.9375 156.328 18.0938C156.109 18.25 155.922 18.3594 155.719 18.3594C155.5 18.3594 155.312 18.2188 155.109 17.9688C154.922 17.75 154.766 17.6094 154.609 17.6094C154.438 17.6094 154.219 17.7812 153.969 18.0625C152.969 19.1875 151.844 20.7188 150.578 22.7344C149.297 24.75 148.562 26.4844 148.359 27.8906C148.906 27.5312 149.672 26.7969 150.672 25.75C151.656 24.6875 152.594 23.5625 153.453 22.4219C154.312 21.2656 154.891 20.4062 155.141 19.7969C155.312 19.4688 155.562 19.3125 155.984 19.3125C156.906 19.3125 157.547 19.7344 157.859 20.5938C158.094 21.1719 158.219 22.3594 158.219 24.1094C158.219 30.3906 157.094 35.6562 154.859 39.9219C153.766 41.9375 152.297 42.9531 150.469 42.9531ZM161.603 24.4375C162.15 24.0469 162.697 23.375 163.197 22.4219C163.962 21.0156 164.353 20.1406 164.353 19.7969C164.353 19.625 164.259 19.5312 164.041 19.5312C163.869 19.5312 163.775 19.5938 163.681 19.7031C162.087 22.4219 161.275 23.8906 161.275 24.1094C161.275 24.2656 161.384 24.4062 161.603 24.4375ZM162.822 31.1562C159.587 31.1562 157.947 29.6406 157.947 26.6406C157.947 26.3594 158.025 25.75 158.15 24.75C158.244 23.7656 158.697 22.4844 159.494 20.9062C160.931 18.0938 162.431 16.6875 164.072 16.6875C165.384 16.6875 166.4 17.3594 167.072 18.6719C167.291 19.0938 167.4 19.5 167.4 19.9531C167.4 20.5 167.228 21.0781 166.916 21.6875C165.087 24.4062 163.369 26.125 161.728 26.8906C161.15 27.1875 160.869 27.4688 160.869 27.7656C160.869 27.8906 160.9 28.0156 160.931 28.1406C161.119 28.8125 161.509 29.1719 162.087 29.1719C162.947 29.1719 164.072 28.6562 165.509 27.5938C166.431 26.9219 167.103 26.3906 167.525 26.0312C168.041 25.5156 168.447 25.2656 168.744 25.2656C168.9 25.2656 169.025 25.3281 169.181 25.4219C169.416 25.6406 169.541 25.9062 169.541 26.2188C169.541 26.5781 169.306 27.0625 168.9 27.7344C168.447 28.4062 167.744 29.1094 166.759 29.8438C165.759 30.5781 164.869 30.9844 164.072 31.0938C163.619 31.125 163.197 31.1562 162.822 31.1562ZM170.706 30.8906C169.909 30.8906 169.488 30.6406 169.488 30.0938C169.488 29.8125 169.878 29.2969 170.675 28.5312C171.738 27.5 172.284 26.7031 172.284 26.1562C172.284 26.0625 172.222 25.875 172.113 25.6406C172.019 25.4219 171.441 25.2031 170.425 25.0469C168.722 24.7812 167.863 23.8281 167.863 22.1562C167.863 21.3594 168.113 20.1406 168.628 18.5156C169.488 15.6562 170.581 14.25 171.894 14.25C172.081 14.25 172.284 14.2812 172.472 14.3594C173.331 14.6406 173.784 14.9531 173.784 15.3125C173.784 15.625 173.628 15.9844 173.3 16.4062C171.706 18.3906 170.909 20.4062 170.909 22.4844C170.941 23.2188 171.472 23.625 172.534 23.7656C174.55 23.9844 175.581 24.5938 175.613 25.5781V26.4844C175.613 27.0312 175.097 27.8281 174.066 28.875C172.894 30.0625 171.769 30.7344 170.706 30.8906ZM175.716 34.6094C175.294 34.6094 175.075 34.4219 175.075 34.0312C175.075 33.7812 175.294 33.2344 175.716 32.4375C176.419 31.125 176.778 30 176.778 29.1094C176.778 28.7188 176.747 28.3438 176.637 27.9219V27.5312C176.637 27.25 176.809 27.0938 177.153 27.0625C177.387 27.0625 177.575 27.0938 177.762 27.1562C179.012 27.5625 179.622 28.375 179.622 29.5469C179.622 30.6094 179.294 31.5938 178.622 32.5938C177.7 33.9375 176.747 34.6094 175.716 34.6094ZM192.5 34.7344H191.422C190.234 34.7344 189.656 34.4219 189.656 33.75C189.656 33.7188 189.656 33.5781 189.688 33.3906C189.688 33.2031 189.781 33.1094 190.016 33.0781C190.203 33.0781 190.391 33.0781 190.547 33.1094C190.719 33.1406 190.875 33.1719 191.031 33.1719C191.125 33.1719 191.25 33.1719 191.484 33.1406C191.672 33.1406 191.891 32.9688 192.125 32.6875C194.359 29.9062 195.609 26.7344 195.828 23.1875C195.828 22.4531 195.703 22.0625 195.422 22.0625C195.062 22.0625 194.75 22.1562 194.453 22.3594C191.453 24.2969 189.844 26.8594 189.688 30.0312C189.625 31.2188 189.141 31.8281 188.219 31.8281C187.422 31.8281 187 30.8281 187 28.8125C187 28.5312 187.031 27.6562 187.125 26.1875C187.188 24.75 187.578 22 188.312 18C188.703 15.8594 189.047 13.6875 189.344 11.5C189.469 10.5469 189.875 10.0625 190.609 10.0625C191.797 10.0625 192.438 10.5156 192.5 11.4375V12.0781C191.453 17.6094 190.938 20.75 190.938 21.4844C190.938 21.875 191 22.0625 191.094 22.0625C191.25 22.0625 191.578 21.9375 192.031 21.6406C193.344 20.8125 194.453 20.4062 195.391 20.4062C197.531 20.4062 198.609 21.4844 198.609 23.625C198.609 27.375 197.234 30.7656 194.453 33.75C193.875 34.3594 193.234 34.7031 192.5 34.7344ZM200.166 30.9531C199.556 30.9531 199.009 30.7656 198.572 30.3594C198.337 30.125 198.212 29.8125 198.212 29.3906C198.697 25.0469 199.166 21.4531 199.619 18.6094C199.712 18 200.041 17.7188 200.587 17.7188C201.9 17.7188 202.525 18.2812 202.525 19.4688C202.525 19.7031 202.462 19.9844 202.369 20.3438C202.244 20.7812 202.181 21.2031 202.181 21.5469C202.181 21.875 202.212 22.0312 202.306 22.0312C202.369 22.0312 202.431 21.9375 202.525 21.7812C203.009 20.75 203.869 19.9531 205.15 19.4062C205.572 19.2188 205.962 19.125 206.369 19.125C206.728 19.125 207.041 19.3125 207.275 19.7031C207.4 19.8906 207.462 20.0469 207.462 20.2031C207.462 20.4688 207.197 20.7188 206.728 20.9375C206.603 21.0156 206.494 21.0781 206.4 21.1406C203.869 23.0938 202.212 25.8438 201.416 29.4531C201.181 30.4531 200.775 30.9531 200.166 30.9531ZM208.878 24.4375C209.425 24.0469 209.972 23.375 210.472 22.4219C211.238 21.0156 211.628 20.1406 211.628 19.7969C211.628 19.625 211.534 19.5312 211.316 19.5312C211.144 19.5312 211.05 19.5938 210.956 19.7031C209.363 22.4219 208.55 23.8906 208.55 24.1094C208.55 24.2656 208.659 24.4062 208.878 24.4375ZM210.097 31.1562C206.863 31.1562 205.222 29.6406 205.222 26.6406C205.222 26.3594 205.3 25.75 205.425 24.75C205.519 23.7656 205.972 22.4844 206.769 20.9062C208.206 18.0938 209.706 16.6875 211.347 16.6875C212.659 16.6875 213.675 17.3594 214.347 18.6719C214.566 19.0938 214.675 19.5 214.675 19.9531C214.675 20.5 214.503 21.0781 214.191 21.6875C212.363 24.4062 210.644 26.125 209.003 26.8906C208.425 27.1875 208.144 27.4688 208.144 27.7656C208.144 27.8906 208.175 28.0156 208.206 28.1406C208.394 28.8125 208.784 29.1719 209.363 29.1719C210.222 29.1719 211.347 28.6562 212.784 27.5938C213.706 26.9219 214.378 26.3906 214.8 26.0312C215.316 25.5156 215.722 25.2656 216.019 25.2656C216.175 25.2656 216.3 25.3281 216.456 25.4219C216.691 25.6406 216.816 25.9062 216.816 26.2188C216.816 26.5781 216.581 27.0625 216.175 27.7344C215.722 28.4062 215.019 29.1094 214.034 29.8438C213.034 30.5781 212.144 30.9844 211.347 31.0938C210.894 31.125 210.472 31.1562 210.097 31.1562ZM224.544 30.1562C224.387 30.1562 224.231 30.125 224.091 30.0938C222.403 29.5469 221.575 28.2969 221.575 26.3125C221.575 25.6094 221.512 25.2656 221.341 25.2656C221.309 25.2656 220.794 25.9062 219.778 27.2188C219.2 27.9531 218.653 28.625 218.106 29.2344C217.575 29.8438 217.028 30.1562 216.481 30.1562C216.059 30.1562 215.653 30.0312 215.231 29.8125C214.372 29.3281 213.919 28.5625 213.919 27.5625C213.919 27.3125 213.95 27.0625 214.012 26.7656C214.559 24.1094 215.841 21.4219 217.856 18.7656C218.684 17.6875 219.559 17.1406 220.45 17.1406C220.997 17.1406 221.512 17.2969 221.95 17.6406C222.403 18 222.622 18.3125 222.622 18.5781C222.622 18.8281 222.591 19.0312 222.497 19.1875C222.278 19.625 222.012 19.8594 221.731 19.8594C221.434 19.8594 221.184 19.7969 221.028 19.7031C220.872 19.5938 220.7 19.5312 220.575 19.5C220.45 19.5 220.294 19.6562 220.059 19.9531C219.137 21.2031 218.247 23.0625 217.309 25.5156C217.184 25.8438 217.122 26.0625 217.122 26.1875C217.122 26.2812 217.153 26.3594 217.216 26.3594C217.544 26.3594 218.466 25.3906 219.966 23.5C221.887 21.1094 223.075 19.8281 223.497 19.7031C223.716 19.625 223.934 19.5938 224.091 19.5938C224.262 19.5938 224.419 19.625 224.512 19.6562C225.122 19.9844 225.403 20.5938 225.403 21.4844C225.403 21.875 225.341 22.25 225.247 22.6719C224.872 24.2344 224.669 25.5781 224.669 26.7656C224.669 27.625 224.872 28.5 225.216 29.2969C225.309 29.4531 225.341 29.6094 225.341 29.7188C225.341 30 225.091 30.1562 224.544 30.1562ZM227.194 36.5H227.069C226.303 36.4062 225.85 35.625 225.756 34.2188C225.725 33.875 225.725 33.4844 225.725 33.0781C225.725 30.3906 226.303 26.1562 227.491 20.4375C227.772 18.9844 227.991 17.875 228.163 17.0469C228.319 16.2031 228.475 15.375 228.6 14.5469C228.772 13.5781 229.116 13.1094 229.663 13.1094C231.006 13.1094 231.678 13.6406 231.678 14.7344C231.678 15.0938 231.584 15.625 231.35 16.4062C230.913 18.0312 230.678 19.1562 230.678 19.7344C230.678 20.0156 230.756 20.1406 230.881 20.1406C231.1 20.1406 231.491 19.8281 232.022 19.2188C233.053 18.0938 234.038 17.5469 235.038 17.5469C235.381 17.5469 235.709 17.5781 235.959 17.6875C236.506 17.875 236.772 18.0938 236.803 18.3594C236.803 18.6406 236.6 18.9219 236.194 19.2188C234.006 20.8438 232.069 23.4062 230.334 26.8906C230.178 27.25 230.084 27.5625 230.084 27.8594C230.084 28.4688 230.459 28.9375 231.256 29.2656C232.475 29.75 233.694 30.2812 234.913 30.8281C235.225 30.9844 235.381 31.1875 235.428 31.4375C235.428 31.8594 235.225 32.0781 234.819 32.0781C234.584 32.0781 234.272 32.0156 233.881 31.8906C232.444 31.4375 231.225 30.9844 230.178 30.5469C229.975 30.4531 229.788 30.4219 229.631 30.4219C229.413 30.4531 229.178 30.5469 229.022 30.7344C228.741 31.0938 228.538 31.9844 228.444 33.4219C228.35 34.8594 228.256 35.7344 228.131 36.0156C227.991 36.2969 227.678 36.4688 227.194 36.5ZM243.422 31.5312C242.047 31.5312 241.344 30.9531 241.312 29.8125C241.312 29.4531 241.953 24.4375 243.234 14.7656C243.234 14.5469 243.156 14.4219 243.031 14.4219C242.969 14.4219 242.234 14.5469 240.859 14.7969C240.672 14.8281 240.531 14.9844 240.438 15.2188L239.797 17.75C239.062 20.75 238.719 23.3125 238.719 25.3906C238.719 27.0625 238.969 28.6875 239.453 30.2812C239.484 30.4219 239.516 30.5469 239.516 30.7031C239.516 31.25 239.156 31.5 238.422 31.5C238.109 31.5 237.812 31.375 237.531 31.1562C236.609 30.4219 236.062 29.5781 235.906 28.5938C235.797 28.0469 235.766 27.3438 235.766 26.4531C235.766 22.8594 236.156 19.5625 236.953 16.5312C236.984 16.3438 237.016 16.1719 237.016 16.0781C237.016 15.8906 236.953 15.7969 236.828 15.7969C236.641 15.7969 236.406 15.8281 236.156 15.9219C234.047 16.5 232.703 16.7812 232.156 16.7812C231.125 16.7812 230.562 16.1719 230.422 14.9531C230.422 14.5469 230.656 14.2188 231.094 14C231.547 13.8125 232.188 13.6406 233.047 13.5156C233.922 13.4219 234.781 13.2031 235.703 12.9062C236.609 12.625 237.312 12.3438 237.781 12.0781C238.266 11.8281 238.625 10.3906 238.906 7.73438C239 6.79688 239.422 6.28125 240.219 6.21875C240.375 6.21875 240.578 6.25 240.797 6.3125C241.562 6.51562 241.953 6.98438 241.953 7.73438C241.953 8.34375 241.891 8.9375 241.781 9.48438C241.594 10.4531 241.5 10.9531 241.5 11.0625C241.5 11.3125 241.625 11.4375 241.922 11.4375C243.062 11.2812 243.672 11.1562 243.766 11.0625C243.859 10.9531 244.531 7.70312 245.75 1.32812C245.891 0.59375 246.266 0.234375 246.938 0.234375L247.234 0.265625C247.969 0.296875 248.344 0.71875 248.344 1.48438C248.344 2.35938 247.938 5.07812 247.062 9.64062L246.906 10.4219C246.906 10.5781 246.969 10.6406 247.094 10.6406L247.188 10.6094C251.703 9.9375 254.484 9.57812 255.516 9.57812C256 9.57812 256.469 9.60938 256.953 9.64062C258.203 9.8125 258.875 10.5156 258.906 11.7656C258.906 12.2969 258.688 12.5625 258.234 12.5938C258.047 12.5938 257.891 12.5625 257.719 12.5312C257.016 12.2969 256.281 12.2031 255.484 12.2031C254.875 12.2031 251.906 12.7188 246.516 13.7188C246.422 13.75 246.359 13.7812 246.266 13.875C246.172 13.9688 246.078 14.3594 246.016 14.9531C245.438 18.6406 245.141 20.6875 245.141 21.0469C245.141 21.2656 245.172 21.3594 245.281 21.3594C245.375 21.3594 245.562 21.1406 245.781 20.6875C246.688 19.0938 247.734 17.6094 248.953 16.2969C249.438 15.7969 249.953 15.5312 250.516 15.5C250.812 15.5 251.125 15.5625 251.422 15.7344C252.094 16.0781 252.438 16.5938 252.469 17.2969L252.438 18C251.938 22.3125 251.672 25.2344 251.672 26.7344C251.672 27.6562 252 28.4688 252.672 29.1719C253.016 29.5156 253.172 29.8125 253.219 30.0625C253.219 30.25 253.109 30.4844 252.891 30.7344C252.5 31.1875 252.062 31.4062 251.516 31.4375C251.188 31.4375 250.875 31.3438 250.562 31.1875C249.531 30.6406 248.984 29.8125 248.922 28.6562C248.828 27.5312 248.797 26.2812 248.797 24.9062C248.797 24.1719 248.828 23.4062 248.859 22.6719C248.922 21.75 248.953 21.2031 248.953 21.0156C248.922 20.6562 248.891 20.5 248.797 20.5C248.406 20.5 247.641 22.0312 246.516 25.1406C245.625 27.5938 245.141 29.1719 245.078 29.7812C244.953 30.9219 244.406 31.5 243.422 31.5312ZM255.697 30.9531C255.087 30.9531 254.541 30.7656 254.103 30.3594C253.869 30.125 253.744 29.8125 253.744 29.3906C254.228 25.0469 254.697 21.4531 255.15 18.6094C255.244 18 255.572 17.7188 256.119 17.7188C257.431 17.7188 258.056 18.2812 258.056 19.4688C258.056 19.7031 257.994 19.9844 257.9 20.3438C257.775 20.7812 257.712 21.2031 257.712 21.5469C257.712 21.875 257.744 22.0312 257.837 22.0312C257.9 22.0312 257.962 21.9375 258.056 21.7812C258.541 20.75 259.4 19.9531 260.681 19.4062C261.103 19.2188 261.494 19.125 261.9 19.125C262.259 19.125 262.572 19.3125 262.806 19.7031C262.931 19.8906 262.994 20.0469 262.994 20.2031C262.994 20.4688 262.728 20.7188 262.259 20.9375C262.134 21.0156 262.025 21.0781 261.931 21.1406C259.4 23.0938 257.744 25.8438 256.947 29.4531C256.712 30.4531 256.306 30.9531 255.697 30.9531ZM264.191 28.2969C264.862 27.9531 265.425 27.25 265.909 26.25C266.519 24.9375 266.847 23.625 266.847 22.3125C266.847 21.5156 266.675 20.8438 266.394 20.2656C265.941 20.6562 265.534 21.3594 265.112 22.4219C264.409 24.2344 264.05 25.875 264.05 27.2812C264.05 27.7031 264.081 28.0156 264.191 28.2969ZM264.691 31.0312C264.222 31.0312 263.675 30.8594 263.034 30.5156C262.362 30.1562 261.847 29.5156 261.456 28.5625C261.237 28.0156 261.144 27.4375 261.144 26.7656C261.144 25.75 261.394 24.375 261.941 22.6406C262.487 20.9062 263.097 19.4375 263.8 18.1875C264.222 17.4531 264.784 17.0781 265.534 17.0781C266.706 17.0781 267.409 17.6094 267.581 18.6719C267.612 18.8281 267.737 19.0625 268.019 19.3438C268.925 20.2031 269.362 21.4531 269.362 23.125C269.362 23.2188 269.362 23.6562 269.331 24.4688C269.3 25.2969 268.956 26.4219 268.316 27.8594C267.675 29.2969 266.847 30.25 265.784 30.7656C265.425 30.9219 265.05 31.0312 264.691 31.0312ZM279.028 31.7969H278.575C277.966 31.7969 277.481 31.6562 277.169 31.4375C276.622 31.0312 276.309 30.1875 276.278 28.875C276.231 28.5312 276.2 28.2656 276.106 28.1094C275.309 29.0156 274.856 29.5469 274.7 29.75C274.091 30.4531 273.356 30.8281 272.559 30.8594L271.856 30.8906C271.372 30.8906 270.825 30.6719 270.216 30.1875C269.575 29.7188 269.263 29.0469 269.263 28.1719C269.263 27.4688 269.388 26.25 269.622 24.5312C269.841 22.7969 270.247 21.2031 270.856 19.7656C271.341 18.5156 271.981 17.875 272.778 17.8438C273.684 18 274.122 18.3906 274.153 19.0312C274.153 19.25 274.122 19.4688 274.091 19.625C273.903 20.2969 273.622 21.4844 273.2 23.1875C272.653 25.3281 272.403 26.7656 272.403 27.4375C272.403 27.7031 272.434 27.8281 272.528 27.8281C272.95 27.7969 273.997 26.4531 275.638 23.7969C277.013 21.5156 277.997 19.8281 278.544 18.6406C278.825 18 279.309 17.6875 279.919 17.6406C280.2 17.6406 280.497 17.7188 280.778 17.8438C281.45 18.0938 281.778 18.5156 281.809 19.0938C281.809 19.375 281.778 19.625 281.684 19.8906C280.231 24.0156 279.528 27.125 279.528 29.2344C279.528 29.7812 279.606 30.1875 279.7 30.4844C279.794 30.7656 279.825 30.9844 279.825 31.2188V31.4688C279.794 31.625 279.528 31.7344 279.028 31.7969ZM285.475 42.9531C284.131 42.9531 282.819 42.3125 281.584 41.0781C281.131 40.5938 280.913 40.0781 280.913 39.5C280.913 38.7969 281.225 38.4531 281.834 38.4531C282.178 38.4531 282.444 38.6719 282.569 39.0938C282.991 40.5 283.881 41.2031 285.194 41.2031C285.678 41.2031 286.053 41.0469 286.35 40.6875C286.631 40.375 286.881 39.9531 287.147 39.4375C288.272 37.2969 289.038 35.125 289.444 32.9062C289.991 30.0312 290.256 27.5 290.256 25.3281C290.256 25.1094 290.147 24.9688 289.991 24.9688C289.928 24.9688 289.834 25.0156 289.678 25.0781C289.506 25.1719 288.131 26.7344 285.475 29.7812C284.772 30.5781 284.006 30.9844 283.209 30.9844C282.663 30.9844 282.116 30.7969 281.506 30.4531C280.616 29.9062 280.163 29.1719 280.163 28.2656C280.163 27.8594 280.272 27.4062 280.459 26.9219C281.897 22.9844 284.038 19.5312 286.881 16.5C287.569 15.7656 288.272 15.4062 289.038 15.4062C289.131 15.4062 289.381 15.4375 289.866 15.4688C290.319 15.5 290.819 15.9531 291.366 16.8125C291.569 17.1094 291.663 17.3281 291.663 17.5156C291.663 17.75 291.569 17.9375 291.334 18.0938C291.116 18.25 290.928 18.3594 290.725 18.3594C290.506 18.3594 290.319 18.2188 290.116 17.9688C289.928 17.75 289.772 17.6094 289.616 17.6094C289.444 17.6094 289.225 17.7812 288.975 18.0625C287.975 19.1875 286.85 20.7188 285.584 22.7344C284.303 24.75 283.569 26.4844 283.366 27.8906C283.913 27.5312 284.678 26.7969 285.678 25.75C286.663 24.6875 287.6 23.5625 288.459 22.4219C289.319 21.2656 289.897 20.4062 290.147 19.7969C290.319 19.4688 290.569 19.3125 290.991 19.3125C291.913 19.3125 292.553 19.7344 292.866 20.5938C293.1 21.1719 293.225 22.3594 293.225 24.1094C293.225 30.3906 292.1 35.6562 289.866 39.9219C288.772 41.9375 287.303 42.9531 285.475 42.9531ZM304.422 32.2344H304.188C302.172 32.2344 301.188 30.0938 301.188 25.7812V21.4219C301.188 21.1094 301.125 20.9375 300.984 20.9375C300.891 20.9375 300.734 21.1094 300.516 21.4219C298.75 24.2344 297.5 27.2812 296.766 30.5469C296.609 31.375 296.156 31.8281 295.453 31.8594C294.047 31.8594 293.344 31.3125 293.344 30.2188L293.375 29.7812C293.828 27.125 294.234 24.4688 294.656 21.8125C295.078 19.1562 295.266 17.7812 295.297 17.6875C295.641 14.5469 296.094 11.4375 296.641 8.34375C296.828 7.15625 297.312 6.54688 298.047 6.54688C299.297 6.57812 299.906 7.09375 299.906 8.14062C299.906 8.4375 299.875 8.6875 299.812 8.9375C299.578 9.60938 299.234 11.5312 298.75 14.6406C298.406 16.9062 298.203 18.4844 298.203 19.3125C298.203 19.625 298.234 19.8281 298.266 19.8594C298.328 19.8594 298.594 19.5625 299.047 19.0312C300 17.7812 300.984 17.1719 302.047 17.1719C303.781 17.1719 304.641 18 304.641 19.625C304.641 19.8906 304.609 20.1719 304.578 20.4688C304.391 21.875 304.281 23.25 304.281 24.625C304.281 27.3125 304.578 29.3281 305.188 30.6719C305.219 30.7656 305.281 30.8594 305.344 30.9531C305.438 31.1562 305.5 31.3438 305.531 31.5312C305.531 31.6562 305.5 31.7656 305.406 31.8594C305.188 32.0781 304.828 32.2031 304.422 32.2344ZM308.306 30.8906C307.509 30.8906 307.087 30.6406 307.087 30.0938C307.087 29.8125 307.478 29.2969 308.275 28.5312C309.337 27.5 309.884 26.7031 309.884 26.1562C309.884 26.0625 309.822 25.875 309.712 25.6406C309.619 25.4219 309.041 25.2031 308.025 25.0469C306.322 24.7812 305.462 23.8281 305.462 22.1562C305.462 21.3594 305.712 20.1406 306.228 18.5156C307.087 15.6562 308.181 14.25 309.494 14.25C309.681 14.25 309.884 14.2812 310.072 14.3594C310.931 14.6406 311.384 14.9531 311.384 15.3125C311.384 15.625 311.228 15.9844 310.9 16.4062C309.306 18.3906 308.509 20.4062 308.509 22.4844C308.541 23.2188 309.072 23.625 310.134 23.7656C312.15 23.9844 313.181 24.5938 313.212 25.5781V26.4844C313.212 27.0312 312.697 27.8281 311.666 28.875C310.494 30.0625 309.369 30.7344 308.306 30.8906ZM328.763 30.1562C328.606 30.1562 328.45 30.125 328.309 30.0938C326.622 29.5469 325.794 28.2969 325.794 26.3125C325.794 25.6094 325.731 25.2656 325.559 25.2656C325.528 25.2656 325.013 25.9062 323.997 27.2188C323.419 27.9531 322.872 28.625 322.325 29.2344C321.794 29.8438 321.247 30.1562 320.7 30.1562C320.278 30.1562 319.872 30.0312 319.45 29.8125C318.591 29.3281 318.138 28.5625 318.138 27.5625C318.138 27.3125 318.169 27.0625 318.231 26.7656C318.778 24.1094 320.059 21.4219 322.075 18.7656C322.903 17.6875 323.778 17.1406 324.669 17.1406C325.216 17.1406 325.731 17.2969 326.169 17.6406C326.622 18 326.841 18.3125 326.841 18.5781C326.841 18.8281 326.809 19.0312 326.716 19.1875C326.497 19.625 326.231 19.8594 325.95 19.8594C325.653 19.8594 325.403 19.7969 325.247 19.7031C325.091 19.5938 324.919 19.5312 324.794 19.5C324.669 19.5 324.513 19.6562 324.278 19.9531C323.356 21.2031 322.466 23.0625 321.528 25.5156C321.403 25.8438 321.341 26.0625 321.341 26.1875C321.341 26.2812 321.372 26.3594 321.434 26.3594C321.763 26.3594 322.684 25.3906 324.184 23.5C326.106 21.1094 327.294 19.8281 327.716 19.7031C327.934 19.625 328.153 19.5938 328.309 19.5938C328.481 19.5938 328.638 19.625 328.731 19.6562C329.341 19.9844 329.622 20.5938 329.622 21.4844C329.622 21.875 329.559 22.25 329.466 22.6719C329.091 24.2344 328.888 25.5781 328.888 26.7656C328.888 27.625 329.091 28.5 329.434 29.2969C329.528 29.4531 329.559 29.6094 329.559 29.7188C329.559 30 329.309 30.1562 328.763 30.1562ZM332.569 30.8281C332.288 30.8281 331.991 30.7656 331.709 30.6406C330.553 30.1562 329.975 29.4531 329.944 28.5C329.944 28.2031 329.975 27.9844 330.006 27.7969C330.616 25.0781 331.225 22.3906 331.803 19.7031C331.959 18.8594 332.35 18.4531 332.881 18.4219C333.053 18.4219 333.209 18.4531 333.428 18.5156C334.303 18.7969 334.741 19.25 334.772 19.8906C334.772 20.0781 334.709 20.375 334.616 20.7188C334.163 22.125 333.944 23.125 333.944 23.7031C333.944 23.9219 333.975 24.0469 334.069 24.0469C334.163 24.0469 334.397 23.8281 334.678 23.4062C336.084 21.4219 337.366 19.7344 338.553 18.2812C339.163 17.5469 339.741 17.1719 340.35 17.1406C340.663 17.1406 340.991 17.2344 341.272 17.3906C341.975 17.8125 342.334 18.4531 342.366 19.375C342.366 19.5938 342.334 19.8594 342.256 20.1406C341.272 24.1719 340.788 26.7969 340.788 27.9844C340.788 29.0781 340.85 29.6875 341.022 29.8438C341.053 29.9688 341.084 30.0938 341.084 30.1875C341.084 30.3594 340.991 30.4844 340.819 30.5781C340.663 30.7031 340.475 30.7656 340.288 30.7656C339.866 30.7656 339.444 30.6094 339.069 30.25C338.256 29.5781 337.819 28.625 337.788 27.4375C337.788 25.8125 337.819 24.8125 337.85 24.4062C337.881 24.0156 337.913 23.7344 337.913 23.5625C337.913 23.4375 337.881 23.375 337.85 23.375C337.756 23.375 336.569 25.3906 334.334 29.3906C333.788 30.3594 333.209 30.8281 332.569 30.8281ZM344.719 29.9375C344.922 29.9375 345.234 29.2031 345.719 27.7656C346.203 26.3125 346.906 24.2969 347.891 21.7188C348.859 19.1562 349.328 17.5781 349.328 17.0156C349.328 16.75 349.266 16.625 349.141 16.625C348.984 16.625 348.75 16.8125 348.406 17.1719C345.75 20.0781 344.438 23.9844 344.438 28.8125V29.5469C344.438 29.8125 344.531 29.9375 344.719 29.9375ZM353.422 39.1875H353.359C352.562 39.1875 351.797 38.1875 351.094 36.2344C350.422 34.3906 350.062 31.8906 350.062 28.7812C350.062 25.0781 350.141 22.7969 350.234 21.9688C350.234 21.8438 350.203 21.7812 350.172 21.7812C350.094 21.7812 349.938 22.125 349.719 22.7969C348.406 26.8281 347.609 29.3281 347.25 30.2812C346.578 32.1719 345.75 33.1094 344.75 33.1094C343.312 33.1094 342.422 32.3438 342.031 30.7969C341.812 29.9375 341.719 28.9688 341.719 27.9219C341.719 23.8594 342.969 19.9844 345.422 16.2344C346.172 15.1562 347.125 14.6094 348.375 14.5781C349.594 14.5781 350.391 14.1562 350.734 13.3594C351.094 12.5625 351.484 11.4688 351.891 10.0938L353.328 5.26562C353.625 4.34375 354 3.85938 354.484 3.82812C354.766 3.82812 355 3.85938 355.188 3.89062C356.047 4.10938 356.5 4.53125 356.531 5.14062C356.531 5.57812 356.344 6.45312 355.984 7.70312C355.125 10.6094 354.422 13.0781 353.938 15.0625C353.078 18.5469 352.625 22.6406 352.625 27.375C352.625 27.5938 352.625 29.0469 352.656 31.625C352.656 34.25 353.203 36.375 354.266 38C354.516 38.1562 354.641 38.3906 354.641 38.6719C354.641 38.9844 354.234 39.1562 353.422 39.1875ZM356.041 31.8281C354.822 31.7969 354.228 31.1562 354.228 29.9062C354.228 28.625 354.791 27.9844 355.916 27.9844C356.462 27.9844 356.947 28.0781 357.353 28.2969C357.681 28.4688 357.837 28.6875 357.837 29.0469C357.806 29.2344 357.744 29.5156 357.712 29.875C357.65 30.3594 357.525 30.7656 357.322 31.1875C357.103 31.5938 356.681 31.8281 356.041 31.8281ZM360.284 31.8281C359.066 31.7969 358.472 31.1562 358.472 29.9062C358.472 28.625 359.034 27.9844 360.159 27.9844C360.706 27.9844 361.191 28.0781 361.597 28.2969C361.925 28.4688 362.081 28.6875 362.081 29.0469C362.05 29.2344 361.987 29.5156 361.956 29.875C361.894 30.3594 361.769 30.7656 361.566 31.1875C361.347 31.5938 360.925 31.8281 360.284 31.8281ZM364.528 31.8281C363.309 31.7969 362.716 31.1562 362.716 29.9062C362.716 28.625 363.278 27.9844 364.403 27.9844C364.95 27.9844 365.434 28.0781 365.841 28.2969C366.169 28.4688 366.325 28.6875 366.325 29.0469C366.294 29.2344 366.231 29.5156 366.2 29.875C366.138 30.3594 366.013 30.7656 365.809 31.1875C365.591 31.5938 365.169 31.8281 364.528 31.8281Z" fill="#2B2B30"/>
</svg>
